<?xml version="1.0" standalone="no"?>
<!DOCTYPE svg PUBLIC "-//W3C//DTD SVG 20010904//EN"
 "http://www.w3.org/TR/2001/REC-SVG-20010904/DTD/svg10.dtd">
<svg version="1.0" xmlns="http://www.w3.org/2000/svg"
 width="600.000000pt" height="362.000000pt" viewBox="0 0 600.000000 362.000000"
 preserveAspectRatio="xMidYMid meet">

<g transform="translate(0.000000,362.000000) scale(0.100000,-0.100000)"
fill="#000000" stroke="none">
<path d="M4753 3323 c-536 -726 -1013 -1375 -1013 -1381 0 -4 249 -421 554
-927 l553 -920 568 -3 c517 -2 567 -1 561 14 -3 9 -278 423 -611 920 -333 497
-606 908 -607 912 -2 5 249 329 557 722 308 392 564 719 568 727 7 11 -82 13
-532 13 l-540 0 -58 -77z"/>
<path d="M1304 1763 c-702 -896 -1284 -1636 -1292 -1645 -14 -17 14 -18 569
-18 l584 0 760 964 c418 530 762 962 764 960 2 -2 0 -127 -4 -279 l-7 -275
-118 0 -117 0 -269 -362 c-148 -199 -270 -365 -272 -370 -2 -4 172 -8 387 -8
l391 0 0 -315 0 -315 505 0 505 0 0 1645 0 1645 -554 0 -555 0 -1277 -1627z"/>
</g>
</svg>
