<?xml version="1.0" standalone="no"?>
<!DOCTYPE svg PUBLIC "-//W3C//DTD SVG 20010904//EN"
 "http://www.w3.org/TR/2001/REC-SVG-20010904/DTD/svg10.dtd">
<svg version="1.0" xmlns="http://www.w3.org/2000/svg"
 width="900.000000pt" height="600.000000pt" viewBox="0 0 900.000000 600.000000"
 preserveAspectRatio="xMidYMid meet">

<g transform="translate(0.000000,600.000000) scale(0.100000,-0.100000)"
fill="#000000" stroke="none">
<path d="M0 4261 l0 -1738 52 -6 c28 -4 56 -3 62 2 24 20 179 22 279 4 95 -16
100 -16 134 2 76 42 235 273 217 319 -3 9 -1 16 5 16 6 0 8 7 4 16 -3 9 -6 25
-7 37 -1 16 -7 21 -24 20 -14 -2 -22 3 -22 12 0 10 -10 15 -30 15 -23 0 -30 4
-30 20 0 13 -10 24 -25 30 -16 6 -23 14 -19 25 3 8 10 15 16 15 5 0 6 -4 3
-10 -3 -5 3 -10 14 -10 22 0 90 -40 91 -54 0 -17 35 -35 68 -36 42 0 56 31 55
117 -1 52 2 62 18 66 22 6 25 -1 5 -17 -9 -7 -11 -18 -7 -30 6 -17 9 -16 26
10 10 16 42 54 71 84 74 77 174 214 174 238 0 7 20 34 45 60 25 26 45 52 45
59 0 16 -58 53 -82 53 -11 0 -18 -8 -18 -19 0 -10 -7 -21 -15 -25 -8 -3 -15
-12 -15 -21 0 -8 -7 -15 -15 -15 -8 0 -15 -4 -15 -9 0 -5 -24 -11 -52 -14 -29
-3 -64 -7 -78 -9 -19 -2 -24 1 -22 15 2 9 -2 17 -8 17 -5 0 -10 -5 -10 -12 0
-6 -6 -3 -14 8 -9 12 -11 21 -4 25 5 4 3 9 -6 12 -9 4 -16 15 -16 25 0 25 -24
45 -55 45 -14 0 -25 5 -25 12 0 13 -34 48 -41 41 -2 -2 -5 29 -7 70 -3 79 -16
105 -60 116 -17 5 -22 2 -23 -15 0 -21 -1 -21 -9 -2 l-9 20 -2 -20 c-1 -11 -2
-27 -3 -35 -2 -23 -46 -78 -69 -84 -11 -3 -33 2 -49 10 -24 12 -28 21 -28 55
0 24 4 38 10 34 6 -3 10 1 10 10 0 9 -5 13 -10 10 -6 -3 -10 -1 -10 6 0 6 8 9
18 7 19 -5 22 10 7 44 -6 15 -15 17 -46 12 -32 -5 -43 -3 -53 12 -8 10 -12 24
-9 31 3 7 1 13 -4 13 -6 0 -21 27 -34 59 -13 33 -26 59 -29 58 -3 0 -25 9 -49
21 -25 12 -47 22 -50 22 -3 0 -25 -18 -49 -39 -45 -42 -76 -45 -87 -10 -4 10
-11 19 -16 19 -10 0 -6 56 5 67 4 4 21 8 38 9 36 2 69 38 63 69 -3 11 -7 38
-9 61 -4 45 -24 84 -43 84 -7 0 -18 18 -24 40 -15 50 -5 63 50 66 33 2 39 -1
34 -14 -5 -12 -2 -14 11 -9 10 4 27 0 39 -8 41 -29 94 -37 127 -20 50 26 186
211 215 295 8 24 20 49 26 56 5 7 16 34 22 61 8 30 17 48 27 48 10 0 14 9 13
23 -2 17 2 22 15 20 13 -2 18 5 20 28 2 23 -5 39 -28 64 -17 18 -27 36 -21 39
5 4 14 18 20 33 9 24 6 29 -25 53 -18 14 -34 33 -34 41 0 7 -4 14 -10 14 -5 0
-10 6 -10 14 0 7 -7 19 -15 26 -23 19 -18 40 11 40 14 0 23 4 19 10 -4 6 5 10
20 10 17 0 25 -5 23 -12 -3 -7 1 -19 9 -26 7 -7 13 -25 13 -40 0 -21 2 -24 10
-12 8 13 11 12 24 -5 9 -11 16 -30 16 -43 0 -13 4 -21 8 -18 17 10 60 -50 111
-151 56 -112 59 -124 35 -144 -13 -10 -17 -10 -24 0 -4 8 -12 11 -18 7 -6 -3
-13 -2 -17 4 -7 12 -75 -48 -75 -67 0 -7 -3 -13 -7 -13 -5 0 -33 -34 -63 -76
-30 -41 -70 -93 -89 -117 -18 -23 -37 -52 -42 -64 -5 -13 -13 -23 -18 -23 -5
0 -13 -10 -17 -22 -3 -13 -15 -34 -24 -48 -29 -40 -28 -83 0 -114 14 -14 30
-26 35 -26 6 0 19 -17 30 -38 l20 -37 74 -3 c85 -3 107 -18 130 -90 8 -23 18
-42 23 -42 4 0 8 -7 8 -16 0 -8 12 -28 28 -43 21 -21 38 -28 77 -30 58 -3 78
-17 110 -81 13 -25 46 -65 75 -90 28 -25 71 -62 94 -82 24 -21 48 -38 54 -38
7 0 19 -11 28 -25 26 -40 48 -31 99 41 51 71 82 92 111 76 39 -22 159 -263
170 -339 6 -47 3 -60 -29 -125 -19 -40 -44 -84 -56 -98 -30 -36 -34 -42 -55
-75 -11 -16 -28 -38 -38 -49 -10 -11 -18 -28 -18 -38 0 -10 -4 -18 -9 -18 -12
0 -65 -79 -58 -86 4 -4 1 -16 -4 -27 -9 -16 -13 -17 -20 -6 -7 11 -9 9 -9 -7
0 -13 -8 -24 -20 -27 -34 -9 -54 -89 -25 -100 12 -5 12 -2 3 19 -9 18 -9 27 0
36 9 9 12 8 12 -5 0 -9 5 -17 10 -17 6 0 10 11 10 25 0 18 5 25 20 25 21 0 80
52 80 70 0 6 4 10 10 10 5 0 16 13 24 28 8 15 26 34 41 42 14 8 35 33 46 57
11 24 24 43 29 43 6 0 10 9 10 21 0 11 4 18 9 15 9 -6 41 24 38 37 -1 5 11 16
26 25 l29 17 47 -52 c45 -50 108 -153 94 -153 -4 0 0 -6 9 -12 9 -7 34 -47 56
-88 22 -41 54 -100 71 -130 17 -30 38 -71 47 -90 28 -64 38 -85 71 -138 18
-29 33 -56 33 -61 0 -11 36 -88 62 -131 11 -19 31 -53 42 -75 12 -22 30 -53
40 -68 23 -34 15 -45 -18 -23 -34 22 -91 112 -112 177 -31 97 -36 108 -60 136
-20 23 -24 25 -24 10 0 -14 -5 -17 -21 -12 -21 7 -22 5 -16 -34 3 -22 1 -41
-4 -41 -5 0 -9 6 -10 13 0 6 -9 -6 -18 -28 -19 -41 -14 -83 9 -77 6 1 9 -2 5
-8 -4 -6 -31 -10 -60 -9 -32 1 -61 -3 -70 -11 -16 -14 -42 -11 -230 26 -104
21 -125 19 -125 -10 0 -28 15 -32 219 -66 100 -17 149 -30 113 -30 -7 0 -12
-5 -12 -12 0 -6 3 -8 7 -5 3 4 13 1 22 -6 9 -8 35 -24 58 -37 42 -23 43 -23
83 -5 22 10 54 18 70 17 17 0 45 5 64 13 29 12 36 12 72 -7 32 -17 46 -34 80
-103 52 -106 48 -119 -51 -157 -39 -14 -82 -29 -97 -32 -16 -4 -28 -13 -28
-21 0 -8 -7 -15 -15 -15 -8 0 -15 8 -15 17 0 15 -2 14 -14 -2 -8 -11 -12 -24
-8 -29 3 -6 7 -5 10 3 3 9 9 8 23 -5 25 -23 24 -44 -3 -44 -17 0 -19 -3 -10
-12 8 -8 15 -8 27 2 18 15 30 7 22 -14 -11 -29 -145 -34 -209 -8 -33 13 -94
74 -103 102 -4 11 -11 20 -16 20 -5 0 -9 12 -10 28 -1 22 -3 20 -11 -13 -5
-22 -12 -47 -15 -55 -13 -35 -12 -80 2 -120 20 -56 79 -129 119 -145 32 -14
32 -14 -19 -30 -9 -2 -15 -16 -15 -35 0 -16 -4 -30 -10 -30 -5 0 -7 -6 -4 -13
14 -38 -87 -190 -116 -172 -11 7 -51 -12 -66 -33 -6 -8 -9 -26 -6 -39 3 -14
-3 -32 -13 -43 -12 -14 -14 -20 -5 -20 10 0 10 -3 0 -15 -7 -8 -23 -15 -36
-15 -18 0 -32 -12 -52 -43 -25 -41 -32 -47 -49 -47 -4 0 1 -6 11 -13 23 -17
13 -40 -33 -70 -21 -14 -46 -42 -56 -64 -9 -21 -25 -47 -35 -58 -9 -11 -26
-35 -36 -54 -10 -19 -27 -43 -36 -53 -17 -17 -18 -17 -38 4 l-20 21 10 -34 c6
-19 10 -45 10 -59 -1 -20 -5 -16 -23 22 -12 26 -26 48 -30 48 -10 0 2 -43 13
-50 9 -5 13 -32 11 -67 -1 -17 -5 -21 -18 -16 -13 5 -15 2 -10 -16 3 -14 -1
-28 -15 -41 -11 -10 -17 -23 -14 -29 12 -19 -12 -50 -34 -44 -24 6 -27 45 -5
63 9 7 13 20 10 29 -2 9 -1 22 4 29 6 10 10 8 16 -10 8 -22 8 -22 12 6 3 16 0
33 -6 39 -6 6 -8 29 -4 53 7 52 -3 86 -18 64 -8 -12 -10 -11 -8 5 1 11 1 33 0
49 -1 28 -2 29 -16 10 -15 -20 -20 -12 -16 28 1 9 -3 19 -9 23 -5 3 -10 19
-10 36 0 16 -4 28 -8 26 -4 -1 -29 9 -55 23 -43 22 -48 28 -43 53 3 15 1 27
-4 27 -6 0 -10 -4 -10 -10 0 -5 -8 -10 -18 -10 -29 0 -121 -108 -105 -124 3
-3 -1 -6 -10 -6 -9 0 -17 -7 -17 -15 0 -19 26 -9 60 22 14 13 30 23 37 23 6 0
13 4 15 10 2 6 18 6 43 0 28 -6 42 -5 47 3 10 16 15 8 23 -40 5 -33 3 -43 -7
-44 -7 -1 -26 -3 -43 -5 -82 -8 -135 -22 -135 -35 0 -5 -7 -6 -15 -3 -14 6
-72 -43 -62 -53 3 -3 29 -7 57 -8 39 -3 52 0 57 11 3 8 11 13 19 10 7 -3 14 0
16 6 3 8 11 9 24 3 10 -4 22 -9 25 -9 4 -1 16 -12 28 -26 14 -18 21 -21 22
-10 0 8 5 2 9 -14 10 -31 6 -46 -12 -46 -5 0 -7 7 -4 16 3 8 2 12 -4 9 -6 -3
-10 -14 -10 -23 -1 -12 -5 -10 -15 8 l-14 25 -1 -24 c0 -16 -4 -21 -14 -18 -9
4 -16 -3 -21 -20 -6 -24 -7 -25 -21 -7 -14 18 -15 16 -10 -21 3 -22 6 -48 6
-58 0 -10 3 -16 8 -14 4 3 7 -7 7 -21 0 -15 5 -28 10 -29 13 -2 23 -38 24 -86
1 -24 5 -36 12 -32 6 4 16 -1 23 -11 19 -26 -8 -55 -45 -47 -19 3 -34 0 -44
-11 -18 -18 -65 -22 -65 -6 0 6 -5 10 -10 10 -13 0 -60 49 -60 61 0 5 -7 9
-15 9 -9 0 -18 7 -21 15 -9 23 -34 18 -34 -7 0 -13 -5 -30 -11 -38 -8 -12 -9
-11 -5 5 3 11 1 27 -4 35 -7 11 -10 0 -10 -37 0 -58 -14 -71 -24 -23 -3 17
-11 29 -17 28 -7 -2 -15 10 -20 25 -4 16 -12 34 -17 40 -6 7 -13 29 -17 50 -4
21 -15 41 -24 45 -9 3 -21 12 -26 19 -6 8 -28 15 -50 16 -22 1 -43 7 -47 12
-4 6 -8 0 -8 -12 0 -25 -14 -30 -26 -11 -4 6 -2 14 4 16 7 2 12 10 12 17 0 8
30 44 67 82 70 70 74 73 139 110 46 25 117 91 127 116 3 9 14 17 23 17 10 0
14 5 10 15 -3 9 0 15 9 15 8 0 21 12 29 28 8 15 26 40 40 55 13 16 31 38 38
49 11 16 24 21 53 20 59 -2 89 24 151 133 6 11 32 56 57 100 25 44 48 91 52
105 4 14 30 59 59 100 63 89 128 130 205 130 60 0 91 9 91 26 0 7 -8 18 -17
23 -10 5 -27 27 -38 48 -11 21 -37 54 -57 74 -21 20 -38 41 -38 47 0 7 -4 12
-10 12 -5 0 -12 11 -16 24 -3 14 -14 32 -25 42 -10 9 -19 24 -19 32 0 9 -3 12
-7 9 -9 -10 -32 40 -39 85 -4 21 -11 41 -15 44 -11 6 -102 -84 -113 -111 -7
-19 -8 -19 -20 -2 -12 16 -15 15 -39 -15 -28 -37 -47 -32 -29 7 7 14 12 35 12
45 0 11 5 20 11 20 6 0 9 7 6 15 -4 8 -2 17 3 20 6 4 10 13 10 21 0 20 -39 9
-62 -17 -21 -24 -54 -24 -67 0 -8 15 -19 18 -57 14 -44 -3 -46 -2 -33 14 8 10
18 21 22 24 10 7 14 86 4 95 -26 27 -94 -58 -163 -202 -58 -123 -119 -193
-167 -194 -23 0 -60 42 -45 51 6 4 -3 20 -20 37 -17 17 -33 28 -36 25 -3 -4
-6 4 -6 16 0 21 -3 23 -34 17 -30 -6 -34 -4 -40 19 -4 14 -11 25 -16 25 -6 0
-10 9 -10 20 0 11 -4 20 -10 20 -5 0 -10 -4 -10 -10 0 -5 -7 -10 -15 -10 -8 0
-15 -9 -15 -20 0 -11 -7 -20 -15 -20 -14 0 -19 -12 -16 -32 0 -5 -4 -8 -9 -8
-6 0 -10 4 -10 10 0 5 -14 17 -31 26 -56 29 -116 92 -123 129 -7 37 -36 50
-36 16 0 -10 -6 -21 -14 -24 -24 -10 -56 4 -56 24 0 12 -7 19 -20 19 -11 0
-20 5 -20 10 0 6 -4 10 -10 10 -7 0 -10 -377 -10 -1110 l0 -1110 500 0 499 0
36 63 c35 64 44 117 25 147 -10 16 -13 11 -23 -35 -4 -15 -5 -13 -6 7 0 15 -6
30 -11 33 -6 4 -10 14 -9 23 1 10 0 19 -1 22 -6 19 -7 60 -1 60 5 0 16 -15 25
-33 l16 -32 0 28 c0 17 9 36 23 47 71 60 96 78 131 95 50 26 122 109 166 193
19 37 48 89 64 115 29 49 65 176 66 231 0 37 20 53 127 107 93 47 124 74 244
215 124 144 426 439 463 450 20 7 33 17 97 76 33 32 88 38 109 13 7 -8 18 -15
25 -15 8 0 22 -12 33 -27 16 -22 22 -25 35 -15 24 20 28 -21 5 -58 -10 -18
-17 -34 -15 -37 3 -2 13 9 23 26 17 29 34 41 34 24 -1 -10 -90 -100 -90 -91 0
4 7 14 16 22 8 9 12 16 7 16 -18 0 -33 -17 -35 -40 -2 -14 -6 -27 -9 -30 -4
-4 -129 -162 -172 -218 -5 -7 -7 -16 -3 -19 4 -4 10 -3 14 2 4 6 22 23 39 39
29 26 32 27 30 8 0 -11 -4 -19 -8 -16 -4 2 -10 -3 -13 -12 -4 -10 -2 -13 7 -7
6 4 2 -6 -11 -22 -119 -153 -247 -351 -267 -416 -6 -18 -5 -20 14 -10 15 9 21
9 21 1 0 -23 -24 -57 -82 -115 -33 -33 -73 -79 -90 -102 -17 -26 -37 -43 -48
-43 -11 0 -20 -4 -20 -8 0 -5 -11 -22 -25 -38 -18 -21 -25 -25 -25 -12 0 9 3
18 8 20 9 4 82 95 106 132 17 27 17 30 2 41 -10 8 -14 19 -10 31 7 21 -23 -10
-172 -178 -55 -62 -109 -126 -120 -143 -10 -16 -21 -32 -24 -35 -3 -3 -27 -34
-54 -69 -27 -35 -60 -75 -74 -90 -13 -14 -36 -42 -50 -61 -15 -19 -34 -42 -43
-52 -9 -9 -33 -37 -54 -62 -21 -26 -40 -45 -42 -42 -7 6 105 160 349 481 5 6
27 35 51 66 23 31 53 71 67 89 14 18 40 49 57 69 18 20 33 42 33 49 0 6 4 12
9 12 5 0 16 12 26 27 30 50 -87 -80 -196 -217 -28 -36 -70 -85 -93 -110 -23
-25 -57 -65 -76 -90 -40 -51 -34 -44 -171 -210 -56 -69 -120 -142 -141 -164
-21 -21 -38 -43 -38 -49 0 -6 -10 -21 -22 -34 l-22 -23 645 2 644 3 44 135
c24 74 122 370 218 656 95 287 173 527 173 533 0 7 -20 11 -52 11 -82 0 -158
12 -158 24 0 6 12 42 26 80 25 64 26 74 16 128 -10 56 -135 322 -162 348 -3 3
-21 37 -39 75 -56 116 -73 149 -86 165 -7 8 -30 49 -51 90 -21 41 -41 77 -44
80 -18 17 -40 62 -46 94 -5 32 -53 100 -54 78 -1 -15 -23 33 -26 54 -2 18 3
21 28 19 17 -1 43 4 57 11 23 12 55 20 84 23 4 1 7 8 7 16 0 8 6 15 13 15 8 0
7 4 -3 10 -9 6 -10 10 -3 10 13 0 73 54 73 66 0 3 -7 4 -15 0 -21 -8 -19 -1
10 29 25 24 25 25 5 25 -11 0 -32 -7 -45 -16 -19 -12 -37 -15 -72 -9 -68 9
-263 54 -282 65 -17 9 -141 239 -141 261 0 11 -113 252 -140 299 -11 17 -132
252 -168 325 -14 28 -31 57 -38 65 -7 8 -40 68 -74 133 l-62 119 28 -4 c16 -2
33 -12 39 -23 9 -18 15 -20 47 -13 45 9 215 -31 210 -50 -3 -17 19 -15 46 3
16 12 32 14 59 8 21 -4 41 -6 46 -5 4 1 7 -2 7 -6 0 -5 30 -7 68 -5 37 2 72 0
78 -4 13 -8 166 -320 179 -363 4 -14 13 -32 21 -40 7 -9 20 -31 28 -50 14 -34
14 -36 -11 -56 -25 -20 -25 -22 -12 -52 13 -30 17 -32 52 -27 33 5 38 3 47
-20 5 -14 15 -25 21 -25 7 0 20 -6 28 -14 9 -8 28 -17 43 -20 36 -6 72 -31 88
-61 13 -23 16 -24 94 -20 72 3 79 2 62 -11 -20 -14 -10 -19 18 -8 9 3 13 10
10 15 -9 15 33 10 46 -5 6 -8 18 -12 26 -9 8 3 14 -1 14 -11 0 -9 -7 -16 -17
-16 -22 0 -8 -13 18 -17 11 -2 18 1 15 6 -11 17 20 31 57 26 20 -3 37 -1 37 3
0 4 15 6 33 4 21 -2 39 2 49 11 8 8 32 17 54 20 38 5 136 -14 158 -32 12 -9
23 -8 94 4 30 5 39 11 30 16 -7 5 -8 9 -3 10 50 7 64 8 94 3 25 -4 31 -8 21
-14 -18 -11 -8 -15 75 -28 40 -7 62 -7 66 0 4 7 8 7 10 0 2 -6 30 -14 62 -16
44 -4 58 -3 54 7 -3 7 -20 11 -46 9 -29 -2 -40 1 -39 10 4 16 -64 20 -73 5 -4
-5 -12 -7 -18 -3 -7 5 -6 14 4 30 9 13 13 31 9 40 -8 20 17 30 51 22 15 -4 25
-14 25 -24 0 -16 8 -17 63 -14 51 3 66 1 77 -14 12 -13 12 -18 3 -21 -20 -7
-15 -20 9 -27 22 -5 22 -6 3 -20 -16 -12 -17 -15 -5 -16 9 0 21 5 27 11 8 8
13 8 17 0 4 -6 1 -11 -6 -11 -10 0 -10 -2 1 -9 15 -10 239 -37 245 -30 2 2 6
23 9 45 4 35 2 41 -12 39 -9 -1 -11 0 -5 2 6 2 19 21 28 41 9 20 32 66 52 101
30 55 34 70 27 95 l-9 31 -244 9 c-231 9 -376 10 -480 4 -37 -3 -46 -7 -48
-24 -2 -16 -8 -20 -23 -17 -10 3 -18 12 -17 21 5 25 -43 31 -226 31 -94 0
-201 3 -238 7 -65 7 -68 6 -77 -17 -6 -16 -10 -18 -10 -7 -1 18 -46 27 -174
31 -59 1 -80 -2 -87 -13 -5 -8 -6 -18 -4 -22 3 -4 -9 -8 -26 -8 -24 0 -31 4
-28 17 2 10 -10 29 -26 44 l-29 26 24 22 c13 13 46 34 74 47 42 21 54 23 82
13 43 -14 39 -17 243 167 91 82 199 179 240 215 41 37 72 70 68 74 -15 16 -58
-8 -129 -72 -41 -37 -101 -90 -133 -118 -32 -27 -79 -68 -104 -90 -25 -22 -54
-46 -66 -54 -12 -8 -23 -18 -26 -21 -3 -4 -25 -21 -49 -38 -45 -32 -68 -41
-55 -21 3 6 1 15 -5 19 -8 4 17 32 71 79 119 103 121 106 138 124 47 54 237
209 261 214 15 3 36 14 45 25 15 16 16 25 7 56 -32 106 -95 241 -316 677 -41
83 -85 174 -96 203 -31 77 -70 152 -80 152 -17 0 -23 -39 -10 -62 7 -13 29
-45 50 -73 52 -71 157 -297 180 -391 11 -44 50 -126 115 -241 41 -71 37 -79
-88 -168 -256 -184 -249 -181 -262 -110 -9 47 -37 54 -81 20 -40 -30 -44 -54
-14 -101 11 -19 18 -38 15 -43 -11 -16 -207 -151 -221 -151 -8 0 -17 5 -20 10
-4 7 -13 7 -26 0 -16 -9 -19 -7 -19 9 0 11 -14 36 -31 55 -17 20 -28 40 -24
45 6 11 -28 86 -45 96 -5 3 -10 15 -10 26 0 11 -7 22 -15 25 -8 4 -15 16 -15
29 0 25 -87 235 -126 305 -14 25 -54 104 -90 177 -35 73 -69 135 -74 138 -6 3
-10 15 -10 26 0 11 -7 22 -15 25 -8 4 -15 16 -15 28 0 12 -38 98 -85 192 -122
242 -147 302 -135 324 11 21 7 77 -7 91 -10 10 -32 16 -60 18 -7 1 -10 8 -7
16 6 16 60 21 66 7 6 -15 86 -1 93 15 8 23 1 26 -62 24 -72 -2 -61 17 13 21
48 3 92 27 77 42 -4 3 6 6 21 6 19 0 30 7 38 25 6 14 18 25 27 25 14 0 14 -2
1 -10 -13 -9 -13 -10 1 -10 8 0 20 5 27 12 9 9 12 9 12 -1 0 -9 10 -12 31 -9
20 3 33 0 36 -9 7 -17 33 -17 33 1 0 18 30 30 44 16 7 -7 7 -16 -2 -30 -18
-30 -16 -32 34 -28 44 3 49 1 77 -34 21 -27 38 -38 57 -38 14 0 31 -5 38 -12
14 -14 82 4 114 30 75 61 72 56 60 90 -11 32 -5 47 14 34 5 -4 24 -26 42 -49
30 -39 67 -62 78 -50 6 5 -14 51 -107 245 -67 139 -55 132 -194 111 -38 -5
-88 -10 -110 -10 -22 0 -74 -9 -115 -20 -179 -45 -313 -58 -294 -27 7 11 -85
4 -161 -12 -22 -5 -76 -12 -120 -15 -90 -8 -95 -10 -95 -32 0 -11 6 -14 23 -9
75 20 281 57 300 54 22 -4 22 -4 -3 -15 -14 -6 -77 -19 -140 -28 -119 -17
-159 -33 -161 -63 -1 -12 -3 -10 -7 5 l-7 23 -28 -23 -29 -23 33 -74 c18 -41
68 -146 111 -232 43 -86 78 -165 78 -176 0 -23 -33 -35 -54 -18 -8 6 -30 40
-48 76 -19 36 -44 81 -56 100 -12 19 -24 46 -27 61 -7 30 -25 42 -45 29 -9 -6
-11 -23 -5 -66 4 -33 9 -72 10 -87 2 -15 4 -29 6 -30 40 -21 44 -27 42 -58 -1
-22 -10 -40 -25 -52 l-23 -19 28 -22 c20 -16 27 -31 27 -56 1 -49 22 -102 58
-147 l30 -39 6 -261 c3 -177 10 -281 20 -320 12 -51 31 -242 22 -232 -11 13
-107 211 -118 244 -7 22 -25 61 -40 87 -48 83 -260 506 -256 510 2 2 -6 17
-17 33 -41 61 -67 125 -61 151 5 19 3 25 -6 21 -7 -2 -20 7 -29 20 -19 28 -14
87 7 79 10 -4 14 2 14 19 0 17 -6 25 -18 25 -21 0 -44 34 -36 55 3 8 16 15 29
15 13 0 25 7 29 15 7 18 -5 20 -22 3 -16 -16 -17 15 -1 44 10 19 9 20 -15 16
-14 -3 -23 -1 -20 3 3 5 16 9 30 9 29 0 32 16 4 25 -27 9 -25 24 3 18 19 -3
18 -2 -6 12 -28 16 -29 39 -2 28 8 -3 15 0 15 6 0 6 -7 11 -15 11 -8 0 -15 4
-15 10 0 5 7 7 16 3 10 -4 17 1 21 16 3 11 9 21 13 21 5 0 11 9 15 19 6 18 40
38 58 33 4 -1 7 5 7 13 0 18 46 21 53 3 3 -7 6 -4 6 6 1 11 4 16 8 13 3 -4 15
0 24 9 17 16 19 16 25 0 3 -9 10 -16 16 -16 5 0 7 4 4 8 -3 5 -1 25 5 44 7 26
16 38 35 42 17 5 24 12 20 21 -3 8 -9 22 -12 30 -10 24 22 18 39 -7 l16 -23
-6 23 c-4 17 -1 22 14 22 10 0 29 7 41 16 20 14 22 14 22 0 0 -9 4 -16 9 -16
5 0 7 9 4 19 -6 24 38 55 65 47 12 -4 25 1 37 14 10 11 24 20 30 20 7 0 18 7
25 15 7 9 21 13 30 10 10 -3 25 2 34 11 12 12 26 14 51 10 22 -4 35 -3 35 4 0
7 -262 10 -840 10 l-840 0 0 -1739z m1465 1669 c3 -5 -1 -10 -9 -10 -9 0 -16
5 -16 10 0 6 4 10 9 10 6 0 13 -4 16 -10z m-265 -124 c0 -3 -4 -8 -10 -11 -5
-3 -10 -1 -10 4 0 6 5 11 10 11 6 0 10 -2 10 -4z m-665 -45 c7 -12 -2 -14
-138 -41 -59 -12 -115 -20 -125 -18 -19 5 63 31 161 52 77 17 94 18 102 7z
m1805 -12 c0 -8 5 -8 15 1 15 13 15 13 19 -32 1 -15 -36 -17 -46 -3 -4 6 -8 0
-8 -12 0 -19 -6 -23 -29 -23 -20 0 -30 -6 -34 -20 -3 -11 -17 -25 -32 -32 -25
-11 -29 -10 -47 11 -35 45 -3 78 49 50 17 -9 26 -10 34 -2 13 13 2 36 -12 28
-5 -4 -9 0 -9 8 0 18 20 26 54 23 14 -2 26 1 26 5 0 5 5 9 10 9 6 0 10 -5 10
-11z m-1380 -123 c0 -3 -4 -8 -10 -11 -5 -3 -10 -1 -10 4 0 6 5 11 10 11 6 0
10 -2 10 -4z m-77 -76 c-3 -11 -9 -17 -15 -14 -5 3 -4 12 3 20 16 19 18 18 12
-6z m677 -21 c0 -5 -4 -9 -10 -9 -5 0 -10 7 -10 16 0 8 5 12 10 9 6 -3 10 -10
10 -16z m-620 -256 c-8 -3 -21 -10 -27 -16 -9 -7 -13 -5 -13 7 0 11 8 16 28
15 15 0 21 -3 12 -6z m-390 -7 c0 -3 -4 -8 -10 -11 -5 -3 -10 -1 -10 4 0 6 5
11 10 11 6 0 10 -2 10 -4z m62 -361 c4 -19 1 -25 -12 -25 -16 0 -17 3 -7 25 7
14 13 25 13 25 1 0 4 -11 6 -25z m318 -172 c0 -7 4 -13 10 -13 5 0 12 -11 16
-25 11 -46 30 -50 73 -16 21 17 45 31 53 31 11 0 106 -146 147 -227 14 -27 14
-63 1 -64 -5 -1 -13 -2 -17 -3 -5 -1 -35 -8 -68 -16 -33 -8 -62 -17 -65 -21
-10 -13 -68 -20 -75 -9 -4 6 -17 15 -29 19 -12 5 -32 29 -44 55 -16 31 -30 46
-43 46 -10 0 -19 4 -19 10 0 5 -16 12 -36 16 -20 4 -52 20 -70 36 -27 24 -32
33 -24 48 6 10 10 31 10 47 0 34 8 46 38 62 12 6 22 17 22 24 0 20 60 34 93
22 15 -5 27 -15 27 -22z m-604 -1128 c-3 -8 0 -15 6 -15 6 0 9 -3 5 -6 -10
-11 -26 6 -20 21 3 8 7 15 10 15 3 0 3 -7 -1 -15z m2899 -195 c3 -5 2 -10 -4
-10 -5 0 -13 5 -16 10 -3 6 -2 10 4 10 5 0 13 -4 16 -10z m-2405 -90 c6 -11 8
-31 4 -45 -5 -19 -2 -25 11 -25 9 0 13 -4 10 -10 -9 -15 -19 -12 -45 10 -28
24 -31 25 -24 5 7 -18 -12 -20 -23 -2 -17 27 -11 68 11 77 33 14 44 12 56 -10z
m-91 -33 c1 -5 -3 -5 -9 -2 -5 3 -10 16 -9 28 0 21 1 21 9 2 5 -11 9 -24 9
-28z m2643 -109 c-5 -5 -17 -6 -26 -2 -13 5 -14 9 -5 14 16 11 43 0 31 -12z
m-3058 -1201 c8 -13 7 -20 -4 -27 -22 -14 -27 -12 -33 12 -11 40 15 50 37 15z
m1846 -133 c0 -8 -4 -12 -10 -9 -5 3 -10 10 -10 16 0 5 5 9 10 9 6 0 10 -7 10
-16z m536 -179 c-3 -8 -1 -15 4 -15 15 0 12 -24 -6 -46 -8 -10 -13 -13 -9 -6
9 17 -10 15 -25 -3 -9 -10 -9 -15 -1 -15 8 0 8 -5 -1 -19 -14 -22 -28 -18 -28
7 0 15 2 15 10 2 5 -8 10 -10 10 -5 0 6 -4 16 -8 23 -6 9 -11 6 -19 -11 -9
-18 -8 -28 0 -38 10 -11 9 -11 -5 0 -21 16 -23 28 -5 45 6 8 28 32 47 55 38
44 45 49 36 26z m-103 -148 c-3 -5 -11 -6 -19 -3 -8 3 -14 0 -14 -6 0 -6 -3
-9 -6 -5 -10 10 3 23 25 23 11 0 17 -4 14 -9z m-56 -53 c-3 -3 -12 -4 -19 -1
-8 3 -5 6 6 6 11 1 17 -2 13 -5z m-1443 -85 c-3 -5 -10 -7 -15 -3 -5 3 -7 10
-3 15 3 5 10 7 15 3 5 -3 7 -10 3 -15z m606 -90 c0 -5 -4 -9 -10 -9 -5 0 -10
7 -10 16 0 8 5 12 10 9 6 -3 10 -10 10 -16z m-940 -349 c0 -5 -9 -15 -20 -22
-11 -7 -20 -19 -20 -27 0 -8 -3 -12 -6 -8 -3 3 -3 19 1 36 5 22 12 31 26 31
10 0 19 -4 19 -10z m1081 -457 c-8 -15 -10 -15 -11 -2 0 17 10 32 18 25 2 -3
-1 -13 -7 -23z m-24 -38 c-4 -8 -11 -15 -17 -15 -7 0 -7 6 0 21 13 23 26 19
17 -6z m-1368 -69 c-5 -17 -9 -32 -9 -33 0 -2 -9 -3 -20 -3 -16 0 -20 -7 -20
-35 0 -19 -4 -35 -10 -35 -5 0 -10 6 -10 14 0 7 -15 18 -32 24 -18 5 -25 10
-15 11 9 1 17 6 17 11 0 6 6 10 14 10 8 0 18 10 21 23 9 29 57 70 66 55 4 -6
3 -25 -2 -42z m37 -46 c2 -25 0 -39 -6 -35 -6 3 -10 25 -10 47 0 52 10 44 16
-12z m71 -32 c-3 -8 -6 -5 -6 6 -1 11 2 17 5 13 3 -3 4 -12 1 -19z m-27 -18
c0 -29 -17 -33 -22 -5 -3 13 -3 27 0 29 9 10 22 -5 22 -24z m27 -37 c-3 -10
-5 -4 -5 12 0 17 2 24 5 18 2 -7 2 -21 0 -30z m-107 -28 c0 -14 -4 -25 -9 -25
-5 0 -8 11 -7 25 1 33 16 33 16 0z"/>
<path d="M421 384 c0 -11 3 -14 6 -6 3 7 2 16 -1 19 -3 4 -6 -2 -5 -13z"/>
<path d="M7900 5993 c1 -25 30 -113 47 -141 25 -41 35 -24 27 46 -9 70 -25
102 -51 102 -13 0 -23 -3 -23 -7z"/>
<path d="M8197 5993 c-6 -10 -18 -61 -16 -69 0 -4 -4 -10 -10 -14 -7 -3 -12
-28 -13 -53 0 -26 -4 -44 -9 -41 -17 10 -20 -24 -8 -107 6 -46 12 -95 14 -109
2 -14 6 -37 10 -52 5 -21 4 -28 -7 -28 -11 0 -15 -14 -16 -50 0 -29 4 -50 10
-50 6 0 8 -11 6 -25 -5 -26 0 -25 41 9 77 65 242 261 262 312 2 6 22 40 44 77
37 64 41 67 76 67 28 0 45 7 68 31 17 17 31 34 31 39 0 5 12 22 26 39 l26 31
-266 0 c-145 0 -267 -3 -269 -7z m-30 -505 c-3 -8 -6 -5 -6 6 -1 11 2 17 5 13
3 -3 4 -12 1 -19z"/>
<path d="M8832 5969 c8 -24 8 -37 -1 -51 -16 -26 -8 -33 17 -17 16 10 23 10
36 0 13 -11 17 -11 22 3 4 10 16 15 33 14 15 -1 32 1 38 5 7 5 9 0 6 -14 -4
-16 -12 -20 -29 -16 -13 2 -24 0 -24 -4 0 -5 7 -9 15 -9 25 0 17 -18 -12 -28
-21 -8 -23 -11 -9 -11 18 -1 17 -2 -3 -20 -19 -16 -28 -18 -49 -9 -15 5 -50
13 -79 17 l-51 7 5 -32 c3 -17 1 -40 -4 -49 -9 -16 -12 -15 -32 6 -11 12 -21
17 -21 10 0 -6 9 -22 20 -33 16 -17 23 -19 32 -10 16 16 28 15 28 -2 0 -8 7
-16 15 -20 22 -8 18 -26 -5 -26 -22 0 -28 -26 -7 -33 10 -4 10 -7 0 -18 -11
-11 -13 -10 -13 4 0 10 -8 17 -20 17 -11 0 -20 -4 -20 -10 0 -19 -21 -10 -30
13 -5 12 -9 16 -9 9 -1 -11 25 -77 35 -91 2 -2 15 6 31 17 15 11 43 23 61 27
20 4 32 13 32 23 0 13 2 13 13 -3 8 -10 19 -15 25 -11 7 4 12 3 12 -2 0 -5 9
-12 20 -15 19 -5 19 -6 -4 -59 -13 -29 -38 -77 -55 -106 -60 -103 -33 -77 65
61 31 42 62 77 70 77 12 0 14 35 14 210 l0 210 -32 0 c-19 0 -41 -9 -55 -22
l-23 -21 -19 21 c-10 12 -25 22 -34 22 -14 0 -14 -5 -5 -31z m68 -38 c0 -6 -4
-13 -10 -16 -5 -3 -10 1 -10 9 0 9 5 16 10 16 6 0 10 -4 10 -9z m-157 -316 c0
-6 -7 -11 -16 -13 -12 -3 -15 1 -11 13 7 17 25 17 27 0z"/>
<path d="M1560 5930 c0 -5 5 -10 11 -10 5 0 7 5 4 10 -3 6 -8 10 -11 10 -2 0
-4 -4 -4 -10z"/>
<path d="M7792 5863 c17 -32 41 -69 54 -84 13 -14 24 -29 24 -33 0 -4 12 -23
26 -41 14 -19 24 -41 22 -50 -2 -13 -12 -10 -53 16 -29 19 -51 27 -53 20 -5
-15 -55 -14 -70 1 -9 9 -12 9 -12 1 0 -11 18 -27 123 -115 33 -28 31 -51 -4
-30 -11 7 -24 10 -29 7 -5 -3 -30 3 -54 15 -25 11 -54 20 -66 20 -12 0 -30 5
-40 10 -11 6 -21 6 -24 1 -6 -10 54 -74 124 -134 42 -36 43 -38 17 -33 -15 4
-49 20 -75 36 -26 16 -48 27 -50 25 -15 -15 124 -135 156 -135 5 0 13 -7 16
-16 3 -8 10 -13 15 -9 5 3 12 1 16 -5 9 -14 -38 -13 -53 2 -20 20 -104 14
-163 -12 -49 -21 -133 -34 -123 -19 4 6 -30 19 -50 19 -5 0 -1 -10 10 -22 11
-13 26 -41 33 -63 24 -76 55 -128 104 -176 18 -17 18 -18 -1 -28 -12 -6 -32
-11 -46 -11 -14 0 -28 -5 -31 -10 -4 -6 -10 -8 -15 -5 -4 3 -13 -2 -20 -10 -7
-8 -19 -15 -27 -15 -19 0 -93 -41 -93 -51 0 -4 5 -11 10 -14 8 -5 8 -11 1 -19
-6 -7 -8 -16 -5 -19 3 -3 2 -12 -2 -19 -5 -7 -9 -31 -9 -53 0 -34 -4 -42 -30
-54 -46 -21 -66 -42 -59 -63 3 -10 0 -18 -7 -18 -8 0 -8 -5 2 -17 10 -11 10
-14 2 -9 -7 4 -13 5 -13 2 0 -2 18 -15 40 -27 22 -13 40 -27 40 -31 0 -5 -34
-8 -75 -7 -91 3 -110 -9 -75 -46 13 -14 20 -28 16 -32 -14 -14 -100 -20 -133
-9 -19 6 -23 4 -23 -13 0 -11 5 -23 10 -26 19 -12 80 -144 70 -150 -6 -4 -8
-11 -5 -16 4 -5 1 -9 -4 -9 -6 0 -11 5 -11 10 0 6 -26 10 -59 10 -33 0 -62 4
-65 9 -4 5 -26 16 -51 25 -25 8 -58 25 -73 36 l-27 22 -13 -21 c-14 -20 -14
-20 -49 7 l-36 26 7 -24 c11 -35 41 -75 57 -75 8 0 13 6 11 13 -1 6 4 12 11
12 17 0 47 -36 47 -56 0 -15 33 -58 97 -126 21 -23 24 -30 14 -42 -15 -17 -7
-36 15 -36 8 0 32 -9 54 -20 22 -11 45 -20 52 -20 7 0 31 18 53 40 22 22 85
71 140 110 103 71 111 78 229 183 99 88 138 117 253 183 120 70 141 85 207
145 28 25 66 58 84 74 17 16 32 32 32 37 0 5 -12 35 -26 66 -38 82 -72 185
-84 255 -6 34 -18 84 -27 111 -11 36 -14 71 -9 140 3 50 8 138 12 196 l6 105
-29 37 c-17 20 -61 71 -99 113 -38 43 -70 81 -72 86 -2 5 -8 9 -12 9 -5 0 5
-26 22 -57z m153 -223 c3 -5 1 -10 -4 -10 -6 0 -11 5 -11 10 0 6 2 10 4 10 3
0 8 -4 11 -10z"/>
<path d="M1778 5883 c6 -2 18 -2 25 0 6 3 1 5 -13 5 -14 0 -19 -2 -12 -5z"/>
<path d="M1300 5819 c0 -5 5 -7 10 -4 6 3 10 8 10 11 0 2 -4 4 -10 4 -5 0 -10
-5 -10 -11z"/>
<path d="M8711 5821 c-12 -7 -10 -14 8 -36 20 -26 21 -26 21 -6 0 11 -5 21
-11 21 -6 0 -9 7 -5 15 6 17 6 18 -13 6z"/>
<path d="M8680 5710 c0 -5 5 -10 10 -10 6 0 10 5 10 10 0 6 -4 10 -10 10 -5 0
-10 -4 -10 -10z"/>
<path d="M8740 5700 c0 -5 5 -10 10 -10 6 0 10 5 10 10 0 6 -4 10 -10 10 -5 0
-10 -4 -10 -10z"/>
<path d="M8705 5680 c-3 -5 -1 -10 4 -10 6 0 11 5 11 10 0 6 -2 10 -4 10 -3 0
-8 -4 -11 -10z"/>
<path d="M8115 5631 c-3 -5 -1 -12 5 -16 5 -3 10 1 10 9 0 18 -6 21 -15 7z"/>
<path d="M8612 5595 c-7 -14 -12 -32 -12 -40 0 -8 -4 -15 -9 -15 -5 0 -11 -13
-14 -29 -3 -16 -13 -36 -22 -44 -8 -9 -15 -18 -15 -21 0 -3 -8 -14 -17 -24
-40 -42 -54 -65 -49 -78 3 -8 0 -13 -7 -11 -7 1 -12 -8 -12 -20 0 -29 -14 -41
-26 -23 -8 12 -9 11 -5 -5 4 -14 -2 -26 -19 -39 -14 -10 -25 -24 -25 -30 0 -6
-23 -40 -50 -75 -28 -35 -50 -72 -50 -82 0 -11 -5 -19 -10 -19 -6 0 -10 -6 -9
-12 1 -7 -4 -26 -11 -43 -17 -41 -16 -148 5 -290 9 -66 18 -165 19 -220 2
-104 20 -183 44 -192 18 -7 61 16 74 41 6 11 12 65 13 121 1 56 4 106 7 111 2
5 5 36 7 69 1 34 4 72 6 85 3 14 21 119 40 234 41 240 77 383 125 501 5 11 14
38 21 60 6 22 15 50 20 63 19 50 2 73 -19 27z"/>
<path d="M8665 5601 c-3 -5 -1 -12 5 -16 5 -3 10 1 10 9 0 18 -6 21 -15 7z"/>
<path d="M1887 5594 c-3 -3 -34 -6 -67 -5 -61 1 -62 0 -56 -23 4 -16 0 -30
-10 -40 -14 -14 -12 -15 18 -10 18 3 42 9 53 14 11 4 34 13 52 20 21 8 31 18
30 31 -1 19 -9 24 -20 13z"/>
<path d="M8120 5591 c0 -6 5 -13 10 -16 6 -3 10 1 10 9 0 9 -4 16 -10 16 -5 0
-10 -4 -10 -9z"/>
<path d="M8130 5550 c0 -6 7 -10 15 -10 8 0 15 2 15 4 0 2 -7 6 -15 10 -8 3
-15 1 -15 -4z"/>
<path d="M8960 5430 c-19 -25 -38 -46 -42 -48 -5 -2 -8 -10 -8 -17 0 -7 -7
-16 -16 -19 -11 -4 -13 -13 -9 -27 6 -18 4 -21 -9 -16 -11 4 -16 2 -14 -6 3
-14 -61 -107 -74 -107 -5 0 -3 -10 3 -22 11 -20 10 -21 -3 -11 -18 16 -32 5
-17 -13 6 -7 8 -18 4 -24 -5 -8 -12 -5 -21 7 -14 16 -14 15 -9 -14 6 -32 -8
-47 -18 -20 -3 6 -4 -1 -4 -17 2 -35 -20 -47 -25 -14 -5 37 -22 23 -29 -23 -6
-47 -2 -534 5 -619 6 -63 -1 -103 -18 -97 -6 2 -12 13 -14 24 -4 26 -92 130
-92 109 0 -9 5 -16 10 -16 19 0 10 -29 -12 -42 -13 -7 -26 -11 -30 -10 -5 1
-8 -3 -8 -9 0 -15 -31 -38 -50 -38 -11 0 -10 3 4 14 24 18 15 30 -12 16 -17
-9 -21 -25 -27 -101 -4 -49 -11 -90 -16 -90 -5 0 -9 -5 -9 -12 0 -6 -6 -19
-14 -27 -23 -26 -66 -169 -66 -222 0 -47 1 -48 35 -55 25 -4 41 -2 53 8 9 8
35 23 57 33 22 10 54 34 71 53 22 26 38 35 60 34 28 -1 30 2 48 76 19 82 71
175 127 228 34 32 46 56 93 194 37 106 87 240 117 312 18 44 19 70 17 360 l-3
312 -35 -44z m-370 -1035 c0 -8 -4 -15 -9 -15 -13 0 -22 16 -14 24 11 11 23 6
23 -9z m-30 -30 c0 -8 -4 -15 -10 -15 -5 0 -10 7 -10 15 0 8 5 15 10 15 6 0
10 -7 10 -15z m-35 -25 c3 -5 1 -10 -4 -10 -6 0 -11 5 -11 10 0 6 2 10 4 10 3
0 8 -4 11 -10z"/>
<path d="M8120 5370 c0 -5 5 -10 11 -10 5 0 7 5 4 10 -3 6 -8 10 -11 10 -2 0
-4 -4 -4 -10z"/>
<path d="M945 5330 c3 -5 8 -10 11 -10 2 0 4 5 4 10 0 6 -5 10 -11 10 -5 0 -7
-4 -4 -10z"/>
<path d="M970 5281 c0 -6 5 -13 10 -16 6 -3 10 1 10 9 0 9 -4 16 -10 16 -5 0
-10 -4 -10 -9z"/>
<path d="M965 5170 c-18 -8 -17 -9 8 -9 15 -1 27 4 27 9 0 12 -8 12 -35 0z"/>
<path d="M991 5104 c0 -11 3 -14 6 -6 3 7 2 16 -1 19 -3 4 -6 -2 -5 -13z"/>
<path d="M8514 4739 c-27 -29 -23 -93 7 -125 17 -19 20 -27 11 -36 -18 -18
-15 -34 12 -61 12 -13 25 -30 28 -38 4 -10 8 -11 18 -3 8 8 9 14 1 18 -6 4
-11 16 -11 27 0 10 -7 19 -15 19 -8 0 -15 5 -15 10 0 6 4 10 9 10 5 0 11 9 14
20 3 11 12 20 21 20 35 0 47 84 19 131 -21 36 -70 40 -99 8z"/>
<path d="M8520 4496 c0 -8 5 -18 10 -21 6 -3 10 1 10 9 0 8 -4 18 -10 21 -5 3
-10 -1 -10 -9z"/>
<path d="M6989 4413 c12 -24 31 -39 31 -25 0 5 -10 17 -21 28 -22 19 -22 19
-10 -3z"/>
<path d="M5610 4275 c0 -3 9 -14 20 -25 11 -11 20 -16 20 -11 0 5 -7 17 -16
25 -16 16 -24 20 -24 11z"/>
<path d="M5554 4218 l-19 -23 23 19 c21 18 27 26 19 26 -2 0 -12 -10 -23 -22z"/>
<path d="M5585 4193 c-11 -15 -34 -43 -51 -63 -17 -19 -44 -50 -60 -69 -16
-19 -121 -138 -234 -264 -113 -126 -207 -234 -209 -240 -2 -6 8 -3 23 7 16 10
58 29 95 42 36 13 75 35 86 48 48 58 95 130 95 146 0 9 11 29 25 44 14 15 25
35 25 45 0 28 51 98 149 204 81 88 107 127 83 127 -4 0 -16 -12 -27 -27z"/>
<path d="M6030 4143 c59 -39 271 -266 305 -327 45 -80 65 -167 45 -191 -38
-45 -374 -275 -385 -263 -3 3 4 15 15 28 41 47 50 129 24 207 -31 92 -117 177
-218 216 -45 17 -229 38 -216 25 3 -3 39 -23 80 -44 41 -20 94 -50 118 -66 39
-27 42 -32 42 -73 0 -27 -8 -58 -22 -82 -26 -45 -137 -175 -181 -212 -34 -28
-102 -39 -92 -14 3 10 -1 13 -13 9 -21 -6 -57 19 -47 33 3 6 13 11 21 11 8 0
14 4 14 9 0 5 -18 5 -42 -1 -24 -5 -63 -9 -88 -8 -63 2 -62 3 -90 -23 -44 -40
-124 -94 -206 -136 -95 -50 -142 -54 -173 -15 -12 15 -21 33 -21 40 0 8 -4 14
-8 14 -10 0 -32 59 -32 86 -1 18 -1 18 -13 -2 -41 -70 -61 -83 -149 -91 l-46
-5 -12 59 c-7 32 -17 67 -24 78 -7 11 -19 38 -26 60 -20 62 -65 140 -83 143
-9 2 -21 -7 -27 -19 -13 -23 -15 -16 55 -174 27 -60 41 -101 49 -137 3 -14 9
-34 12 -43 6 -13 2 -16 -19 -13 -16 2 -34 -5 -50 -20 l-25 -24 -41 74 c-92
168 -111 189 -111 125 0 -37 26 -124 45 -147 24 -31 55 -124 55 -166 0 -36 -6
-50 -31 -77 -17 -17 -34 -31 -37 -31 -4 1 -15 -4 -25 -11 -16 -11 -16 -13 -2
-19 31 -11 45 -6 57 22 7 15 20 35 29 44 10 10 23 25 31 35 8 10 34 36 58 58
41 37 40 35 -13 -27 -32 -37 -53 -69 -48 -72 5 -4 19 6 30 20 22 29 109 128
151 175 27 30 88 60 74 36 -5 -6 -57 -67 -116 -134 -74 -83 -106 -126 -102
-137 8 -21 17 -20 38 2 14 16 24 18 72 10 31 -5 64 -12 73 -17 9 -4 37 -6 64
-3 46 4 47 5 47 39 0 31 -1 33 -16 19 -20 -21 -19 -21 -60 10 -41 31 -44 60
-8 76 20 9 30 9 45 0 23 -15 25 -5 3 19 -11 12 -14 27 -9 48 4 17 9 31 11 31
11 0 68 -58 80 -82 8 -16 21 -28 28 -28 7 0 19 -7 26 -14 9 -12 41 -14 178
-11 100 3 168 9 170 15 2 5 14 7 27 4 12 -3 26 -1 29 5 4 6 17 11 30 11 12 0
27 5 33 11 8 8 17 8 33 -1 20 -11 21 -10 15 11 -6 18 -4 21 10 15 9 -3 28 -9
42 -12 24 -6 25 -5 20 18 -6 24 -4 25 71 36 156 22 455 53 697 72 134 11 156
14 202 28 23 7 35 7 39 0 13 -21 183 15 229 48 15 11 16 18 7 38 -8 17 -22 25
-54 31 -46 7 -54 12 -170 92 -57 39 -81 63 -97 96 l-21 44 37 104 c21 57 41
109 45 114 36 45 68 89 68 92 0 3 -14 -7 -31 -21 -17 -14 -34 -26 -37 -26 -4
0 -15 20 -25 45 -19 45 -30 54 -42 35 -10 -17 -25 -11 -25 9 0 11 -5 23 -10
26 -6 4 -8 10 -5 15 3 4 -9 13 -26 19 -18 6 -41 21 -53 34 -26 28 -54 40 -69
30 -20 -12 -49 -10 -54 4 -4 11 -8 11 -21 1 -12 -10 -16 -10 -19 0 -3 6 -11
12 -18 12 -7 0 -15 4 -17 8 -4 11 -64 52 -75 51 -4 0 3 -7 17 -16z m-1420
-976 c0 -2 -10 -12 -22 -23 l-23 -19 19 23 c18 21 26 27 26 19z m60 -148 c0
-7 -63 -19 -69 -13 -2 2 4 13 13 23 15 16 21 18 37 8 10 -6 19 -15 19 -18z"/>
<path d="M3515 4054 c-11 -8 -47 -40 -81 -72 -33 -31 -91 -84 -128 -117 -37
-33 -79 -70 -92 -82 -14 -13 -29 -23 -35 -23 -5 0 -9 -7 -9 -15 0 -8 -4 -15
-8 -15 -13 0 -82 -67 -82 -79 0 -6 -5 -11 -10 -11 -6 0 -22 -11 -34 -24 -13
-12 -31 -26 -40 -29 -39 -15 6 -42 51 -31 11 3 24 1 28 -6 5 -8 -11 -11 -58
-9 -78 3 -111 -12 -52 -23 22 -4 60 -7 84 -7 42 -1 46 2 153 112 178 182 391
407 406 428 12 18 11 19 -30 19 -24 0 -52 -7 -63 -16z m-387 -465 c-12 -7 -24
-7 -35 0 -15 9 -12 10 17 10 29 0 32 -1 18 -10z"/>
<path d="M3355 4018 c-169 -143 -280 -249 -280 -268 0 -8 -9 -16 -20 -18 -42
-7 -48 -11 -35 -27 7 -8 9 -15 4 -16 -62 -6 -78 -14 -54 -29 13 -8 12 -10 0
-14 -8 -3 -26 -6 -39 -8 -28 -3 -42 -28 -16 -28 9 0 14 -4 11 -9 -3 -5 -17 -8
-32 -8 -30 0 -57 -23 -36 -30 21 -8 2 -23 -22 -17 -14 3 -27 -1 -35 -10 -12
-14 -8 -16 35 -16 l49 0 130 126 c331 321 422 414 407 414 -9 0 -39 -19 -67
-42z"/>
<path d="M3666 4020 c-20 -22 -40 -40 -44 -40 -4 0 -110 -102 -237 -225 -126
-124 -233 -225 -238 -225 -4 0 -5 -4 -2 -10 3 -5 43 -10 89 -10 l82 0 100 112
c110 125 134 152 223 251 101 114 125 147 106 147 -9 0 -13 5 -9 11 6 10 -11
28 -27 29 -3 0 -22 -18 -43 -40z m41 4 c-3 -3 -12 -4 -19 -1 -8 3 -5 6 6 6 11
1 17 -2 13 -5z m-416 -483 c-8 -5 -20 -7 -28 -4 -21 8 -15 13 15 13 20 0 23
-3 13 -9z"/>
<path d="M3875 4053 c52 -7 63 -13 42 -25 -10 -5 -25 -7 -32 -4 -8 3 -17 1
-20 -3 -2 -5 11 -11 30 -13 27 -3 39 2 60 24 l27 28 -69 -1 c-37 -1 -54 -4
-38 -6z"/>
<path d="M8980 4035 c0 -8 4 -15 8 -15 5 0 9 7 9 15 0 8 -4 15 -9 15 -4 0 -8
-7 -8 -15z"/>
<path d="M4032 4017 c-26 -27 -28 -42 -7 -33 8 3 15 1 15 -5 0 -6 -10 -9 -23
-7 -24 3 -54 -25 -140 -126 -23 -27 -53 -61 -67 -76 -14 -14 -42 -46 -63 -71
-72 -85 -122 -141 -144 -162 -13 -11 -23 -24 -23 -29 0 -4 39 -8 88 -7 l87 0
65 91 c36 49 89 121 117 159 29 38 86 118 128 178 73 107 75 110 48 108 -16
-1 -31 -6 -35 -12 -5 -6 -8 -5 -8 3 0 18 -14 15 -38 -11z m-92 -151 c0 -3 -4
-8 -10 -11 -5 -3 -10 -1 -10 4 0 6 5 11 10 11 6 0 10 -2 10 -4z m-40 -56 c0
-5 -4 -10 -10 -10 -5 0 -10 5 -10 10 0 6 5 10 10 10 6 0 10 -4 10 -10z m-30
-40 c0 -5 -2 -10 -4 -10 -3 0 -8 5 -11 10 -3 6 -1 10 4 10 6 0 11 -4 11 -10z
m-63 -86 c-3 -3 -12 -4 -19 -1 -8 3 -5 6 6 6 11 1 17 -2 13 -5z m-27 -44 c0
-5 -11 -10 -25 -10 -14 0 -25 5 -25 10 0 6 11 10 25 10 14 0 25 -4 25 -10z"/>
<path d="M8951 4024 c0 -11 3 -14 6 -6 3 7 2 16 -1 19 -3 4 -6 -2 -5 -13z"/>
<path d="M4298 3998 c9 -9 15 -9 24 0 9 9 7 12 -12 12 -19 0 -21 -3 -12 -12z"/>
<path d="M3865 3990 c-16 -4 -24 -8 -17 -9 17 -1 15 -21 -2 -21 -8 0 -16 8
-19 18 -5 19 -169 -145 -415 -415 -17 -18 -35 -33 -41 -33 -6 0 -11 -4 -11 -9
0 -14 145 -24 168 -12 11 6 61 62 110 123 49 62 99 124 111 137 11 13 21 27
21 30 0 3 15 22 33 41 39 41 117 144 117 153 0 8 -14 7 -55 -3z m-320 -370 c3
-5 -3 -10 -15 -10 -12 0 -18 5 -15 10 3 6 10 10 15 10 5 0 12 -4 15 -10z m-52
-87 c-7 -2 -19 -2 -25 0 -7 3 -2 5 12 5 14 0 19 -2 13 -5z"/>
<path d="M8992 3980 c0 -14 2 -19 5 -12 2 6 2 18 0 25 -3 6 -5 1 -5 -13z"/>
<path d="M8940 3970 c0 -13 5 -18 14 -14 8 3 12 12 9 20 -8 21 -23 17 -23 -6z"/>
<path d="M8896 3965 c-3 -9 0 -15 9 -15 9 0 12 6 9 15 -4 8 -7 15 -9 15 -2 0
-5 -7 -9 -15z"/>
<path d="M8953 3933 c-7 -2 -13 -12 -12 -21 0 -11 2 -12 6 -4 2 6 9 10 14 6 5
-3 9 2 9 10 0 9 -1 16 -2 15 -2 0 -9 -3 -15 -6z"/>
<path d="M8991 3924 c0 -11 3 -14 6 -6 3 7 2 16 -1 19 -3 4 -6 -2 -5 -13z"/>
<path d="M4124 3906 c-13 -19 -12 -21 7 -28 18 -7 19 -11 9 -23 -8 -10 -9 -15
-2 -15 6 0 15 7 20 15 4 9 20 18 35 21 36 6 36 -16 0 -64 -49 -67 -66 -83 -74
-70 -6 9 -11 9 -23 -1 -11 -9 -16 -10 -16 -2 0 6 -9 11 -20 11 -11 0 -20 -5
-20 -11 0 -6 -11 -9 -24 -7 -26 3 -66 -26 -66 -49 0 -7 -4 -13 -9 -13 -6 0
-31 -28 -58 -62 -26 -35 -56 -71 -66 -81 -10 -10 -15 -22 -12 -27 4 -6 48 -10
99 -10 l93 0 34 51 c19 28 41 62 49 75 8 13 45 70 83 127 48 75 67 114 67 137
0 19 -3 30 -7 27 -3 -4 -13 -1 -21 6 -23 19 -62 15 -78 -7z m-37 -233 c5 -15
-21 -23 -38 -12 -12 8 -12 10 1 19 17 11 32 8 37 -7z m-77 -97 c0 -11 -19 -15
-25 -6 -3 5 1 10 9 10 9 0 16 -2 16 -4z m-37 -53 c-7 -2 -21 -2 -30 0 -10 3
-4 5 12 5 17 0 24 -2 18 -5z"/>
<path d="M4241 3884 c0 -11 3 -14 6 -6 3 7 2 16 -1 19 -3 4 -6 -2 -5 -13z"/>
<path d="M5205 3868 c-11 -7 -33 -24 -50 -40 -34 -31 -85 -38 -105 -13 -7 8
-16 12 -21 9 -5 -3 -18 0 -29 6 -16 8 -25 7 -42 -5 -29 -19 -55 -19 -66 1 -11
20 -49 11 -57 -15 -3 -9 -22 -25 -43 -34 -45 -20 -62 -21 -62 -5 0 6 -2 9 -5
6 -8 -7 23 -137 40 -168 19 -36 35 -122 35 -185 0 -60 7 -66 36 -32 39 46 209
243 235 272 40 46 152 178 168 198 11 14 11 17 0 17 -8 0 -23 -6 -34 -12z"/>
<path d="M8948 3873 c7 -3 16 -2 19 1 4 3 -2 6 -13 5 -11 0 -14 -3 -6 -6z"/>
<path d="M8890 3855 c0 -8 7 -15 15 -15 8 0 15 7 15 15 0 8 -7 15 -15 15 -8 0
-15 -7 -15 -15z"/>
<path d="M8840 3845 c0 -8 7 -15 15 -15 8 0 15 7 15 15 0 8 -7 15 -15 15 -8 0
-15 -7 -15 -15z"/>
<path d="M8958 3853 c7 -3 16 -2 19 1 4 3 -2 6 -13 5 -11 0 -14 -3 -6 -6z"/>
<path d="M8950 3815 c0 -8 7 -15 15 -15 8 0 15 7 15 15 0 8 -7 15 -15 15 -8 0
-15 -7 -15 -15z"/>
<path d="M8900 3805 c0 -8 7 -15 15 -15 8 0 15 7 15 15 0 8 -7 15 -15 15 -8 0
-15 -7 -15 -15z"/>
<path d="M8848 3803 c6 -2 10 -9 6 -14 -3 -5 2 -9 10 -9 10 0 13 6 10 15 -4 8
-14 15 -23 14 -10 0 -11 -2 -3 -6z"/>
<path d="M7963 3793 c9 -2 25 -2 35 0 9 3 1 5 -18 5 -19 0 -27 -2 -17 -5z"/>
<path d="M8799 3791 c11 -7 11 -9 0 -14 -10 -4 -9 -6 4 -6 9 -1 17 6 17 14 0
8 -8 15 -17 15 -14 0 -15 -2 -4 -9z"/>
<path d="M4487 3784 c-12 -12 4 -24 31 -24 26 1 26 1 8 15 -22 17 -30 18 -39
9z"/>
<path d="M7908 3783 c7 -3 16 -2 19 1 4 3 -2 6 -13 5 -11 0 -14 -3 -6 -6z"/>
<path d="M8761 3774 c0 -11 3 -14 6 -6 3 7 2 16 -1 19 -3 4 -6 -2 -5 -13z"/>
<path d="M8954 3769 c-8 -14 11 -33 25 -25 11 7 4 36 -9 36 -5 0 -12 -5 -16
-11z"/>
<path d="M8900 3754 c0 -8 5 -12 10 -9 6 3 10 1 10 -5 0 -6 4 -9 10 -5 13 8 1
35 -16 35 -8 0 -14 -7 -14 -16z"/>
<path d="M4466 3747 c3 -10 9 -15 12 -12 3 3 0 11 -7 18 -10 9 -11 8 -5 -6z"/>
<path d="M8851 3744 c0 -11 3 -14 6 -6 3 7 2 16 -1 19 -3 4 -6 -2 -5 -13z"/>
<path d="M7820 3740 c0 -5 5 -10 11 -10 5 0 7 5 4 10 -3 6 -8 10 -11 10 -2 0
-4 -4 -4 -10z"/>
<path d="M8512 3690 c0 -19 2 -27 5 -17 2 9 2 25 0 35 -3 9 -5 1 -5 -18z"/>
<path d="M8960 3705 c0 -8 7 -15 15 -15 8 0 15 7 15 15 0 8 -7 15 -15 15 -8 0
-15 -7 -15 -15z"/>
<path d="M8910 3695 c0 -8 2 -15 4 -15 2 0 6 7 10 15 3 8 1 15 -4 15 -6 0 -10
-7 -10 -15z"/>
<path d="M8751 3674 c0 -11 3 -14 6 -6 3 7 2 16 -1 19 -3 4 -6 -2 -5 -13z"/>
<path d="M8656 3653 c-6 -14 -5 -15 5 -6 7 7 10 15 7 18 -3 3 -9 -2 -12 -12z"/>
<path d="M8961 3658 c-1 -10 6 -18 14 -18 8 0 15 8 15 18 0 13 -2 14 -9 3 -7
-11 -9 -11 -14 0 -4 10 -6 9 -6 -3z"/>
<path d="M8911 3643 c0 -13 2 -14 6 -4 5 11 7 11 14 0 7 -11 9 -10 9 4 0 9 -7
17 -15 17 -8 0 -15 -8 -14 -17z"/>
<path d="M8860 3634 c0 -17 22 -14 28 4 2 7 -3 12 -12 12 -9 0 -16 -7 -16 -16z"/>
<path d="M8807 3624 c2 -7 11 -10 19 -7 19 7 18 10 -5 16 -13 3 -18 1 -14 -9z"/>
<path d="M8280 3614 c0 -8 5 -12 10 -9 6 3 10 10 10 16 0 5 -4 9 -10 9 -5 0
-10 -7 -10 -16z"/>
<path d="M8971 3603 c0 -13 2 -14 6 -4 5 11 7 11 14 0 7 -11 9 -10 9 4 0 9 -7
17 -15 17 -8 0 -15 -8 -14 -17z"/>
<path d="M2030 3589 l-35 -19 37 0 c26 0 38 -5 41 -17 4 -17 5 -17 6 0 0 10 6
15 11 12 6 -3 10 4 10 17 0 18 -2 20 -10 8 -8 -13 -10 -12 -10 3 0 20 -5 20
-50 -4z"/>
<path d="M8918 3603 c7 -3 16 -2 19 1 4 3 -2 6 -13 5 -11 0 -14 -3 -6 -6z"/>
<path d="M4593 3593 c9 -2 23 -2 30 0 6 3 -1 5 -18 5 -16 0 -22 -2 -12 -5z"/>
<path d="M8860 3585 c0 -8 7 -15 15 -15 8 0 15 7 15 15 0 8 -7 15 -15 15 -8 0
-15 -7 -15 -15z"/>
<path d="M8810 3573 c0 -7 7 -13 15 -13 8 0 15 6 15 13 0 8 -7 14 -15 14 -8 0
-15 -6 -15 -14z"/>
<path d="M8918 3583 c7 -3 16 -2 19 1 4 3 -2 6 -13 5 -11 0 -14 -3 -6 -6z"/>
<path d="M4582 3564 c-7 -8 -8 -14 -3 -14 10 0 25 19 20 25 -2 1 -10 -3 -17
-11z"/>
<path d="M8251 3543 c-16 -56 -14 -120 4 -127 12 -4 13 3 8 42 -3 26 -7 48 -9
50 -1 2 4 19 12 38 8 19 10 34 5 34 -6 0 -15 -17 -20 -37z"/>
<path d="M8760 3565 c0 -9 6 -12 15 -9 8 4 15 10 15 15 0 5 -7 9 -15 9 -8 0
-15 -7 -15 -15z"/>
<path d="M8990 3553 c0 -15 -2 -16 -10 -3 -8 13 -10 12 -10 -2 0 -10 7 -18 15
-18 8 0 15 9 15 20 0 11 -2 20 -5 20 -3 0 -5 -8 -5 -17z"/>
<path d="M8920 3542 c0 -10 7 -19 15 -19 8 0 15 9 15 19 0 10 -7 18 -15 18 -8
0 -15 -8 -15 -18z"/>
<path d="M2011 3531 c-9 -16 -8 -18 9 -14 21 6 26 18 11 28 -6 3 -15 -3 -20
-14z"/>
<path d="M2151 3534 c0 -11 3 -14 6 -6 3 7 2 16 -1 19 -3 4 -6 -2 -5 -13z"/>
<path d="M8862 3538 c7 -19 38 -22 38 -4 0 10 -9 16 -21 16 -12 0 -19 -5 -17
-12z"/>
<path d="M2086 3525 c-3 -9 -11 -15 -18 -13 -17 3 -58 -20 -58 -32 0 -6 7 -10
15 -10 8 0 15 4 15 8 0 5 23 15 50 22 50 14 62 32 23 38 -12 2 -23 -4 -27 -13z"/>
<path d="M8813 3525 c0 -8 8 -15 17 -15 9 0 17 7 17 15 0 8 -8 15 -17 15 -9 0
-17 -7 -17 -15z"/>
<path d="M8769 3521 c11 -7 11 -9 0 -14 -10 -4 -9 -6 4 -6 9 -1 17 6 17 14 0
8 -8 15 -17 15 -14 0 -15 -2 -4 -9z"/>
<path d="M1968 3513 c7 -3 16 -2 19 1 4 3 -2 6 -13 5 -11 0 -14 -3 -6 -6z"/>
<path d="M8596 3512 c-3 -5 1 -15 9 -22 16 -14 20 -3 6 19 -5 8 -11 9 -15 3z"/>
<path d="M8722 3505 c-11 -12 -10 -15 3 -15 8 0 15 7 15 15 0 18 -2 18 -18 0z"/>
<path d="M8935 3502 c-18 -13 -15 -32 5 -32 11 0 20 6 20 14 0 18 -13 27 -25
18z"/>
<path d="M8973 3491 c-1 -12 3 -18 11 -15 16 6 17 34 1 34 -6 0 -11 -9 -12
-19z"/>
<path d="M1960 3477 c-31 -10 -33 -11 -11 -15 13 -2 31 3 39 12 18 18 19 18
-28 3z"/>
<path d="M8841 3474 c0 -11 3 -14 6 -6 3 7 2 16 -1 19 -3 4 -6 -2 -5 -13z"/>
<path d="M8871 3478 c-1 -10 6 -18 14 -18 8 0 15 8 15 18 0 13 -2 14 -9 3 -7
-11 -9 -11 -14 0 -4 10 -6 9 -6 -3z"/>
<path d="M4633 3472 c-22 -3 -33 -22 -13 -22 6 0 10 -9 10 -19 0 -16 5 -18 25
-13 13 4 25 10 25 15 1 47 1 47 -47 39z"/>
<path d="M8345 3427 c4 -32 8 -69 8 -82 0 -16 4 -22 13 -18 8 3 14 8 14 12 0
3 3 17 7 30 4 16 2 22 -4 18 -14 -9 -23 29 -11 41 7 7 3 18 -12 34 l-22 23 7
-58z"/>
<path d="M8770 3463 c0 -10 4 -14 8 -8 4 6 11 13 16 18 5 4 2 7 -7 7 -10 0
-17 -8 -17 -17z"/>
<path d="M8821 3464 c0 -11 3 -14 6 -6 3 7 2 16 -1 19 -3 4 -6 -2 -5 -13z"/>
<path d="M8588 3463 c7 -3 16 -2 19 1 4 3 -2 6 -13 5 -11 0 -14 -3 -6 -6z"/>
<path d="M8987 3463 c-11 -10 -8 -43 3 -43 6 0 10 11 10 25 0 26 -2 29 -13 18z"/>
<path d="M2022 3448 c11 -34 138 -58 138 -27 0 5 6 9 14 9 8 0 17 4 20 9 4 5
-2 7 -12 5 -9 -3 -36 -1 -60 4 -23 6 -42 6 -42 1 0 -5 -12 -4 -26 1 -33 13
-36 13 -32 -2z"/>
<path d="M8930 3430 c0 -13 5 -18 15 -14 8 4 15 12 15 20 0 8 -7 14 -15 14 -8
0 -15 -9 -15 -20z"/>
<path d="M8876 3425 c4 -8 12 -15 20 -15 8 0 14 7 14 15 0 8 -9 15 -20 15 -13
0 -18 -5 -14 -15z"/>
<path d="M8826 3415 c4 -8 12 -15 20 -15 8 0 11 6 8 15 -4 8 -12 15 -20 15 -8
0 -11 -6 -8 -15z"/>
<path d="M5036 3401 c-7 -11 3 -41 14 -41 17 0 19 -74 3 -100 -16 -25 -16 -25
4 -7 24 21 34 88 20 130 -9 26 -30 36 -41 18z"/>
<path d="M8986 3402 c-2 -4 -1 -14 5 -22 7 -12 9 -10 9 8 0 23 -5 28 -14 14z"/>
<path d="M8937 3393 c-7 -11 4 -27 21 -31 8 -1 12 4 10 14 -3 19 -23 30 -31
17z"/>
<path d="M8250 3380 c0 -5 5 -10 10 -10 6 0 10 5 10 10 0 6 -4 10 -10 10 -5 0
-10 -4 -10 -10z"/>
<path d="M8880 3370 c0 -22 1 -23 24 -14 18 7 10 34 -10 34 -8 0 -14 -9 -14
-20z"/>
<path d="M8832 3368 c6 -18 28 -21 28 -4 0 9 -7 16 -16 16 -9 0 -14 -5 -12
-12z"/>
<path d="M8936 3340 c-7 -16 2 -35 17 -34 9 1 17 -2 17 -7 0 -5 7 -9 15 -9 10
0 15 10 15 29 0 26 -3 29 -31 27 -17 0 -32 -3 -33 -6z m54 -10 c0 -5 -5 -10
-11 -10 -5 0 -7 5 -4 10 3 6 8 10 11 10 2 0 4 -4 4 -10z"/>
<path d="M8900 3330 c-13 -8 -12 -10 3 -10 9 0 17 5 17 10 0 12 -1 12 -20 0z"/>
<path d="M8709 3225 c-1 -3 -2 -11 -3 -17 -1 -9 -17 -13 -48 -12 -37 0 -49 -3
-53 -17 -7 -22 -34 -32 -50 -19 -10 8 -17 6 -27 -8 -7 -10 -25 -22 -39 -25
-14 -4 -36 -15 -48 -26 -13 -11 -28 -22 -34 -24 -7 -2 36 -74 96 -164 l107
-161 43 9 c82 18 173 51 257 93 l85 42 1 94 c2 104 -2 126 -20 111 -7 -6 -18
-6 -26 -1 -8 5 -17 7 -21 4 -4 -2 -14 8 -24 22 -12 19 -20 23 -28 15 -17 -17
-37 -13 -37 7 0 10 -9 25 -20 35 -17 14 -20 14 -20 2 0 -8 -9 -15 -20 -15 -11
0 -20 6 -20 13 0 21 -47 59 -51 42z"/>
<path d="M3160 3150 c-22 -7 -21 -8 13 -9 20 -1 37 4 37 9 0 11 -14 11 -50 0z"/>
<path d="M4240 3142 c0 -10 -9 -28 -21 -40 -11 -13 -23 -38 -26 -56 l-5 -33
52 -7 c29 -4 55 -5 58 -2 3 3 -3 34 -13 68 -9 35 -19 69 -21 76 -5 19 -24 14
-24 -6z"/>
<path d="M2940 3110 c-8 -5 -12 -12 -9 -15 4 -3 12 1 19 10 14 17 11 19 -10 5z"/>
<path d="M3444 3103 c5 -9 0 -13 -13 -13 -11 0 -23 -4 -26 -10 -3 -6 5 -10 19
-10 30 0 43 17 26 33 -10 9 -11 9 -6 0z"/>
<path d="M8160 3085 c-27 -29 -21 -41 45 -80 53 -31 59 -31 91 -2 19 18 25 32
22 57 -4 46 -30 61 -60 33 -22 -20 -61 -19 -58 2 3 19 -17 15 -40 -10z"/>
<path d="M2976 3054 c-9 -24 -7 -52 5 -59 6 -4 13 2 16 13 2 11 14 23 26 26
22 5 22 5 2 20 -26 20 -41 20 -49 0z"/>
<path d="M7046 3051 c-3 -5 12 -28 35 -51 36 -37 44 -41 72 -34 34 7 77 32 77
44 0 4 -7 13 -15 20 -12 10 -18 10 -30 0 -9 -7 -15 -8 -15 -2 0 14 -58 33 -65
21 -4 -5 -13 -5 -25 1 -23 12 -27 12 -34 1z"/>
<path d="M3072 3023 c6 -8 16 -10 26 -4 8 5 23 6 33 4 11 -3 19 -1 19 4 0 5
-20 9 -44 9 -34 -1 -42 -4 -34 -13z"/>
<path d="M3035 2980 c3 -5 11 -10 16 -10 6 0 7 5 4 10 -3 6 -11 10 -16 10 -6
0 -7 -4 -4 -10z"/>
<path d="M3135 2979 c-11 -17 1 -21 15 -4 8 9 8 15 2 15 -6 0 -14 -5 -17 -11z"/>
<path d="M4822 2979 c2 -6 8 -10 13 -10 5 0 11 4 13 10 2 6 -4 11 -13 11 -9 0
-15 -5 -13 -11z"/>
<path d="M4860 2980 c0 -5 5 -10 10 -10 6 0 10 5 10 10 0 6 -4 10 -10 10 -5 0
-10 -4 -10 -10z"/>
<path d="M4895 2980 c4 -6 11 -8 16 -5 14 9 11 15 -7 15 -8 0 -12 -5 -9 -10z"/>
<path d="M4369 2833 c-13 -15 -12 -15 9 -4 23 12 28 21 13 21 -5 0 -15 -7 -22
-17z"/>
<path d="M1266 2803 c-6 -14 -5 -15 5 -6 7 7 10 15 7 18 -3 3 -9 -2 -12 -12z"/>
<path d="M6610 2776 c-23 -9 -35 -19 -35 -32 0 -17 9 -19 70 -22 56 -2 68 -1
58 9 -7 7 -13 23 -13 36 0 27 -23 29 -80 9z"/>
<path d="M1241 2766 c-10 -12 -9 -14 5 -12 10 2 20 8 22 14 5 17 -13 15 -27
-2z"/>
<path d="M1222 2720 c0 -14 2 -19 5 -12 2 6 2 18 0 25 -3 6 -5 1 -5 -13z"/>
<path d="M2557 2719 c7 -7 15 -10 18 -7 3 3 -2 9 -12 12 -14 6 -15 5 -6 -5z"/>
<path d="M7089 2698 c-10 -19 -9 -24 11 -37 13 -9 51 -17 84 -19 95 -5 106 -6
106 -14 0 -5 5 -8 12 -8 19 0 -25 41 -77 71 -63 36 -119 39 -136 7z"/>
<path d="M8916 2695 c-29 -16 -46 -20 -46 -12 0 9 -2 9 -9 -1 -4 -7 -32 -15
-62 -18 -93 -9 -93 -9 -101 -42 -6 -22 -13 -30 -23 -26 -23 9 -38 -37 -18 -53
11 -9 13 -16 6 -25 -6 -7 -13 -22 -17 -33 -5 -17 -1 -21 22 -24 15 -1 34 -3
43 -4 18 -2 43 -25 52 -49 3 -10 11 -18 17 -18 5 0 10 8 11 18 0 9 3 12 5 6 3
-6 15 -9 28 -7 19 4 27 -1 37 -23 13 -25 98 -82 127 -83 9 -1 12 47 12 209 0
239 3 232 -84 185z"/>
<path d="M7675 2701 c-10 -17 15 -23 31 -7 14 15 14 16 -5 16 -11 0 -22 -4
-26 -9z"/>
<path d="M7760 2686 c0 -9 5 -16 10 -16 6 0 10 4 10 9 0 6 -4 13 -10 16 -5 3
-10 -1 -10 -9z"/>
<path d="M7720 2680 c0 -5 7 -10 15 -10 8 0 15 5 15 10 0 6 -7 10 -15 10 -8 0
-15 -4 -15 -10z"/>
<path d="M7320 2606 c0 -21 -4 -23 -40 -20 -21 2 -42 -1 -45 -5 -6 -11 63 -67
90 -73 11 -2 19 -11 19 -21 -1 -9 7 -19 17 -22 11 -4 19 -11 19 -16 0 -5 11
-14 25 -19 14 -5 25 -14 25 -20 0 -6 4 -8 10 -5 5 3 25 -1 42 -11 64 -33 66
-34 72 -19 4 11 13 12 41 4 42 -12 55 -6 55 25 0 22 -47 66 -70 66 -6 0 -16
14 -21 30 -10 29 -14 30 -67 30 -64 0 -76 6 -86 36 -3 11 -24 30 -46 42 l-40
21 0 -23z"/>
<path d="M1055 2578 c-22 -13 -65 -59 -65 -70 0 -15 40 -28 82 -28 41 0 45 2
53 33 9 28 7 35 -16 55 -31 25 -28 25 -54 10z"/>
<path d="M7180 2580 c0 -5 7 -10 15 -10 8 0 15 5 15 10 0 6 -7 10 -15 10 -8 0
-15 -4 -15 -10z"/>
<path d="M8595 2480 c-3 -5 1 -10 10 -10 9 0 13 5 10 10 -3 6 -8 10 -10 10 -2
0 -7 -4 -10 -10z"/>
<path d="M7130 2378 c0 -18 -2 -20 -10 -8 -8 12 -10 9 -10 -12 0 -29 4 -28
-86 -28 -27 0 -32 -4 -37 -30 -11 -51 5 -67 87 -85 16 -3 53 -22 81 -41 29
-19 59 -34 67 -34 9 0 21 -7 28 -15 7 -8 20 -15 29 -15 9 0 31 -9 49 -20 17
-11 32 -15 32 -10 0 7 7 7 21 0 l20 -11 -21 40 c-11 23 -25 41 -31 41 -6 0 -8
4 -5 9 3 5 -3 11 -14 14 -15 4 -20 14 -20 36 0 24 -4 31 -19 31 -11 0 -23 12
-31 30 -7 17 -25 40 -41 51 -16 11 -34 32 -41 47 -17 35 -48 42 -48 10z"/>
<path d="M7653 2298 c36 -89 8 -148 -43 -90 -19 22 -40 32 -90 41 -36 7 -69
16 -75 21 -11 9 -66 20 -110 23 -21 1 -30 -3 -33 -15 -2 -11 3 -18 13 -18 8 0
20 -11 25 -25 5 -14 14 -25 19 -25 6 0 18 -14 27 -31 14 -27 19 -30 47 -25 31
6 49 1 146 -46 61 -29 86 -23 76 16 -6 21 -6 21 9 2 9 -11 16 -16 16 -11 0 5
6 1 13 -10 8 -10 19 -15 25 -11 7 4 12 2 12 -3 0 -6 15 -17 34 -25 18 -8 36
-18 40 -24 8 -13 56 9 56 26 0 9 6 9 23 -3 13 -8 26 -13 29 -9 5 5 23 8 96 18
12 2 22 0 22 -3 0 -17 75 -8 104 12 17 12 33 23 34 24 2 1 0 9 -6 19 -6 11
-11 13 -16 5 -12 -18 -35 -13 -64 15 -15 15 -21 23 -14 19 10 -5 11 0 6 22
-12 51 -28 59 -141 70 -29 3 -53 9 -53 14 0 5 -9 9 -19 9 -11 0 -33 11 -49 25
-49 41 -60 26 -17 -22 14 -15 29 -33 35 -40 5 -7 10 -23 10 -37 0 -13 6 -31
14 -39 16 -16 10 -29 -22 -46 -29 -15 -56 2 -49 31 3 11 -2 22 -14 29 -11 5
-19 15 -18 22 2 14 -8 45 -22 67 -5 8 -12 22 -15 32 -5 15 -33 28 -62 28 -10
0 -10 -7 1 -32z"/>
<path d="M6920 2270 c0 -16 39 -70 51 -70 12 0 -14 52 -35 69 -12 10 -16 10
-16 1z"/>
<path d="M157 2250 c3 -11 7 -20 9 -20 2 0 4 9 4 20 0 11 -4 20 -9 20 -5 0 -7
-9 -4 -20z"/>
<path d="M8095 2180 c4 -6 11 -8 16 -5 14 9 11 15 -7 15 -8 0 -12 -5 -9 -10z"/>
<path d="M7825 2170 c-3 -5 -1 -10 4 -10 6 0 11 5 11 10 0 6 -2 10 -4 10 -3 0
-8 -4 -11 -10z"/>
<path d="M8920 2171 c0 -6 4 -13 10 -16 6 -3 7 1 4 9 -7 18 -14 21 -14 7z"/>
<path d="M613 2133 c-32 -29 -48 -69 -35 -89 4 -6 18 -15 32 -19 14 -4 29 -13
33 -19 5 -6 6 -2 2 10 -3 14 0 24 8 27 8 3 14 20 15 37 0 18 3 34 6 37 7 7
-12 43 -22 43 -4 0 -22 -12 -39 -27z"/>
<path d="M2702 2115 c0 -16 2 -22 5 -12 2 9 2 23 0 30 -3 6 -5 -1 -5 -18z"/>
<path d="M6313 2133 c9 -2 23 -2 30 0 6 3 -1 5 -18 5 -16 0 -22 -2 -12 -5z"/>
<path d="M6380 2133 c14 -3 30 -9 35 -13 6 -5 17 -5 24 -1 15 10 -20 21 -59
20 l-25 -2 25 -4z"/>
<path d="M7030 2121 c-16 -31 -12 -51 15 -63 14 -6 25 -14 25 -17 -1 -21 -52
-57 -74 -52 -4 1 -6 -19 -4 -44 3 -37 1 -43 -9 -30 -6 9 -17 38 -23 65 -11 47
-13 48 -53 53 -23 3 -94 4 -157 2 -833 -21 -1458 -16 -3519 26 -288 5 -526 8
-529 4 -11 -11 34 -34 68 -35 19 0 62 -2 95 -4 33 -1 107 -3 165 -3 446 -2
745 -9 760 -18 8 -5 77 -10 155 -12 77 -2 184 -4 238 -6 54 -1 101 0 104 3 7
8 53 7 53 -1 0 -12 32 -20 44 -11 13 11 239 7 257 -3 6 -4 104 -9 218 -11 113
-2 210 -4 215 -4 5 0 6 -3 2 -7 -4 -4 -53 -8 -109 -9 -459 -6 -517 -9 -517
-30 0 -20 -38 -17 -43 4 -4 16 -5 16 -6 0 -1 -16 -13 -18 -110 -18 -78 0 -111
4 -115 13 -5 10 -7 10 -12 0 -8 -18 -63 -16 -70 2 -7 18 -31 20 -36 3 -4 -11
-48 -20 -48 -9 0 5 -77 6 -90 1 -14 -5 -56 -7 -63 -3 -5 3 -28 6 -52 8 -32 2
-45 -2 -49 -12 -5 -13 -9 -13 -22 -2 -13 10 -17 10 -26 -2 -5 -8 -11 -10 -14
-4 -2 6 -25 8 -50 6 -25 -2 -51 2 -57 8 -7 7 -69 11 -178 11 -167 0 -168 0
-187 -25 -12 -15 -23 -21 -27 -15 -10 16 -63 12 -73 -6 -7 -13 -29 -16 -108
-18 l-99 -1 0 -38 c-1 -42 4 -45 83 -48 29 -2 55 -6 58 -10 2 -5 -5 -6 -16 -4
-15 3 -20 -1 -20 -16 0 -19 -5 -20 -100 -15 -93 4 -101 3 -111 -15 -12 -23 -3
-95 13 -105 5 -3 17 1 26 9 34 31 116 58 191 63 42 3 82 8 90 10 7 2 127 7
265 9 138 3 299 7 358 10 99 6 107 5 120 -14 14 -20 29 -21 609 -30 639 -10
739 -10 739 5 -1 5 14 12 32 16 72 15 151 37 159 45 4 4 -73 8 -172 8 -99 -1
-182 2 -184 5 -1 3 -6 19 -9 36 -7 30 -6 31 35 37 23 3 68 1 100 -4 48 -8 74
-6 136 10 43 10 90 22 106 25 62 14 18 21 -137 21 -90 0 -162 -3 -159 -7 2 -5
0 -8 -5 -8 -12 0 -32 54 -32 85 0 20 5 21 68 22 37 1 131 3 210 7 100 4 142 2
142 -6 0 -7 18 -8 58 -3 31 4 73 7 92 7 19 0 96 -1 170 -2 74 -1 140 -6 145
-10 6 -5 44 -9 85 -9 111 0 221 -12 214 -23 -4 -6 2 -6 13 0 19 11 193 12 193
2 0 -3 9 -6 20 -7 12 -1 18 3 14 9 -5 7 6 8 32 4 44 -7 49 -7 84 -5 71 4 85
-1 113 -41 15 -22 33 -39 40 -37 6 1 11 -6 12 -15 0 -9 8 -23 18 -31 11 -7 20
-25 20 -40 2 -20 10 -30 32 -39 17 -6 33 -17 38 -22 4 -7 10 -6 17 4 9 13 11
13 19 1 10 -16 41 -24 41 -11 0 5 -6 11 -12 14 -7 3 -4 5 6 3 13 -1 23 -13 28
-34 5 -18 12 -34 16 -36 4 -3 72 -8 152 -12 234 -10 343 -23 406 -46 68 -25
89 -42 135 -109 22 -32 46 -54 70 -63 26 -10 49 -32 78 -76 32 -47 47 -61 66
-61 28 0 31 16 10 44 -26 34 -18 49 13 27 15 -11 48 -25 74 -30 25 -6 116 -38
200 -71 l155 -60 68 -75 c38 -41 72 -72 77 -69 4 3 6 10 3 15 -4 5 -3 9 2 9
10 0 41 -20 32 -20 -4 0 17 -24 45 -52 28 -29 63 -71 78 -93 14 -22 47 -62 72
-90 40 -43 46 -47 46 -27 0 12 -4 22 -8 22 -4 0 -13 14 -19 30 -9 25 -9 30 3
30 8 0 17 -8 21 -17 3 -10 17 -29 30 -43 51 -54 99 -117 117 -152 10 -21 27
-45 37 -54 18 -17 19 -3 19 519 0 450 -2 537 -14 537 -11 0 -29 -47 -37 -95
-3 -22 -21 -45 -34 -45 -17 0 -19 27 -6 63 8 20 6 26 -7 29 -10 3 -24 -2 -31
-10 -10 -11 -27 -13 -63 -9 -41 5 -50 3 -61 -13 -6 -11 -19 -20 -28 -20 -18 0
-41 22 -38 36 4 22 -2 35 -13 28 -23 -14 -60 -10 -72 8 -15 25 -36 22 -74 -10
-42 -36 -122 -45 -122 -14 0 26 -25 46 -50 39 -11 -3 -20 -1 -20 4 0 4 -6 6
-14 3 -21 -8 -28 12 -11 29 13 13 12 16 -10 21 -16 4 -25 13 -25 26 0 17 -7
20 -40 20 -33 0 -40 -3 -40 -20 0 -14 -7 -20 -22 -20 -13 0 -34 -3 -47 -7 -17
-4 -22 -3 -17 5 4 7 1 12 -10 12 -13 0 -14 3 -4 15 7 9 8 15 2 15 -6 0 -9 8
-7 18 1 9 8 16 14 15 6 -2 16 7 22 20 7 12 19 27 28 34 14 11 14 12 -1 13 -10
0 -18 6 -18 13 0 22 -42 55 -87 66 -23 6 -43 16 -45 22 -4 13 -81 27 -146 28
-26 1 -41 5 -37 11 3 6 -4 10 -17 10 -13 0 -28 4 -34 9 -5 5 -40 12 -79 16
-38 4 -74 10 -80 15 -5 4 -21 8 -35 9 -48 2 -75 7 -87 14 -19 12 -42 -3 -45
-29 l-3 -24 -80 40 c-44 22 -87 40 -96 40 -9 0 -19 7 -23 15 -3 8 -18 15 -33
15 -15 0 -50 7 -77 15 -65 20 -83 19 -96 -4z m450 -141 c0 -5 -4 -10 -10 -10
-5 0 -10 5 -10 10 0 6 5 10 10 10 6 0 10 -4 10 -10z m70 -40 c11 -11 31 -20
44 -20 20 0 36 -16 36 -36 0 -14 -20 -1 -21 14 0 10 -3 12 -6 5 -2 -7 -17 -13
-33 -13 -30 0 -44 13 -53 48 -6 27 7 28 33 2z m-620 -60 c0 -5 -2 -10 -4 -10
-3 0 -8 5 -11 10 -3 6 -1 10 4 10 6 0 11 -4 11 -10z m54 -41 c-7 -12 -44 12
-44 29 0 9 6 8 25 -4 14 -9 22 -20 19 -25z m-3603 -12 c63 6 218 10 344 9 197
-1 230 -3 230 -16 0 -8 7 -20 15 -27 12 -10 6 -12 -32 -13 -29 0 -48 4 -48 11
0 6 9 9 20 6 11 -3 23 -1 26 4 8 14 4 14 -360 14 -273 0 -340 3 -344 13 -3 11
0 11 15 2 15 -10 47 -10 134 -3z m1019 -38 c0 -16 -31 -22 -43 -10 -9 9 -9 14
2 20 16 10 41 4 41 -10z m2526 -6 c-7 -7 -26 7 -26 19 0 6 6 6 15 -2 9 -7 13
-15 11 -17z m-2826 0 c0 -10 -10 -13 -32 -11 -45 4 -49 28 -4 26 24 -1 36 -6
36 -15z m238 6 c-5 -15 -210 -17 -216 -1 -3 9 24 12 108 12 74 0 110 -4 108
-11z m-798 -3 c0 -9 -30 -14 -35 -6 -4 6 3 10 14 10 12 0 21 -2 21 -4z m37 -2
c-3 -3 -12 -4 -19 -1 -8 3 -5 6 6 6 11 1 17 -2 13 -5z m43 -4 c0 -5 -4 -10
-10 -10 -5 0 -10 5 -10 10 0 6 5 10 10 10 6 0 10 -4 10 -10z m45 0 c-3 -5 -10
-10 -16 -10 -5 0 -9 5 -9 10 0 6 7 10 16 10 8 0 12 -4 9 -10z m72 4 c-3 -3
-12 -4 -19 -1 -8 3 -5 6 6 6 11 1 17 -2 13 -5z m81 -1 c-10 -2 -28 -2 -40 0
-13 2 -5 4 17 4 22 1 32 -1 23 -4z m-698 -23 c0 -12 -8 -12 -35 0 -18 8 -17 9
8 9 15 1 27 -3 27 -9z m3825 -20 c3 -6 -4 -10 -17 -10 -18 0 -20 2 -8 10 19
12 18 12 25 0z m-1702 -27 c-7 -2 -19 -2 -25 0 -7 3 -2 5 12 5 14 0 19 -2 13
-5z m3112 -193 c-3 -5 -13 -6 -21 -3 -12 4 -13 8 -3 14 15 9 32 2 24 -11z
m614 -820 c1 -9 -5 -6 -15 8 -8 12 -12 27 -8 34 8 12 22 -13 23 -42z"/>
<path d="M6470 2122 c0 -6 7 -9 15 -6 8 4 15 2 15 -4 0 -6 16 -8 40 -5 27 4
40 2 40 -6 0 -7 16 -11 43 -11 23 1 104 -4 180 -11 105 -10 140 -10 149 -1 6
6 10 13 7 16 -4 4 -228 23 -391 33 -69 4 -98 3 -98 -5z"/>
<path d="M6606 1901 c-3 -5 5 -11 17 -13 15 -3 24 0 24 9 0 15 -33 18 -41 4z"/>
<path d="M6555 1880 c-3 -6 1 -7 9 -4 18 7 21 14 7 14 -6 0 -13 -4 -16 -10z"/>
<path d="M1681 1853 c3 -39 -2 -60 -20 -79 -13 -15 -16 -25 -9 -38 5 -9 6 -25
3 -36 -4 -13 -2 -20 7 -20 7 0 35 -11 62 -25 27 -14 53 -25 58 -25 13 0 10 27
-5 42 -21 21 -57 106 -57 134 0 30 -16 64 -31 64 -6 0 -9 -8 -8 -17z"/>
<path d="M6600 1810 c0 -13 5 -17 20 -13 11 3 20 9 20 13 0 4 -9 10 -20 13
-15 4 -20 0 -20 -13z"/>
<path d="M6660 1810 c0 -5 5 -10 11 -10 5 0 7 5 4 10 -3 6 -8 10 -11 10 -2 0
-4 -4 -4 -10z"/>
<path d="M1620 1790 c0 -5 5 -10 10 -10 6 0 10 5 10 10 0 6 -4 10 -10 10 -5 0
-10 -4 -10 -10z"/>
<path d="M3733 1673 c20 -2 54 -2 75 0 20 2 3 4 -38 4 -41 0 -58 -2 -37 -4z"/>
<path d="M6960 1655 c0 -8 5 -15 10 -15 6 0 10 7 10 15 0 8 -4 15 -10 15 -5 0
-10 -7 -10 -15z"/>
<path d="M8905 1629 c-10 -15 3 -25 16 -12 7 7 7 13 1 17 -6 3 -14 1 -17 -5z"/>
<path d="M2354 1328 l-19 -23 23 19 c21 18 27 26 19 26 -2 0 -12 -10 -23 -22z"/>
<path d="M3336 1314 c-9 -8 -23 -41 -31 -72 -8 -31 -26 -95 -40 -142 -42 -146
-57 -204 -65 -245 -4 -22 -17 -67 -29 -99 -11 -33 -21 -69 -21 -81 0 -12 -11
-51 -24 -87 -13 -36 -26 -83 -30 -104 -4 -22 -18 -70 -31 -109 -13 -38 -27
-86 -30 -105 -4 -19 -20 -73 -35 -120 -15 -47 -30 -100 -34 -117 l-5 -33 108
0 109 0 22 37 c14 24 25 65 30 119 5 45 16 97 25 115 10 18 20 60 22 93 3 34
14 78 25 98 10 21 21 66 24 100 3 35 15 85 26 113 11 27 22 71 24 99 2 27 11
65 20 84 9 20 18 60 20 90 2 30 10 65 19 79 9 14 19 50 22 81 3 32 11 66 18
78 7 11 16 41 20 66 9 62 -8 78 -85 78 -40 0 -64 -5 -74 -16z m24 -194 c0 -5
-4 -10 -10 -10 -5 0 -10 5 -10 10 0 6 5 10 10 10 6 0 10 -4 10 -10z"/>
<path d="M3569 1293 c-14 -36 -37 -124 -49 -188 -12 -69 -28 -138 -51 -220
-10 -38 -19 -85 -19 -103 0 -18 -7 -49 -15 -68 -8 -20 -20 -66 -26 -102 -7
-37 -20 -91 -30 -121 -11 -30 -19 -70 -19 -90 0 -20 -12 -67 -25 -106 -14 -38
-25 -87 -25 -108 0 -21 -6 -50 -14 -65 -7 -15 -16 -40 -19 -57 -3 -16 -9 -38
-12 -47 -7 -17 7 -18 198 -18 233 0 217 -7 217 91 0 34 9 86 21 121 15 44 19
74 14 104 -4 30 -1 54 11 81 9 21 18 67 19 103 2 36 10 83 19 105 8 22 15 64
16 93 0 29 5 63 11 75 7 11 13 51 14 88 2 37 9 77 15 89 7 13 13 51 15 84 1
34 7 70 12 81 6 11 16 51 23 89 9 58 9 72 -5 92 -15 23 -19 24 -150 24 l-135
0 -11 -27z m221 -1 c0 -13 -12 -22 -22 -16 -10 6 -1 24 13 24 5 0 9 -4 9 -8z"/>
<path d="M3951 1294 c-5 -13 -13 -47 -16 -76 -3 -29 -13 -83 -22 -120 -8 -38
-13 -75 -9 -83 3 -8 -1 -34 -10 -57 -8 -23 -16 -67 -18 -97 -2 -31 -9 -74 -15
-96 -6 -22 -11 -57 -11 -79 0 -21 -7 -64 -15 -95 -8 -31 -15 -74 -16 -96 -1
-22 -8 -65 -16 -95 -8 -30 -18 -86 -23 -125 -5 -38 -13 -92 -18 -120 -6 -27
-13 -74 -16 -102 l-5 -53 194 0 194 0 11 55 c6 31 13 93 16 138 2 45 6 126 8
179 3 54 10 107 16 119 6 11 10 50 9 87 -2 37 3 85 10 106 9 25 11 60 8 96 -4
31 -2 61 3 66 9 9 17 96 24 252 2 57 7 76 22 87 47 35 70 10 54 -60 -6 -27 -6
-53 -1 -68 6 -14 5 -30 -2 -42 -6 -11 -11 -54 -12 -95 -1 -41 -6 -86 -10 -100
-4 -13 -9 -56 -11 -95 -2 -38 -8 -115 -13 -170 -6 -55 -14 -150 -19 -211 -5
-61 -12 -116 -16 -123 -4 -7 -8 -45 -7 -85 0 -40 -3 -87 -8 -104 l-10 -32 202
0 202 0 3 158 c2 86 6 249 9 362 5 192 6 251 5 325 -1 79 5 194 12 226 4 21 3
53 -4 79 -8 30 -8 46 -1 53 16 16 13 59 -7 83 -17 21 -25 22 -339 27 l-321 4
-11 -23z m229 -19 c0 -19 -20 -29 -32 -17 -15 15 -2 43 17 36 8 -3 15 -12 15
-19z m-12 -142 c-4 -20 -18 -26 -37 -14 -18 12 -5 31 20 31 14 0 19 -6 17 -17z
m305 -317 c7 -17 -22 -30 -47 -20 -13 5 -14 9 -5 20 15 18 45 18 52 0z"/>
<path d="M4711 1274 c-8 -18 -12 -91 -11 -223 0 -108 -2 -263 -5 -346 -2 -82
-6 -275 -9 -428 l-6 -277 198 2 197 3 -2 35 c-1 19 -6 100 -12 180 -6 80 -10
161 -9 180 0 19 0 44 0 55 -7 124 -16 345 -25 609 -5 137 -11 195 -21 211 -13
20 -23 21 -148 23 l-135 2 -12 -26z m219 2 c0 -11 -19 -15 -25 -6 -3 5 1 10 9
10 9 0 16 -2 16 -4z"/>
<path d="M5287 1283 c-11 -10 -8 -118 3 -129 5 -5 6 -15 1 -22 -6 -10 -14 -10
-35 -2 -15 5 -54 10 -87 10 -67 0 -77 -11 -74 -82 3 -60 15 -68 116 -68 49 0
89 -1 90 -2 0 -2 3 -35 5 -75 6 -95 -4 -105 -98 -101 -91 3 -102 -9 -94 -102
6 -66 16 -287 15 -350 0 -19 3 -108 7 -197 l6 -163 234 0 c129 0 234 2 234 5
0 24 -42 320 -46 327 -3 5 -8 47 -10 93 -2 46 -9 103 -15 127 -11 42 -21 120
-37 291 -4 45 -12 90 -18 101 -6 10 -9 38 -6 61 2 23 -1 60 -8 81 -8 22 -12
62 -11 91 1 32 -4 63 -14 82 -15 30 -18 31 -84 31 -37 0 -71 -3 -74 -7z m79
-33 c0 -11 -4 -20 -8 -20 -10 0 -11 24 -1 33 9 9 9 10 9 -13z m38 -161 c-3 -5
-10 -7 -15 -3 -5 3 -7 10 -3 15 3 5 10 7 15 3 5 -3 7 -10 3 -15z"/>
<path d="M1225 1164 c-27 -7 -60 -14 -73 -14 -14 0 -20 -4 -17 -10 4 -6 15 -8
25 -5 10 3 21 1 25 -5 3 -5 16 -10 28 -10 20 -1 20 -2 -6 -16 -23 -12 -26 -18
-17 -34 9 -17 21 -20 73 -20 34 1 80 7 102 15 22 8 50 15 63 15 12 0 22 3 22
6 0 15 -22 44 -35 44 -7 0 -15 6 -17 12 -3 9 -9 8 -22 -5 -19 -19 -56 -23 -56
-6 0 6 5 19 10 30 10 17 7 19 -22 18 -18 0 -55 -7 -83 -15z"/>
<path d="M8556 995 c4 -8 11 -15 16 -15 6 0 5 6 -2 15 -7 8 -14 15 -16 15 -2
0 -1 -7 2 -15z"/>
<path d="M1210 896 c0 -9 5 -16 10 -16 6 0 10 4 10 9 0 6 -4 13 -10 16 -5 3
-10 -1 -10 -9z"/>
<path d="M2055 830 c-8 -13 -1 -24 14 -19 6 3 7 10 2 18 -6 10 -10 10 -16 1z"/>
<path d="M1201 814 c0 -11 3 -14 6 -6 3 7 2 16 -1 19 -3 4 -6 -2 -5 -13z"/>
<path d="M1200 683 c0 -23 15 -39 24 -25 3 5 -1 18 -9 28 -14 18 -14 18 -15
-3z"/>
<path d="M900 630 c0 -5 5 -10 10 -10 6 0 10 5 10 10 0 6 -4 10 -10 10 -5 0
-10 -4 -10 -10z"/>
<path d="M980 359 c0 -5 5 -7 10 -4 6 3 10 8 10 11 0 2 -4 4 -10 4 -5 0 -10
-5 -10 -11z"/>
<path d="M8399 274 c0 -11 -2 -30 -3 -44 -4 -28 27 -163 45 -203 11 -24 18
-27 61 -27 46 0 49 1 43 23 -24 84 -98 231 -131 258 -11 9 -14 8 -15 -7z"/>
</g>
</svg>
