<?xml version="1.0" standalone="no"?>
<!DOCTYPE svg PUBLIC "-//W3C//DTD SVG 20010904//EN"
 "http://www.w3.org/TR/2001/REC-SVG-20010904/DTD/svg10.dtd">
<svg version="1.0" xmlns="http://www.w3.org/2000/svg"
 width="900.000000pt" height="600.000000pt" viewBox="0 0 900.000000 600.000000"
 preserveAspectRatio="xMidYMid meet">

<g transform="translate(0.000000,600.000000) scale(0.100000,-0.100000)"
fill="#000000" stroke="none">
<path d="M0 5841 l0 -160 43 -3 c43 -3 133 16 154 34 7 6 36 12 65 13 49 3 96
13 174 36 17 5 45 9 62 9 18 0 32 5 32 10 0 6 -10 10 -22 10 -37 0 -186 -28
-206 -39 -10 -5 -42 -12 -71 -15 -50 -4 -53 -4 -48 17 3 12 9 61 12 109 6 70
10 87 25 91 10 3 24 -5 36 -20 14 -20 25 -24 49 -20 33 5 108 65 99 79 -3 4
-95 8 -205 8 l-199 0 0 -159z"/>
<path d="M7398 5965 c-27 -31 -37 -65 -20 -65 14 0 82 72 82 86 0 25 -34 13
-62 -21z"/>
<path d="M7720 5976 c-19 -37 -6 -67 60 -136 33 -34 60 -66 60 -71 0 -4 16
-24 37 -44 44 -43 36 -57 -18 -28 -22 12 -48 20 -57 17 -15 -5 -15 -4 -2 5 13
10 12 14 -9 32 -13 11 -31 17 -38 14 -8 -3 -23 -5 -34 -5 -30 0 -22 -14 26
-45 26 -16 48 -38 51 -52 4 -12 11 -23 18 -23 14 0 66 -47 66 -60 0 -12 -17
-13 -22 -2 -1 4 -22 19 -45 35 -24 15 -43 33 -43 40 0 12 -88 77 -105 77 -5 0
7 -17 27 -37 20 -21 50 -51 66 -68 15 -16 61 -55 100 -85 40 -29 72 -58 72
-62 0 -16 -28 -7 -55 18 -47 43 -198 144 -217 144 -26 0 -22 -17 10 -36 143
-88 254 -176 239 -190 -9 -9 -59 21 -109 65 -25 23 -49 41 -53 41 -11 0 -125
90 -125 99 0 4 -19 22 -42 39 -24 17 -65 52 -92 77 -50 46 -78 54 -84 23 -5
-28 99 -117 237 -203 9 -5 30 -21 47 -35 17 -14 39 -30 50 -37 18 -12 18 -12
-1 -12 -11 0 -40 13 -64 29 -46 32 -61 36 -61 20 0 -5 13 -16 29 -24 16 -9 33
-28 39 -44 7 -19 30 -40 77 -67 72 -43 101 -75 65 -75 -11 0 -20 4 -20 9 0 4
-30 23 -66 41 -48 23 -69 29 -77 21 -6 -6 -9 -12 -6 -13 2 -2 26 -14 53 -28
46 -24 85 -64 73 -76 -3 -4 -16 5 -29 18 -13 14 -31 27 -40 31 -10 3 -18 11
-18 17 0 5 -7 10 -15 10 -8 0 -15 -4 -15 -10 0 -11 -92 -5 -118 9 -34 17 -99
22 -111 8 -11 -15 13 -55 60 -100 13 -12 32 -34 42 -49 9 -16 23 -28 31 -28 7
0 33 -16 57 -35 24 -19 50 -35 57 -35 6 0 12 -6 12 -14 0 -7 10 -25 21 -40 34
-43 17 -39 -35 7 -53 49 -106 83 -106 69 0 -5 14 -20 31 -33 17 -13 37 -35 44
-50 14 -25 13 -26 -20 -25 -19 1 -37 5 -41 9 -23 23 -34 -18 -11 -42 10 -11 8
-13 -8 -8 -11 2 -28 8 -37 12 -14 6 -18 2 -18 -19 0 -16 -8 -30 -22 -37 l-21
-11 24 -19 c13 -10 20 -19 14 -20 -5 -1 -14 -3 -20 -4 -31 -4 -52 -18 -70 -45
-21 -32 -35 -38 -35 -17 0 7 9 18 20 25 24 14 26 32 5 32 -9 0 -21 -11 -27
-25 -6 -14 -15 -25 -20 -25 -4 0 -8 -7 -8 -15 0 -8 7 -15 15 -15 8 0 15 -5 15
-10 0 -6 -11 -8 -27 -4 -27 6 -27 6 -8 -9 19 -16 18 -16 -20 -18 -22 -1 -44
-2 -50 -3 -13 -1 -18 -21 -6 -21 5 0 13 -3 17 -7 4 -5 23 -8 41 -8 19 0 41 -6
49 -14 7 -8 19 -17 26 -20 9 -4 10 -8 2 -11 -6 -3 -19 -11 -28 -18 -16 -12
-16 -14 3 -39 25 -31 26 -38 6 -38 -9 0 -20 10 -26 23 -17 36 -53 56 -151 82
-51 13 -135 35 -186 49 -100 28 -132 32 -116 16 5 -5 54 -21 109 -35 55 -14
123 -34 150 -45 28 -10 66 -22 86 -25 37 -6 84 -45 77 -65 -2 -7 -19 1 -42 19
-39 31 -80 42 -70 19 3 -7 28 -31 56 -52 28 -22 46 -42 40 -44 -15 -5 -78 34
-95 57 -12 18 -99 81 -112 81 -14 0 27 -45 89 -96 62 -51 79 -74 56 -74 -12 0
-133 98 -138 112 -5 12 -78 48 -99 48 -21 0 -89 23 -99 33 -10 10 -34 9 -34
-2 0 -9 77 -41 100 -41 31 0 129 -55 132 -74 2 -11 26 -36 54 -55 66 -47 91
-71 71 -71 -8 0 -25 8 -38 19 -13 10 -43 28 -66 40 -23 11 -47 30 -53 41 -12
23 -40 27 -40 5 0 -14 13 -25 79 -68 19 -12 36 -28 39 -34 5 -18 -58 -5 -83
17 -11 10 -41 29 -66 44 -25 14 -54 35 -64 46 -10 11 -27 20 -37 20 -11 0 -16
5 -13 10 6 10 -17 40 -32 40 -4 0 -30 11 -58 25 -54 26 -65 29 -65 17 0 -4 16
-16 35 -26 19 -11 35 -23 35 -27 0 -5 6 -6 13 -4 6 3 35 -16 62 -41 28 -25 66
-55 85 -68 46 -30 138 -117 153 -144 7 -11 22 -34 35 -51 l23 -31 -25 0 c-15
0 -34 10 -44 22 -9 11 -25 29 -35 40 -10 10 -15 23 -12 29 8 11 -81 96 -110
105 -11 4 -40 28 -65 54 -44 46 -142 108 -237 150 -52 23 -53 23 -53 12 0 -5
17 -16 38 -25 20 -9 46 -22 57 -29 201 -126 308 -216 299 -252 -3 -16 3 -25
26 -38 29 -17 40 -38 20 -38 -5 0 -10 5 -10 10 0 6 -4 10 -10 10 -12 0 -122
70 -135 86 -20 24 -88 64 -110 64 -13 0 -52 20 -89 45 -79 54 -188 110 -235
120 -52 11 -31 -7 63 -54 110 -56 193 -123 225 -184 31 -57 50 -78 120 -132
28 -22 68 -58 89 -79 20 -22 50 -53 67 -70 16 -17 29 -36 27 -42 -5 -26 54
-55 229 -113 56 -19 89 -22 220 -22 85 0 165 4 179 10 19 7 -5 10 -100 10
-158 1 -276 15 -323 37 -21 10 -37 21 -37 25 0 4 -9 9 -20 12 -44 11 -15 45
117 134 46 31 92 67 102 80 11 12 23 23 28 23 5 0 31 23 58 51 58 58 166 149
211 175 17 11 55 33 83 49 28 17 51 33 51 38 0 4 5 7 10 7 14 0 108 65 135 93
11 12 44 43 73 69 29 26 52 54 52 63 0 9 -12 42 -26 73 -37 81 -52 129 -60
197 -3 33 -15 88 -26 123 -10 35 -18 80 -16 100 4 41 13 29 23 -30 3 -23 14
-42 25 -48 18 -10 20 -7 20 20 0 25 6 32 37 45 20 9 57 32 82 52 56 44 185
178 208 216 10 15 21 27 25 27 5 0 13 10 18 23 6 12 19 36 29 52 20 32 95 176
97 185 5 35 22 64 49 85 19 14 38 25 44 25 17 0 13 -32 -6 -46 -15 -11 -15
-13 -3 -14 20 0 70 64 70 90 0 20 -4 20 -162 18 -146 -3 -163 -5 -166 -21 -2
-10 9 -28 27 -43 59 -49 35 -70 -61 -50 -66 13 -74 21 -98 89 -8 22 -15 27
-45 27 -25 0 -35 -4 -35 -16 0 -8 -12 -50 -26 -92 -29 -87 -64 -241 -64 -284
0 -16 -4 -36 -9 -46 -13 -26 -32 -83 -45 -129 -6 -24 -14 -43 -17 -43 -13 0
-19 51 -9 70 14 27 12 62 -5 87 -10 14 -12 24 -5 28 5 3 10 28 10 54 0 44 -4
51 -50 95 -54 52 -166 212 -176 252 -8 31 -27 31 -44 0z m45 -236 c3 -5 1 -10
-4 -10 -6 0 -11 5 -11 10 0 6 2 10 4 10 3 0 8 -4 11 -10z m103 -80 c24 0 81
-62 62 -68 -6 -2 -26 9 -43 25 -18 17 -40 33 -49 36 -10 4 -18 14 -18 24 1 17
1 17 14 1 7 -10 22 -18 34 -18z m-41 -243 c72 -32 97 -55 46 -42 -16 3 -56 20
-91 36 -35 16 -68 29 -73 29 -5 0 -9 5 -9 10 0 15 44 3 127 -33z m-164 -183
c21 -20 36 -38 33 -41 -7 -7 -86 56 -86 68 0 16 14 9 53 -27z m67 5 c0 -14
-17 -10 -23 5 -4 10 -1 13 9 9 7 -3 14 -9 14 -14z m-150 -14 c0 -8 6 -15 14
-15 14 0 76 -52 76 -64 0 -11 -16 -6 -36 12 -10 9 -31 22 -45 29 -29 13 -46
53 -23 53 8 0 14 -7 14 -15z m185 -15 c3 -5 -1 -10 -10 -10 -9 0 -13 5 -10 10
3 6 8 10 10 10 2 0 7 -4 10 -10z m-9 -135 c16 -12 16 -14 3 -15 -9 0 -22 7
-29 15 -16 19 0 19 26 0z m-221 -164 c-3 -6 -11 -11 -17 -11 -6 0 -6 6 2 15
14 17 26 13 15 -4z m-86 -116 c-23 -24 -46 -42 -51 -39 -12 8 61 84 80 84 7 0
-6 -20 -29 -45z m41 -24 c0 -5 -7 -11 -15 -15 -15 -5 -20 5 -8 17 9 10 23 9
23 -2z m-40 -101 c0 -5 -5 -10 -11 -10 -5 0 -7 5 -4 10 3 6 8 10 11 10 2 0 4
-4 4 -10z m-29 -36 c12 -14 11 -16 -5 -13 -11 2 -21 10 -24 17 -5 17 13 15 29
-4z m-381 -268 c0 -3 -4 -8 -10 -11 -5 -3 -10 -1 -10 4 0 6 5 11 10 11 6 0 10
-2 10 -4z"/>
<path d="M7907 5981 c-2 -10 6 -49 18 -86 22 -65 22 -68 4 -72 -10 -3 -19 -8
-19 -11 0 -14 53 -72 66 -72 18 0 18 14 -1 30 -18 15 -20 51 -4 67 11 11 10
31 -7 126 -5 30 -10 37 -29 37 -14 0 -25 -7 -28 -19z"/>
<path d="M8957 5986 c-5 -13 21 -46 36 -46 4 0 7 14 7 30 0 23 -5 30 -19 30
-10 0 -21 -6 -24 -14z"/>
<path d="M2230 5924 c-12 -4 -172 -31 -335 -58 -11 -2 -31 -6 -45 -10 -14 -3
-61 -11 -105 -16 -183 -23 -307 -49 -395 -83 -65 -25 -65 -26 -64 -64 0 -21 7
-50 15 -64 8 -14 32 -61 55 -105 22 -43 54 -104 71 -134 72 -130 85 -156 89
-177 8 -42 -31 -26 -85 35 -65 72 -71 79 -71 89 -1 4 -9 26 -20 48 -11 22 -19
54 -20 71 0 36 -25 63 -41 47 -30 -30 -23 -183 10 -216 6 -6 11 -37 11 -68 0
-32 4 -60 9 -63 5 -3 14 -27 21 -53 6 -27 22 -62 36 -80 13 -17 24 -36 24 -40
0 -5 9 -27 19 -49 16 -32 20 -70 25 -209 6 -207 20 -371 34 -405 10 -25 28
-165 24 -187 -2 -6 2 -14 8 -18 5 -3 10 -15 10 -25 0 -25 44 -58 89 -66 20 -3
58 -13 85 -21 26 -8 83 -17 126 -19 43 -2 90 -6 104 -10 14 -3 33 -3 43 0 14
6 14 8 -3 21 -18 13 -17 14 12 15 17 0 37 7 44 15 18 22 53 18 77 -7 12 -13
51 -81 88 -152 36 -72 70 -135 74 -140 5 -6 12 -22 16 -36 4 -14 18 -47 30
-75 13 -27 32 -71 44 -97 11 -26 25 -50 31 -53 5 -3 10 -14 10 -25 0 -10 12
-32 27 -49 22 -25 35 -31 68 -31 l40 0 -24 -19 c-30 -23 -23 -44 19 -66 27
-14 40 -15 80 -5 51 12 88 12 405 -1 110 -5 328 -11 485 -13 234 -3 306 -8
405 -25 66 -12 135 -19 153 -16 40 7 72 -2 72 -20 0 -8 10 -17 22 -21 17 -5
28 1 51 27 45 53 75 110 82 155 10 71 -16 80 -245 88 -356 13 -1143 27 -1277
23 -132 -4 -164 -3 -174 9 -6 8 -18 14 -25 14 -28 0 -13 27 31 54 36 23 44 33
39 51 -4 18 8 35 68 88 40 36 89 79 109 94 20 15 101 83 180 150 79 68 164
133 189 145 34 18 46 29 48 50 3 27 -86 262 -118 308 -21 31 -50 95 -50 109 0
5 -16 36 -35 68 -19 32 -35 63 -35 69 0 14 -28 71 -50 104 -9 14 -20 37 -23
51 -9 36 -80 114 -95 105 -20 -12 -14 -54 19 -129 16 -40 35 -83 41 -97 28
-67 41 -96 109 -233 l72 -148 -34 -35 c-18 -19 -76 -63 -129 -98 -52 -35 -107
-75 -122 -89 -47 -44 -94 -77 -110 -77 -15 0 -132 -84 -208 -147 -76 -65 -98
-64 -121 5 -7 20 -18 46 -24 57 -7 11 -16 31 -20 44 -4 12 -24 51 -45 85 -21
33 -42 75 -46 91 -4 17 -18 46 -30 65 -13 19 -33 62 -45 95 -12 33 -27 67 -34
75 -7 8 -16 26 -20 40 -4 14 -20 44 -36 68 -16 24 -29 48 -29 55 0 7 -13 35
-29 62 -36 63 -121 231 -121 241 0 6 -30 71 -99 214 -15 30 -33 75 -41 100 -8
25 -22 60 -32 78 -22 40 -22 42 -3 42 8 0 15 -7 15 -16 0 -8 5 -12 10 -9 6 3
10 17 10 31 0 20 5 24 29 24 17 0 32 4 36 9 3 5 20 13 38 16 17 4 55 18 82 30
28 13 70 26 95 30 25 4 55 13 67 21 12 8 29 14 38 14 8 0 15 5 15 10 0 12 9
13 -80 -6 -41 -8 -82 -21 -90 -29 -19 -17 -125 -32 -116 -16 4 6 26 16 49 23
67 19 9 23 -72 4 -36 -8 -82 -18 -100 -22 l-35 -6 17 25 c21 32 21 37 2 37 -8
0 -15 -4 -15 -10 0 -5 -7 -10 -15 -10 -10 0 -15 10 -15 34 0 26 -5 35 -21 39
-11 3 -23 15 -26 26 -3 12 -11 21 -19 21 -17 0 -27 -17 -14 -25 13 -8 44 -74
38 -81 -12 -12 -35 10 -51 51 -11 25 -23 45 -28 45 -5 0 -9 6 -9 14 0 15 66
40 135 52 22 3 83 17 135 29 52 13 147 31 210 40 63 8 131 20 150 25 117 31
159 40 191 40 33 0 40 -5 68 -47 49 -78 87 -113 103 -98 6 6 -14 88 -33 130
-27 64 -95 165 -117 175 -22 10 -81 12 -112 4z m-340 -1314 c3 -8 23 -49 43
-90 20 -41 45 -95 56 -120 12 -25 32 -65 46 -90 27 -49 32 -74 13 -68 -12 4
-66 105 -107 198 -13 30 -40 86 -59 123 -28 57 -31 68 -17 65 10 -1 21 -10 25
-18z m725 -1180 c3 -5 -1 -10 -9 -10 -9 0 -16 5 -16 10 0 6 4 10 9 10 6 0 13
-4 16 -10z m935 -37 c11 -10 -25 -21 -41 -12 -10 5 -31 9 -48 9 -16 0 -33 5
-37 11 -5 8 11 9 57 4 35 -4 66 -9 69 -12z m115 -83 c3 -5 -3 -10 -15 -10 -12
0 -18 5 -15 10 3 6 10 10 15 10 5 0 12 -4 15 -10z"/>
<path d="M495 5732 c-16 -1 -48 -7 -70 -12 -22 -5 -94 -21 -160 -36 -66 -14
-128 -30 -137 -35 -10 -5 -43 -9 -73 -9 l-55 0 0 -313 c0 -237 3 -316 13 -326
9 -11 9 -14 0 -18 -18 -7 -18 -339 0 -346 12 -4 28 2 106 43 43 22 45 22 58 4
7 -10 13 -30 13 -45 0 -39 19 -71 78 -126 29 -27 52 -55 52 -61 0 -24 47 -11
77 21 68 70 157 202 187 277 3 8 15 30 27 49 11 18 18 40 15 47 -3 7 -1 16 4
19 5 3 12 28 16 55 4 27 13 55 20 61 20 16 17 37 -4 43 -11 4 -25 18 -32 31
-7 14 -17 25 -21 25 -5 0 -53 38 -107 84 -114 96 -130 106 -171 106 -70 0 -20
38 100 76 46 14 107 35 134 45 28 10 56 19 62 19 11 0 53 -81 53 -103 0 -5 6
-15 14 -21 7 -6 23 -38 36 -71 13 -33 31 -71 40 -85 15 -22 26 -43 54 -110 7
-15 22 -41 41 -70 5 -8 10 -17 11 -20 3 -15 21 -49 41 -79 14 -21 23 -49 23
-72 0 -21 5 -49 11 -63 10 -20 9 -30 -5 -51 -24 -36 -18 -100 9 -100 19 0 26
11 60 84 12 27 13 42 4 74 -6 21 -8 42 -5 45 9 9 46 -30 70 -72 11 -21 27 -49
34 -62 7 -13 17 -24 21 -24 4 0 21 -28 37 -62 16 -35 32 -65 36 -68 3 -3 9
-21 13 -41 5 -28 3 -38 -9 -42 -9 -4 -19 1 -25 10 -7 14 -12 15 -24 5 -26 -22
-29 -59 -8 -105 20 -43 87 -148 101 -157 4 -3 17 -32 29 -65 13 -33 28 -67 35
-75 7 -8 27 -45 44 -81 21 -44 48 -81 78 -108 26 -23 50 -41 53 -41 4 0 13
-20 20 -45 7 -25 17 -45 22 -45 5 0 9 -6 9 -14 0 -7 7 -19 15 -26 8 -7 15 -22
15 -34 0 -12 15 -51 34 -86 18 -36 36 -83 40 -105 4 -22 13 -46 19 -54 12 -14
17 -22 54 -90 12 -22 31 -49 42 -60 11 -11 23 -36 27 -55 3 -20 10 -36 15 -36
5 0 9 -6 9 -14 0 -7 7 -19 14 -26 8 -6 20 -28 27 -47 6 -20 24 -54 39 -77 16
-23 32 -55 35 -71 4 -17 12 -35 19 -40 13 -12 34 -44 42 -65 4 -8 11 -27 18
-42 6 -16 14 -28 18 -28 4 0 19 -26 33 -57 24 -55 34 -74 70 -141 8 -15 23
-45 34 -67 25 -54 59 -116 110 -199 22 -37 41 -72 41 -77 0 -9 44 -104 60
-129 5 -8 23 -45 40 -82 34 -74 88 -133 129 -141 38 -8 55 -47 36 -84 -8 -15
-15 -45 -15 -66 0 -52 -37 -132 -91 -195 -6 -8 -37 -46 -69 -85 -31 -40 -71
-85 -89 -101 -17 -17 -31 -34 -31 -39 0 -5 -10 -20 -23 -31 -27 -27 -87 -97
-87 -102 0 -4 -28 -39 -51 -63 -14 -14 -83 -93 -234 -266 -27 -32 -54 -65 -59
-74 -5 -9 -25 -35 -45 -58 -20 -23 -54 -65 -76 -93 -22 -28 -57 -70 -77 -94
-21 -24 -38 -47 -38 -51 0 -4 -12 -22 -27 -40 -16 -18 -46 -56 -68 -85 -80
-106 -155 -188 -204 -225 -28 -20 -56 -46 -62 -56 -9 -17 -6 -19 33 -19 37 0
46 4 60 28 9 15 25 36 35 47 26 29 112 134 158 195 22 29 54 67 70 85 17 17
48 55 70 84 22 30 54 70 70 91 17 21 48 61 70 90 90 117 125 161 251 305 44
50 95 110 114 133 180 220 224 270 385 437 43 44 89 97 102 118 14 20 29 37
33 37 35 0 3 -59 -74 -136 -123 -122 -259 -270 -285 -309 -14 -22 -34 -46 -43
-53 -10 -7 -18 -19 -18 -26 0 -7 -27 -41 -61 -77 -33 -35 -67 -78 -74 -96 -7
-17 -27 -39 -44 -48 -17 -8 -31 -20 -31 -26 0 -5 -15 -25 -32 -43 -53 -53 -98
-105 -98 -112 0 -4 -17 -26 -37 -50 -21 -24 -53 -62 -71 -86 -119 -156 -150
-193 -288 -351 -13 -15 -24 -30 -24 -33 0 -2 -4 -10 -10 -17 -5 -7 -39 -47
-75 -90 -36 -43 -63 -83 -60 -88 10 -16 45 -10 52 9 4 9 48 59 100 110 51 51
93 97 93 101 0 5 16 29 36 53 19 23 42 51 50 61 8 9 14 20 14 24 0 3 24 33 53
67 29 34 73 88 97 121 56 74 75 98 123 151 20 22 37 44 37 48 0 3 21 28 47 54
61 61 82 86 120 143 37 53 58 72 75 67 8 -3 4 -12 -10 -26 -26 -26 -28 -42 -7
-42 24 0 5 -28 -75 -107 -38 -39 -70 -74 -70 -78 0 -3 -6 -12 -12 -19 -7 -7
-24 -27 -38 -44 -14 -18 -30 -32 -36 -32 -7 0 -20 -12 -29 -28 -10 -15 -28
-38 -42 -52 -102 -107 -200 -229 -363 -450 -25 -34 -66 -74 -92 -90 -27 -17
-48 -34 -48 -40 0 -7 184 -10 543 -10 l542 0 12 27 c7 16 17 50 23 77 6 27 15
58 21 69 14 26 106 287 125 356 8 29 25 76 38 105 12 28 26 66 29 84 4 19 13
48 21 65 8 18 33 88 56 157 23 69 45 129 51 135 5 5 9 17 9 26 0 10 13 58 30
107 32 97 34 110 21 131 -8 13 -15 13 -50 1 -34 -11 -40 -17 -35 -33 6 -19
-43 -131 -78 -176 -10 -13 -18 -39 -18 -58 0 -18 -9 -50 -19 -71 -19 -37 -61
-83 -61 -66 1 29 24 104 49 158 15 33 34 90 41 126 13 67 32 100 57 100 8 0
11 5 8 10 -3 5 -21 10 -39 10 -56 0 -67 37 -28 89 22 30 36 77 33 109 -2 14 3
22 12 22 9 0 18 13 22 29 5 24 15 32 67 51 50 18 102 25 277 36 295 18 638 18
677 0 22 -11 118 -15 419 -20 215 -3 453 -11 530 -16 144 -11 221 -6 430 26
107 16 185 40 185 55 0 5 -21 9 -47 7 -83 -4 -316 22 -341 39 -20 12 -98 14
-560 12 -478 -2 -542 0 -581 15 -35 13 -84 16 -250 17 -113 0 -215 4 -226 9
-22 10 31 12 315 14 146 1 182 -2 218 -17 24 -9 47 -15 52 -12 8 5 319 6 1065
2 262 -1 398 13 373 38 -3 4 -78 9 -165 12 -147 4 -159 6 -173 26 -44 63 -19
59 -388 55 -236 -3 -346 -8 -366 -16 -23 -10 -65 -10 -195 -1 -222 15 -931 16
-940 0 -13 -20 -125 -53 -211 -62 -95 -10 -110 -14 -110 -30 0 -8 28 -10 100
-7 94 5 100 4 95 -14 -5 -12 -1 -18 10 -18 9 0 18 -11 21 -29 6 -27 8 -28 92
-39 77 -9 67 -10 -88 -5 -96 3 -210 6 -253 7 -70 2 -81 5 -99 27 l-20 24 7
-30 c3 -16 13 -43 21 -59 8 -16 14 -49 14 -74 0 -38 -2 -43 -15 -32 -8 7 -15
23 -15 36 0 14 -4 32 -10 42 -5 9 -21 46 -36 82 -14 36 -41 94 -60 129 -19 35
-32 66 -30 68 2 3 16 -3 30 -12 26 -17 26 -17 17 6 -4 13 -17 24 -27 25 -38 2
-44 4 -44 14 0 6 6 10 14 8 8 -2 15 0 15 5 3 27 -1 37 -14 37 -8 0 -15 -4 -15
-10 0 -5 -4 -10 -10 -10 -5 0 -10 6 -10 14 0 8 -6 21 -12 28 -21 22 -38 50
-55 91 -9 20 -20 37 -25 37 -4 0 -8 11 -8 25 0 32 16 32 24 0 12 -48 26 -25
26 42 0 52 3 64 12 55 7 -7 15 -12 19 -12 10 0 6 66 -4 76 -3 4 -4 17 -1 28 6
24 -11 76 -24 76 -4 0 -5 -28 -1 -62 7 -71 -7 -104 -17 -40 -3 22 -13 43 -20
46 -11 4 -13 -6 -11 -44 2 -28 9 -56 15 -62 15 -15 16 -54 2 -63 -6 -4 -10 6
-10 23 0 16 -7 35 -16 43 -11 9 -15 27 -13 59 2 25 -1 52 -5 59 -5 7 -3 18 3
24 7 7 12 6 17 -6 7 -18 34 -24 34 -7 0 18 -39 31 -59 20 -16 -8 -19 -17 -14
-47 4 -26 3 -34 -5 -29 -7 4 -12 18 -12 32 0 13 -4 24 -10 24 -5 0 -13 18 -16
41 -5 29 -11 39 -21 35 -12 -5 -34 28 -37 56 -1 3 -4 10 -8 14 -12 12 -9 24 6
24 8 0 16 -7 20 -15 4 -12 10 -13 33 -3 15 7 31 16 34 21 3 5 13 7 21 5 17 -4
118 49 118 63 0 14 -36 11 -49 -5 -7 -8 -26 -17 -44 -20 -18 -3 -44 -12 -58
-20 -17 -9 -39 -11 -65 -6 -43 8 -39 10 58 35 37 9 72 23 79 31 6 8 8 14 3 14
-4 0 11 20 35 44 42 43 51 74 23 84 -7 2 -34 -17 -59 -43 -33 -35 -48 -44 -56
-36 -6 6 -23 11 -38 11 -15 0 -30 4 -33 9 -3 4 -34 10 -68 13 -92 8 -164 41
-185 87 -9 20 -29 56 -43 81 -15 25 -35 70 -45 100 -10 30 -29 69 -42 87 -13
17 -23 38 -24 45 0 7 -13 36 -30 63 -16 28 -33 61 -39 75 -6 14 -18 40 -28 59
-13 26 -14 35 -4 38 16 6 15 58 -2 72 -8 7 -17 23 -20 36 -4 14 -11 25 -16 25
-15 0 -12 -23 5 -46 16 -22 20 -84 5 -84 -5 0 -10 8 -10 18 0 9 -7 31 -16 47
-9 17 -36 69 -61 118 -25 48 -49 87 -54 87 -5 0 -9 7 -9 15 0 15 -19 55 -31
65 -6 5 -73 115 -119 197 -14 24 -44 70 -66 102 -23 32 -45 69 -49 82 -9 34
-19 58 -43 109 -12 25 -37 81 -56 125 -34 80 -99 217 -116 245 -5 8 -21 40
-35 70 -14 30 -33 66 -40 80 -8 14 -24 46 -35 73 -11 26 -25 47 -30 47 -5 0
-12 10 -15 23 -12 39 -38 91 -55 112 -10 11 -20 29 -23 40 -2 11 -12 37 -21
57 -9 20 -12 39 -7 42 8 6 27 -28 60 -108 8 -20 15 -26 22 -19 7 7 4 24 -10
54 -12 23 -21 53 -21 66 0 13 -6 23 -12 23 -15 0 -58 95 -58 127 0 15 -5 21
-13 17 -13 -5 -42 49 -57 106 l-7 25 -12 -29 c-9 -23 -9 -32 3 -45 17 -19 25
-71 11 -68 -10 1 -31 50 -42 95 -3 12 -14 27 -24 33 -11 5 -19 17 -19 27 -1 9
-12 35 -25 57 -59 96 -58 95 -38 111 16 12 16 13 1 14 -9 0 -18 -5 -20 -12 -2
-6 -25 8 -52 33 -47 44 -81 57 -141 51z m405 -449 c0 -9 6 -24 14 -32 18 -21
29 -71 16 -71 -6 0 -13 8 -16 18 -4 9 -12 31 -20 49 -16 36 -18 67 -4 58 6 -3
10 -13 10 -22z m-734 -68 c4 -8 2 -21 -3 -28 -12 -16 -8 -94 7 -112 8 -9 8
-15 0 -20 -8 -5 -8 -11 0 -20 8 -9 2 -20 -21 -43 -36 -35 -71 -44 -98 -26 -17
12 -18 19 -9 47 6 17 11 63 12 102 1 67 2 70 35 92 39 27 69 30 77 8z m368
-289 c-16 -13 -31 -22 -34 -20 -2 3 9 16 25 29 39 30 46 23 9 -9z m76 12 c0
-22 -33 -78 -46 -78 -19 0 -18 12 7 60 19 36 39 46 39 18z m-440 -105 c-1 -15
-38 -53 -52 -53 -26 0 -28 12 -5 36 21 22 57 33 57 17z m2264 -2122 c7 -11
-17 -21 -47 -21 -22 1 -22 1 -3 15 22 17 42 19 50 6z m-114 -131 c0 -5 -4 -10
-10 -10 -5 0 -10 5 -10 10 0 6 5 10 10 10 6 0 10 -4 10 -10z m20 -55 c0 -14
-4 -25 -9 -25 -10 0 -21 36 -13 44 12 13 22 5 22 -19z m40 -50 c0 -8 -4 -15
-9 -15 -5 0 -11 7 -15 15 -3 9 0 15 9 15 8 0 15 -7 15 -15z m30 -85 c0 -16 -4
-30 -10 -30 -5 0 -10 14 -10 30 0 17 5 30 10 30 6 0 10 -13 10 -30z m36 -67
c-10 -10 -19 5 -10 18 6 11 8 11 12 0 2 -7 1 -15 -2 -18z m24 -37 c6 -8 10
-25 8 -38 -4 -22 -5 -22 -12 -3 -4 11 -12 28 -17 38 -11 21 4 23 21 3z m2415
-414 l30 -9 -28 -12 c-42 -17 -326 -19 -354 -3 -13 7 -23 17 -23 22 0 5 10 10
23 12 49 7 324 0 352 -10z m-1555 -52 c-18 -12 -58 -12 -85 0 -14 6 -3 9 40 9
42 1 56 -2 45 -9z m-690 -95 c10 -12 10 -15 -4 -15 -9 0 -16 7 -16 15 0 8 2
15 4 15 2 0 9 -7 16 -15z m245 -45 c3 -5 1 -10 -4 -10 -6 0 -11 5 -11 10 0 6
2 10 4 10 3 0 8 -4 11 -10z m-180 -802 c-13 -63 -55 -101 -55 -50 0 23 37 82
51 82 7 0 8 -12 4 -32z m-679 -310 c-9 -13 -25 -40 -36 -61 -35 -64 -70 -96
-70 -64 0 8 11 24 25 37 14 13 25 30 25 37 0 21 42 73 58 73 12 0 12 -4 -2
-22z m-115 -191 c-13 -13 -26 -3 -16 12 3 6 11 8 17 5 6 -4 6 -10 -1 -17z
m-86 -42 c-16 -13 -31 -22 -34 -20 -6 7 40 45 53 45 6 -1 -2 -12 -19 -25z
m-115 -115 c-8 -5 -17 -7 -19 -4 -3 3 1 9 9 14 8 5 17 7 19 4 3 -3 -1 -9 -9
-14z m47 -25 c-12 -19 -28 -35 -34 -35 -19 0 -15 12 12 39 14 13 25 27 25 33
0 5 4 6 10 3 6 -3 0 -20 -13 -40z m52 -15 c-13 -16 -25 -28 -27 -25 -5 5 37
55 45 55 2 0 -6 -13 -18 -30z m-161 -55 c-47 -65 -97 -122 -98 -109 0 6 14 28
30 49 17 21 30 41 30 46 0 10 63 70 68 65 2 -2 -12 -25 -30 -51z m54 3 c-7 -7
-12 -8 -12 -2 0 14 12 26 19 19 2 -3 -1 -11 -7 -17z m62 -3 c-4 -8 -11 -15
-16 -15 -6 0 -5 6 2 15 7 8 14 15 16 15 2 0 1 -7 -2 -15z m-108 -70 c-15 -16
-26 -24 -26 -20 0 11 42 56 47 51 2 -2 -7 -16 -21 -31z"/>
<path d="M666 5691 c-4 -5 -2 -12 3 -15 5 -4 12 -2 15 3 4 5 2 12 -3 15 -5 4
-12 2 -15 -3z"/>
<path d="M8970 5640 c0 -5 5 -10 10 -10 6 0 10 5 10 10 0 6 -4 10 -10 10 -5 0
-10 -4 -10 -10z"/>
<path d="M2122 5628 c5 -15 28 -18 29 -3 0 6 -7 12 -17 13 -10 3 -15 -1 -12
-10z"/>
<path d="M723 5605 c0 -15 5 -25 14 -25 10 0 13 6 9 16 -3 9 -6 20 -6 25 0 5
-4 9 -9 9 -5 0 -8 -11 -8 -25z"/>
<path d="M2025 5600 c-11 -5 -39 -9 -63 -9 -30 -1 -41 -5 -36 -12 4 -8 29 -10
73 -6 72 6 101 14 101 28 0 11 -48 11 -75 -1z"/>
<path d="M1635 5591 l-30 -7 25 -7 c33 -8 77 2 58 14 -7 5 -15 8 -18 8 -3 -1
-18 -4 -35 -8z"/>
<path d="M1775 5579 c-51 -12 -115 -40 -115 -51 0 -10 -3 -11 59 13 30 11 78
27 105 34 39 10 44 14 21 13 -16 0 -48 -4 -70 -9z"/>
<path d="M766 5561 c-3 -5 1 -14 9 -21 12 -10 15 -10 15 3 0 19 -16 31 -24 18z"/>
<path d="M8550 5502 c-66 -80 -191 -250 -213 -290 -7 -11 -29 -49 -49 -84 -21
-35 -47 -93 -59 -129 -22 -69 -22 -79 6 -289 8 -63 20 -162 26 -220 6 -58 18
-129 26 -159 9 -29 15 -77 14 -107 -2 -85 32 -79 60 11 7 22 23 60 36 84 22
40 24 58 28 209 3 113 11 193 24 251 23 103 40 190 51 251 17 106 43 211 71
290 57 162 74 250 47 250 -7 0 -38 -31 -68 -68z"/>
<path d="M1820 5549 c-14 -5 -44 -14 -68 -19 -46 -12 -50 -30 -5 -23 42 7 127
34 138 44 12 11 -31 10 -65 -2z"/>
<path d="M1628 5543 c7 -3 16 -2 19 1 4 3 -2 6 -13 5 -11 0 -14 -3 -6 -6z"/>
<path d="M790 5502 c0 -10 6 -26 13 -37 21 -28 32 0 13 30 -20 30 -26 31 -26
7z"/>
<path d="M972 5310 c0 -14 2 -19 5 -12 2 6 2 18 0 25 -3 6 -5 1 -5 -13z"/>
<path d="M1215 5265 c-3 -8 -7 -23 -10 -32 -6 -17 34 -103 47 -103 9 0 11 111
2 134 -8 20 -33 21 -39 1z"/>
<path d="M8683 5082 c-31 -21 -34 -53 -28 -361 2 -171 5 -314 6 -318 5 -28 -3
-64 -13 -61 -12 4 -37 88 -38 129 0 14 -5 30 -11 36 -7 7 -8 17 -3 25 5 7 7
21 6 30 -2 10 4 28 12 40 22 31 20 76 -5 129 -41 83 -67 88 -97 16 -27 -65
-28 -107 -3 -129 20 -17 39 -127 26 -147 -13 -21 -25 -11 -19 15 5 19 4 25 -5
20 -6 -4 -9 -11 -6 -16 3 -5 -2 -13 -11 -18 -9 -5 -16 -21 -16 -36 0 -14 -4
-29 -9 -32 -5 -3 -9 -13 -9 -22 0 -10 -13 -44 -30 -77 -16 -33 -30 -68 -30
-77 0 -19 -56 -166 -69 -183 -5 -5 -11 -23 -15 -39 -12 -49 -86 -135 -126
-146 -43 -12 -63 -13 -76 -1 -12 11 -258 91 -280 91 -40 0 2 -18 208 -89 l106
-37 124 14 c67 8 137 21 153 29 45 20 98 51 104 60 10 13 79 63 88 63 4 0 18
24 30 53 58 137 67 152 124 215 28 31 49 72 68 130 32 97 43 125 67 177 13 28
31 76 39 108 9 34 24 62 35 70 19 11 20 24 20 179 0 128 -3 168 -12 167 -7 0
-33 -25 -58 -54 -29 -35 -53 -55 -67 -55 -28 0 -34 -21 -43 -135 -6 -78 -9
-81 -15 -15 0 8 -6 23 -11 33 -9 16 -13 10 -27 -40 -10 -33 -17 -69 -17 -81 0
-12 -4 -22 -10 -22 -12 0 -14 17 -20 231 -3 103 -15 145 -37 131z m71 -584 c7
-62 -8 -89 -17 -32 -5 32 1 99 8 92 2 -2 6 -29 9 -60z m-204 -77 c0 -11 -4
-23 -10 -26 -6 -4 -10 5 -10 19 0 14 5 26 10 26 6 0 10 -9 10 -19z"/>
<path d="M1050 5016 c0 -14 5 -28 10 -31 6 -3 10 -17 10 -31 0 -13 8 -32 19
-43 19 -19 51 -77 51 -94 0 -5 16 -34 35 -63 19 -29 35 -61 35 -72 0 -11 7
-25 15 -32 9 -7 25 -35 36 -61 21 -48 45 -77 55 -67 3 3 -9 32 -25 64 -54 105
-81 166 -81 180 0 8 -7 14 -15 14 -9 0 -15 9 -15 23 0 12 -9 33 -20 47 -11 14
-20 33 -20 43 0 9 -5 17 -10 17 -6 0 -18 18 -27 40 -10 22 -21 40 -25 40 -5 0
-8 11 -8 25 0 14 -4 25 -10 25 -5 0 -10 -11 -10 -24z"/>
<path d="M7451 4976 c-7 -8 -34 -17 -62 -21 -52 -7 -63 -19 -27 -29 25 -6 128
36 128 53 0 16 -26 13 -39 -3z"/>
<path d="M7155 4956 c35 -17 85 -21 85 -6 0 6 -11 10 -24 10 -13 0 -39 2 -57
5 l-34 5 30 -14z"/>
<path d="M7425 4899 c-11 -17 0 -20 21 -4 17 13 17 14 2 15 -9 0 -20 -5 -23
-11z"/>
<path d="M759 4823 c-14 -16 -38 -48 -54 -73 -16 -25 -57 -81 -90 -125 -88
-117 -114 -157 -121 -191 -5 -25 -2 -32 23 -44 15 -8 44 -30 63 -48 19 -18 47
-40 63 -50 15 -9 27 -22 27 -29 0 -7 5 -13 10 -13 6 0 10 -5 10 -11 0 -6 11
-25 25 -43 14 -17 29 -35 33 -41 4 -5 11 -18 15 -28 4 -11 16 -21 27 -24 11
-3 20 -9 20 -13 0 -4 17 -19 38 -32 50 -34 112 -94 145 -143 15 -22 77 -91
137 -154 61 -63 113 -125 117 -139 7 -31 -11 -44 -53 -38 -40 6 -159 84 -173
112 -6 14 -23 24 -46 28 -45 9 -53 3 -27 -19 11 -10 34 -30 52 -46 17 -16 35
-29 40 -29 4 0 13 -7 20 -15 17 -21 -3 -20 -36 1 -30 20 -38 15 -25 -19 10
-26 4 -67 -9 -67 -5 0 -15 6 -22 13 -14 15 -53 37 -63 37 -3 0 -1 -9 5 -20 17
-31 -17 -26 -54 9 -17 16 -53 48 -79 72 -26 23 -55 55 -65 71 -22 37 -42 36
-42 -2 0 -33 -11 -38 -30 -15 -22 27 -42 19 -35 -15 8 -35 2 -37 -32 -10 -39
31 -53 26 -53 -18 0 -42 16 -61 81 -101 34 -19 119 -117 119 -136 0 -4 20 -36
45 -71 25 -34 45 -73 45 -86 0 -21 -2 -21 -15 7 -14 27 -74 79 -82 71 -2 -2 1
-16 7 -31 7 -19 7 -32 1 -38 -7 -7 -17 4 -31 35 -14 32 -28 48 -45 52 -38 10
-45 0 -45 -54 0 -27 -5 -52 -10 -55 -16 -10 -6 -81 13 -100 20 -19 22 -32 5
-37 -14 -5 174 -194 202 -203 31 -10 49 11 56 68 6 44 15 58 73 121 75 81 141
160 142 173 0 4 29 44 64 88 36 44 81 109 102 145 20 36 42 68 49 73 11 6 30
36 101 161 20 34 15 58 -19 91 -38 36 -59 61 -108 131 -31 45 -44 70 -81 159
-4 11 -11 36 -15 55 -4 19 -17 49 -30 66 -22 29 -31 73 -22 118 4 22 -34 52
-79 61 -36 7 -48 -13 -14 -22 24 -6 64 -60 51 -68 -6 -4 -24 7 -41 24 -17 17
-34 31 -38 31 -4 0 -26 20 -50 44 -36 37 -49 44 -70 40 -26 -6 -59 20 -125 97
-28 33 -17 95 28 154 29 38 36 57 36 91 0 36 -3 44 -18 44 -10 0 -29 -12 -43
-27z m-165 -1208 c3 -8 1 -15 -4 -15 -6 0 -10 7 -10 15 0 8 2 15 4 15 2 0 6
-7 10 -15z m346 -95 c0 -5 -2 -10 -4 -10 -3 0 -8 5 -11 10 -3 6 -1 10 4 10 6
0 11 -4 11 -10z"/>
<path d="M7190 4711 c30 -18 172 -61 181 -56 16 10 10 25 -11 25 -10 0 -42 9
-70 20 -51 20 -131 29 -100 11z"/>
<path d="M6580 4613 c0 -12 122 -85 129 -78 7 8 -32 39 -81 65 -41 22 -48 24
-48 13z"/>
<path d="M6140 4541 c0 -6 10 -15 23 -20 12 -5 61 -27 109 -50 83 -39 125 -51
114 -32 -8 12 -184 98 -219 106 -17 5 -27 3 -27 -4z"/>
<path d="M6265 4540 c10 -15 111 -63 126 -58 12 4 -69 51 -110 63 -17 5 -21 4
-16 -5z"/>
<path d="M5940 4353 c0 -9 95 -53 113 -53 7 0 35 -8 62 -19 51 -19 167 -28
149 -12 -5 5 -46 16 -92 25 -46 9 -108 28 -139 41 -55 25 -93 32 -93 18z"/>
<path d="M5920 4266 c0 -18 33 -40 180 -116 43 -22 77 -60 55 -60 -7 0 -16 4
-19 9 -7 10 -95 61 -192 110 -60 30 -114 41 -114 22 0 -5 27 -18 59 -29 95
-32 142 -69 314 -251 42 -45 77 -88 77 -95 0 -7 7 -19 16 -27 53 -44 73 -158
36 -208 -12 -17 -27 -42 -32 -56 -5 -14 -21 -30 -35 -35 -14 -5 -25 -16 -25
-24 0 -8 -27 -32 -61 -53 -33 -21 -102 -65 -152 -97 -89 -58 -187 -104 -187
-88 0 4 17 16 38 27 191 99 232 235 120 392 -28 38 -121 111 -150 117 -7 2
-20 6 -28 9 -51 19 -153 25 -288 16 -41 -2 -55 1 -65 15 -15 21 -57 14 -57 -9
0 -19 31 -27 124 -30 44 -2 90 -6 101 -10 49 -18 165 -78 165 -86 0 -4 8 -10
18 -13 18 -6 39 -47 42 -81 6 -56 -1 -76 -40 -112 -22 -21 -40 -44 -40 -50 0
-7 -8 -13 -18 -13 -11 0 -27 -9 -37 -20 -10 -11 -24 -20 -32 -20 -7 0 -13 -4
-13 -9 0 -5 -12 -16 -27 -24 -16 -8 -49 -26 -75 -41 -25 -15 -49 -23 -52 -18
-3 5 6 14 19 20 14 7 25 16 25 22 0 15 -26 12 -43 -4 -19 -19 -78 -35 -101
-26 -16 5 -14 9 19 29 21 12 35 24 32 28 -10 10 -56 -6 -74 -26 -18 -19 -103
-54 -103 -43 0 3 12 19 27 34 22 23 24 28 10 28 -10 0 -30 -8 -44 -17 -59 -39
-249 -133 -268 -133 -8 0 -17 -4 -20 -10 -3 -5 -20 -10 -36 -10 -24 0 -34 8
-52 37 -28 47 -53 131 -49 160 2 12 21 36 42 53 24 19 37 36 33 45 -3 9 1 15
11 15 9 0 16 4 16 8 0 16 106 147 220 270 19 21 44 51 55 67 30 42 79 104 118
147 23 25 14 37 -11 15 -10 -10 -24 -17 -30 -17 -7 0 -12 -8 -12 -19 0 -10
-28 -42 -62 -72 -34 -30 -71 -62 -82 -72 -12 -10 -33 -26 -48 -35 -16 -9 -28
-23 -28 -32 -1 -19 -37 -67 -45 -58 -4 3 -2 14 3 25 32 63 50 113 41 113 -14
0 -64 -39 -64 -50 0 -12 -56 -62 -63 -55 -3 3 7 18 21 33 15 16 25 31 21 34
-9 10 -62 -12 -68 -28 -3 -8 -15 -14 -26 -14 -11 0 -20 -7 -20 -15 0 -8 -4
-15 -10 -15 -5 0 -10 7 -10 15 0 8 4 15 9 15 14 0 22 31 12 44 -6 7 -8 22 -4
34 3 15 1 22 -8 22 -20 0 -45 -18 -37 -26 11 -10 -10 -44 -27 -44 -8 0 -17
-17 -23 -42 l-8 -43 -18 33 c-18 35 -15 52 10 52 18 0 14 22 -4 28 -7 2 -12
-4 -12 -13 0 -15 -4 -15 -36 4 -40 24 -55 20 -36 -9 20 -33 42 -103 42 -138 0
-18 9 -52 20 -75 13 -25 27 -88 35 -159 16 -121 11 -160 -19 -171 -9 -4 -20
-15 -24 -26 -4 -11 -48 -64 -98 -118 -51 -54 -113 -122 -139 -150 -47 -52 -75
-67 -75 -39 0 8 16 24 35 36 19 12 35 27 35 34 0 18 92 121 156 175 59 50 66
67 31 80 -17 7 -28 23 -37 58 -7 26 -21 62 -31 79 -11 17 -19 42 -19 54 0 12
-10 38 -21 57 -29 47 -42 103 -23 103 8 0 14 -6 14 -12 0 -7 12 -35 25 -63 14
-27 25 -59 25 -70 0 -11 14 -40 30 -64 17 -24 30 -48 30 -53 0 -4 3 -8 8 -8
13 0 1 78 -14 91 -8 6 -14 21 -14 33 0 12 -18 58 -40 102 -30 59 -38 87 -34
109 4 24 0 35 -20 54 -29 27 -35 71 -11 71 8 0 15 4 15 9 0 5 -7 11 -15 15
-23 8 -18 34 11 52 14 9 84 29 157 44 73 14 143 33 157 40 l25 15 -23 3 c-12
2 -51 -6 -85 -17 -34 -11 -88 -23 -120 -27 -89 -10 -196 -48 -235 -82 -33 -30
-34 -34 -27 -79 3 -26 14 -59 23 -73 30 -45 39 -74 34 -114 -3 -23 0 -41 7
-45 14 -9 101 -206 106 -241 2 -14 6 -37 10 -52 6 -23 4 -28 -12 -28 -10 0
-35 14 -55 30 -21 18 -39 26 -43 20 -12 -20 -24 -9 -50 48 -27 58 -28 65 -9
180 6 40 6 42 -20 42 -40 0 -69 -35 -62 -74 4 -18 1 -47 -5 -64 -9 -26 -8 -39
5 -66 9 -19 16 -39 16 -46 0 -7 9 -24 19 -39 11 -14 22 -49 26 -76 4 -28 12
-56 17 -62 13 -16 -13 -59 -41 -68 -10 -3 -22 -12 -25 -20 -8 -22 -24 -18 -32
8 -3 12 -12 29 -20 37 -7 9 -15 46 -17 83 -4 77 -14 94 -43 73 -15 -11 -19
-27 -19 -69 0 -30 -5 -60 -12 -68 -6 -8 -12 -17 -12 -21 -1 -5 -3 -8 -6 -8
-46 0 -49 1 -37 9 18 11 12 76 -7 76 -8 0 -21 -15 -30 -32 -9 -18 -22 -33 -29
-33 -37 0 17 -38 131 -91 26 -12 47 -26 47 -31 0 -15 109 -61 131 -55 38 10
30 -16 -17 -58 -37 -34 -44 -44 -30 -45 11 0 34 11 52 25 17 13 61 44 97 69
l65 44 133 -1 c78 -1 159 4 194 12 85 19 90 20 79 30 -5 5 -39 3 -79 -5 -38
-7 -100 -13 -137 -14 -87 0 -102 19 -16 21 l63 2 -60 7 c-33 3 -75 2 -92 -4
-50 -14 -51 0 -5 41 23 20 42 42 42 49 0 7 19 27 41 45 36 28 42 30 50 17 5
-9 25 -26 43 -38 34 -21 36 -21 218 -6 297 25 406 37 538 56 69 11 184 24 255
30 72 6 150 15 175 20 25 5 108 12 185 16 77 3 147 9 155 12 23 10 -191 18
-228 9 -46 -11 -64 -2 -27 14 17 7 63 12 105 12 58 -1 67 1 37 6 -50 10 -58
21 -16 21 19 0 42 7 52 15 10 7 50 19 88 26 68 12 71 12 129 -16 56 -27 62
-28 102 -15 24 8 55 22 70 32 14 10 33 18 42 18 9 0 16 5 16 10 0 15 -27 23
-42 14 -14 -9 -38 -14 -38 -9 0 2 19 16 43 30 38 24 39 26 12 20 -16 -4 -38
-8 -48 -10 -9 -2 -22 -7 -27 -10 -6 -3 -10 -2 -10 2 0 5 17 16 38 26 l37 17
-35 -6 c-19 -3 -39 -10 -44 -15 -13 -12 -26 -11 -26 1 0 6 6 10 14 10 7 0 19
7 26 15 15 18 1 20 -34 4 -21 -10 -33 -8 -73 11 -74 34 -96 64 -91 125 3 28
14 70 25 95 26 57 35 80 40 103 2 10 24 41 51 69 26 27 52 58 57 68 20 37 109
93 194 122 78 27 94 29 165 23 95 -8 96 8 1 24 -83 15 -160 -2 -291 -64 -67
-31 -105 -57 -146 -99 -31 -31 -61 -56 -67 -56 -12 0 -31 13 -57 40 -8 8 -63
65 -122 125 -71 73 -124 118 -157 134 -55 27 -131 77 -100 67 10 -4 39 -10 63
-13 32 -4 42 -10 38 -20 -5 -12 0 -13 24 -8 19 4 30 3 30 -4 0 -6 9 -11 19
-11 11 0 23 -4 26 -10 3 -5 16 -10 28 -10 18 0 14 5 -18 24 -22 14 -39 28 -37
33 2 4 -25 14 -60 21 -35 8 -85 20 -112 28 -62 18 -96 18 -96 0z m333 -256
c31 -33 52 -60 47 -60 -13 0 -77 58 -101 91 -35 49 -6 32 54 -31z m-1721 -297
c26 -31 30 -43 14 -43 -9 0 -22 14 -31 30 -17 33 -7 40 17 13z m-20 -497 c-2
-5 -9 -1 -14 8 -5 9 -6 21 -2 28 9 14 25 -22 16 -36z m1221 -3 c-7 -2 -19 -2
-25 0 -7 3 -2 5 12 5 14 0 19 -2 13 -5z"/>
<path d="M5564 4176 c-63 -64 -91 -85 -100 -76 -6 6 -23 -1 -44 -20 -31 -27
-33 -31 -19 -42 17 -14 9 -58 -11 -58 -5 0 -10 -6 -10 -13 0 -8 -9 -22 -20
-32 -11 -10 -20 -23 -20 -28 0 -6 -24 -33 -53 -62 -29 -29 -80 -83 -112 -121
-33 -38 -83 -93 -112 -122 -29 -29 -53 -59 -53 -67 0 -8 -4 -17 -10 -20 -13
-8 -13 -42 0 -50 17 -10 42 16 36 37 -3 13 3 22 17 29 23 10 46 24 87 51 14 9
40 19 58 23 36 7 65 43 60 72 -2 12 4 19 19 21 15 2 24 13 28 32 3 16 17 40
31 55 13 14 24 28 24 31 0 3 16 25 35 48 19 24 35 48 35 55 0 10 150 190 207
249 22 23 15 42 -14 41 -17 -1 -40 -14 -59 -33z"/>
<path d="M3373 4045 c-33 -22 -53 -42 -53 -54 0 -10 -10 -26 -22 -34 -50 -36
-99 -67 -107 -67 -5 0 -19 -20 -32 -45 -13 -25 -37 -54 -54 -65 -109 -69 -215
-159 -215 -183 0 -5 -17 -25 -37 -43 l-37 -34 27 0 c50 0 85 28 319 256 92 89
189 176 215 193 32 21 41 31 27 31 -15 1 -12 7 19 34 20 18 37 36 37 40 0 15
-39 2 -87 -29z"/>
<path d="M3515 4065 c-45 -21 -76 -51 -69 -68 4 -11 -12 -26 -50 -51 -30 -19
-65 -50 -77 -68 -12 -18 -38 -46 -58 -61 -72 -56 -232 -220 -222 -230 18 -18
104 42 130 91 13 24 106 102 123 102 6 0 -29 -39 -77 -87 -48 -48 -94 -102
-101 -119 -16 -39 -18 -40 -85 -58 l-54 -15 58 0 c63 -1 97 11 97 34 0 8 4 15
9 15 10 0 129 119 271 272 58 62 135 143 173 179 37 36 67 69 67 73 0 13 -54
-3 -66 -20 -15 -18 -82 -64 -95 -64 -22 0 -1 26 39 48 23 13 40 28 37 33 -8
12 -14 11 -50 -6z m-74 -154 c-19 -14 -49 -38 -65 -54 -34 -30 -49 -18 -20 15
24 26 107 79 114 71 3 -3 -10 -17 -29 -32z"/>
<path d="M3276 4063 c-42 -7 -103 -48 -213 -145 -254 -225 -293 -257 -362
-298 -66 -39 -72 -45 -53 -53 48 -22 103 8 232 127 19 17 69 61 110 96 41 36
106 94 143 130 72 68 142 120 162 120 7 0 18 7 25 15 14 16 14 16 -44 8z"/>
<path d="M3702 4061 c-21 -13 -445 -433 -469 -465 -43 -56 -25 -71 40 -36 47
25 49 25 35 -5 -11 -24 -58 -42 -78 -30 -14 9 -70 -4 -70 -16 0 -5 36 -9 79
-9 85 0 121 7 101 20 -9 6 -5 13 12 24 13 9 92 91 174 183 82 92 177 196 212
232 34 35 62 66 62 69 0 11 -58 -12 -88 -35 -18 -14 -36 -22 -39 -19 -12 12
49 64 83 71 19 3 34 10 34 15 0 12 -70 13 -88 1z m-242 -328 c0 -10 -75 -83
-84 -83 -10 0 9 32 39 63 25 26 45 35 45 20z"/>
<path d="M3835 4060 c-9 -15 4 -30 26 -30 28 0 61 19 54 31 -8 12 -72 12 -80
-1z"/>
<path d="M3910 4007 c-24 -28 -61 -67 -82 -85 -21 -19 -38 -39 -38 -47 0 -7
-22 -34 -50 -61 -27 -27 -50 -53 -50 -58 0 -5 -16 -24 -35 -43 -19 -19 -35
-36 -35 -39 0 -3 -16 -22 -36 -42 -20 -20 -42 -49 -50 -64 -8 -15 -23 -32 -33
-38 -25 -13 -61 -13 -61 0 0 6 8 10 17 10 17 0 120 104 128 130 3 9 27 35 55
59 27 24 50 49 50 56 0 7 23 35 50 61 28 26 50 53 50 60 0 7 21 30 46 53 42
37 50 61 21 61 -14 0 -84 -67 -147 -141 -25 -29 -94 -102 -153 -163 -60 -61
-117 -128 -128 -148 -12 -23 -29 -40 -44 -44 -14 -3 -25 -10 -25 -14 0 -15 28
-19 104 -13 62 5 77 9 81 24 4 11 10 19 15 19 10 0 162 170 215 240 22 30 63
79 91 109 28 31 68 82 88 114 31 48 34 57 19 57 -10 0 -38 -24 -63 -53z"/>
<path d="M4093 4005 c-49 -42 -56 -43 -43 -9 13 32 13 34 -2 33 -7 0 -52 -46
-101 -102 -48 -56 -106 -123 -130 -148 -23 -26 -51 -58 -62 -72 -11 -14 -36
-42 -55 -64 -19 -21 -48 -57 -64 -80 -16 -24 -33 -43 -38 -43 -5 0 -8 -6 -6
-12 5 -15 133 -19 161 -6 30 15 8 28 -38 21 -51 -7 -57 0 -19 20 14 7 31 23
37 34 29 52 89 133 112 151 14 11 25 24 25 30 0 17 160 195 168 187 7 -6 -47
-75 -59 -75 -5 0 -9 -7 -9 -16 0 -8 -16 -32 -35 -52 -19 -20 -35 -41 -35 -45
0 -4 -16 -23 -35 -43 -19 -19 -35 -38 -35 -42 0 -4 -12 -18 -25 -31 -14 -13
-25 -27 -25 -32 0 -5 -6 -9 -13 -9 -11 0 -37 -39 -37 -55 0 -3 12 -5 26 -5 27
0 94 54 94 76 0 5 19 33 43 61 56 68 93 115 149 193 26 36 62 84 79 108 43 58
27 74 -28 27z"/>
<path d="M4293 3995 c-29 -25 -51 -35 -75 -35 -35 0 -46 -9 -128 -110 -25 -30
-79 -93 -120 -140 -42 -47 -91 -107 -110 -135 -19 -27 -41 -55 -49 -62 -9 -6
-13 -14 -9 -18 7 -8 17 -8 132 -3 l79 3 54 60 c30 33 66 83 79 110 13 28 35
68 47 90 13 22 34 58 46 80 13 22 34 51 47 66 13 14 24 30 24 37 0 7 5 12 11
12 8 0 39 58 39 75 0 15 -31 1 -67 -30z m-70 -98 c-10 -12 -31 -40 -45 -62
-26 -41 -89 -108 -95 -101 -6 6 83 139 118 176 35 38 56 26 22 -13z m-249
-362 c-4 -8 -13 -15 -20 -15 -12 0 -12 3 -2 15 17 19 29 19 22 0z"/>
<path d="M1992 3991 c-11 -6 -10 -9 5 -13 23 -6 45 1 37 13 -7 11 -25 11 -42
0z"/>
<path d="M4939 3989 c-12 -7 4 -12 106 -28 128 -21 143 -23 115 -10 -39 17
-208 47 -221 38z"/>
<path d="M7926 3960 c16 -16 216 -81 234 -77 8 2 2 7 -15 11 -16 4 -43 14 -60
21 -16 7 -50 19 -75 26 -25 7 -49 16 -54 21 -15 12 -42 10 -30 -2z"/>
<path d="M7358 3893 c12 -2 30 -2 40 0 9 3 -1 5 -23 4 -22 0 -30 -2 -17 -4z"/>
<path d="M5000 3870 c-8 -5 -24 -10 -36 -10 -22 0 -62 -36 -51 -46 7 -7 127
47 127 58 0 11 -22 10 -40 -2z"/>
<path d="M7483 3873 c15 -2 37 -2 50 0 12 2 0 4 -28 4 -27 0 -38 -2 -22 -4z"/>
<path d="M327 3813 c-11 -11 -7 -56 7 -82 22 -40 117 -129 149 -141 25 -8 29
-8 19 2 -6 6 -12 30 -12 53 0 35 -7 48 -52 97 -61 65 -96 87 -111 71z"/>
<path d="M8013 3813 c-39 -5 -43 -18 -7 -27 29 -8 94 2 94 14 0 9 -27 21 -43
18 -7 0 -27 -3 -44 -5z"/>
<path d="M970 3650 c0 -5 5 -10 11 -10 5 0 7 5 4 10 -3 6 -8 10 -11 10 -2 0
-4 -4 -4 -10z"/>
<path d="M1778 3635 c-9 -9 6 -58 20 -63 7 -2 12 5 12 15 0 23 -23 57 -32 48z"/>
<path d="M4660 3585 c0 -3 4 -13 9 -23 5 -9 12 -25 15 -34 3 -10 10 -18 16
-18 17 0 11 46 -8 63 -18 17 -32 22 -32 12z"/>
<path d="M2090 3510 c0 -5 5 -10 10 -10 6 0 10 5 10 10 0 6 -4 10 -10 10 -5 0
-10 -4 -10 -10z"/>
<path d="M2100 3482 c0 -5 7 -17 15 -28 14 -19 14 -19 15 2 0 12 -7 24 -15 28
-8 3 -15 2 -15 -2z"/>
<path d="M2040 3456 c0 -11 28 -55 32 -51 10 11 -5 55 -18 55 -8 0 -14 -2 -14
-4z"/>
<path d="M1901 3438 c-1 -9 -6 -18 -13 -20 -8 -3 -5 -16 9 -44 12 -21 24 -47
27 -56 3 -10 10 -18 16 -18 16 0 12 46 -5 60 -8 7 -15 22 -16 34 -1 28 -17 68
-18 44z"/>
<path d="M1990 3428 c0 -31 9 -58 20 -58 12 0 6 58 -8 72 -9 9 -12 7 -12 -14z"/>
<path d="M5040 3414 c-7 -17 -6 -32 1 -45 6 -12 8 -27 5 -35 -7 -19 18 -18 34
1 15 18 6 45 -15 45 -8 0 -15 7 -15 15 0 9 6 12 15 9 10 -4 15 0 15 15 0 30
-28 26 -40 -5z"/>
<path d="M1950 3410 c0 -11 5 -20 10 -20 6 0 10 9 10 20 0 11 -4 20 -10 20 -5
0 -10 -9 -10 -20z"/>
<path d="M6800 3370 c-6 -11 -23 -23 -38 -26 -15 -4 -36 -13 -47 -20 -11 -8
-32 -14 -47 -14 -15 0 -30 -4 -33 -10 -3 -5 -14 -10 -24 -10 -18 0 -48 -26
-40 -34 5 -5 157 27 207 42 17 6 43 19 57 30 22 18 23 21 9 41 -19 26 -30 27
-44 1z"/>
<path d="M2055 3350 c3 -5 11 -10 16 -10 6 0 7 5 4 10 -3 6 -11 10 -16 10 -6
0 -7 -4 -4 -10z"/>
<path d="M4460 3346 c0 -14 21 -58 26 -54 8 8 -7 58 -17 58 -5 0 -9 -2 -9 -4z"/>
<path d="M4700 3311 c0 -12 6 -21 16 -21 9 0 14 7 12 17 -5 25 -28 28 -28 4z"/>
<path d="M5109 3312 c-28 -19 -49 -39 -49 -45 0 -10 36 5 64 27 33 27 21 43
-15 18z"/>
<path d="M6880 3316 c0 -7 7 -36 15 -62 8 -27 19 -67 25 -90 6 -23 28 -61 50
-87 46 -52 155 -127 184 -127 21 0 149 61 142 68 -2 2 -39 -2 -81 -8 -82 -12
-135 -2 -135 26 0 18 25 18 44 -1 8 -8 25 -15 38 -15 21 0 20 2 -9 20 -18 10
-39 32 -46 47 -8 15 -24 37 -36 47 -25 23 -28 41 -5 32 9 -3 43 -9 76 -12 72
-7 73 10 1 20 -27 4 -74 16 -105 27 -46 17 -59 27 -68 52 -6 17 -20 41 -32 54
-24 25 -58 31 -58 9z m129 -151 c2 -10 18 -35 37 -54 34 -36 41 -51 26 -51
-18 0 -92 96 -92 120 0 19 25 5 29 -15z"/>
<path d="M1966 3276 c-5 -20 -2 -33 9 -45 8 -10 15 -24 15 -33 0 -8 9 -23 20
-33 11 -10 20 -23 20 -30 0 -6 10 -31 22 -56 22 -43 23 -44 26 -15 2 16 -1 33
-7 39 -6 6 -11 22 -11 35 0 15 -7 26 -20 29 -11 3 -20 13 -20 22 0 9 -6 23
-12 29 -7 7 -18 30 -23 50 l-11 37 -8 -29z"/>
<path d="M1560 3250 c-15 -14 -37 -43 -50 -65 -13 -22 -29 -43 -36 -48 -7 -4
-23 -24 -35 -44 -13 -21 -30 -45 -39 -54 -8 -10 -30 -39 -48 -66 -134 -194
-199 -278 -290 -370 -18 -18 -37 -46 -42 -63 -8 -28 -7 -30 20 -30 38 0 109
27 137 53 12 10 27 33 34 50 7 18 45 73 84 123 38 50 88 117 110 149 22 31 55
75 73 97 17 22 32 45 33 51 0 7 25 46 54 87 59 80 88 137 79 151 -10 16 -58 4
-84 -21z"/>
<path d="M6528 3253 c7 -3 16 -2 19 1 4 3 -2 6 -13 5 -11 0 -14 -3 -6 -6z"/>
<path d="M210 3185 c0 -22 6 -38 15 -41 8 -4 13 -9 11 -13 -3 -4 10 -36 28
-72 44 -89 58 -112 78 -127 16 -12 37 -50 52 -96 4 -10 2 -24 -4 -31 -8 -9 -8
-15 0 -20 8 -5 8 -11 0 -20 -16 -19 10 -91 33 -87 10 2 17 -3 17 -12 0 -18 43
-66 58 -66 6 0 20 -9 31 -21 37 -40 86 1 136 115 14 31 36 69 50 84 34 37 33
81 -2 113 -47 42 -111 89 -122 89 -5 0 -11 4 -13 8 -3 9 -112 82 -121 82 -8 0
-51 35 -78 64 -10 10 -26 24 -37 30 -10 6 -34 21 -53 33 -19 13 -44 23 -56 23
-20 0 -23 -5 -23 -35z"/>
<path d="M8052 3199 c2 -7 10 -15 17 -17 8 -3 12 1 9 9 -2 7 -10 15 -17 17 -8
3 -12 -1 -9 -9z"/>
<path d="M2092 3158 c2 -12 8 -23 14 -25 7 -2 10 6 7 22 -6 30 -26 34 -21 3z"/>
<path d="M4330 3157 c0 -14 -2 -31 -5 -39 -3 -7 0 -20 5 -28 17 -25 39 13 31
52 -8 39 -31 50 -31 15z"/>
<path d="M3582 3148 c8 -23 434 -85 453 -67 3 3 -50 13 -118 23 -67 10 -168
26 -224 37 -120 22 -116 22 -111 7z"/>
<path d="M2196 3120 c14 -14 213 -82 226 -78 6 2 -11 12 -38 22 -27 10 -77 29
-111 42 -66 26 -94 31 -77 14z"/>
<path d="M8707 3117 c-9 -7 -21 -24 -26 -39 -12 -32 -23 -35 -41 -13 -11 13
-16 10 -32 -26 -15 -35 -20 -39 -33 -29 -8 7 -15 25 -15 40 0 38 -23 56 -44
35 -9 -9 -16 -23 -16 -30 0 -25 -21 -27 -46 -4 -18 17 -27 20 -36 11 -8 -8 -5
-21 15 -50 15 -21 27 -42 27 -48 0 -5 16 -29 35 -54 19 -25 42 -54 50 -65 8
-10 15 -23 15 -28 0 -6 14 -23 31 -40 27 -26 36 -29 73 -24 49 7 179 48 221
69 17 9 43 28 58 42 15 14 35 26 43 26 10 0 14 13 14 50 0 46 -2 50 -27 57
-16 3 -49 21 -75 39 -66 47 -88 51 -118 20 -33 -36 -40 -33 -40 18 0 50 -9 61
-33 43z"/>
<path d="M2120 3110 c0 -14 32 -29 144 -67 56 -19 127 -49 159 -68 32 -19 61
-35 65 -35 4 0 20 -12 37 -26 20 -17 31 -21 34 -13 2 7 -1 15 -8 17 -6 2 -17
9 -24 16 -43 42 -261 146 -306 146 -9 0 -33 9 -54 20 -42 23 -47 24 -47 10z"/>
<path d="M3345 3110 c3 -5 15 -10 26 -10 10 0 19 5 19 10 0 6 -12 10 -26 10
-14 0 -23 -4 -19 -10z"/>
<path d="M3460 3111 c-8 -4 -26 -14 -39 -20 -19 -11 -42 -11 -116 0 l-93 12
-48 -29 c-27 -16 -60 -34 -74 -40 -14 -6 -43 -27 -65 -47 -22 -20 -64 -48 -92
-62 -29 -15 -53 -33 -53 -40 0 -16 22 -10 80 20 36 19 41 19 34 1 -3 -8 -24
-27 -46 -42 -22 -16 -35 -30 -29 -32 11 -4 4 -82 -8 -92 -13 -11 -30 -60 -22
-64 12 -8 49 35 62 72 12 36 29 43 29 12 0 -19 -70 -161 -94 -190 -7 -8 -19
-31 -26 -50 -14 -34 -56 -104 -104 -168 -13 -18 -34 -58 -47 -90 -12 -31 -27
-60 -32 -63 -5 -4 -11 -36 -14 -72 -5 -60 -4 -66 18 -80 44 -29 152 -36 529
-36 393 0 1139 -15 1640 -32 162 -6 365 -12 450 -15 85 -2 351 -9 590 -15 239
-6 518 -13 620 -15 257 -5 427 -21 453 -42 6 -6 26 -12 42 -14 23 -2 29 -7 27
-22 -3 -17 1 -18 42 -13 72 10 59 -18 -19 -39 -38 -11 -39 -12 -15 -18 16 -5
34 -23 49 -51 12 -24 31 -52 41 -63 18 -19 18 -20 1 -25 -10 -2 -60 -3 -111
-2 -121 3 -94 -11 35 -18 160 -10 429 -36 482 -47 72 -16 129 -48 159 -91 15
-22 30 -39 34 -39 12 0 80 -65 80 -77 0 -18 104 -123 123 -123 22 0 21 17 -4
69 -26 55 -17 64 22 23 18 -19 40 -32 55 -32 13 0 64 -15 112 -33 48 -19 116
-44 152 -57 36 -13 70 -27 75 -31 10 -7 92 -53 133 -75 28 -14 135 -88 245
-169 45 -33 116 -82 159 -108 42 -26 79 -55 82 -62 3 -8 12 -15 21 -15 13 0
15 42 15 351 0 338 -5 400 -31 384 -5 -4 -9 -26 -9 -51 0 -24 -4 -44 -10 -44
-15 0 -39 -55 -30 -69 4 -8 2 -27 -5 -45 -7 -17 -16 -59 -19 -94 -6 -55 -4
-69 14 -100 15 -24 18 -38 10 -40 -6 -2 -15 -15 -21 -28 -7 -21 -12 -23 -29
-14 -12 6 -24 18 -27 26 -3 8 -16 14 -29 14 -13 0 -38 13 -56 29 -18 15 -55
41 -83 57 -59 35 -135 88 -179 126 -17 15 -37 28 -43 28 -7 0 -15 11 -19 25
-3 14 -13 25 -21 25 -8 0 -11 5 -8 10 4 6 -6 10 -22 11 -15 0 -22 3 -15 6 6 2
12 8 12 13 0 14 -46 20 -84 9 -57 -16 -104 10 -97 54 0 4 -6 7 -14 7 -8 0 -15
-6 -15 -12 0 -9 -3 -8 -10 2 -6 9 -6 18 0 24 15 15 12 26 -8 26 -31 0 -73 86
-82 170 -12 113 -21 136 -60 162 -19 13 -43 27 -52 31 -10 3 -18 12 -18 19 0
9 -17 13 -60 12 -34 -1 -63 -4 -67 -7 -3 -4 -17 0 -32 7 -14 7 -48 16 -75 20
-47 6 -48 5 -44 -19 6 -30 8 -30 -37 -4 -21 12 -44 19 -57 16 -26 -7 -144 51
-196 96 -52 46 -91 67 -211 112 -83 32 -115 50 -153 86 -26 25 -48 53 -48 61
0 7 -4 18 -10 24 -5 5 -6 15 0 23 6 11 12 5 24 -24 20 -47 39 -62 94 -70 69
-10 260 -96 402 -180 41 -24 79 -44 84 -45 14 0 -84 77 -123 97 -20 10 -54 29
-76 43 -22 13 -41 25 -43 26 -1 1 -7 15 -11 32 -9 29 -8 30 10 19 10 -6 19
-15 19 -19 0 -11 67 -54 113 -73 43 -18 51 -3 10 19 -48 26 -101 80 -112 116
-11 33 -41 61 -119 112 -14 9 -36 34 -48 54 -24 39 -98 104 -119 104 -7 0 7
-20 30 -45 44 -45 56 -80 52 -150 -2 -25 -6 -30 -27 -29 -14 1 -28 -3 -31 -9
-11 -16 -38 0 -57 33 -9 16 -29 34 -45 39 -15 6 -30 17 -33 26 -3 8 -16 15
-29 15 -18 0 -24 -7 -27 -32 -8 -51 10 -98 63 -163 27 -33 49 -68 49 -78 0
-36 40 -75 114 -112 68 -34 96 -59 81 -74 -3 -3 -14 0 -23 7 -9 7 -24 15 -32
19 -8 4 -21 13 -28 20 -7 7 -22 13 -31 13 -10 0 -24 7 -31 15 -7 9 -21 13 -31
10 -11 -4 -19 -2 -19 3 0 5 -13 15 -29 22 -18 7 -28 17 -25 25 9 23 -27 33
-156 40 -69 4 -194 15 -278 26 -84 10 -192 19 -240 19 -48 0 -169 5 -270 12
-164 10 -206 9 -190 -7 14 -14 128 -26 353 -35 289 -12 461 -24 630 -45 66 -8
121 -15 123 -15 1 0 2 -4 2 -10 0 -6 -53 -10 -137 -11 -76 -1 -183 -4 -238 -8
-84 -5 -94 -7 -62 -14 20 -4 42 -5 49 -1 7 4 8 3 4 -4 -5 -8 -61 -12 -179 -14
l-172 -1 138 -7 c76 -5 140 -10 143 -13 7 -7 -580 2 -883 13 -162 6 -290 16
-335 26 -72 15 -210 14 -252 -2 -10 -4 -185 -2 -389 5 -205 6 -556 14 -782 17
-726 10 -1049 19 -1076 31 l-27 12 26 78 c14 43 29 80 33 83 5 3 15 24 23 47
8 22 35 68 60 101 38 49 186 326 186 347 0 7 56 123 73 150 6 11 20 33 31 48
13 20 16 37 12 61 -6 29 -2 37 25 60 36 31 36 31 130 9 l73 -16 52 28 c29 16
51 32 48 37 -6 10 -14 9 -34 -1z m-340 -110 c0 -5 -7 -14 -15 -21 -8 -7 -15
-22 -15 -34 0 -26 -97 -139 -112 -130 -5 4 1 18 16 33 14 15 26 36 26 47 0 10
9 25 20 32 11 7 20 19 20 28 0 9 10 25 22 35 23 20 38 24 38 10z m3505 -1020
c7 -12 -68 -12 -86 0 -9 6 2 9 33 9 26 0 49 -4 53 -9z m352 3 c-3 -3 -12 -4
-19 -1 -8 3 -5 6 6 6 11 1 17 -2 13 -5z m103 -19 c7 -9 11 -18 8 -20 -9 -10
-38 7 -38 21 0 18 14 18 30 -1z m-77 -25 c10 -17 13 -30 8 -30 -6 0 -14 0 -18
0 -5 -1 -11 13 -14 30 -8 38 2 38 24 0z m82 -50 c-3 -5 -12 -10 -18 -10 -7 0
-6 4 3 10 19 12 23 12 15 0z"/>
<path d="M4078 3113 c7 -3 16 -2 19 1 4 3 -2 6 -13 5 -11 0 -14 -3 -6 -6z"/>
<path d="M8129 3081 c-17 -16 -29 -34 -25 -39 8 -14 95 -62 111 -62 7 0 23 -9
37 -19 29 -23 98 -39 98 -22 0 6 -11 17 -25 23 -30 14 -31 18 -4 52 20 26 20
27 2 59 -23 39 -50 46 -69 18 -20 -28 -48 -28 -39 -1 10 33 -46 27 -86 -9z"/>
<path d="M2825 3070 c-62 -37 -111 -77 -103 -85 9 -9 67 20 114 57 23 18 50
38 60 45 18 11 18 12 -1 12 -11 1 -42 -13 -70 -29z"/>
<path d="M4746 3081 c-4 -7 -5 -15 -2 -18 9 -9 19 4 14 18 -4 11 -6 11 -12 0z"/>
<path d="M2896 3047 c-108 -71 -136 -86 -163 -85 -15 0 -47 -2 -70 -6 -32 -6
-50 -3 -83 14 -23 12 -44 19 -47 16 -8 -8 17 -36 33 -36 7 0 17 -7 22 -15 7
-13 16 -14 53 -6 24 6 63 11 87 11 52 0 150 47 198 95 56 56 43 61 -30 12z"/>
<path d="M3015 3058 c-11 -6 -40 -28 -63 -49 -24 -21 -65 -48 -90 -61 -36 -18
-42 -24 -26 -26 35 -5 107 33 162 86 63 60 69 80 17 50z"/>
<path d="M3740 3060 c0 -5 19 -10 42 -10 49 0 47 5 -4 14 -24 4 -38 3 -38 -4z"/>
<path d="M7600 2750 l-35 -7 37 -16 c21 -9 44 -17 51 -17 8 0 28 -7 46 -16 19
-9 39 -13 49 -8 15 6 14 8 -5 11 -13 3 -23 9 -23 15 0 6 12 8 30 5 17 -4 30
-3 30 1 0 6 -55 21 -130 36 -8 2 -31 0 -50 -4z"/>
<path d="M7450 2741 c0 -10 132 -64 196 -80 79 -20 160 -43 205 -57 25 -8 53
-12 61 -9 9 4 19 2 23 -4 3 -6 16 -11 28 -11 43 1 -8 19 -169 61 -88 22 -175
49 -194 59 -34 18 -125 50 -142 50 -4 0 -8 -4 -8 -9z"/>
<path d="M6790 2720 c0 -6 -12 -15 -26 -20 l-26 -10 28 -33 c15 -17 40 -40 56
-50 29 -17 191 -87 202 -87 16 0 3 31 -21 51 -20 16 -22 20 -8 15 11 -4 61
-13 112 -21 92 -14 169 -44 179 -70 3 -8 29 -23 57 -34 29 -10 77 -30 107 -44
30 -14 74 -31 97 -38 24 -6 51 -21 60 -31 10 -11 30 -32 44 -46 40 -42 62 -79
50 -86 -12 -8 -4 -34 18 -60 21 -25 125 -76 153 -76 22 0 22 1 -7 25 -29 23
-29 24 -5 18 14 -3 31 -10 37 -16 7 -5 25 -6 39 -3 19 5 30 2 39 -10 6 -9 17
-14 23 -10 17 10 15 26 -3 26 -8 0 -31 18 -51 40 -20 22 -43 40 -50 40 -8 0
-14 6 -14 14 0 8 -6 16 -12 19 -10 3 -10 7 -1 17 13 14 48 5 38 -10 -3 -5 -1
-10 4 -10 24 0 9 30 -16 36 -79 16 -113 37 -182 110 -39 42 -71 80 -71 85 0 5
-7 9 -15 9 -8 0 -40 23 -70 51 -30 29 -63 57 -73 63 -118 69 -197 92 -343 101
-63 3 -79 1 -79 -10 0 -12 50 -27 125 -38 11 -1 19 -7 17 -12 -1 -6 -37 -8
-90 -6 -94 4 -168 29 -224 76 -16 14 -36 25 -44 25 -8 0 -14 5 -14 10 0 6 -9
10 -20 10 -11 0 -20 -5 -20 -10z m80 -70 c0 -5 -2 -10 -4 -10 -3 0 -8 5 -11
10 -3 6 -1 10 4 10 6 0 11 -4 11 -10z m602 -198 c18 -10 45 -22 61 -26 26 -6
39 -26 17 -26 -19 0 -80 29 -107 50 -32 25 -15 26 29 2z m164 -62 c18 -12 50
-42 71 -67 73 -89 88 -101 117 -96 21 4 25 2 20 -10 -3 -10 7 -25 31 -43 25
-19 33 -30 26 -37 -8 -8 -20 -3 -39 16 -15 15 -36 27 -45 27 -9 0 -17 5 -17
10 0 6 -7 10 -15 10 -8 0 -15 5 -15 10 0 6 -7 10 -15 10 -9 0 -19 8 -22 18 -6
15 -25 37 -106 123 -15 16 -34 29 -43 29 -8 0 -12 5 -9 10 9 15 24 12 61 -10z"/>
<path d="M7120 2700 c0 -5 9 -10 21 -10 11 0 17 5 14 10 -3 6 -13 10 -21 10
-8 0 -14 -4 -14 -10z"/>
<path d="M2411 2559 l-23 -9 27 -21 c20 -17 25 -27 21 -45 -7 -27 8 -33 18 -8
8 20 -2 56 -18 66 -6 4 -7 10 -3 15 4 4 17 2 27 -5 28 -17 39 -14 16 3 -22 17
-31 18 -65 4z"/>
<path d="M1145 2522 c-9 -7 -27 -13 -113 -38 -7 -2 -10 -9 -7 -14 17 -27 144
15 145 48 0 14 -12 16 -25 4z"/>
<path d="M8970 2375 c0 -8 7 -15 15 -15 8 0 15 7 15 15 0 8 -7 15 -15 15 -8 0
-15 -7 -15 -15z"/>
<path d="M2110 2356 c0 -22 43 -76 60 -76 5 0 0 18 -11 40 -10 21 -19 44 -19
50 0 5 -7 10 -15 10 -9 0 -15 -9 -15 -24z"/>
<path d="M1465 2341 c11 -11 103 -35 169 -45 56 -8 32 12 -35 29 -86 21 -146
29 -134 16z"/>
<path d="M2627 2314 c9 -4 10 -11 4 -22 -7 -15 -8 -44 -3 -89 1 -7 8 -13 16
-13 9 0 16 18 21 56 8 63 9 59 -25 68 -14 3 -19 3 -13 0z"/>
<path d="M7360 2290 c0 -6 12 -15 27 -21 31 -12 63 -37 63 -51 0 -14 -21 -9
-47 12 -30 24 -43 25 -43 5 0 -16 49 -45 76 -45 10 0 14 -3 11 -6 -6 -6 88
-63 106 -64 21 -1 1 22 -44 51 -29 18 -47 35 -41 37 22 7 77 -18 115 -53 40
-37 52 -41 62 -25 13 21 -73 85 -169 128 -102 44 -116 48 -116 32z"/>
<path d="M7540 2271 c0 -12 9 -23 23 -27 38 -12 77 -44 77 -65 0 -10 5 -19 10
-19 6 0 10 -6 10 -13 0 -13 24 -28 63 -41 21 -7 23 12 2 20 -8 3 -30 30 -50
60 -26 39 -50 61 -86 79 -47 24 -49 24 -49 6z"/>
<path d="M2570 2256 c0 -8 4 -17 9 -20 10 -7 23 19 14 28 -11 11 -23 6 -23 -8z"/>
<path d="M928 2219 c-16 -12 -25 -26 -21 -34 3 -8 0 -15 -6 -15 -14 0 -80 -72
-98 -107 -7 -14 -13 -33 -13 -43 0 -20 33 -37 38 -20 2 6 15 24 30 41 19 23
22 33 13 38 -9 6 -1 18 25 40 43 35 54 38 54 16 0 -8 -14 -22 -31 -30 -23 -13
-29 -21 -24 -36 5 -14 0 -28 -14 -43 -20 -21 -21 -56 -1 -56 11 0 54 72 52 86
-1 6 18 28 43 48 50 42 57 57 23 48 -22 -5 -22 -4 -5 15 9 11 17 23 17 26 0
13 -31 7 -46 -8 -9 -8 -20 -15 -25 -15 -17 0 -9 18 16 34 27 18 33 36 13 36
-7 0 -25 -10 -40 -21z"/>
<path d="M1703 2168 c-45 -127 -60 -306 -30 -349 9 -13 17 -39 17 -59 1 -19 7
-46 15 -60 8 -15 10 -29 4 -36 -6 -7 4 -17 30 -29 51 -23 77 -14 34 11 -18 11
-33 22 -33 27 0 11 28 9 35 -3 3 -5 13 -10 21 -10 9 0 33 -12 54 -27 34 -25
38 -32 37 -71 0 -23 -6 -47 -14 -53 -7 -6 -13 -17 -13 -24 0 -20 -100 -165
-114 -165 -7 0 -21 -9 -31 -20 -10 -11 -26 -20 -37 -20 -20 0 -25 -16 -6 -22
6 -2 -14 -31 -45 -64 -55 -57 -73 -93 -42 -80 8 3 22 9 30 12 8 3 15 1 15 -4
0 -6 -31 -32 -68 -58 -38 -26 -79 -63 -92 -83 -13 -20 -41 -61 -62 -93 -21
-31 -38 -63 -38 -70 0 -8 -11 -24 -24 -37 -12 -12 -29 -41 -36 -64 -6 -23 -16
-47 -21 -52 -4 -6 -26 -47 -47 -90 -38 -77 -81 -135 -100 -135 -5 0 -29 -16
-53 -35 -24 -19 -53 -35 -65 -35 -11 0 -39 -16 -62 -36 -46 -39 -112 -75 -124
-67 -5 2 -8 17 -8 32 0 27 -26 61 -46 61 -10 0 -35 -66 -35 -92 0 -34 -27 -18
-41 24 -8 27 -20 44 -32 46 -13 3 -16 0 -10 -9 4 -7 9 -32 10 -55 2 -33 -2
-46 -22 -65 -13 -12 -24 -28 -24 -36 0 -7 -7 -13 -15 -13 -12 0 -13 4 -2 28 6
15 17 31 24 35 15 9 18 37 4 37 -5 0 -9 14 -9 31 1 19 -6 37 -15 44 -22 16
-21 23 1 27 13 3 10 8 -14 21 -36 18 -47 14 -33 -14 5 -10 14 -28 19 -39 14
-29 12 -105 -4 -145 -12 -29 -12 -34 0 -39 22 -8 17 -24 -25 -87 l-39 -59 254
0 c228 0 254 2 254 16 0 9 9 31 19 48 21 33 43 136 36 161 -16 51 -15 51 -58
3 -23 -25 -53 -49 -65 -53 -22 -6 -23 -5 -17 17 12 37 31 54 165 143 126 84
230 175 230 201 0 8 7 17 15 20 8 4 15 15 15 25 0 11 7 22 15 25 8 4 15 14 15
24 0 11 5 22 10 25 6 3 10 13 10 22 0 9 6 24 14 32 8 9 21 41 29 71 25 90 68
204 85 223 9 10 44 31 78 48 74 35 167 104 209 155 17 20 38 44 48 53 9 8 17
19 17 22 0 25 368 385 445 436 81 54 115 96 105 132 -6 23 -12 26 -46 25 -104
-3 -141 -13 -221 -58 -49 -28 -88 -44 -97 -40 -9 4 -25 -1 -34 -10 -15 -13
-24 -14 -53 -5 -64 21 -104 43 -141 77 -30 29 -38 44 -43 87 -5 39 -3 60 9 83
17 33 22 102 7 102 -31 0 -74 -146 -72 -251 1 -82 23 -149 48 -149 7 0 13 -5
13 -11 0 -7 -9 -9 -22 -5 -13 3 -26 6 -30 6 -19 0 -68 154 -63 195 3 26 14 70
30 120 11 33 20 153 16 203 -3 32 -28 6 -48 -50z m577 -328 c0 -5 -8 -10 -17
-10 -15 0 -16 2 -3 10 19 12 20 12 20 0z m-424 -78 c25 -32 39 -72 26 -72 -11
0 -72 79 -72 92 0 17 26 6 46 -20z m-1170 -1594 c-15 -18 -34 -48 -43 -65 -22
-43 -34 -43 -19 0 16 45 44 85 64 90 9 3 19 5 21 6 2 0 -8 -14 -23 -31z m29
-48 c-10 -11 -22 -17 -28 -13 -5 3 1 14 14 24 30 22 38 16 14 -11z m290 10
c-10 -11 -20 -18 -23 -15 -7 6 18 35 31 35 5 0 2 -9 -8 -20z"/>
<path d="M7930 2205 c0 -9 58 -63 79 -75 37 -19 45 -10 16 20 -16 17 -40 33
-52 36 -13 4 -23 10 -23 15 0 5 -4 9 -10 9 -5 0 -10 -2 -10 -5z"/>
<path d="M1070 2065 c-19 -25 -37 -45 -41 -45 -4 0 -11 -9 -14 -20 -4 -11 -20
-35 -36 -52 -16 -18 -29 -38 -29 -45 0 -7 -18 -41 -40 -75 -38 -60 -39 -88 -1
-54 19 18 31 20 31 8 0 -5 -22 -24 -50 -43 -27 -19 -50 -40 -50 -47 0 -7 -10
-26 -21 -41 -12 -16 -18 -34 -15 -39 4 -6 -9 -23 -29 -38 -42 -32 -48 -59 -11
-44 14 5 44 23 67 40 46 33 81 42 59 14 -8 -8 -34 -27 -59 -41 -81 -46 -128
-90 -128 -118 0 -34 11 -32 55 13 37 36 141 113 165 121 22 8 -16 -31 -72 -72
-79 -58 -101 -79 -101 -94 0 -21 17 -15 57 20 73 64 143 110 143 93 0 -8 -20
-28 -43 -45 -48 -33 -111 -100 -103 -109 8 -7 71 38 135 98 30 28 59 49 65 47
11 -4 -71 -89 -125 -129 -38 -28 -63 -76 -30 -59 9 5 25 19 35 30 11 12 25 21
32 21 7 0 27 14 44 31 17 17 34 28 38 25 11 -11 -13 -40 -48 -58 -35 -18 -110
-86 -110 -100 0 -4 -30 -38 -66 -75 -68 -71 -86 -98 -98 -148 -6 -23 -5 -27 5
-18 6 6 18 9 26 6 8 -3 29 9 49 27 18 19 36 31 40 28 10 -11 -39 -68 -63 -74
-13 -4 -28 -15 -34 -26 -10 -19 -8 -19 23 -13 35 8 46 17 92 80 39 53 65 75
87 75 10 0 21 5 24 10 8 12 25 13 25 1 0 -5 -13 -14 -30 -19 -28 -10 -90 -65
-90 -80 0 -11 -60 -72 -71 -72 -5 0 -9 -5 -9 -12 0 -9 3 -9 12 0 20 20 40 15
33 -8 -9 -29 3 -25 80 30 39 28 87 58 108 67 20 9 37 20 37 25 0 14 -20 9 -58
-17 -20 -14 -42 -25 -48 -25 -6 0 -28 -11 -49 -25 -20 -15 -39 -24 -41 -22 -9
8 9 37 22 37 8 0 14 4 14 9 0 15 80 60 136 76 28 9 62 28 76 43 47 51 134 187
188 292 76 151 80 159 91 165 16 11 10 25 -11 25 -16 0 -20 7 -20 33 0 19 -12
50 -30 77 -32 49 -38 80 -16 80 19 0 25 34 27 150 2 120 2 120 -16 120 -18 0
-27 -22 -45 -100 -14 -59 -16 -65 -47 -125 -21 -41 -53 -64 -39 -29 26 66 23
154 -5 154 -15 0 -59 -51 -74 -86 -8 -20 -22 -34 -40 -38 -37 -9 -44 0 -11 15
14 7 26 16 26 22 0 5 12 32 26 61 14 28 32 67 39 86 7 19 16 43 20 53 5 13 2
17 -12 17 -11 0 -34 -19 -53 -45z m-20 -75 c0 -5 -5 -10 -11 -10 -5 0 -7 5 -4
10 3 6 8 10 11 10 2 0 4 -4 4 -10z m-30 -68 c0 -5 -9 -17 -20 -27 -11 -10 -18
-26 -15 -35 3 -10 -6 -24 -25 -38 -41 -31 -46 -27 -16 9 14 17 26 39 26 49 0
19 25 50 41 50 5 0 9 -4 9 -8z m-24 -150 c-35 -49 -75 -82 -96 -82 -18 0 -1
19 41 46 21 13 39 30 39 36 0 14 41 60 48 53 2 -2 -12 -26 -32 -53z m4 -77 c0
-8 -91 -57 -96 -52 -3 3 5 11 18 18 12 8 32 19 43 25 22 13 35 17 35 9z m-19
-79 c-6 -8 -22 -16 -34 -20 -21 -5 -21 -4 3 14 29 23 48 26 31 6z m176 -167
c-9 -6 -17 -20 -17 -33 0 -13 -6 -29 -14 -35 -8 -7 -17 -23 -21 -38 -9 -37
-81 -119 -118 -134 -18 -7 -40 -21 -50 -31 -10 -10 -23 -15 -29 -12 -7 5 -1
16 17 32 21 18 25 26 15 32 -18 11 -5 40 18 40 15 0 22 11 31 45 8 32 19 49
35 56 13 6 29 22 36 34 7 13 33 32 59 43 46 19 72 20 38 1z m-224 -160 c-24
-22 -43 -46 -43 -54 0 -7 -7 -18 -15 -25 -21 -18 -19 2 6 47 24 44 54 73 78
73 11 0 2 -14 -26 -41z m-53 -119 c0 -11 -71 -79 -82 -80 -20 0 -5 31 27 59
36 32 55 39 55 21z m-140 -95 c-13 -14 -26 -23 -28 -20 -7 7 29 45 41 45 6 0
0 -11 -13 -25z"/>
<path d="M7644 2095 c26 -19 42 -19 26 0 -7 8 -20 15 -29 15 -13 -1 -13 -3 3
-15z"/>
<path d="M981 2066 c-14 -7 -26 -24 -28 -37 -2 -13 -9 -30 -17 -38 -7 -9 -16
-25 -18 -36 -3 -11 -9 -29 -14 -39 -4 -11 11 -1 34 23 22 23 43 55 47 71 3 16
13 34 21 41 15 12 19 29 7 29 -5 -1 -19 -7 -32 -14z"/>
<path d="M7515 2056 c18 -27 137 -84 213 -102 45 -11 54 -10 59 2 7 18 30 18
79 0 22 -7 45 -11 52 -9 38 14 -56 56 -105 47 -22 -4 -45 0 -69 11 -24 11 -47
15 -74 10 -40 -7 -103 17 -129 49 -8 9 -20 16 -27 16 -12 0 -12 -4 1 -24z"/>
<path d="M7776 2065 c4 -8 15 -15 26 -15 17 0 18 3 8 15 -7 8 -19 15 -26 15
-8 0 -11 -6 -8 -15z"/>
<path d="M7570 1971 c0 -9 44 -31 62 -31 16 0 -1 13 -34 28 -16 6 -28 8 -28 3z"/>
<path d="M7715 1920 c3 -5 8 -10 11 -10 2 0 4 5 4 10 0 6 -5 10 -11 10 -5 0
-7 -4 -4 -10z"/>
<path d="M5972 1908 c-9 -4 28 -7 84 -7 55 -1 157 -4 225 -7 87 -5 121 -3 114
4 -11 12 -395 21 -423 10z"/>
<path d="M5393 1878 c20 -7 35 -7 50 0 18 9 14 11 -28 11 -46 -1 -48 -1 -22
-11z"/>
<path d="M6837 1803 c-4 -3 0 -14 8 -23 9 -10 15 -21 14 -26 -4 -24 3 -34 26
-34 15 0 25 6 25 14 0 22 19 30 36 15 8 -6 18 -9 22 -5 12 12 -30 37 -52 31
-21 -6 -21 -6 -2 9 24 19 12 35 -13 19 -11 -7 -23 -8 -32 -2 -17 11 -24 11
-32 2z"/>
<path d="M2927 1794 c-17 -17 18 -34 72 -34 61 0 98 14 65 23 -37 10 -130 18
-137 11z"/>
<path d="M6700 1630 c41 -4 82 -4 90 1 9 5 -22 8 -75 7 l-90 -1 75 -7z"/>
<path d="M3983 1329 c-18 -5 -37 -18 -42 -28 -14 -26 -54 -270 -48 -293 3 -11
-1 -35 -9 -53 -8 -19 -14 -62 -14 -95 0 -34 -5 -70 -10 -81 -6 -10 -13 -56
-16 -101 -3 -46 -12 -100 -20 -121 -8 -20 -14 -68 -14 -106 0 -38 -7 -84 -15
-104 -8 -20 -15 -60 -15 -89 0 -29 -5 -71 -10 -93 -14 -62 -21 -132 -14 -149
5 -14 31 -16 179 -16 l173 0 18 53 c9 28 17 79 17 112 -1 33 5 82 13 109 8 27
14 82 14 122 0 43 6 87 16 109 11 27 13 49 8 74 -10 43 -6 81 8 99 7 8 8 39 4
85 -5 57 -3 77 8 92 10 13 15 43 16 82 0 34 5 74 11 90 6 15 11 49 10 75 0 49
17 78 46 78 11 0 13 -5 8 -17 -5 -10 -10 -61 -11 -113 -5 -128 -10 -200 -18
-230 -6 -23 -16 -211 -16 -288 1 -17 -7 -70 -15 -117 -9 -47 -14 -89 -11 -93
3 -5 1 -72 -4 -150 -5 -78 -7 -148 -4 -156 5 -13 35 -15 190 -15 l184 0 -1 57
c0 31 4 68 9 82 6 17 6 46 0 84 -7 41 -7 69 1 96 14 47 14 115 0 141 -8 15 -7
30 4 57 10 27 12 52 7 92 -5 32 -3 75 3 102 7 33 7 62 0 93 -8 35 -7 55 4 87
10 31 11 48 3 73 -7 23 -7 47 1 85 6 29 9 69 6 90 -2 20 0 45 5 54 16 28 0 84
-28 102 -26 18 -64 21 -340 28 -94 2 -191 7 -215 10 -24 3 -59 1 -76 -5z m232
-59 c-16 -4 -34 -8 -40 -10 -19 -5 -35 0 -35 10 0 6 23 10 53 9 44 -1 48 -2
22 -9z m355 0 c0 -5 -9 -10 -21 -10 -11 0 -17 5 -14 10 3 6 13 10 21 10 8 0
14 -4 14 -10z m-540 -10 c0 -5 -4 -10 -10 -10 -5 0 -10 5 -10 10 0 6 5 10 10
10 6 0 10 -4 10 -10z m400 0 c0 -5 -21 -10 -47 -9 -39 1 -43 2 -23 9 36 12 70
12 70 0z m70 0 c0 -5 -4 -10 -9 -10 -6 0 -13 5 -16 10 -3 6 1 10 9 10 9 0 16
-4 16 -10z m-335 -130 c-3 -5 -13 -10 -21 -10 -8 0 -14 5 -14 10 0 6 9 10 21
10 11 0 17 -4 14 -10z m235 0 c0 -5 -4 -10 -10 -10 -5 0 -10 5 -10 10 0 6 5
10 10 10 6 0 10 -4 10 -10z m-390 -35 c0 -8 -4 -15 -10 -15 -5 0 -10 7 -10 15
0 8 5 15 10 15 6 0 10 -7 10 -15z m443 -97 c-2 -5 -10 -8 -17 -8 -7 0 -25 -10
-40 -21 -31 -25 -39 -21 -31 13 6 22 12 25 50 24 24 -1 41 -4 38 -8z m95 -10
c-2 -13 -11 -24 -20 -26 -21 -4 -24 18 -6 36 19 19 30 14 26 -10z m-74 -167
c9 -14 -22 -34 -40 -27 -13 5 -14 9 -4 21 14 17 36 20 44 6z m-420 -226 c-21
-16 -44 -20 -44 -7 0 15 13 22 39 22 24 0 24 -1 5 -15z"/>
<path d="M1680 1320 c-8 -5 -11 -12 -7 -16 4 -4 13 -2 19 4 15 15 7 24 -12 12z"/>
<path d="M3410 1317 c0 -7 5 -18 12 -25 9 -9 9 -15 0 -24 -7 -7 -12 -23 -12
-37 -1 -22 -5 -19 -26 22 -17 32 -31 47 -44 47 -11 0 -20 -4 -20 -9 0 -5 -10
-22 -23 -38 -13 -15 -29 -55 -36 -88 -7 -33 -26 -105 -42 -160 -15 -55 -31
-118 -34 -140 -4 -22 -19 -80 -35 -130 -16 -49 -34 -117 -40 -150 -6 -33 -23
-91 -37 -130 -14 -38 -29 -92 -33 -120 -6 -48 -26 -118 -56 -198 -8 -20 -14
-51 -14 -67 0 -20 -5 -30 -15 -30 -19 0 -19 -7 -1 -26 11 -10 43 -14 128 -14
l113 0 18 60 c9 32 17 77 17 99 0 22 11 71 25 107 14 37 28 92 31 123 4 31 13
68 20 83 12 24 27 103 28 151 0 9 4 17 8 17 4 0 8 9 8 19 0 11 5 23 10 26 6 4
10 12 8 18 -5 30 24 137 50 184 7 13 11 42 8 69 -3 33 1 56 15 80 10 19 24 56
30 82 7 26 16 53 22 60 12 15 15 122 4 140 -11 17 -87 16 -87 -1z m-10 -183
c-15 -27 -50 -52 -50 -35 0 14 51 73 58 66 3 -3 -1 -17 -8 -31z m-75 -203 c-3
-6 -11 -11 -17 -11 -6 0 -6 6 2 15 14 17 26 13 15 -4z m-95 -361 c0 -5 -5 -10
-11 -10 -5 0 -7 5 -4 10 3 6 8 10 11 10 2 0 4 -4 4 -10z"/>
<path d="M3573 1311 c-13 -11 -23 -28 -23 -39 0 -11 -6 -38 -14 -60 -8 -22
-16 -60 -19 -84 -2 -24 -7 -52 -12 -63 -20 -57 -24 -73 -24 -105 1 -19 -6 -53
-14 -75 -8 -22 -23 -83 -32 -135 -9 -52 -20 -108 -25 -125 -4 -16 -13 -55 -20
-85 -6 -30 -18 -68 -25 -85 -7 -16 -13 -56 -14 -88 -1 -37 -8 -69 -21 -90 -13
-21 -20 -50 -20 -82 0 -28 -5 -56 -10 -61 -6 -6 -12 -37 -13 -70 l-2 -59 199
-3 199 -2 -6 78 c-5 67 -3 84 14 116 15 29 19 53 17 105 -1 52 2 75 16 96 13
20 20 53 23 109 2 46 8 83 15 87 7 5 13 41 14 94 1 63 6 90 18 104 10 10 18
42 21 81 3 38 11 70 21 81 13 14 15 29 10 63 -5 32 -1 60 13 103 11 32 22 82
24 111 8 83 -2 89 -158 96 -119 6 -132 5 -152 -13z m221 -18 c10 -25 -10 -39
-23 -15 -10 19 -6 32 10 32 4 0 10 -8 13 -17z m-64 3 c0 -3 -4 -8 -10 -11 -5
-3 -10 -1 -10 4 0 6 5 11 10 11 6 0 10 -2 10 -4z"/>
<path d="M4699 1283 c-10 -25 -16 -251 -9 -353 1 -19 0 -236 -1 -483 l-4 -447
194 0 193 0 -7 63 c-8 67 -11 150 -17 463 -3 110 -8 206 -12 213 -4 6 -2 34 4
61 9 36 9 58 1 80 -7 21 -7 73 0 170 7 104 7 146 -2 163 -21 40 -62 77 -86 77
-24 0 -24 0 -7 -30 10 -16 15 -32 12 -36 -9 -9 -66 36 -71 56 -5 20 -47 30
-123 30 -50 0 -55 -2 -65 -27z m241 -399 c0 -17 -22 -14 -28 4 -2 7 3 12 12
12 9 0 16 -7 16 -16z m0 -824 c0 -5 -4 -10 -10 -10 -5 0 -10 5 -10 10 0 6 5
10 10 10 6 0 10 -4 10 -10z"/>
<path d="M5335 1218 c22 -13 65 -59 65 -70 0 -15 -17 -8 -44 17 -15 14 -33 25
-41 25 -7 0 -20 3 -29 6 -10 4 -16 1 -16 -9 0 -8 7 -18 16 -21 9 -4 14 -9 11
-13 -4 -3 13 -18 37 -33 38 -24 63 -56 53 -66 -2 -2 -17 7 -33 21 -39 34 -186
79 -231 70 -27 -5 -33 -10 -34 -33 0 -15 -2 -46 -5 -69 -2 -26 1 -45 8 -49 6
-4 70 -11 141 -15 113 -6 132 -9 150 -28 17 -16 19 -25 11 -38 -17 -27 -31
-26 -38 2 -5 20 -12 26 -29 23 -19 -3 -23 -12 -30 -66 -8 -53 -12 -62 -25 -57
-43 18 -52 17 -52 -4 0 -25 -12 -27 -30 -6 -20 24 -48 18 -66 -16 -13 -26 -15
-57 -11 -188 3 -86 10 -168 15 -182 9 -23 21 -216 22 -361 l0 -58 235 0 c183
0 233 3 230 13 -2 6 -6 28 -9 47 -2 19 -10 73 -16 120 -7 47 -16 105 -22 130
-5 25 -9 59 -9 75 1 17 -4 73 -10 125 -6 52 -12 121 -15 153 -2 32 -6 63 -10
69 -7 10 -24 172 -28 268 -2 30 -8 68 -14 83 -7 16 -12 45 -12 66 0 37 -2 39
-37 45 -21 3 -51 13 -67 21 -33 17 -61 20 -31 3z m-115 -162 c0 -6 -5 -5 -12
2 -7 7 -20 12 -29 12 -21 0 -33 16 -24 30 7 11 65 -28 65 -44z m1 -18 c55 -16
49 -32 -8 -24 -53 7 -96 36 -54 36 13 0 41 -5 62 -12z m159 -223 c0 -8 -4 -15
-10 -15 -5 0 -10 7 -10 15 0 8 5 15 10 15 6 0 10 -7 10 -15z m70 -225 c0 -5
-4 -10 -10 -10 -5 0 -10 5 -10 10 0 6 5 10 10 10 6 0 10 -4 10 -10z m-10 -110
c0 -5 -2 -10 -4 -10 -3 0 -8 5 -11 10 -3 6 -1 10 4 10 6 0 11 -4 11 -10z"/>
<path d="M8695 1150 c3 -5 10 -10 16 -10 5 0 9 5 9 10 0 6 -7 10 -16 10 -8 0
-12 -4 -9 -10z"/>
<path d="M1264 1115 c-19 -14 -19 -14 2 -15 12 0 27 7 34 15 17 20 -9 21 -36
0z"/>
<path d="M1347 1104 c-38 -21 -113 -28 -167 -15 -54 12 -59 9 -24 -13 36 -24
120 -31 199 -16 63 12 65 13 52 33 -18 28 -27 29 -60 11z"/>
<path d="M1866 1085 c-9 -9 -16 -21 -16 -26 0 -5 -12 -14 -26 -19 -22 -9 -24
-13 -14 -25 16 -19 40 -19 40 0 0 8 9 15 19 15 12 0 21 10 25 26 9 35 -6 50
-28 29z"/>
<path d="M1748 1053 c-37 -25 -48 -43 -28 -43 6 0 13 7 16 15 3 8 21 17 40 21
19 3 34 12 34 20 0 20 -20 16 -62 -13z"/>
<path d="M1275 1010 c-4 -6 6 -10 22 -10 22 0 25 2 13 10 -19 12 -27 12 -35 0z"/>
<path d="M1737 992 c-15 -15 -27 -32 -27 -36 0 -5 -13 -25 -29 -45 -16 -21
-33 -49 -36 -64 -4 -15 -11 -27 -15 -27 -11 0 -80 -118 -80 -138 0 -13 4 -12
20 6 12 12 25 22 29 22 5 0 12 8 15 18 14 38 38 72 50 72 21 0 46 34 46 62 0
35 10 59 21 52 30 -18 -10 -124 -47 -124 -8 0 -14 -7 -14 -16 0 -9 -9 -18 -19
-21 -22 -6 -34 -40 -18 -50 6 -3 12 -2 14 4 2 6 15 23 29 38 32 34 56 20 30
-16 -9 -13 -16 -33 -16 -44 1 -18 3 -17 25 8 18 20 25 40 25 67 0 21 4 41 9
44 5 3 12 18 15 33 4 16 17 36 29 45 26 20 17 34 -12 18 -25 -13 -26 -8 -6 30
9 17 22 30 30 30 20 0 29 20 16 33 -8 8 -19 2 -39 -21 -32 -35 -42 -40 -42
-17 0 8 9 19 20 25 19 10 28 40 12 40 -5 0 -20 -13 -35 -28z m-47 -132 c0 -5
-5 -10 -11 -10 -5 0 -7 5 -4 10 3 6 8 10 11 10 2 0 4 -4 4 -10z"/>
<path d="M875 920 c-40 -42 -28 -45 19 -4 22 19 33 34 25 34 -9 0 -28 -13 -44
-30z"/>
<path d="M1810 939 c0 -5 5 -7 10 -4 6 3 10 8 10 11 0 2 -4 4 -10 4 -5 0 -10
-5 -10 -11z"/>
<path d="M1060 906 c0 -14 -4 -28 -10 -31 -15 -9 -12 -35 4 -35 8 0 17 7 20
16 4 9 9 15 11 12 5 -5 -27 -93 -37 -104 -15 -14 -27 7 -18 31 11 30 7 31 -31
8 -32 -19 -38 -33 -13 -33 8 0 12 -5 9 -11 -4 -6 -13 -8 -21 -5 -14 5 -74 -24
-74 -36 0 -4 12 -3 26 3 36 13 42 4 16 -24 -12 -13 -22 -26 -22 -30 0 -9 32 3
53 21 9 8 20 12 25 7 4 -4 -1 -12 -12 -19 -47 -29 -55 -41 -59 -98 -2 -32 1
-58 6 -58 4 0 6 -9 2 -20 -11 -34 4 -42 35 -20 31 22 50 26 50 10 0 -5 -6 -10
-13 -10 -8 0 -22 -9 -31 -19 -22 -25 -2 -40 23 -17 30 27 43 20 26 -15 -9 -17
-14 -36 -12 -42 5 -16 53 64 49 82 -3 10 3 12 20 8 19 -5 23 -2 24 18 2 25
-10 33 -21 15 -11 -18 -23 -11 -18 10 3 11 9 20 13 20 12 0 53 60 46 67 -3 3
-22 -9 -42 -26 -20 -18 -39 -29 -42 -26 -4 3 15 25 41 49 35 32 47 49 47 72 0
16 5 49 11 73 7 34 7 46 -3 52 -7 5 -11 22 -10 42 3 27 -3 41 -23 61 -32 32
-45 33 -45 2z m-20 -232 c0 -4 -13 -19 -28 -34 -16 -15 -32 -35 -36 -45 -3
-10 -9 -16 -12 -13 -7 8 12 53 33 77 16 20 43 29 43 15z m40 -22 c0 -4 -16
-23 -35 -42 -41 -40 -48 -20 -8 22 27 28 43 35 43 20z m-80 -112 c0 -5 -5 -10
-11 -10 -5 0 -7 5 -4 10 3 6 8 10 11 10 2 0 4 -4 4 -10z"/>
<path d="M1140 910 c0 -5 5 -10 10 -10 6 0 10 5 10 10 0 6 -4 10 -10 10 -5 0
-10 -4 -10 -10z"/>
<path d="M1170 881 c0 -5 3 -17 6 -26 5 -12 9 -14 14 -4 5 7 6 18 3 26 -6 15
-23 18 -23 4z"/>
<path d="M928 822 c-16 -9 -28 -20 -28 -24 0 -16 28 -7 50 17 27 29 17 32 -22
7z"/>
<path d="M371 575 c-17 -20 -31 -42 -31 -50 0 -28 25 -15 50 25 14 22 28 40
32 40 5 0 8 5 8 10 0 21 -29 9 -59 -25z"/>
<path d="M8140 571 c0 -24 33 -78 85 -139 99 -117 140 -191 179 -325 23 -78
55 -107 122 -107 l52 0 -18 38 c-11 20 -30 62 -44 93 -14 31 -50 92 -80 137
-52 77 -221 283 -254 310 -23 18 -42 15 -42 -7z"/>
</g>
</svg>
