<?xml version="1.0" standalone="no"?>
<!DOCTYPE svg PUBLIC "-//W3C//DTD SVG 20010904//EN"
 "http://www.w3.org/TR/2001/REC-SVG-20010904/DTD/svg10.dtd">
<svg version="1.0" xmlns="http://www.w3.org/2000/svg"
 width="225.000000pt" height="225.000000pt" viewBox="0 0 225.000000 225.000000"
 preserveAspectRatio="xMidYMid meet">

<g transform="translate(0.000000,225.000000) scale(0.100000,-0.100000)"
fill="#000000" stroke="none">
<path d="M502 1810 c-34 -15 -47 -29 -63 -66 -39 -87 -37 -89 237 -364 134
-135 244 -250 244 -255 0 -5 -110 -120 -244 -255 -274 -275 -276 -277 -237
-364 16 -38 29 -51 67 -67 87 -39 89 -37 364 237 135 134 250 244 255 244 5 0
120 -110 255 -244 275 -274 277 -276 364 -237 38 16 51 29 67 67 39 87 37 89
-237 364 -134 135 -244 250 -244 255 0 5 110 120 244 255 274 275 276 277 237
364 -16 38 -29 51 -67 67 -87 39 -89 37 -364 -237 -135 -134 -250 -244 -255
-244 -6 0 -116 106 -245 236 -129 130 -249 242 -267 250 -42 18 -59 17 -111
-6z"/>
</g>
</svg>
