<svg width="1793" height="2049" viewBox="0 0 1793 2049" fill="none" xmlns="http://www.w3.org/2000/svg">
<g clip-path="url(#clip0_14_2)">
<path d="M1600.93 128.948H192.925C86.9252 128.948 0.925171 214.948 0.925171 320.948V1728.95C0.925171 1834.95 86.9252 1920.95 192.925 1920.95H1600.93C1706.93 1920.95 1792.93 1834.95 1792.93 1728.95V320.948C1792.93 214.948 1706.93 128.948 1600.93 128.948ZM1110.13 1663.75C1076.53 1669.75 1064.13 1648.95 1064.13 1631.75C1064.13 1610.15 1064.93 1499.75 1064.93 1410.55C1064.93 1348.15 1044.13 1308.55 1019.73 1287.75C1167.73 1271.35 1323.73 1250.95 1323.73 995.348C1323.73 922.548 1297.73 886.148 1255.33 839.348C1262.13 822.148 1284.93 751.348 1248.53 659.348C1192.93 642.148 1065.73 730.948 1065.73 730.948C1012.93 716.148 955.725 708.548 899.325 708.548C842.925 708.548 785.725 716.148 732.925 730.948C732.925 730.948 605.725 642.148 550.125 659.348C513.725 750.948 536.125 821.748 543.325 839.348C500.925 886.148 480.925 922.548 480.925 995.348C480.925 1249.75 630.125 1271.35 778.125 1287.75C758.925 1304.95 741.725 1334.55 735.725 1376.95C697.725 1394.15 600.525 1423.75 542.525 1321.35C506.125 1258.15 440.525 1252.95 440.525 1252.95C375.725 1252.15 436.125 1293.75 436.125 1293.75C479.325 1313.75 509.725 1390.55 509.725 1390.55C548.525 1509.35 734.125 1469.35 734.125 1469.35C734.125 1524.95 734.925 1615.35 734.925 1631.75C734.925 1648.95 722.925 1669.75 688.925 1663.75C424.925 1575.35 240.125 1324.15 240.125 1030.55C240.125 663.348 520.925 384.548 888.125 384.548C1255.33 384.548 1552.93 663.348 1552.93 1030.55C1553.33 1324.15 1374.13 1575.75 1110.13 1663.75ZM717.725 1419.35C710.125 1420.95 702.925 1417.75 702.125 1412.55C701.325 1406.55 706.525 1401.35 714.125 1399.75C721.725 1398.95 728.925 1402.15 729.725 1407.35C730.925 1412.55 725.725 1417.75 717.725 1419.35ZM679.725 1415.75C679.725 1420.95 673.725 1425.35 665.725 1425.35C656.925 1426.15 650.925 1421.75 650.925 1415.75C650.925 1410.55 656.925 1406.15 664.925 1406.15C672.525 1405.35 679.725 1409.75 679.725 1415.75ZM624.925 1411.35C623.325 1416.55 615.325 1418.95 608.525 1416.55C600.925 1414.95 595.725 1408.95 597.325 1403.75C598.925 1398.55 606.925 1396.15 613.725 1397.75C621.725 1400.15 626.925 1406.15 624.925 1411.35ZM575.725 1389.75C572.125 1394.15 564.525 1393.35 558.525 1387.35C552.525 1382.15 550.925 1374.55 554.925 1370.95C558.525 1366.55 566.125 1367.35 572.125 1373.35C577.325 1378.55 579.325 1386.55 575.725 1389.75ZM539.325 1353.35C535.725 1355.75 528.925 1353.35 524.525 1347.35C520.125 1341.35 520.125 1334.55 524.525 1331.75C528.925 1328.15 535.725 1330.95 539.325 1336.95C543.725 1342.95 543.725 1350.15 539.325 1353.35V1353.35ZM513.325 1314.55C509.725 1318.15 503.725 1316.15 499.325 1312.15C494.925 1306.95 494.125 1300.95 497.725 1298.15C501.325 1294.55 507.325 1296.55 511.725 1300.55C516.125 1305.75 516.925 1311.75 513.325 1314.55ZM486.525 1284.95C484.925 1288.55 479.725 1289.35 475.325 1286.55C470.125 1284.15 467.725 1279.75 469.325 1276.15C470.925 1273.75 475.325 1272.55 480.525 1274.55C485.725 1277.35 488.125 1281.75 486.525 1284.95Z" fill="black"/>
</g>
<defs>
<clipPath id="clip0_14_2">
<rect width="1792" height="2048" fill="white" transform="translate(0.925171 0.947845)"/>
</clipPath>
</defs>
</svg>
