<svg version="1.1" id="Layer_1" xmlns="http://www.w3.org/2000/svg" xmlns:xlink="http://www.w3.org/1999/xlink" x="0px" y="0px"
	 width="100%" viewBox="0 0 645 781" enable-background="new 0 0 645 781" xml:space="preserve">
<path fill="#000000" opacity="1.000000" stroke="none" 
	d="
M1.000000,292.000000 
	C1.000000,194.666672 1.000000,97.833336 1.000000,1.000000 
	C216.000000,1.000000 431.000000,1.000000 646.000000,1.000000 
	C646.000000,261.333344 646.000000,521.666687 646.000000,782.000000 
	C431.000000,782.000000 216.000000,782.000000 1.000000,782.000000 
	C1.000000,618.833313 1.000000,455.666656 1.000000,292.000000 
M176.093140,749.938232 
	C176.318222,750.115601 176.543320,750.292969 176.609756,751.188721 
	C173.992462,757.845825 170.007431,764.133606 170.603394,771.692810 
	C172.898300,768.513611 174.719147,765.191589 175.896698,761.655334 
	C180.235825,748.624695 185.727936,736.486084 196.259109,726.928772 
	C203.870850,720.020691 206.715485,718.856628 216.765076,722.708313 
	C207.630325,733.669067 192.794388,766.674072 195.174927,772.354004 
	C196.249344,770.379272 197.196976,768.953552 197.840393,767.401611 
	C201.009781,759.757690 203.643539,751.851562 207.349640,744.482117 
	C210.732605,737.755188 215.182007,731.554504 219.339630,725.239197 
	C219.885620,724.409851 221.547028,723.776978 222.594482,723.897705 
	C235.287170,725.360291 247.924133,727.489807 260.650635,728.427795 
	C275.229492,729.502197 289.895569,730.183960 304.502106,729.904724 
	C326.287659,729.488403 348.047119,727.621277 369.831787,727.284424 
	C381.228882,727.108154 392.296753,725.738953 403.368073,723.413086 
	C411.893890,721.622070 420.445557,719.846375 429.068176,718.666199 
	C433.813141,718.016785 439.003906,717.463989 442.624664,722.104004 
	C453.206177,715.685852 463.538483,709.402527 473.888519,703.148560 
	C478.558411,700.326843 483.553925,697.930481 487.794647,694.574097 
	C489.268799,693.407349 489.854004,689.559204 489.090546,687.630127 
	C488.508148,686.158569 485.114410,684.976440 483.048401,685.088379 
	C478.865784,685.315063 474.735535,686.507263 470.583679,687.301453 
	C471.592072,685.281372 473.058380,683.890503 474.799225,683.119446 
	C482.680939,679.628662 490.768646,676.582275 498.542450,672.873413 
	C511.344025,666.765747 511.165833,664.582092 507.125122,654.046204 
	C509.840576,650.614807 513.953979,647.390747 511.446838,642.399292 
	C508.901733,637.332153 504.152740,636.191040 498.697357,636.887634 
	C495.770172,637.261353 492.755981,636.954041 489.781006,636.958740 
	C487.284943,628.524292 484.854675,628.232971 462.496307,634.428162 
	C465.736053,627.781250 468.233978,622.144287 471.166046,616.742981 
	C478.131348,603.911987 485.294861,591.188538 492.392029,578.429199 
	C500.525482,563.806763 503.759155,547.731873 506.275543,531.454956 
	C506.446289,530.350586 505.962677,529.145020 505.783386,527.986511 
	C505.306610,528.002808 504.829834,528.019104 504.353058,528.035400 
	C502.543457,536.368225 500.733856,544.701050 498.799469,553.608521 
	C495.204376,553.347412 491.254639,554.224060 488.858856,552.683716 
	C478.850861,546.249268 469.530121,549.513733 459.991791,553.396362 
	C457.250702,554.512085 454.366272,555.925537 451.516418,555.999329 
	C443.761597,556.200073 435.990845,555.704407 428.224854,555.601929 
	C425.915344,555.571411 423.534760,555.643921 421.300720,556.161377 
	C414.368744,557.766968 407.407013,559.341431 400.631409,561.480835 
	C397.583496,562.443176 393.129333,562.941895 393.049225,567.426880 
	C392.947113,573.144226 393.625824,578.874084 393.932312,584.600525 
	C394.184113,589.305786 396.537598,591.451111 401.327606,591.244751 
	C406.967224,591.001831 412.629944,591.226929 418.261536,590.893250 
	C421.204559,590.718872 424.118286,589.849792 427.016388,589.171326 
	C430.385651,588.382629 433.684357,586.938782 437.081451,586.684570 
	C451.485596,585.606323 465.913116,584.831482 480.337372,584.042297 
	C482.016510,583.950378 483.728424,584.457886 486.199280,584.792175 
	C484.104767,588.932800 482.510498,592.382385 480.659943,595.688599 
	C474.342560,606.975159 467.925537,618.205933 461.567383,629.469727 
	C459.507782,633.118408 458.200073,637.510315 455.326355,640.306091 
	C450.981873,644.532837 445.372131,647.426758 440.688599,651.350830 
	C438.367889,653.295227 436.481293,656.063354 435.138092,658.819336 
	C426.059601,677.446716 417.188812,696.175171 408.201050,714.846985 
	C407.816803,715.645264 407.040863,716.644043 406.282867,716.813477 
	C398.351074,718.587219 390.457184,720.918518 382.414886,721.731567 
	C364.388245,723.554077 346.301849,724.995361 328.204712,725.849487 
	C311.118988,726.655884 294.063080,727.135193 276.860504,726.485596 
	C248.257584,725.405579 220.460449,721.060425 193.001190,713.440186 
	C189.576935,712.489868 188.814484,711.245178 188.791809,707.754639 
	C188.721848,696.985352 187.376694,686.579712 178.091522,678.986450 
	C176.391495,677.596252 175.759491,674.374634 175.487625,671.904480 
	C175.188721,669.188477 176.054443,666.367126 176.101730,663.586304 
	C176.305695,651.594238 175.554214,639.518616 176.706116,627.624084 
	C178.951569,604.437561 181.808228,581.286499 185.302063,558.255859 
	C186.753296,548.689636 184.954376,538.451233 190.352234,529.535339 
	C190.635727,529.067078 189.868912,527.962952 189.591064,527.154846 
	C188.789444,527.585022 187.481766,527.844604 187.269775,528.473572 
	C186.055328,532.076538 184.600815,535.705811 184.142548,539.438477 
	C181.770081,558.762878 179.553162,578.108459 177.521591,597.471802 
	C175.908508,612.846680 174.398651,628.240662 173.318512,643.659546 
	C172.755386,651.698120 173.219269,659.808594 173.219269,668.546265 
	C169.442703,666.290649 165.950836,664.515015 163.412369,668.349365 
	C161.567032,671.136658 160.689346,674.564636 159.144424,678.273010 
	C157.032120,677.887268 154.131668,678.164062 152.317505,676.891724 
	C142.562714,670.050964 132.894623,663.057068 123.547874,655.671509 
	C112.614433,647.032166 102.290337,637.612610 91.242500,629.129761 
	C80.590523,620.950806 68.523392,616.623169 54.859627,620.021484 
	C49.666412,621.313110 44.648708,623.310364 39.540489,624.989502 
	C39.496136,624.823059 39.282391,624.485718 39.356396,624.232422 
	C44.840858,605.454346 50.155098,586.623474 55.915554,567.930115 
	C60.401390,553.373108 65.347260,538.954468 70.276917,524.538696 
	C73.277542,515.764038 75.864899,506.725189 79.996338,498.486176 
	C88.102638,482.320496 97.176544,466.640778 105.813881,450.740356 
	C111.678391,439.944366 119.412270,430.914307 128.912262,422.961700 
	C140.504562,413.257599 153.660416,406.959259 167.577972,401.782318 
	C177.494965,398.093506 187.432632,394.457825 197.307281,390.658630 
	C202.711716,388.579254 207.824585,385.055969 213.381699,384.189453 
	C229.374603,381.695709 243.620758,375.658234 256.502930,366.041992 
	C259.776520,363.598328 263.195984,361.350067 266.548431,359.012054 
	C267.076599,359.358643 267.604797,359.705231 268.132996,360.051849 
	C267.557251,361.349457 267.338104,363.189056 266.340485,363.845367 
	C263.046204,366.012665 259.505188,367.819061 255.994217,369.639191 
	C251.663284,371.884491 249.835724,376.109711 251.900864,379.148102 
	C260.294525,391.497528 268.233032,404.182068 277.124512,416.160278 
	C286.322510,428.551453 296.611603,440.126373 306.088226,452.318878 
	C315.507782,464.437866 327.020935,474.819458 333.171539,489.625427 
	C340.514465,507.301544 343.857391,525.388733 343.185272,544.304504 
	C342.813690,554.761780 341.831146,565.203064 340.923676,575.634155 
	C339.900482,587.395447 338.760345,599.149353 337.430389,610.879150 
	C337.070038,614.057739 338.442139,613.894287 340.769745,613.860535 
	C346.586517,613.776184 352.468750,613.543396 358.203857,614.293823 
	C361.477295,614.722168 361.882843,613.956482 361.880524,611.190491 
	C361.868774,597.055847 361.824341,582.918396 362.079254,568.787109 
	C362.291687,557.009766 361.842957,545.076965 363.619537,533.509766 
	C365.589050,520.686584 369.544373,508.142761 373.021667,495.584351 
	C376.242340,483.952759 379.747681,472.387482 383.554657,460.934937 
	C386.369629,452.466583 389.904297,444.239075 393.059113,435.881866 
	C402.501617,410.868195 412.657654,386.173767 425.610840,362.723053 
	C427.077576,360.067627 429.045624,358.270172 432.366760,358.896698 
	C436.095306,359.600067 439.841400,360.229187 443.540314,361.065369 
	C446.993530,361.846008 449.008698,360.986389 447.976654,357.141571 
	C446.800537,352.759888 445.180939,348.498840 443.850098,344.155945 
	C443.481323,342.952454 443.006134,341.509399 443.339020,340.405182 
	C446.683533,329.311707 450.170715,318.260986 453.664795,307.213104 
	C454.091949,305.862549 454.795166,304.599304 455.501099,302.999512 
	C457.918213,312.979340 460.194153,322.500977 462.540283,332.005341 
	C463.569794,336.175934 463.557800,341.340118 466.089386,344.254608 
	C471.890747,350.933472 478.260559,357.623260 485.668549,362.297485 
	C501.401031,372.224030 517.600403,381.219635 531.116760,394.400848 
	C539.594788,402.668762 548.715576,410.832428 562.132019,409.726654 
	C563.230408,409.636108 564.465149,410.066956 565.502441,410.545929 
	C575.093445,414.973999 584.823242,419.145752 594.165344,424.053101 
	C600.285828,427.268158 605.842529,431.560303 611.634888,435.395508 
	C619.294067,440.466736 625.060242,446.686218 626.244263,456.448608 
	C627.178772,464.153229 628.139832,472.026062 630.549316,479.343353 
	C635.070496,493.073486 636.126770,506.941467 634.868652,521.158325 
	C633.957092,531.458984 631.304443,541.539856 631.666687,552.041687 
	C631.796204,555.796631 629.307373,559.576477 628.453979,563.442200 
	C625.032715,578.940125 623.526184,594.627991 623.803040,610.519775 
	C623.950134,618.963928 624.422546,627.565308 623.115601,635.837769 
	C620.448303,652.720642 617.059631,669.516418 613.254028,686.185059 
	C609.302368,703.493286 605.134216,720.804626 599.849915,737.736816 
	C596.585876,748.195862 593.859192,759.247314 586.144470,767.849121 
	C585.773193,768.263062 586.034302,769.244263 585.962158,770.795105 
	C591.421448,767.955872 593.223877,763.376892 595.201111,758.896729 
	C607.155579,731.809875 612.557861,702.823425 619.713318,674.348877 
	C625.710693,650.482727 626.882446,626.161377 627.105530,601.655151 
	C627.209229,590.264160 629.251709,578.859863 630.867859,567.526184 
	C631.726318,561.506042 633.886475,555.677368 634.846130,549.664368 
	C635.800354,543.685791 635.762817,537.554993 636.556335,531.543274 
	C638.216064,518.968140 639.534668,506.377441 637.159546,493.794189 
	C634.642578,480.459412 631.510742,467.239746 629.052063,453.895264 
	C627.467651,445.295441 622.117065,439.347870 615.769226,434.396118 
	C609.538879,429.536041 602.517029,425.685913 595.814087,421.437531 
	C585.099915,414.646790 574.062744,407.673767 561.289917,406.819183 
	C550.689209,406.109924 543.295776,401.018219 535.928467,394.712891 
	C525.211731,385.540985 515.178101,375.529297 502.459229,368.884766 
	C495.704315,365.355988 488.777344,361.791687 482.909515,357.033142 
	C477.123230,352.340790 470.914612,346.889832 467.901764,340.378693 
	C464.078827,332.116852 463.999878,322.204437 460.967224,313.468719 
	C458.601227,306.653290 462.167938,296.018799 449.522400,294.516235 
	C451.726379,281.767029 453.804718,269.343750 456.115631,256.963898 
	C456.361053,255.649216 457.799957,254.376038 458.972107,253.444824 
	C467.006470,247.061859 475.300446,240.989700 483.098083,234.333908 
	C485.610809,232.189148 487.602356,228.812286 488.589966,225.615295 
	C491.952484,214.730423 493.686829,203.430969 491.626129,192.171509 
	C490.659332,186.889023 491.480103,179.454193 482.712982,178.398163 
	C483.482666,176.277527 484.057159,174.570724 484.716919,172.897507 
	C488.364685,163.646393 491.870880,154.335037 495.732208,145.173553 
	C501.793121,130.793182 501.609192,115.991402 498.949585,101.051407 
	C498.549896,98.806320 496.791107,96.649094 495.247894,94.795113 
	C492.400421,91.374176 489.212982,88.238464 486.232697,84.925018 
	C484.344910,82.826225 482.960785,79.985764 480.671753,78.597511 
	C476.116302,75.834717 475.446381,71.498505 473.889404,67.055450 
	C471.628693,60.604332 469.218445,53.577442 464.802246,48.651741 
	C457.521149,40.530548 448.882690,33.517136 440.283386,26.710073 
	C423.244415,13.222242 403.519470,7.449524 382.276672,11.854251 
	C364.010803,15.641706 346.113220,21.462666 328.322937,27.219305 
	C307.647369,33.909569 286.906128,40.778076 269.741028,54.972889 
	C264.504822,59.302998 258.451782,63.150219 254.607849,68.529800 
	C249.919296,75.091438 248.955826,83.120026 251.414322,91.386742 
	C254.757126,102.626915 257.643311,114.007469 260.516785,125.380508 
	C261.772339,130.350021 261.787994,135.735779 263.642090,140.428635 
	C267.022614,148.984940 264.453156,157.566223 264.940216,166.103714 
	C264.964172,166.523605 264.639832,167.090256 264.300659,167.384628 
	C260.199524,170.943909 260.794434,175.803284 260.868225,180.390839 
	C260.937347,184.686523 261.636261,188.968094 261.850891,193.266235 
	C262.277679,201.813339 261.234711,210.709900 263.323975,218.810867 
	C265.006104,225.333206 269.181152,232.612061 274.497681,236.404068 
	C279.814697,240.196411 280.036041,243.849503 280.200317,248.948822 
	C280.649811,262.901459 280.667267,277.000732 288.082947,289.598053 
	C290.405579,293.543671 291.046753,297.007416 287.288971,300.602509 
	C285.961456,301.872589 285.641052,304.174652 284.800079,305.977203 
	C278.979889,318.452454 273.412811,331.057312 267.167267,343.316345 
	C264.965393,347.638336 261.788696,351.232147 265.348206,355.991974 
	C263.304565,357.484955 261.567413,358.742432 259.842285,360.016205 
	C247.885284,368.844910 235.546204,376.881256 220.572922,379.742401 
	C216.540710,380.512878 212.388672,381.189972 208.624191,382.725250 
	C198.330475,386.923523 188.323898,391.833710 177.991821,395.927460 
	C170.007294,399.091003 161.429214,400.826141 153.592270,404.279388 
	C130.840866,414.304565 112.958435,429.824524 101.441574,452.259064 
	C95.768661,463.309692 89.825569,474.232361 83.666779,485.019989 
	C76.881416,496.905151 71.147858,509.167328 67.817833,522.500610 
	C65.969131,529.902832 64.251602,537.374878 61.780273,544.577087 
	C55.591789,562.612244 48.676395,580.402344 42.698948,598.504150 
	C38.769077,610.405212 35.872868,622.654236 32.745289,634.807007 
	C32.241711,636.763733 32.343430,639.332947 33.217571,641.097839 
	C35.419392,645.543396 34.556896,649.316650 31.685555,652.864685 
	C29.281616,655.835205 26.564491,658.551025 24.135397,661.502625 
	C20.010925,666.514160 17.847982,671.918518 20.395580,678.542236 
	C21.945719,682.572693 21.747723,686.212280 18.970688,690.363464 
	C11.863103,700.987854 12.632919,706.836304 20.783218,714.620605 
	C19.934492,715.396912 19.071863,716.134338 18.267183,716.930359 
	C13.179177,721.963684 11.792533,729.247131 14.448452,734.456604 
	C17.794186,741.019104 15.555595,746.175903 14.550586,751.979675 
	C14.012839,755.085083 13.388882,758.183411 13.059404,761.311890 
	C12.969867,762.162048 13.808872,763.109924 14.619366,764.882812 
	C15.393620,763.083557 15.924242,762.276367 16.088465,761.400452 
	C17.250313,755.203796 18.407669,749.004333 19.414595,742.781250 
	C19.846823,740.109985 20.842903,738.502441 23.725706,737.667603 
	C35.148159,734.359558 45.968197,735.641296 56.304840,741.324341 
	C60.211319,743.471985 64.212334,745.559387 67.761841,748.219238 
	C73.418663,752.458069 78.718956,757.171021 84.209831,761.634521 
	C85.004921,762.280884 86.021042,762.655273 86.934906,763.155457 
	C87.317467,762.703613 87.700027,762.251709 88.082588,761.799805 
	C86.140862,759.476257 84.449631,756.865784 82.196701,754.898621 
	C79.082954,752.179688 75.650780,749.782776 72.167191,747.539551 
	C66.057808,743.605530 60.212254,738.769592 53.519325,736.348083 
	C43.191322,732.611511 32.273445,730.780701 21.344761,735.281921 
	C20.275784,735.722168 17.290882,734.533447 17.196421,733.831604 
	C16.530901,728.886414 15.676474,723.138855 19.938080,719.798218 
	C24.000193,716.614075 29.213007,713.766479 34.205029,713.174194 
	C41.103195,712.355896 48.265820,714.023804 55.321350,714.107910 
	C57.269363,714.131104 59.239349,712.310181 61.199268,711.335388 
	C60.070587,709.637024 59.308243,707.093811 57.738308,706.413025 
	C54.284111,704.915283 50.381149,704.493530 46.733902,703.392334 
	C34.528511,699.707336 32.138264,701.595337 22.463278,712.543884 
	C20.610992,709.929016 17.472303,707.515869 17.376030,704.987000 
	C17.077179,697.136780 21.223618,690.577942 26.443886,685.159241 
	C28.162582,683.375183 32.056396,683.212952 34.971745,683.157471 
	C40.438034,683.053467 45.915550,683.580566 51.389469,683.820740 
	C54.548019,683.959351 57.749527,684.387634 60.850189,684.012207 
	C62.281139,683.839050 63.893017,682.259888 64.645889,680.890930 
	C64.925751,680.381958 63.226227,678.138550 62.015575,677.574829 
	C58.110233,675.756592 54.059143,674.214172 49.975346,672.827148 
	C45.987045,671.472534 42.075893,670.870239 38.088921,673.526978 
	C33.744682,676.421875 29.032476,678.764587 24.719637,681.212341 
	C19.439531,672.255188 23.786156,665.544678 29.981754,659.278198 
	C31.268824,657.976379 32.456074,656.576050 33.693180,655.224609 
	C37.339264,651.241821 41.416546,648.789062 47.156475,650.590088 
	C56.449947,653.506287 65.792511,656.270630 75.152893,658.965210 
	C77.177376,659.547852 79.370781,659.822937 81.476494,659.777832 
	C84.532623,659.712463 84.993896,657.544128 83.153091,655.831970 
	C78.333801,651.349426 73.509140,646.703796 68.023453,643.145630 
	C59.513702,637.626160 49.804699,639.121277 40.379944,640.225342 
	C36.064194,640.730957 34.038689,638.667114 35.906548,634.739990 
	C36.996227,632.449036 38.763596,630.016602 40.884647,628.755432 
	C54.337921,620.756165 68.158829,619.112915 82.358704,627.118347 
	C95.194618,634.354736 106.662598,643.463745 116.963486,653.828796 
	C126.918022,663.845215 138.283066,671.801941 150.212570,679.001953 
	C153.189758,680.798828 157.536896,680.817749 161.203339,680.634216 
	C162.118408,680.588379 162.626236,676.471985 163.704300,674.428589 
	C164.704163,672.533508 166.215836,670.908386 167.502136,669.164429 
	C169.199692,670.859924 171.183197,672.359253 172.517609,674.303955 
	C173.969421,676.419739 174.211563,679.703430 176.033829,681.169434 
	C184.528900,688.003723 185.287888,697.497437 185.990997,707.183411 
	C186.230133,710.477661 184.608276,711.496887 181.736862,712.011780 
	C177.817627,712.714355 173.949234,713.721069 170.081711,714.688110 
	C156.080582,718.189270 144.456635,725.021423 138.736710,738.954712 
	C137.459915,742.064880 138.494339,746.112183 138.400757,749.726379 
	C138.369751,750.923767 138.330414,752.178528 137.965454,753.299866 
	C136.278702,758.482666 134.398499,763.603760 132.784210,768.807861 
	C132.484787,769.773132 133.089325,771.018677 133.276657,772.134888 
	C133.773361,772.127441 134.270050,772.119934 134.766754,772.112488 
	C135.401749,769.794067 135.621780,767.227661 136.810059,765.239990 
	C137.676880,763.790100 139.864151,762.169434 141.385742,762.241943 
	C147.114212,762.514893 152.811142,763.449890 158.342545,764.115601 
	C158.012619,766.743103 157.713165,769.127869 157.413696,771.512695 
	C158.064087,771.684692 158.714478,771.856628 159.364868,772.028625 
	C162.519821,762.796570 165.344254,753.316772 176.093140,749.938232 
z"/>
<path fill="#EBEBEB" opacity="1.000000" stroke="none" 
	d="
M175.490723,749.324707 
	C165.344254,753.316772 162.519821,762.796570 159.364868,772.028625 
	C158.714478,771.856628 158.064087,771.684692 157.413696,771.512695 
	C157.713165,769.127869 158.012619,766.743103 158.342545,764.115601 
	C152.811142,763.449890 147.114212,762.514893 141.385742,762.241943 
	C139.864151,762.169434 137.676880,763.790100 136.810059,765.239990 
	C135.621780,767.227661 135.401749,769.794067 134.766754,772.112488 
	C134.270050,772.119934 133.773361,772.127441 133.276657,772.134888 
	C133.089325,771.018677 132.484787,769.773132 132.784210,768.807861 
	C134.398499,763.603760 136.278702,758.482666 137.965454,753.299866 
	C138.330414,752.178528 138.369751,750.923767 138.400757,749.726379 
	C138.494339,746.112183 137.459915,742.064880 138.736710,738.954712 
	C144.456635,725.021423 156.080582,718.189270 170.081711,714.688110 
	C173.949234,713.721069 177.817627,712.714355 181.736862,712.011780 
	C184.608276,711.496887 186.230133,710.477661 185.990997,707.183411 
	C185.287888,697.497437 184.528900,688.003723 176.033829,681.169434 
	C174.211563,679.703430 173.969421,676.419739 172.517609,674.303955 
	C171.183197,672.359253 169.199692,670.859924 167.502136,669.164429 
	C166.215836,670.908386 164.704163,672.533508 163.704300,674.428589 
	C162.626236,676.471985 162.118408,680.588379 161.203339,680.634216 
	C157.536896,680.817749 153.189758,680.798828 150.212570,679.001953 
	C138.283066,671.801941 126.918022,663.845215 116.963486,653.828796 
	C106.662598,643.463745 95.194618,634.354736 82.358704,627.118347 
	C68.158829,619.112915 54.337921,620.756165 40.884647,628.755432 
	C38.763596,630.016602 36.996227,632.449036 35.906548,634.739990 
	C34.038689,638.667114 36.064194,640.730957 40.379944,640.225342 
	C49.804699,639.121277 59.513702,637.626160 68.023453,643.145630 
	C73.509140,646.703796 78.333801,651.349426 83.153091,655.831970 
	C84.993896,657.544128 84.532623,659.712463 81.476494,659.777832 
	C79.370781,659.822937 77.177376,659.547852 75.152893,658.965210 
	C65.792511,656.270630 56.449947,653.506287 47.156475,650.590088 
	C41.416546,648.789062 37.339264,651.241821 33.693180,655.224609 
	C32.456074,656.576050 31.268824,657.976379 29.981754,659.278198 
	C23.786156,665.544678 19.439531,672.255188 24.719637,681.212341 
	C29.032476,678.764587 33.744682,676.421875 38.088921,673.526978 
	C42.075893,670.870239 45.987045,671.472534 49.975346,672.827148 
	C54.059143,674.214172 58.110233,675.756592 62.015575,677.574829 
	C63.226227,678.138550 64.925751,680.381958 64.645889,680.890930 
	C63.893017,682.259888 62.281139,683.839050 60.850189,684.012207 
	C57.749527,684.387634 54.548019,683.959351 51.389469,683.820740 
	C45.915550,683.580566 40.438034,683.053467 34.971745,683.157471 
	C32.056396,683.212952 28.162582,683.375183 26.443886,685.159241 
	C21.223618,690.577942 17.077179,697.136780 17.376030,704.987000 
	C17.472303,707.515869 20.610992,709.929016 22.463278,712.543884 
	C32.138264,701.595337 34.528511,699.707336 46.733902,703.392334 
	C50.381149,704.493530 54.284111,704.915283 57.738308,706.413025 
	C59.308243,707.093811 60.070587,709.637024 61.199261,711.335388 
	C59.239349,712.310181 57.269363,714.131104 55.321350,714.107910 
	C48.265820,714.023804 41.103195,712.355896 34.205029,713.174194 
	C29.213007,713.766479 24.000193,716.614075 19.938080,719.798218 
	C15.676474,723.138855 16.530901,728.886414 17.196421,733.831604 
	C17.290882,734.533447 20.275784,735.722168 21.344761,735.281921 
	C32.273445,730.780701 43.191322,732.611511 53.519325,736.348083 
	C60.212254,738.769592 66.057808,743.605530 72.167191,747.539551 
	C75.650780,749.782776 79.082954,752.179688 82.196701,754.898621 
	C84.449631,756.865784 86.140862,759.476257 88.082588,761.799805 
	C87.700027,762.251709 87.317467,762.703613 86.934906,763.155457 
	C86.021042,762.655273 85.004921,762.280884 84.209831,761.634521 
	C78.718956,757.171021 73.418663,752.458069 67.761841,748.219238 
	C64.212334,745.559387 60.211319,743.471985 56.304840,741.324341 
	C45.968197,735.641296 35.148159,734.359558 23.725706,737.667603 
	C20.842903,738.502441 19.846823,740.109985 19.414595,742.781250 
	C18.407669,749.004333 17.250313,755.203796 16.088465,761.400452 
	C15.924242,762.276367 15.393620,763.083557 14.619366,764.882812 
	C13.808872,763.109924 12.969867,762.162048 13.059404,761.311890 
	C13.388882,758.183411 14.012839,755.085083 14.550586,751.979675 
	C15.555595,746.175903 17.794186,741.019104 14.448452,734.456604 
	C11.792533,729.247131 13.179177,721.963684 18.267183,716.930359 
	C19.071863,716.134338 19.934492,715.396912 20.783218,714.620605 
	C12.632919,706.836304 11.863103,700.987854 18.970688,690.363464 
	C21.747723,686.212280 21.945719,682.572693 20.395580,678.542236 
	C17.847982,671.918518 20.010925,666.514160 24.135397,661.502625 
	C26.564491,658.551025 29.281616,655.835205 31.685555,652.864685 
	C34.556896,649.316650 35.419392,645.543396 33.217571,641.097839 
	C32.343430,639.332947 32.241711,636.763733 32.745289,634.807007 
	C35.872868,622.654236 38.769077,610.405212 42.698948,598.504150 
	C48.676395,580.402344 55.591789,562.612244 61.780273,544.577087 
	C64.251602,537.374878 65.969131,529.902832 67.817833,522.500610 
	C71.147858,509.167328 76.881416,496.905151 83.666779,485.019989 
	C89.825569,474.232361 95.768661,463.309692 101.441574,452.259064 
	C112.958435,429.824524 130.840866,414.304565 153.592270,404.279388 
	C161.429214,400.826141 170.007294,399.091003 177.991821,395.927460 
	C188.323898,391.833710 198.330475,386.923523 208.624191,382.725250 
	C212.388672,381.189972 216.540710,380.512878 220.572922,379.742401 
	C235.546204,376.881256 247.885284,368.844910 259.842285,360.016205 
	C261.567413,358.742432 263.304565,357.484955 265.348206,355.991974 
	C261.788696,351.232147 264.965393,347.638336 267.167267,343.316345 
	C273.412811,331.057312 278.979889,318.452454 284.800079,305.977203 
	C285.641052,304.174652 285.961456,301.872589 287.288971,300.602509 
	C291.046753,297.007416 290.405579,293.543671 288.082947,289.598053 
	C280.667267,277.000732 280.649811,262.901459 280.200317,248.948822 
	C280.036041,243.849503 279.814697,240.196411 274.497681,236.404068 
	C269.181152,232.612061 265.006104,225.333206 263.323975,218.810867 
	C261.234711,210.709900 262.277679,201.813339 261.850891,193.266235 
	C261.636261,188.968094 260.937347,184.686523 260.868225,180.390839 
	C260.794434,175.803284 260.199524,170.943909 264.300659,167.384628 
	C264.639832,167.090256 264.964172,166.523605 264.940216,166.103714 
	C264.453156,157.566223 267.022614,148.984940 263.642090,140.428635 
	C261.787994,135.735779 261.772339,130.350021 260.516785,125.380508 
	C257.643311,114.007469 254.757126,102.626915 251.414322,91.386742 
	C248.955826,83.120026 249.919296,75.091438 254.607849,68.529800 
	C258.451782,63.150219 264.504822,59.302998 269.741028,54.972889 
	C286.906128,40.778076 307.647369,33.909569 328.322937,27.219305 
	C346.113220,21.462666 364.010803,15.641706 382.276672,11.854251 
	C403.519470,7.449524 423.244415,13.222242 440.283386,26.710073 
	C448.882690,33.517136 457.521149,40.530548 464.802246,48.651741 
	C469.218445,53.577442 471.628693,60.604332 473.889404,67.055450 
	C475.446381,71.498505 476.116302,75.834717 480.671753,78.597511 
	C482.960785,79.985764 484.344910,82.826225 486.232697,84.925018 
	C489.212982,88.238464 492.400421,91.374176 495.247894,94.795113 
	C496.791107,96.649094 498.549896,98.806320 498.949585,101.051407 
	C501.609192,115.991402 501.793121,130.793182 495.732208,145.173553 
	C491.870880,154.335037 488.364685,163.646393 484.716919,172.897507 
	C484.057159,174.570724 483.482666,176.277527 482.712982,178.398163 
	C491.480103,179.454193 490.659332,186.889023 491.626129,192.171509 
	C493.686829,203.430969 491.952484,214.730423 488.589966,225.615295 
	C487.602356,228.812286 485.610809,232.189148 483.098083,234.333908 
	C475.300446,240.989700 467.006470,247.061859 458.972107,253.444824 
	C457.799957,254.376038 456.361053,255.649216 456.115631,256.963898 
	C453.804718,269.343750 451.726379,281.767029 449.522400,294.516235 
	C462.167938,296.018799 458.601227,306.653290 460.967224,313.468719 
	C463.999878,322.204437 464.078827,332.116852 467.901764,340.378693 
	C470.914612,346.889832 477.123230,352.340790 482.909515,357.033142 
	C488.777344,361.791687 495.704315,365.355988 502.459229,368.884766 
	C515.178101,375.529297 525.211731,385.540985 535.928467,394.712891 
	C543.295776,401.018219 550.689209,406.109924 561.289917,406.819183 
	C574.062744,407.673767 585.099915,414.646790 595.814087,421.437531 
	C602.517029,425.685913 609.538879,429.536041 615.769226,434.396118 
	C622.117065,439.347870 627.467651,445.295441 629.052063,453.895264 
	C631.510742,467.239746 634.642578,480.459412 637.159546,493.794189 
	C639.534668,506.377441 638.216064,518.968140 636.556335,531.543274 
	C635.762817,537.554993 635.800354,543.685791 634.846130,549.664368 
	C633.886475,555.677368 631.726318,561.506042 630.867859,567.526184 
	C629.251709,578.859863 627.209229,590.264160 627.105530,601.655151 
	C626.882446,626.161377 625.710693,650.482727 619.713318,674.348877 
	C612.557861,702.823425 607.155579,731.809875 595.201111,758.896729 
	C593.223877,763.376892 591.421448,767.955872 585.962158,770.795105 
	C586.034302,769.244263 585.773193,768.263062 586.144470,767.849121 
	C593.859192,759.247314 596.585876,748.195862 599.849915,737.736816 
	C605.134216,720.804626 609.302368,703.493286 613.254028,686.185059 
	C617.059631,669.516418 620.448303,652.720642 623.115601,635.837769 
	C624.422546,627.565308 623.950134,618.963928 623.803040,610.519775 
	C623.526184,594.627991 625.032715,578.940125 628.453979,563.442200 
	C629.307373,559.576477 631.796204,555.796631 631.666687,552.041687 
	C631.304443,541.539856 633.957092,531.458984 634.868652,521.158325 
	C636.126770,506.941467 635.070496,493.073486 630.549316,479.343353 
	C628.139832,472.026062 627.178772,464.153229 626.244263,456.448608 
	C625.060242,446.686218 619.294067,440.466736 611.634888,435.395508 
	C605.842529,431.560303 600.285828,427.268158 594.165344,424.053101 
	C584.823242,419.145752 575.093445,414.973999 565.502441,410.545929 
	C564.465149,410.066956 563.230408,409.636108 562.132019,409.726654 
	C548.715576,410.832428 539.594788,402.668762 531.116760,394.400848 
	C517.600403,381.219635 501.401031,372.224030 485.668549,362.297485 
	C478.260559,357.623260 471.890747,350.933472 466.089386,344.254608 
	C463.557800,341.340118 463.569794,336.175934 462.540283,332.005341 
	C460.194153,322.500977 457.918213,312.979340 455.501099,302.999512 
	C454.795166,304.599304 454.091949,305.862549 453.664795,307.213104 
	C450.170715,318.260986 446.683533,329.311707 443.339020,340.405182 
	C443.006134,341.509399 443.481323,342.952454 443.850098,344.155945 
	C445.180939,348.498840 446.800537,352.759888 447.976654,357.141571 
	C449.008698,360.986389 446.993530,361.846008 443.540314,361.065369 
	C439.841400,360.229187 436.095306,359.600067 432.366760,358.896698 
	C429.045624,358.270172 427.077576,360.067627 425.610840,362.723053 
	C412.657654,386.173767 402.501617,410.868195 393.059113,435.881866 
	C389.904297,444.239075 386.369629,452.466583 383.554657,460.934937 
	C379.747681,472.387482 376.242340,483.952759 373.021667,495.584351 
	C369.544373,508.142761 365.589050,520.686584 363.619537,533.509766 
	C361.842957,545.076965 362.291687,557.009766 362.079254,568.787109 
	C361.824341,582.918396 361.868774,597.055847 361.880524,611.190491 
	C361.882843,613.956482 361.477295,614.722168 358.203857,614.293823 
	C352.468750,613.543396 346.586517,613.776184 340.769745,613.860535 
	C338.442139,613.894287 337.070038,614.057739 337.430389,610.879150 
	C338.760345,599.149353 339.900482,587.395447 340.923676,575.634155 
	C341.831146,565.203064 342.813690,554.761780 343.185272,544.304504 
	C343.857391,525.388733 340.514465,507.301544 333.171539,489.625427 
	C327.020935,474.819458 315.507782,464.437866 306.088226,452.318878 
	C296.611603,440.126373 286.322510,428.551453 277.124512,416.160278 
	C268.233032,404.182068 260.294525,391.497528 251.900864,379.148102 
	C249.835724,376.109711 251.663284,371.884491 255.994217,369.639191 
	C259.505188,367.819061 263.046204,366.012665 266.340485,363.845367 
	C267.338104,363.189056 267.557251,361.349457 268.132996,360.051849 
	C267.604797,359.705231 267.076599,359.358643 266.548431,359.012054 
	C263.195984,361.350067 259.776520,363.598328 256.502930,366.041992 
	C243.620758,375.658234 229.374603,381.695709 213.381699,384.189453 
	C207.824585,385.055969 202.711716,388.579254 197.307281,390.658630 
	C187.432632,394.457825 177.494965,398.093506 167.577972,401.782318 
	C153.660416,406.959259 140.504562,413.257599 128.912262,422.961700 
	C119.412270,430.914307 111.678391,439.944366 105.813881,450.740356 
	C97.176544,466.640778 88.102638,482.320496 79.996338,498.486176 
	C75.864899,506.725189 73.277542,515.764038 70.276917,524.538696 
	C65.347260,538.954468 60.401390,553.373108 55.915554,567.930115 
	C50.155098,586.623474 44.840858,605.454346 39.356396,624.232422 
	C39.282391,624.485718 39.496136,624.823059 39.540489,624.989502 
	C44.648708,623.310364 49.666412,621.313110 54.859627,620.021484 
	C68.523392,616.623169 80.590523,620.950806 91.242500,629.129761 
	C102.290337,637.612610 112.614433,647.032166 123.547874,655.671509 
	C132.894623,663.057068 142.562714,670.050964 152.317505,676.891724 
	C154.131668,678.164062 157.032120,677.887268 159.144424,678.273010 
	C160.689346,674.564636 161.567032,671.136658 163.412369,668.349365 
	C165.950836,664.515015 169.442703,666.290649 173.219269,668.546265 
	C173.219269,659.808594 172.755386,651.698120 173.318512,643.659546 
	C174.398651,628.240662 175.908508,612.846680 177.521591,597.471802 
	C179.553162,578.108459 181.770081,558.762878 184.142548,539.438477 
	C184.600815,535.705811 186.055328,532.076538 187.269775,528.473572 
	C187.481766,527.844604 188.789444,527.585022 189.591064,527.154846 
	C189.868912,527.962952 190.635727,529.067078 190.352234,529.535339 
	C184.954376,538.451233 186.753296,548.689636 185.302063,558.255859 
	C181.808228,581.286499 178.951569,604.437561 176.706116,627.624084 
	C175.554214,639.518616 176.305695,651.594238 176.101730,663.586304 
	C176.054443,666.367126 175.188721,669.188477 175.487625,671.904480 
	C175.759491,674.374634 176.391495,677.596252 178.091522,678.986450 
	C187.376694,686.579712 188.721848,696.985352 188.791809,707.754639 
	C188.814484,711.245178 189.576935,712.489868 193.001190,713.440186 
	C220.460449,721.060425 248.257584,725.405579 276.860504,726.485596 
	C294.063080,727.135193 311.118988,726.655884 328.204712,725.849487 
	C346.301849,724.995361 364.388245,723.554077 382.414886,721.731567 
	C390.457184,720.918518 398.351074,718.587219 406.282867,716.813477 
	C407.040863,716.644043 407.816803,715.645264 408.201050,714.846985 
	C417.188812,696.175171 426.059601,677.446716 435.138092,658.819336 
	C436.481293,656.063354 438.367889,653.295227 440.688599,651.350830 
	C445.372131,647.426758 450.981873,644.532837 455.326355,640.306091 
	C458.200073,637.510315 459.507782,633.118408 461.567383,629.469727 
	C467.925537,618.205933 474.342560,606.975159 480.659943,595.688599 
	C482.510498,592.382385 484.104767,588.932800 486.199280,584.792175 
	C483.728424,584.457886 482.016510,583.950378 480.337372,584.042297 
	C465.913116,584.831482 451.485596,585.606323 437.081451,586.684570 
	C433.684357,586.938782 430.385651,588.382629 427.016388,589.171326 
	C424.118286,589.849792 421.204559,590.718872 418.261536,590.893250 
	C412.629944,591.226929 406.967224,591.001831 401.327606,591.244751 
	C396.537598,591.451111 394.184113,589.305786 393.932312,584.600525 
	C393.625824,578.874084 392.947113,573.144226 393.049225,567.426880 
	C393.129333,562.941895 397.583496,562.443176 400.631409,561.480835 
	C407.407013,559.341431 414.368744,557.766968 421.300720,556.161377 
	C423.534760,555.643921 425.915344,555.571411 428.224854,555.601929 
	C435.990845,555.704407 443.761597,556.200073 451.516418,555.999329 
	C454.366272,555.925537 457.250702,554.512085 459.991791,553.396362 
	C469.530121,549.513733 478.850861,546.249268 488.858856,552.683716 
	C491.254639,554.224060 495.204376,553.347412 498.799469,553.608521 
	C500.733856,544.701050 502.543457,536.368225 504.353058,528.035400 
	C504.829834,528.019104 505.306610,528.002808 505.783386,527.986511 
	C505.962677,529.145020 506.446289,530.350586 506.275543,531.454956 
	C503.759155,547.731873 500.525482,563.806763 492.392029,578.429199 
	C485.294861,591.188538 478.131348,603.911987 471.166046,616.742981 
	C468.233978,622.144287 465.736053,627.781250 462.496307,634.428162 
	C484.854675,628.232971 487.284943,628.524292 489.781036,636.956421 
	C492.755981,636.954041 495.770172,637.261353 498.697357,636.887634 
	C504.152740,636.191040 508.901733,637.332153 511.446838,642.399292 
	C513.953979,647.390747 509.840576,650.614807 507.130859,654.048340 
	C511.165833,664.582092 511.344025,666.765747 498.542450,672.873413 
	C490.768646,676.582275 482.680939,679.628662 474.799225,683.119446 
	C473.058380,683.890503 471.592072,685.281372 470.583679,687.301453 
	C474.735535,686.507263 478.865784,685.315063 483.048401,685.088379 
	C485.114410,684.976440 488.508148,686.158569 489.090546,687.630127 
	C489.854004,689.559204 489.268799,693.407349 487.794647,694.574097 
	C483.553925,697.930481 478.558411,700.326843 473.888519,703.148560 
	C463.538483,709.402527 453.206177,715.685852 442.624664,722.104004 
	C439.003906,717.463989 433.813141,718.016785 429.068176,718.666199 
	C420.445557,719.846375 411.893890,721.622070 403.368073,723.413086 
	C392.296753,725.738953 381.228882,727.108154 369.831787,727.284424 
	C348.047119,727.621277 326.287659,729.488403 304.502106,729.904724 
	C289.895569,730.183960 275.229492,729.502197 260.650635,728.427795 
	C247.924133,727.489807 235.287170,725.360291 222.594482,723.897705 
	C221.547028,723.776978 219.885620,724.409851 219.339630,725.239197 
	C215.182007,731.554504 210.732605,737.755188 207.349640,744.482117 
	C203.643539,751.851562 201.009781,759.757690 197.840393,767.401611 
	C197.196976,768.953552 196.249344,770.379272 195.174927,772.354004 
	C192.794388,766.674072 207.630325,733.669067 216.765076,722.708313 
	C206.715485,718.856628 203.870850,720.020691 196.259109,726.928772 
	C185.727936,736.486084 180.235825,748.624695 175.896698,761.655334 
	C174.719147,765.191589 172.898300,768.513611 170.603394,771.692810 
	C170.007431,764.133606 173.992462,757.845825 176.779099,750.575439 
	C176.462524,749.749634 175.976624,749.537170 175.490723,749.324707 
M466.933014,688.616028 
	C466.375946,688.898987 465.818878,689.181946 465.261841,689.464905 
	C465.306458,689.637268 465.351044,689.809692 465.395660,689.982056 
	C466.366608,689.756836 467.337585,689.531677 469.076355,689.066650 
	C469.084229,688.667786 469.092133,688.268982 469.100037,687.870117 
	C468.570892,688.008972 468.041779,688.147827 466.933014,688.616028 
M353.744446,569.876221 
	C353.839081,571.584656 353.933716,573.293030 353.814697,575.816406 
	C353.712830,578.500854 354.749054,581.666138 350.275818,582.071350 
	C345.937744,582.464233 345.859131,579.922974 345.892029,576.789062 
	C345.903931,575.654541 345.044800,574.510986 344.160522,572.328674 
	C343.085205,585.815063 342.104034,598.120728 341.102356,610.683289 
	C346.757385,610.683289 351.888428,610.683289 357.529907,610.954407 
	C357.864136,610.626953 358.198334,610.299561 358.735474,609.062927 
	C358.833679,595.755615 358.874664,582.447632 359.048279,569.141296 
	C359.186707,558.531494 358.297821,547.728577 359.999756,537.361816 
	C362.426727,522.578796 366.727875,508.096741 370.381073,493.524384 
	C372.514313,485.014984 374.229156,476.303589 377.374603,468.163116 
	C387.055725,443.108337 397.341003,418.287140 407.365082,393.364502 
	C407.891235,392.056274 408.172760,390.649628 408.568176,389.288818 
	C407.027557,389.219910 406.412445,389.513306 406.189850,389.989990 
	C397.901886,407.737152 388.498199,425.073730 381.704926,443.378601 
	C374.337921,463.229218 369.229919,483.934174 363.493225,504.366638 
	C360.895264,513.619934 358.370728,523.021301 357.239899,532.525269 
	C355.967834,543.216064 356.305206,554.098389 355.164154,564.654846 
	C355.025055,563.139526 354.885986,561.624268 354.746918,560.108948 
	C354.161316,560.122864 353.575745,560.136719 352.990143,560.150635 
	C353.285339,563.109680 353.580536,566.068726 353.744446,569.876221 
M267.930664,351.202118 
	C267.663635,351.607117 267.396637,352.012115 267.489655,353.060974 
	C268.662903,355.400818 269.836151,357.740631 271.307495,360.674957 
	C273.870667,358.459442 276.033264,356.590179 278.972321,354.049774 
	C274.696014,353.134125 271.469604,352.443298 267.930664,351.202118 
M423.612366,357.109741 
	C422.569733,357.779419 421.013184,358.206177 420.564087,359.156372 
	C416.156189,368.482147 411.930695,377.894196 407.690948,387.298615 
	C407.655670,387.376862 408.135864,387.687500 408.852142,388.291992 
	C413.949585,378.524445 418.985229,368.875305 424.611328,358.939056 
	C424.467804,358.444458 424.324280,357.949829 423.612366,357.109741 
M317.582367,461.568390 
	C317.994080,461.919373 318.405792,462.270386 318.817505,462.621399 
	C318.661469,461.634003 318.505463,460.646606 318.135132,458.987640 
	C315.042389,452.040192 312.082642,445.029480 308.818237,438.163666 
	C305.761963,431.735657 302.946472,425.085388 299.023407,419.200684 
	C291.789154,408.349030 283.708160,398.065979 276.203552,387.388855 
	C272.044373,381.471344 268.337769,375.235687 264.370056,369.054474 
	C261.658691,370.322083 258.841278,371.123779 256.745056,372.817841 
	C255.540298,373.791443 254.493530,376.757904 255.106476,377.890564 
	C258.972107,385.033936 262.675262,392.418549 267.632141,398.789856 
	C283.930908,419.739441 300.742371,440.290192 317.582367,461.568390 
M496.002319,559.124817 
	C484.824738,560.962708 473.673615,562.028320 462.257111,561.107971 
	C453.347900,560.389771 444.303040,560.810120 435.351105,561.309387 
	C425.083649,561.882080 414.838745,562.979065 404.613464,564.113342 
	C401.644470,564.442749 398.776337,565.681152 396.892059,566.212463 
	C396.892059,572.893555 396.935364,578.437317 396.876617,583.979919 
	C396.838440,587.585144 398.772644,588.425964 401.995300,588.261047 
	C406.968964,588.006470 411.969635,588.229980 416.936188,587.904724 
	C420.044006,587.701172 423.129486,586.951416 426.190155,586.286438 
	C429.731384,585.517090 433.192047,584.125000 436.761963,583.786072 
	C447.826080,582.735779 458.917664,581.919312 470.014374,581.290833 
	C475.733673,580.966858 481.486511,581.233887 487.713867,581.233887 
	C490.701782,574.907227 493.991272,568.044434 497.135071,561.115479 
	C497.426453,560.473328 496.792297,559.411133 497.161743,559.082092 
	C497.427063,558.230286 497.692413,557.378418 497.957733,556.526611 
	C497.837280,556.486938 497.716827,556.447205 497.596375,556.407532 
	C497.260925,557.131592 496.925476,557.855591 496.002319,559.124817 
M362.092529,489.444946 
	C360.426849,488.462982 358.581421,487.692932 357.128204,486.460388 
	C352.246399,482.319855 351.707672,478.222076 355.271667,474.073700 
	C358.771240,470.000305 362.889130,469.905518 367.493439,473.621582 
	C372.443634,460.359985 377.433044,447.025635 382.371368,433.672363 
	C382.629395,432.974548 382.761353,431.937622 382.428680,431.359924 
	C379.654602,426.542694 380.719666,421.785126 382.235504,416.904022 
	C382.812469,415.046173 383.005463,412.947510 382.835754,411.005585 
	C382.517670,407.366425 379.394104,405.583221 376.450531,407.595306 
	C365.729889,414.923370 355.808350,423.457428 352.319336,436.399811 
	C349.311066,447.558929 348.676971,459.335022 346.229553,470.673523 
	C342.132812,489.653290 348.061005,506.605316 356.025513,524.441040 
	C358.670593,512.472534 361.101196,501.474457 363.759613,490.057892 
	C363.405396,489.937317 363.051178,489.816742 362.092529,489.444946 
M319.592834,446.064392 
	C320.052307,446.676910 320.511749,447.289429 320.853271,448.609833 
	C322.962128,450.895782 325.070984,453.181763 327.339294,455.640564 
	C329.236938,451.852631 330.914856,448.468903 332.623169,445.100616 
	C336.009369,438.424164 335.234711,432.112915 330.372253,426.597351 
	C327.746063,423.618408 327.626648,420.834137 329.070312,417.478058 
	C332.273010,410.032837 337.314087,404.104858 343.724426,399.703186 
	C336.694336,393.253540 329.514557,387.279419 323.077698,380.590332 
	C316.523560,373.779388 310.585754,366.358765 304.591492,359.030548 
	C299.111572,352.331116 295.321503,344.970764 296.913177,335.823853 
	C297.256744,333.849548 296.963379,331.764435 296.963379,328.930847 
	C290.796967,337.671936 286.722473,345.841309 291.335419,355.754181 
	C291.876404,356.916656 291.930847,358.327271 292.101318,359.637085 
	C293.710266,371.999847 295.101868,384.395111 296.975342,396.717285 
	C297.814697,402.238007 300.859558,407.516510 298.059235,413.283447 
	C297.888336,413.635345 298.490723,414.422821 298.824249,414.950134 
	C301.710327,419.513184 304.868835,423.925354 307.455353,428.651062 
	C310.808105,434.776672 312.892609,441.687775 319.592834,446.064392 
M283.614105,243.130356 
	C284.434509,254.670471 283.892975,266.525421 286.466888,277.660187 
	C288.931732,288.323242 294.981110,297.969543 301.888763,306.871429 
	C313.533386,321.877869 328.191315,332.497833 346.750336,336.143280 
	C361.303070,339.001801 375.865540,334.663147 390.042084,331.670410 
	C405.173004,328.476196 416.923248,318.496155 428.240143,308.330811 
	C437.712555,299.822266 445.243195,289.989716 448.474915,277.559326 
	C451.101166,267.457703 452.935760,257.146149 454.984436,246.900269 
	C456.056030,241.541000 455.386810,235.242859 458.027008,230.904236 
	C464.651764,220.017929 462.223450,208.657501 461.554169,197.450287 
	C460.862488,185.868149 459.059296,174.343872 457.515320,162.824707 
	C456.714417,156.849426 455.422760,150.939926 454.349945,144.984772 
	C443.497620,145.623123 434.699402,143.337753 427.080994,136.616409 
	C424.041229,133.934601 419.999542,132.351196 416.314789,130.461136 
	C415.252136,129.916046 413.507416,129.458344 412.646576,129.953552 
	C403.599243,135.158157 394.384460,132.932602 385.711609,129.776703 
	C377.034729,126.619362 369.500671,121.612167 367.364716,111.202019 
	C365.740326,103.285080 358.794525,97.436470 350.923065,97.161324 
	C339.653473,96.767395 328.333618,96.554489 317.084442,97.167198 
	C304.396423,97.858253 294.918365,106.382828 290.912720,118.341011 
	C283.408722,140.743057 282.312653,164.301865 277.986206,187.272812 
	C277.530029,189.694824 276.910522,192.238190 277.201935,194.623230 
	C278.668457,206.625854 280.385284,218.598404 282.074188,230.573059 
	C282.627960,234.499344 283.362061,238.400223 283.614105,243.130356 
M324.542480,31.957977 
	C304.419403,37.330753 286.153778,46.359268 269.332214,58.717312 
	C257.171661,67.651138 249.792908,77.772865 254.894684,93.679298 
	C256.862183,99.813637 257.205292,106.497482 259.406494,112.522491 
	C264.140930,125.481270 267.113708,138.748657 268.198608,152.447525 
	C268.552124,156.911438 266.870117,162.100571 268.624939,165.754608 
	C271.128265,170.967209 271.872803,176.136383 272.456299,181.584305 
	C272.715698,184.006104 273.273376,186.395966 273.695648,188.800308 
	C276.090912,179.595551 277.558289,170.585480 279.032288,161.576492 
	C281.524353,146.345306 282.857239,130.883286 288.410919,116.274033 
	C292.305450,106.029289 298.894409,98.823586 309.758942,95.778152 
	C324.038025,91.775581 338.504883,92.718208 352.832458,94.532959 
	C359.152252,95.333443 365.508911,98.081070 368.126892,105.234894 
	C369.598114,109.255188 370.933563,113.380913 372.927307,117.142670 
	C377.101959,125.019371 396.890808,132.666870 404.768616,129.104813 
	C414.818878,124.560455 422.117004,129.217957 429.576599,134.626511 
	C430.114838,135.016769 430.651367,135.414948 431.149872,135.853607 
	C437.320190,141.283524 444.698151,142.315750 452.564636,142.103058 
	C453.990631,142.064499 456.421387,143.481064 456.750488,144.676682 
	C458.283966,150.247604 459.591675,155.931396 460.336243,161.658524 
	C462.059113,174.910690 463.409821,188.211227 464.925446,201.615891 
	C468.448151,195.225693 470.918976,188.479843 475.343781,183.454407 
	C478.706146,179.635574 480.434326,175.623199 482.122437,171.203613 
	C484.723236,164.394531 487.440033,157.627182 490.241028,150.897644 
	C495.803986,137.532059 499.534454,124.017281 497.115845,109.198402 
	C496.117706,103.082657 495.687073,97.416595 489.658752,93.930313 
	C488.177155,93.073479 487.255524,91.229179 486.112610,89.809776 
	C483.715576,86.832962 481.878601,83.019135 478.841888,81.028236 
	C473.439270,77.486244 472.507019,72.306229 470.812408,66.832634 
	C469.041382,61.112160 466.646820,54.967838 462.710602,50.670612 
	C455.782349,43.106941 447.776611,36.422886 439.684723,30.053127 
	C418.002136,12.985126 394.032318,9.054687 367.956055,18.559658 
	C362.198547,20.658302 356.295563,22.366734 350.429840,24.157450 
	C342.060425,26.712494 333.663544,29.177698 324.542480,31.957977 
M418.864227,356.202606 
	C419.867401,355.315491 420.755188,354.226593 421.893402,353.575623 
	C427.306610,350.479858 434.323273,349.655212 437.046051,342.799683 
	C437.951874,340.518951 438.261688,337.842377 439.655701,335.942291 
	C445.468292,328.019409 447.732605,319.363983 446.884399,309.570648 
	C446.351440,303.417267 446.785065,297.180145 446.785065,290.590851 
	C443.659698,294.939453 440.975311,299.265778 437.719971,303.108459 
	C415.674133,329.132050 386.589355,339.352966 353.452637,339.930695 
	C340.816467,340.151001 329.904816,334.371002 319.778107,327.705658 
	C313.021027,323.258179 307.320068,317.206177 299.922668,310.814972 
	C299.922668,320.986206 300.212036,330.279633 299.808868,339.542938 
	C299.584503,344.697815 301.270416,348.774841 303.984619,352.899902 
	C312.546295,365.911865 322.885834,377.359924 334.541992,387.585114 
	C343.991913,395.874939 353.196655,404.687653 365.943237,408.008942 
	C366.909973,408.260864 367.684937,409.248718 368.302032,409.709869 
	C375.646362,404.283661 382.867828,399.021301 390.009918,393.653381 
	C399.494232,386.525055 408.312073,378.888519 412.576508,367.186554 
	C413.915894,363.511200 416.495850,360.287933 418.864227,356.202606 
M444.478760,658.004089 
	C451.090424,654.619812 457.630035,651.083801 464.336487,647.899231 
	C469.716309,645.344604 475.365723,643.360107 480.762695,640.838440 
	C483.478729,639.569275 486.178375,637.776672 483.700623,634.303284 
	C476.654633,633.071350 471.521545,637.498657 465.593994,639.260071 
	C455.903961,642.139465 449.435760,649.468323 441.408630,654.587280 
	C439.882233,655.560669 438.904449,657.653015 438.073578,659.417480 
	C431.788422,672.764954 425.655487,686.184143 419.362213,699.527710 
	C416.638855,705.302002 413.649078,710.950684 410.394958,717.422852 
	C412.937805,717.136108 414.547974,716.854309 416.166870,716.789185 
	C423.625763,716.489075 431.331726,714.990662 438.471680,716.378296 
	C444.392670,717.529053 448.234314,715.525513 452.507782,712.911743 
	C459.303680,708.755249 465.993256,704.424255 472.809937,700.302917 
	C476.782349,697.901245 481.025208,695.933289 484.904510,693.399902 
	C485.999969,692.684570 486.242310,690.662964 486.875946,689.240479 
	C485.446899,688.832642 483.819336,687.768433 482.623047,688.130127 
	C477.305511,689.738159 472.026184,691.548767 466.894745,693.676208 
	C460.687225,696.249817 454.674805,699.290466 448.508301,701.968628 
	C446.612854,702.791870 444.488922,703.089172 442.469604,703.627258 
	C442.310944,703.132751 442.152313,702.638245 441.993652,702.143677 
	C442.544189,701.562073 443.010376,700.855408 443.658386,700.418396 
	C449.680634,696.357300 455.598236,692.116760 461.815979,688.376770 
	C468.299286,684.476990 475.005096,680.924011 481.752808,677.493225 
	C488.689362,673.966431 495.840485,670.863403 502.804840,667.388672 
	C506.104736,665.742249 506.256683,662.847717 505.041626,659.682983 
	C503.772186,656.376587 501.568817,655.630310 498.328369,656.847961 
	C488.720764,660.458191 479.015747,663.817444 469.472931,667.588867 
	C463.314850,670.022583 457.406494,673.081970 451.313934,675.692200 
	C449.871063,676.310364 448.137939,676.251099 445.665131,676.641235 
	C446.528625,675.016052 446.612366,674.558228 446.847626,674.458740 
	C460.563385,668.662781 474.301514,662.919617 488.014191,657.116333 
	C493.771088,654.679993 499.606232,652.365601 505.107483,649.435608 
	C506.360870,648.768066 507.083313,645.638000 506.732635,643.908386 
	C506.472687,642.626343 503.966156,640.757812 502.654663,640.903198 
	C495.185791,641.731201 487.324371,641.902771 480.445709,644.525208 
	C468.763428,648.978882 457.729279,655.124329 446.380524,660.469177 
	C444.567291,661.323059 442.413025,661.854797 444.478760,658.004089 
M460.679779,231.588715 
	C459.636108,237.548965 458.592438,243.509232 457.548767,249.469482 
	C458.081635,249.874512 458.614502,250.279556 459.147369,250.684586 
	C465.548157,245.531555 472.149384,240.602325 478.261902,235.127411 
	C481.153198,232.537720 484.196960,229.238510 485.291870,225.682037 
	C489.121216,213.243469 491.584381,200.506027 487.121674,187.611237 
	C486.401367,185.529846 484.909760,183.715363 483.774689,181.777481 
	C481.424438,183.283218 478.082886,184.244019 476.901855,186.392456 
	C472.620361,194.181137 469.033813,202.354340 465.278412,210.425888 
	C464.892792,211.254776 464.936737,212.411316 465.113464,213.353516 
	C466.324463,219.810089 464.454315,225.513168 460.679779,231.588715 
M351.174225,422.193634 
	C347.654114,418.637817 346.910431,414.287933 349.382660,411.714233 
	C351.998108,408.991455 355.310486,409.965332 361.571381,415.234344 
	C362.936768,414.191315 364.286591,413.160217 365.822662,411.986816 
	C359.520721,408.756592 354.197083,405.677002 348.561401,403.354523 
	C346.887939,402.664917 343.547668,403.379822 342.335510,404.701965 
	C338.572418,408.806641 335.350952,413.432770 332.149292,418.017181 
	C330.451324,420.448425 331.015411,422.618561 333.026031,425.132935 
	C337.387817,430.587524 339.283112,436.868866 336.262756,443.722443 
	C334.127319,448.567963 331.767914,453.315704 329.467926,458.087524 
	C328.001190,461.130646 326.642090,460.628632 324.936676,458.108307 
	C323.397430,455.833557 321.433533,453.846130 319.656891,451.732025 
	C319.023895,452.231873 318.390900,452.731720 317.757904,453.231567 
	C325.808502,464.448578 333.859131,475.665588 341.596161,486.445709 
	C345.523224,465.999603 342.993958,443.708282 354.590881,424.235291 
	C353.748383,423.779846 352.735321,423.232239 351.174225,422.193634 
M280.860443,323.307709 
	C276.783173,331.518433 272.705933,339.729126 268.421753,348.356506 
	C272.255951,349.402557 275.108093,350.188995 277.964844,350.958221 
	C282.800903,352.260345 283.328094,353.566589 279.683563,357.100189 
	C275.917328,360.751740 271.679596,363.916992 266.997955,367.839783 
	C276.011536,381.892242 285.013916,395.927216 294.016296,409.962219 
	C294.481812,409.726196 294.947327,409.490173 295.412872,409.254120 
	C295.530060,408.638824 295.827332,407.996033 295.738281,407.412170 
	C292.963776,389.224304 290.188751,371.036316 287.307556,352.865204 
	C286.844696,349.946014 285.125244,347.060425 285.295227,344.238159 
	C285.768219,336.386383 287.080688,328.589081 287.757812,320.744080 
	C288.109711,316.666718 287.819763,312.533997 287.819763,308.426270 
	C287.534088,308.409637 287.248413,308.393036 286.962708,308.376404 
	C285.001495,313.109802 283.040253,317.843201 280.860443,323.307709 
M145.043488,733.637329 
	C142.440506,737.799866 138.102066,742.091736 140.566223,747.084900 
	C143.250763,752.524658 149.387039,753.632751 155.158218,754.058044 
	C163.975464,754.707764 176.708908,747.085815 179.338699,738.741455 
	C180.768265,734.205322 183.371277,728.903564 178.357483,724.454285 
	C173.959091,720.551147 168.898544,717.893677 163.163254,720.032104 
	C156.164459,722.641602 149.716019,726.484558 145.043488,733.637329 
M264.896942,193.325500 
	C260.816406,209.850159 268.405792,233.385468 279.030182,235.556396 
	C279.932983,212.883560 272.139313,191.747147 266.034637,170.098923 
	C264.834106,171.919128 263.977417,173.744171 264.014557,175.550827 
	C264.130219,181.175583 264.584595,186.793365 264.896942,193.325500 
M344.496338,518.170532 
	C345.648743,525.759216 346.801178,533.347839 347.937927,540.833374 
	C349.792999,540.833374 350.932709,540.833374 352.076904,540.833374 
	C352.702545,536.490417 354.899231,531.725037 353.636780,528.197754 
	C348.068359,512.639160 341.543579,497.420654 335.230164,482.134766 
	C334.664062,480.764038 333.129150,479.793457 332.044159,478.637054 
	C337.449341,491.351807 342.659668,503.727325 344.496338,518.170532 
M394.487305,393.988037 
	C390.035217,397.083313 385.583130,400.178558 380.824554,403.486938 
	C387.803070,407.899994 386.018280,413.808563 384.663849,419.715912 
	C384.087921,422.227905 383.927979,424.835236 383.578979,427.399231 
	C384.029053,427.465607 384.479126,427.531952 384.929199,427.598297 
	C391.115875,414.593445 397.302582,401.588593 403.489288,388.583740 
	C403.128235,388.339478 402.767212,388.095184 402.406158,387.850922 
	C399.943085,389.736481 397.480011,391.622040 394.487305,393.988037 
M70.575676,647.811462 
	C61.510300,641.161316 51.264191,641.692688 40.978516,643.244629 
	C39.433369,643.477844 38.167400,645.561218 35.985722,647.480835 
	C52.452148,646.058167 65.065857,654.316956 79.916824,655.505310 
	C77.027870,653.035706 74.138924,650.566162 70.575676,647.811462 
M462.289642,555.557617 
	C461.431091,556.134460 460.572571,556.711304 458.994629,557.771484 
	C469.792847,557.771484 479.601807,557.771484 490.218048,557.771484 
	C480.986023,549.471191 471.989655,551.782043 462.289642,555.557617 
M436.435333,348.832581 
	C433.690186,350.772339 430.945068,352.712067 428.032257,354.770325 
	C433.740753,355.868347 439.277008,356.933258 445.693573,358.167480 
	C443.718323,353.151703 442.035461,348.878387 440.129364,344.038177 
	C438.816315,345.753143 437.861420,347.000305 436.435333,348.832581 
M49.846233,680.696106 
	C53.387859,680.900330 56.929485,681.104614 61.591930,681.373535 
	C47.571560,673.237366 43.016338,673.046204 33.700512,679.674316 
	C38.824238,680.009521 43.870136,680.339600 49.846233,680.696106 
M45.878593,709.735046 
	C49.953964,710.184998 54.029335,710.635010 58.104710,711.084961 
	C44.473671,703.359497 36.190319,703.205750 29.552896,709.506714 
	C34.656956,709.506714 39.841438,709.506714 45.878593,709.735046 
M290.343842,312.040649 
	C289.587128,319.669159 288.830444,327.297638 287.955627,336.116821 
	C293.047485,330.632599 294.935486,313.856903 292.197479,303.964630 
	C291.476013,306.813385 290.923981,308.993042 290.343842,312.040649 
M139.839493,757.565491 
	C140.044266,757.986816 140.206345,758.747681 140.460083,758.779541 
	C146.189407,759.499939 151.918137,760.356018 157.673920,760.640259 
	C159.068527,760.709229 160.558716,758.842834 161.910919,757.929871 
	C154.773254,756.613403 148.408722,755.439575 141.416580,754.149963 
	C141.227173,754.476868 140.582932,755.588989 139.839493,757.565491 
M356.003418,479.517639 
	C356.298309,483.362671 358.991547,485.322968 362.215607,485.076141 
	C365.264771,484.842712 365.448853,481.987823 364.573547,479.317719 
	C364.468933,478.998566 365.257355,478.380737 365.148895,478.069763 
	C364.689209,476.751923 364.368317,474.937958 363.384003,474.373260 
	C362.342041,473.775482 360.272247,473.898682 359.253876,474.591949 
	C357.876373,475.529785 357.073151,477.311157 356.003418,479.517639 
M295.169373,309.781281 
	C295.169373,314.819794 295.169373,319.858276 295.169373,325.341614 
	C299.287292,320.847412 299.044800,307.233124 295.155487,303.857117 
	C295.155487,305.565826 295.155487,307.221893 295.169373,309.781281 
M192.018692,727.388794 
	C193.178864,726.078491 194.339020,724.768127 195.830826,723.083252 
	C184.964554,725.483948 183.314362,727.200928 183.752258,735.061951 
	C186.305557,732.717529 188.914902,730.321594 192.018692,727.388794 
M191.410004,720.500305 
	C193.126434,719.635925 194.842880,718.771484 197.326004,717.520935 
	C190.924179,716.193542 185.687378,713.018860 179.095169,715.776794 
	C183.449402,717.386658 187.092697,718.733704 191.410004,720.500305 
M356.604767,414.808868 
	C354.843750,414.565063 353.082733,414.321259 351.321716,414.077423 
	C351.731750,415.841919 351.613556,418.137512 352.701935,419.219910 
	C353.767365,420.279572 356.062012,420.103210 357.817108,420.469391 
	C357.604614,418.745331 357.392120,417.021240 356.604767,414.808868 
M177.353638,719.185059 
	C179.191711,721.140747 181.029800,723.096497 183.069595,725.266846 
	C184.421906,723.807373 185.448456,722.699463 186.829498,721.208923 
	C183.469604,720.387634 180.775803,719.729126 177.353638,719.185059 
M317.248199,451.681702 
	C317.847565,451.779877 318.446960,451.878052 319.046326,451.976196 
	C318.638306,451.680420 318.230316,451.384644 317.248199,451.681702 
z"/>
<path fill="#010101" opacity="1.000000" stroke="none" 
	d="
M283.813904,242.721527 
	C283.362061,238.400223 282.627960,234.499344 282.074188,230.573059 
	C280.385284,218.598404 278.668457,206.625854 277.201935,194.623230 
	C276.910522,192.238190 277.530029,189.694824 277.986206,187.272812 
	C282.312653,164.301865 283.408722,140.743057 290.912720,118.341011 
	C294.918365,106.382828 304.396423,97.858253 317.084442,97.167198 
	C328.333618,96.554489 339.653473,96.767395 350.923065,97.161324 
	C358.794525,97.436470 365.740326,103.285080 367.364716,111.202019 
	C369.500671,121.612167 377.034729,126.619362 385.711609,129.776703 
	C394.384460,132.932602 403.599243,135.158157 412.646576,129.953552 
	C413.507416,129.458344 415.252136,129.916046 416.314789,130.461136 
	C419.999542,132.351196 424.041229,133.934601 427.080994,136.616409 
	C434.699402,143.337753 443.497620,145.623123 454.349945,144.984772 
	C455.422760,150.939926 456.714417,156.849426 457.515320,162.824707 
	C459.059296,174.343872 460.862488,185.868149 461.554169,197.450287 
	C462.223450,208.657501 464.651764,220.017929 458.027008,230.904236 
	C455.386810,235.242859 456.056030,241.541000 454.984436,246.900269 
	C452.935760,257.146149 451.101166,267.457703 448.474915,277.559326 
	C445.243195,289.989716 437.712555,299.822266 428.240143,308.330811 
	C416.923248,318.496155 405.173004,328.476196 390.042084,331.670410 
	C375.865540,334.663147 361.303070,339.001801 346.750336,336.143280 
	C328.191315,332.497833 313.533386,321.877869 301.888763,306.871429 
	C294.981110,297.969543 288.931732,288.323242 286.466888,277.660187 
	C283.892975,266.525421 284.434509,254.670471 283.813904,242.721527 
z"/>
<path fill="#010101" opacity="1.000000" stroke="none" 
	d="
M324.910461,31.819626 
	C333.663544,29.177698 342.060425,26.712494 350.429840,24.157450 
	C356.295563,22.366734 362.198547,20.658302 367.956055,18.559658 
	C394.032318,9.054687 418.002136,12.985126 439.684723,30.053127 
	C447.776611,36.422886 455.782349,43.106941 462.710602,50.670612 
	C466.646820,54.967838 469.041382,61.112160 470.812408,66.832634 
	C472.507019,72.306229 473.439270,77.486244 478.841888,81.028236 
	C481.878601,83.019135 483.715576,86.832962 486.112610,89.809776 
	C487.255524,91.229179 488.177155,93.073479 489.658752,93.930313 
	C495.687073,97.416595 496.117706,103.082657 497.115845,109.198402 
	C499.534454,124.017281 495.803986,137.532059 490.241028,150.897644 
	C487.440033,157.627182 484.723236,164.394531 482.122437,171.203613 
	C480.434326,175.623199 478.706146,179.635574 475.343781,183.454407 
	C470.918976,188.479843 468.448151,195.225693 464.925446,201.615891 
	C463.409821,188.211227 462.059113,174.910690 460.336243,161.658524 
	C459.591675,155.931396 458.283966,150.247604 456.750488,144.676682 
	C456.421387,143.481064 453.990631,142.064499 452.564636,142.103058 
	C444.698151,142.315750 437.320190,141.283524 431.149872,135.853607 
	C430.651367,135.414948 430.114838,135.016769 429.576599,134.626511 
	C422.117004,129.217957 414.818878,124.560455 404.768616,129.104813 
	C396.890808,132.666870 377.101959,125.019371 372.927307,117.142670 
	C370.933563,113.380913 369.598114,109.255188 368.126892,105.234894 
	C365.508911,98.081070 359.152252,95.333443 352.832458,94.532959 
	C338.504883,92.718208 324.038025,91.775581 309.758942,95.778152 
	C298.894409,98.823586 292.305450,106.029289 288.410919,116.274033 
	C282.857239,130.883286 281.524353,146.345306 279.032288,161.576492 
	C277.558289,170.585480 276.090912,179.595551 273.695648,188.800308 
	C273.273376,186.395966 272.715698,184.006104 272.456299,181.584305 
	C271.872803,176.136383 271.128265,170.967209 268.624939,165.754608 
	C266.870117,162.100571 268.552124,156.911438 268.198608,152.447525 
	C267.113708,138.748657 264.140930,125.481270 259.406494,112.522491 
	C257.205292,106.497482 256.862183,99.813637 254.894684,93.679298 
	C249.792908,77.772865 257.171661,67.651138 269.332214,58.717312 
	C286.153778,46.359268 304.419403,37.330753 324.910461,31.819626 
z"/>
<path fill="#020202" opacity="1.000000" stroke="none" 
	d="
M418.686096,356.530151 
	C416.495850,360.287933 413.915894,363.511200 412.576508,367.186554 
	C408.312073,378.888519 399.494232,386.525055 390.009918,393.653381 
	C382.867828,399.021301 375.646362,404.283661 368.302032,409.709869 
	C367.684937,409.248718 366.909973,408.260864 365.943237,408.008942 
	C353.196655,404.687653 343.991913,395.874939 334.541992,387.585114 
	C322.885834,377.359924 312.546295,365.911865 303.984619,352.899902 
	C301.270416,348.774841 299.584503,344.697815 299.808868,339.542938 
	C300.212036,330.279633 299.922668,320.986206 299.922668,310.814972 
	C307.320068,317.206177 313.021027,323.258179 319.778107,327.705658 
	C329.904816,334.371002 340.816467,340.151001 353.452637,339.930695 
	C386.589355,339.352966 415.674133,329.132050 437.719971,303.108459 
	C440.975311,299.265778 443.659698,294.939453 446.785065,290.590851 
	C446.785065,297.180145 446.351440,303.417267 446.884399,309.570648 
	C447.732605,319.363983 445.468292,328.019409 439.655701,335.942291 
	C438.261688,337.842377 437.951874,340.518951 437.046051,342.799683 
	C434.323273,349.655212 427.306610,350.479858 421.893402,353.575623 
	C420.755188,354.226593 419.867401,355.315491 418.686096,356.530151 
z"/>
<path fill="#050505" opacity="1.000000" stroke="none" 
	d="
M444.174622,658.200073 
	C442.413025,661.854797 444.567291,661.323059 446.380524,660.469177 
	C457.729279,655.124329 468.763428,648.978882 480.445709,644.525208 
	C487.324371,641.902771 495.185791,641.731201 502.654663,640.903198 
	C503.966156,640.757812 506.472687,642.626343 506.732635,643.908386 
	C507.083313,645.638000 506.360870,648.768066 505.107483,649.435608 
	C499.606232,652.365601 493.771088,654.679993 488.014191,657.116333 
	C474.301514,662.919617 460.563385,668.662781 446.847626,674.458740 
	C446.612366,674.558228 446.528625,675.016052 445.665131,676.641235 
	C448.137939,676.251099 449.871063,676.310364 451.313934,675.692200 
	C457.406494,673.081970 463.314850,670.022583 469.472931,667.588867 
	C479.015747,663.817444 488.720764,660.458191 498.328369,656.847961 
	C501.568817,655.630310 503.772186,656.376587 505.041626,659.682983 
	C506.256683,662.847717 506.104736,665.742249 502.804840,667.388672 
	C495.840485,670.863403 488.689362,673.966431 481.752808,677.493225 
	C475.005096,680.924011 468.299286,684.476990 461.815979,688.376770 
	C455.598236,692.116760 449.680634,696.357300 443.658386,700.418396 
	C443.010376,700.855408 442.544189,701.562073 441.993652,702.143677 
	C442.152313,702.638245 442.310944,703.132751 442.469604,703.627258 
	C444.488922,703.089172 446.612854,702.791870 448.508301,701.968628 
	C454.674805,699.290466 460.687225,696.249817 466.894745,693.676208 
	C472.026184,691.548767 477.305511,689.738159 482.623047,688.130127 
	C483.819336,687.768433 485.446899,688.832642 486.875916,689.240479 
	C486.242310,690.662964 485.999969,692.684570 484.904510,693.399902 
	C481.025208,695.933289 476.782349,697.901245 472.809937,700.302917 
	C465.993256,704.424255 459.303680,708.755249 452.507782,712.911743 
	C448.234314,715.525513 444.392670,717.529053 438.471680,716.378296 
	C431.331726,714.990662 423.625763,716.489075 416.166870,716.789185 
	C414.547974,716.854309 412.937805,717.136108 410.394958,717.422852 
	C413.649078,710.950684 416.638855,705.302002 419.362213,699.527710 
	C425.655487,686.184143 431.788422,672.764954 438.073578,659.417480 
	C438.904449,657.653015 439.882233,655.560669 441.408630,654.587280 
	C449.435760,649.468323 455.903961,642.139465 465.593994,639.260071 
	C471.521545,637.498657 476.654633,633.071350 483.700623,634.303284 
	C486.178375,637.776672 483.478729,639.569275 480.762695,640.838440 
	C475.365723,643.360107 469.716309,645.344604 464.336487,647.899231 
	C457.630035,651.083801 451.090424,654.619812 444.174622,658.200073 
z"/>
<path fill="#040404" opacity="1.000000" stroke="none" 
	d="
M318.968628,445.989746 
	C312.892609,441.687775 310.808105,434.776672 307.455353,428.651062 
	C304.868835,423.925354 301.710327,419.513184 298.824249,414.950134 
	C298.490723,414.422821 297.888336,413.635345 298.059235,413.283447 
	C300.859558,407.516510 297.814697,402.238007 296.975342,396.717285 
	C295.101868,384.395111 293.710266,371.999847 292.101318,359.637085 
	C291.930847,358.327271 291.876404,356.916656 291.335419,355.754181 
	C286.722473,345.841309 290.796967,337.671936 296.963379,328.930847 
	C296.963379,331.764435 297.256744,333.849548 296.913177,335.823853 
	C295.321503,344.970764 299.111572,352.331116 304.591492,359.030548 
	C310.585754,366.358765 316.523560,373.779388 323.077698,380.590332 
	C329.514557,387.279419 336.694336,393.253540 343.724426,399.703186 
	C337.314087,404.104858 332.273010,410.032837 329.070312,417.478058 
	C327.626648,420.834137 327.746063,423.618408 330.372253,426.597351 
	C335.234711,432.112915 336.009369,438.424164 332.623169,445.100616 
	C330.914856,448.468903 329.236938,451.852631 327.339294,455.640564 
	C325.070984,453.181763 322.962128,450.895782 321.311829,448.296326 
	C324.163330,446.870880 327.661743,446.347321 328.651276,444.488342 
	C329.730316,442.461090 328.483978,439.196106 328.251373,436.470673 
	C325.969696,436.800995 322.644775,436.331787 321.641022,437.641479 
	C319.967896,439.824677 319.781189,443.147034 318.968628,445.989746 
z"/>
<path fill="#040404" opacity="1.000000" stroke="none" 
	d="
M363.531830,490.476410 
	C361.101196,501.474457 358.670593,512.472534 356.025513,524.441040 
	C348.061005,506.605316 342.132812,489.653290 346.229553,470.673523 
	C348.676971,459.335022 349.311066,447.558929 352.319336,436.399811 
	C355.808350,423.457428 365.729889,414.923370 376.450531,407.595306 
	C379.394104,405.583221 382.517670,407.366425 382.835754,411.005585 
	C383.005463,412.947510 382.812469,415.046173 382.235504,416.904022 
	C380.719666,421.785126 379.654602,426.542694 382.428680,431.359924 
	C382.761353,431.937622 382.629395,432.974548 382.371368,433.672363 
	C377.433044,447.025635 372.443634,460.359985 367.493439,473.621582 
	C362.889130,469.905518 358.771240,470.000305 355.271667,474.073700 
	C351.707672,478.222076 352.246399,482.319855 357.128204,486.460388 
	C358.581421,487.692932 360.426849,488.462982 362.599030,489.770355 
	C363.247620,490.222626 363.389709,490.349518 363.531830,490.476410 
z"/>
<path fill="#040404" opacity="1.000000" stroke="none" 
	d="
M496.587891,558.544006 
	C496.792297,559.411133 497.426453,560.473328 497.135071,561.115479 
	C493.991272,568.044434 490.701782,574.907227 487.713867,581.233887 
	C481.486511,581.233887 475.733673,580.966858 470.014374,581.290833 
	C458.917664,581.919312 447.826080,582.735779 436.761963,583.786072 
	C433.192047,584.125000 429.731384,585.517090 426.190155,586.286438 
	C423.129486,586.951416 420.044006,587.701172 416.936188,587.904724 
	C411.969635,588.229980 406.968964,588.006470 401.995300,588.261047 
	C398.772644,588.425964 396.838440,587.585144 396.876617,583.979919 
	C396.935364,578.437317 396.892059,572.893555 396.892059,566.212463 
	C398.776337,565.681152 401.644470,564.442749 404.613464,564.113342 
	C414.838745,562.979065 425.083649,561.882080 435.351105,561.309387 
	C444.303040,560.810120 453.347900,560.389771 462.257111,561.107971 
	C473.673615,562.028320 484.824738,560.962708 496.308044,558.849121 
	C496.613800,558.573364 496.587891,558.544006 496.587891,558.544006 
M457.011627,563.996033 
	C457.011627,563.996033 457.091858,564.000061 456.910126,563.254028 
	C454.179352,561.126770 451.687561,561.469543 449.163086,563.999573 
	C449.163086,563.999573 448.970459,564.415771 448.358673,564.978455 
	C447.894562,566.511536 446.863098,568.138672 447.097870,569.555969 
	C447.459778,571.740601 448.578461,575.497620 449.571655,575.561829 
	C452.563141,575.755188 456.239288,575.282715 458.539551,573.575745 
	C461.062897,571.703186 460.727936,568.314697 457.966675,566.019836 
	C457.966675,566.019836 458.064972,566.042969 458.662781,565.488342 
	C458.114624,564.964233 457.566498,564.440063 457.011627,563.996033 
z"/>
<path fill="#060606" opacity="1.000000" stroke="none" 
	d="
M357.019470,610.683350 
	C351.888428,610.683289 346.757385,610.683289 341.102356,610.683289 
	C342.104034,598.120728 343.085205,585.815063 344.160522,572.328674 
	C345.044800,574.510986 345.903931,575.654541 345.892029,576.789062 
	C345.859131,579.922974 345.937744,582.464233 350.275818,582.071350 
	C354.749054,581.666138 353.712830,578.500854 354.292328,575.317505 
	C355.158752,572.842773 355.547577,570.867004 355.947083,568.491821 
	C355.952698,567.027405 355.947571,565.962402 355.942444,564.897400 
	C356.305206,554.098389 355.967834,543.216064 357.239899,532.525269 
	C358.370728,523.021301 360.895264,513.619934 363.493225,504.366638 
	C369.229919,483.934174 374.337921,463.229218 381.704926,443.378601 
	C388.498199,425.073730 397.901886,407.737152 406.189850,389.989990 
	C406.412445,389.513306 407.027557,389.219910 408.568176,389.288818 
	C408.172760,390.649628 407.891235,392.056274 407.365082,393.364502 
	C397.341003,418.287140 387.055725,443.108337 377.374603,468.163116 
	C374.229156,476.303589 372.514313,485.014984 370.381073,493.524384 
	C366.727875,508.096741 362.426727,522.578796 359.999756,537.361816 
	C358.297821,547.728577 359.186707,558.531494 359.048279,569.141296 
	C358.874664,582.447632 358.833679,595.755615 358.415039,609.526978 
	C357.736237,610.221802 357.377869,610.452576 357.019470,610.683350 
M356.529907,583.468628 
	C356.670166,581.729797 356.810425,579.990906 356.950684,578.252075 
	C356.634338,578.245911 356.317993,578.239807 356.001648,578.233704 
	C356.001648,580.156433 356.001648,582.079163 355.343536,584.131470 
	C354.851196,585.054871 354.358856,585.978210 353.866486,586.901611 
	C354.320129,587.072510 354.773773,587.243347 355.227417,587.414246 
	C355.484406,586.275330 355.741394,585.136475 356.529907,583.468628 
M346.585602,598.219299 
	C349.606873,594.736816 347.658478,591.258667 347.502014,587.778992 
	C347.049744,587.775818 346.597443,587.772644 346.145142,587.769470 
	C346.145142,591.040466 346.145142,594.311462 346.585602,598.219299 
M349.198547,605.597961 
	C350.271057,605.597961 351.343597,605.597961 352.416107,605.597961 
	C352.420441,605.196289 352.424774,604.794617 352.429108,604.392944 
	C350.813416,604.034546 349.197693,603.676147 346.189880,603.008972 
	C347.712463,604.445862 348.148865,604.857727 349.198547,605.597961 
M354.069214,601.511169 
	C354.217468,601.745667 354.365723,601.980225 354.513977,602.214722 
	C354.651703,601.972107 354.789398,601.729492 354.927124,601.486938 
	C354.667694,601.348633 354.408295,601.210266 354.069214,601.511169 
M353.953766,598.296570 
	C353.923096,597.976379 353.892426,597.656189 353.861755,597.335999 
	C353.755493,597.679138 353.649261,598.022278 353.953766,598.296570 
z"/>
<path fill="#040404" opacity="1.000000" stroke="none" 
	d="
M460.846375,231.225861 
	C464.454315,225.513168 466.324463,219.810089 465.113464,213.353516 
	C464.936737,212.411316 464.892792,211.254776 465.278412,210.425888 
	C469.033813,202.354340 472.620361,194.181137 476.901855,186.392456 
	C478.082886,184.244019 481.424438,183.283218 483.774689,181.777496 
	C484.909760,183.715363 486.401367,185.529846 487.121674,187.611237 
	C491.584381,200.506027 489.121216,213.243469 485.291870,225.682037 
	C484.196960,229.238510 481.153198,232.537720 478.261902,235.127411 
	C472.149384,240.602325 465.548157,245.531555 459.147369,250.684586 
	C458.614502,250.279556 458.081635,249.874512 457.548767,249.469482 
	C458.592438,243.509232 459.636108,237.548965 460.846375,231.225861 
z"/>
<path fill="#060606" opacity="1.000000" stroke="none" 
	d="
M351.448242,422.439148 
	C352.735321,423.232239 353.748383,423.779846 354.590881,424.235291 
	C342.993958,443.708282 345.523224,465.999603 341.596161,486.445709 
	C333.859131,475.665588 325.808502,464.448578 317.757904,453.231567 
	C318.390900,452.731720 319.023895,452.231873 319.656891,451.732025 
	C321.433533,453.846130 323.397430,455.833557 324.936676,458.108307 
	C326.642090,460.628632 328.001190,461.130646 329.467926,458.087524 
	C331.767914,453.315704 334.127319,448.567963 336.262756,443.722443 
	C339.283112,436.868866 337.387817,430.587524 333.026031,425.132935 
	C331.015411,422.618561 330.451324,420.448425 332.149292,418.017181 
	C335.350952,413.432770 338.572418,408.806641 342.335510,404.701965 
	C343.547668,403.379822 346.887939,402.664917 348.561401,403.354523 
	C354.197083,405.677002 359.520721,408.756592 365.822662,411.986816 
	C364.286591,413.160217 362.936768,414.191315 361.571381,415.234344 
	C355.310486,409.965332 351.998108,408.991455 349.382660,411.714233 
	C346.910431,414.287933 347.654114,418.637817 351.448242,422.439148 
z"/>
<path fill="#060606" opacity="1.000000" stroke="none" 
	d="
M317.356842,460.994171 
	C300.742371,440.290192 283.930908,419.739441 267.632141,398.789856 
	C262.675262,392.418549 258.972107,385.033936 255.106476,377.890564 
	C254.493530,376.757904 255.540298,373.791443 256.745056,372.817841 
	C258.841278,371.123779 261.658691,370.322083 264.370056,369.054474 
	C268.337769,375.235687 272.044373,381.471344 276.203552,387.388855 
	C283.708160,398.065979 291.789154,408.349030 299.023407,419.200684 
	C302.946472,425.085388 305.761963,431.735657 308.818237,438.163666 
	C312.082642,445.029480 315.042389,452.040192 317.983276,459.649078 
	C317.673218,460.538391 317.515015,460.766296 317.356842,460.994171 
z"/>
<path fill="#070707" opacity="1.000000" stroke="none" 
	d="
M280.969727,322.942139 
	C283.040253,317.843201 285.001495,313.109802 286.962708,308.376404 
	C287.248413,308.393036 287.534088,308.409637 287.819763,308.426270 
	C287.819763,312.533997 288.109711,316.666718 287.757812,320.744080 
	C287.080688,328.589081 285.768219,336.386383 285.295227,344.238159 
	C285.125244,347.060425 286.844696,349.946014 287.307556,352.865204 
	C290.188751,371.036316 292.963776,389.224304 295.738281,407.412170 
	C295.827332,407.996033 295.530060,408.638824 295.412872,409.254120 
	C294.947327,409.490173 294.481812,409.726196 294.016296,409.962219 
	C285.013916,395.927216 276.011536,381.892242 266.997955,367.839783 
	C271.679596,363.916992 275.917328,360.751740 279.683563,357.100189 
	C283.328094,353.566589 282.800903,352.260345 277.964844,350.958221 
	C275.108093,350.188995 272.255951,349.402557 268.421753,348.356506 
	C272.705933,339.729126 276.783173,331.518433 280.969727,322.942139 
z"/>
<path fill="#040404" opacity="1.000000" stroke="none" 
	d="
M145.225464,733.321777 
	C149.716019,726.484558 156.164459,722.641602 163.163254,720.032104 
	C168.898544,717.893677 173.959091,720.551147 178.357483,724.454285 
	C183.371277,728.903564 180.768265,734.205322 179.338699,738.741455 
	C176.708908,747.085815 163.975464,754.707764 155.158218,754.058044 
	C149.387039,753.632751 143.250763,752.524658 140.566223,747.084900 
	C138.102066,742.091736 142.440506,737.799866 145.225464,733.321777 
z"/>
<path fill="#080808" opacity="1.000000" stroke="none" 
	d="
M264.902283,192.869690 
	C264.584595,186.793365 264.130219,181.175583 264.014557,175.550827 
	C263.977417,173.744171 264.834106,171.919128 266.034637,170.098923 
	C272.139313,191.747147 279.932983,212.883560 279.030182,235.556396 
	C268.405792,233.385468 260.816406,209.850159 264.902283,192.869690 
z"/>
<path fill="#151515" opacity="1.000000" stroke="none" 
	d="
M344.451233,517.728638 
	C342.659668,503.727325 337.449341,491.351807 332.044159,478.637054 
	C333.129150,479.793457 334.664062,480.764038 335.230164,482.134766 
	C341.543579,497.420654 348.068359,512.639160 353.636780,528.197754 
	C354.899231,531.725037 352.702545,536.490417 352.076904,540.833374 
	C350.932709,540.833374 349.792999,540.833374 347.937927,540.833374 
	C346.801178,533.347839 345.648743,525.759216 344.451233,517.728638 
z"/>
<path fill="#0A0A0A" opacity="1.000000" stroke="none" 
	d="
M394.752106,393.747803 
	C397.480011,391.622040 399.943085,389.736481 402.406158,387.850922 
	C402.767212,388.095184 403.128235,388.339478 403.489288,388.583740 
	C397.302582,401.588593 391.115875,414.593445 384.929199,427.598297 
	C384.479126,427.531952 384.029053,427.465607 383.578979,427.399231 
	C383.927979,424.835236 384.087921,422.227905 384.663849,419.715912 
	C386.018280,413.808563 387.803070,407.899994 380.824554,403.486938 
	C385.583130,400.178558 390.035217,397.083313 394.752106,393.747803 
z"/>
<path fill="#0A0A0A" opacity="1.000000" stroke="none" 
	d="
M70.912827,647.954041 
	C74.138924,650.566162 77.027870,653.035706 79.916824,655.505310 
	C65.065857,654.316956 52.452148,646.058167 35.985722,647.480835 
	C38.167400,645.561218 39.433369,643.477844 40.978516,643.244629 
	C51.264191,641.692688 61.510300,641.161316 70.912827,647.954041 
z"/>
<path fill="#121212" opacity="1.000000" stroke="none" 
	d="
M462.609619,555.363220 
	C471.989655,551.782043 480.986023,549.471191 490.218048,557.771484 
	C479.601807,557.771484 469.792847,557.771484 458.994629,557.771484 
	C460.572571,556.711304 461.431091,556.134460 462.609619,555.363220 
z"/>
<path fill="#121212" opacity="1.000000" stroke="none" 
	d="
M436.670898,348.540039 
	C437.861420,347.000305 438.816315,345.753143 440.129364,344.038177 
	C442.035461,348.878387 443.718323,353.151703 445.693573,358.167480 
	C439.277008,356.933258 433.740753,355.868347 428.032257,354.770325 
	C430.945068,352.712067 433.690186,350.772339 436.670898,348.540039 
z"/>
<path fill="#F0F0F0" opacity="1.000000" stroke="none" 
	d="
M319.280731,446.027069 
	C319.781189,443.147034 319.967896,439.824677 321.641022,437.641479 
	C322.644775,436.331787 325.969696,436.800995 328.251373,436.470673 
	C328.483978,439.196106 329.730316,442.461090 328.651276,444.488342 
	C327.661743,446.347321 324.163330,446.870880 321.370789,447.942413 
	C320.511749,447.289429 320.052307,446.676910 319.280731,446.027069 
z"/>
<path fill="#060606" opacity="1.000000" stroke="none" 
	d="
M424.020874,359.226196 
	C418.985229,368.875305 413.949585,378.524445 408.852142,388.291992 
	C408.135864,387.687500 407.655670,387.376862 407.690948,387.298615 
	C411.930695,377.894196 416.156189,368.482147 420.564087,359.156372 
	C421.013184,358.206177 422.569733,357.779419 423.835052,357.723572 
	C424.045441,358.633636 424.033173,358.929901 424.020874,359.226196 
z"/>
<path fill="#101010" opacity="1.000000" stroke="none" 
	d="
M49.381134,680.682922 
	C43.870136,680.339600 38.824238,680.009521 33.700512,679.674316 
	C43.016338,673.046204 47.571560,673.237366 61.591930,681.373535 
	C56.929485,681.104614 53.387859,680.900330 49.381134,680.682922 
z"/>
<path fill="#121212" opacity="1.000000" stroke="none" 
	d="
M45.452255,709.620850 
	C39.841438,709.506714 34.656956,709.506714 29.552896,709.506714 
	C36.190319,703.205750 44.473671,703.359497 58.104710,711.084961 
	C54.029335,710.635010 49.953964,710.184998 45.452255,709.620850 
z"/>
<path fill="#121212" opacity="1.000000" stroke="none" 
	d="
M290.357910,311.606659 
	C290.923981,308.993042 291.476013,306.813385 292.197479,303.964630 
	C294.935486,313.856903 293.047485,330.632599 287.955627,336.116821 
	C288.830444,327.297638 289.587128,319.669159 290.357910,311.606659 
z"/>
<path fill="#121212" opacity="1.000000" stroke="none" 
	d="
M139.889099,757.133301 
	C140.582932,755.588989 141.227173,754.476868 141.416580,754.149963 
	C148.408722,755.439575 154.773254,756.613403 161.910919,757.929871 
	C160.558716,758.842834 159.068527,760.709229 157.673920,760.640259 
	C151.918137,760.356018 146.189407,759.499939 140.460083,758.779541 
	C140.206345,758.747681 140.044266,757.986816 139.889099,757.133301 
z"/>
<path fill="#151515" opacity="1.000000" stroke="none" 
	d="
M356.013489,479.124115 
	C357.073151,477.311157 357.876373,475.529785 359.253876,474.591949 
	C360.272247,473.898682 362.342041,473.775482 363.384003,474.373260 
	C364.368317,474.937958 364.689209,476.751923 365.148895,478.069763 
	C365.257355,478.380737 364.468933,478.998566 364.573547,479.317719 
	C365.448853,481.987823 365.264771,484.842712 362.215607,485.076141 
	C358.991547,485.322968 356.298309,483.362671 356.013489,479.124115 
z"/>
<path fill="#1F1F1F" opacity="1.000000" stroke="none" 
	d="
M295.162415,309.329620 
	C295.155487,307.221893 295.155487,305.565826 295.155487,303.857117 
	C299.044800,307.233124 299.287292,320.847412 295.169373,325.341614 
	C295.169373,319.858276 295.169373,314.819794 295.162415,309.329620 
z"/>
<path fill="#151515" opacity="1.000000" stroke="none" 
	d="
M191.771469,727.657227 
	C188.914902,730.321594 186.305557,732.717529 183.752258,735.061951 
	C183.314362,727.200928 184.964554,725.483948 195.830826,723.083252 
	C194.339020,724.768127 193.178864,726.078491 191.771469,727.657227 
z"/>
<path fill="#151515" opacity="1.000000" stroke="none" 
	d="
M191.072998,720.290527 
	C187.092697,718.733704 183.449402,717.386658 179.095169,715.776794 
	C185.687378,713.018860 190.924179,716.193542 197.326004,717.520935 
	C194.842880,718.771484 193.126434,719.635925 191.072998,720.290527 
z"/>
<path fill="#101010" opacity="1.000000" stroke="none" 
	d="
M268.243195,351.752441 
	C271.469604,352.443298 274.696014,353.134125 278.972321,354.049774 
	C276.033264,356.590179 273.870667,358.459442 271.307495,360.674957 
	C269.836151,357.740631 268.662903,355.400818 267.596954,352.587830 
	C267.883911,351.993927 268.063538,351.873199 268.243195,351.752441 
z"/>
<path fill="#151515" opacity="1.000000" stroke="none" 
	d="
M356.892212,415.053040 
	C357.392120,417.021240 357.604614,418.745331 357.817139,420.469360 
	C356.062012,420.103210 353.767365,420.279572 352.701935,419.219910 
	C351.613556,418.137512 351.731750,415.841919 351.321716,414.077423 
	C353.082733,414.321259 354.843750,414.565063 356.892212,415.053040 
z"/>
<path fill="#1F1F1F" opacity="1.000000" stroke="none" 
	d="
M177.717819,719.127869 
	C180.775803,719.729126 183.469604,720.387634 186.829498,721.208923 
	C185.448456,722.699463 184.421906,723.807373 183.069595,725.266846 
	C181.029800,723.096497 179.191711,721.140747 177.717819,719.127869 
z"/>
<path fill="#383838" opacity="1.000000" stroke="none" 
	d="
M355.553314,564.776123 
	C355.947571,565.962402 355.952698,567.027405 355.605774,568.535156 
	C354.794434,568.994568 354.335083,569.011169 353.875732,569.027771 
	C353.580536,566.068726 353.285339,563.109680 352.990143,560.150635 
	C353.575745,560.136719 354.161316,560.122864 354.746918,560.108948 
	C354.885986,561.624268 355.025055,563.139526 355.553314,564.776123 
z"/>
<path fill="#101010" opacity="1.000000" stroke="none" 
	d="
M353.810120,569.452026 
	C354.335083,569.011169 354.794434,568.994568 355.595062,568.934570 
	C355.547577,570.867004 355.158752,572.842773 354.399170,574.910034 
	C353.933716,573.293030 353.839081,571.584656 353.810120,569.452026 
z"/>
<path fill="#060606" opacity="1.000000" stroke="none" 
	d="
M318.090393,459.984863 
	C318.505463,460.646606 318.661469,461.634003 318.817505,462.621399 
	C318.405792,462.270386 317.994080,461.919373 317.469604,461.281281 
	C317.515015,460.766296 317.673218,460.538391 318.090393,459.984863 
z"/>
<path fill="#040404" opacity="1.000000" stroke="none" 
	d="
M496.601929,558.576538 
	C496.925476,557.855591 497.260925,557.131592 497.596375,556.407532 
	C497.716827,556.447205 497.837280,556.486938 497.957733,556.526611 
	C497.692413,557.378418 497.427063,558.230286 496.874817,558.813049 
	C496.587891,558.544006 496.613800,558.573364 496.601929,558.576538 
z"/>
<path fill="#000000" opacity="1.000000" stroke="none" 
	d="
M468.308533,689.306458 
	C467.337585,689.531677 466.366608,689.756836 465.395660,689.982056 
	C465.351044,689.809692 465.306458,689.637268 465.261841,689.464905 
	C465.818878,689.181946 466.375946,688.898987 467.415222,688.711426 
	C468.034454,688.973267 468.171478,689.139832 468.308533,689.306458 
z"/>
<path fill="#060606" opacity="1.000000" stroke="none" 
	d="
M317.535278,451.385254 
	C318.230316,451.384644 318.638306,451.680420 319.046326,451.976196 
	C318.446960,451.878052 317.847565,451.779877 317.535278,451.385254 
z"/>
<path fill="#101010" opacity="1.000000" stroke="none" 
	d="
M357.274719,610.818848 
	C357.377869,610.452576 357.736237,610.221802 358.313599,609.981567 
	C358.198334,610.299561 357.864136,610.626953 357.274719,610.818848 
z"/>
<path fill="#000000" opacity="1.000000" stroke="none" 
	d="
M467.705017,688.546692 
	C468.041779,688.147827 468.570892,688.008972 469.100037,687.870117 
	C469.092133,688.268982 469.084229,688.667786 468.692444,689.186523 
	C468.171478,689.139832 468.034454,688.973267 467.705017,688.546692 
z"/>
<path fill="#101010" opacity="1.000000" stroke="none" 
	d="
M424.316101,359.082642 
	C424.033173,358.929901 424.045441,358.633636 424.119263,357.896301 
	C424.324280,357.949829 424.467804,358.444458 424.316101,359.082642 
z"/>
<path fill="#101010" opacity="1.000000" stroke="none" 
	d="
M267.416931,352.265900 
	C267.396637,352.012115 267.663635,351.607117 268.086914,351.477295 
	C268.063538,351.873199 267.883911,351.993927 267.416931,352.265900 
z"/>
<path fill="#000000" opacity="1.000000" stroke="none" 
	d="
M175.791931,749.631470 
	C175.976624,749.537170 176.462524,749.749634 176.858429,750.216248 
	C176.543320,750.292969 176.318222,750.115601 175.791931,749.631470 
z"/>
<path fill="#040404" opacity="1.000000" stroke="none" 
	d="
M362.901245,489.895935 
	C363.051178,489.816742 363.405396,489.937317 363.645721,490.267151 
	C363.389709,490.349518 363.247620,490.222626 362.901245,489.895935 
z"/>
<path fill="#121212" opacity="1.000000" stroke="none" 
	d="
M448.970459,564.415771 
	C448.970459,564.415771 449.163086,563.999573 449.612915,564.444702 
	C452.405792,564.593262 454.748810,564.296631 457.091858,564.000061 
	C457.091858,564.000061 457.011627,563.996033 456.692627,564.233093 
	C456.937408,564.994446 457.501190,565.518677 458.064972,566.042969 
	C458.064972,566.042969 457.966675,566.019836 457.892731,566.386719 
	C457.879700,567.406189 458.194458,568.176392 457.956329,568.690308 
	C457.065186,570.613342 456.397217,573.023438 454.846069,574.121155 
	C453.822296,574.845642 450.702301,574.220764 449.842163,573.144348 
	C448.829773,571.877380 449.217010,569.471436 449.054016,567.554565 
	C448.965454,566.513489 448.994476,565.462341 448.970459,564.415771 
z"/>
<path fill="#F0F0F0" opacity="1.000000" stroke="none" 
	d="
M448.664551,564.697144 
	C448.994476,565.462341 448.965454,566.513489 449.054016,567.554565 
	C449.217010,569.471436 448.829773,571.877380 449.842163,573.144348 
	C450.702301,574.220764 453.822296,574.845642 454.846069,574.121155 
	C456.397217,573.023438 457.065186,570.613342 457.956329,568.690308 
	C458.194458,568.176392 457.879700,567.406189 457.900024,566.336792 
	C460.727936,568.314697 461.062897,571.703186 458.539551,573.575745 
	C456.239288,575.282715 452.563141,575.755188 449.571655,575.561829 
	C448.578461,575.497620 447.459778,571.740601 447.097870,569.555969 
	C446.863098,568.138672 447.894562,566.511536 448.664551,564.697144 
z"/>
<path fill="#F0F0F0" opacity="1.000000" stroke="none" 
	d="
M457.000977,563.627075 
	C454.748810,564.296631 452.405792,564.593262 449.734131,564.434998 
	C451.687561,561.469543 454.179352,561.126770 457.000977,563.627075 
z"/>
<path fill="#F0F0F0" opacity="1.000000" stroke="none" 
	d="
M458.363892,565.765625 
	C457.501190,565.518677 456.937408,564.994446 456.695984,564.193054 
	C457.566498,564.440063 458.114624,564.964233 458.363892,565.765625 
z"/>
<path fill="#101010" opacity="1.000000" stroke="none" 
	d="
M346.365356,597.900879 
	C346.145142,594.311462 346.145142,591.040466 346.145142,587.769470 
	C346.597443,587.772644 347.049744,587.775818 347.502014,587.778992 
	C347.658478,591.258667 349.606873,594.736816 346.365356,597.900879 
z"/>
<path fill="#101010" opacity="1.000000" stroke="none" 
	d="
M348.891907,605.433716 
	C348.148865,604.857727 347.712463,604.445862 346.189880,603.008972 
	C349.197693,603.676147 350.813416,604.034546 352.429108,604.392944 
	C352.424774,604.794617 352.420441,605.196289 352.416107,605.597961 
	C351.343597,605.597961 350.271057,605.597961 348.891907,605.433716 
z"/>
<path fill="#101010" opacity="1.000000" stroke="none" 
	d="
M356.001648,584.001892 
	C356.001648,582.079163 356.001648,580.156433 356.001648,578.233704 
	C356.317993,578.239807 356.634338,578.245911 356.950684,578.252075 
	C356.810425,579.990906 356.670166,581.729797 356.264954,583.734314 
	C356.000000,584.000000 356.001648,584.001892 356.001648,584.001892 
z"/>
<path fill="#101010" opacity="1.000000" stroke="none" 
	d="
M355.999176,583.998779 
	C355.741394,585.136475 355.484406,586.275330 355.227417,587.414246 
	C354.773773,587.243347 354.320129,587.072510 353.866486,586.901611 
	C354.358856,585.978210 354.851196,585.054871 355.672607,584.066650 
	C356.001648,584.001892 356.000000,584.000000 355.999176,583.998779 
z"/>
<path fill="#101010" opacity="1.000000" stroke="none" 
	d="
M354.109039,601.291565 
	C354.408295,601.210266 354.667694,601.348633 354.927124,601.486938 
	C354.789398,601.729492 354.651703,601.972107 354.513977,602.214722 
	C354.365723,601.980225 354.217468,601.745667 354.109039,601.291565 
z"/>
<path fill="#101010" opacity="1.000000" stroke="none" 
	d="
M353.748413,598.330994 
	C353.649261,598.022278 353.755493,597.679138 353.861755,597.335999 
	C353.892426,597.656189 353.923096,597.976379 353.748413,598.330994 
z"/>
</svg>