<?xml version="1.0" standalone="no"?>
<!DOCTYPE svg PUBLIC "-//W3C//DTD SVG 20010904//EN"
 "http://www.w3.org/TR/2001/REC-SVG-20010904/DTD/svg10.dtd">
<svg version="1.0" xmlns="http://www.w3.org/2000/svg"
 width="645.000000pt" height="781.000000pt" viewBox="0 0 645.000000 781.000000"
 preserveAspectRatio="xMidYMid meet">

<g transform="translate(0.000000,781.000000) scale(0.100000,-0.100000)"
fill="#000000" stroke="none">
<path d="M0 3905 l0 -3905 3225 0 3225 0 0 3905 0 3905 -3225 0 -3225 0 0
-3905z m4155 3769 c158 -51 207 -84 409 -269 80 -74 104 -103 132 -160 19 -38
34 -80 34 -93 0 -36 26 -89 52 -106 13 -8 41 -39 62 -68 22 -29 59 -71 83 -93
50 -45 57 -66 68 -225 6 -83 3 -107 -18 -185 -29 -106 -94 -287 -131 -365 -32
-68 -32 -76 -1 -84 42 -11 65 -90 65 -223 0 -101 -23 -221 -54 -281 -22 -43
-144 -153 -228 -205 l-75 -47 -17 -78 c-9 -42 -23 -131 -32 -196 -16 -128 -15
-136 33 -136 23 0 27 -8 53 -130 6 -30 27 -118 46 -194 34 -137 35 -140 90
-203 55 -62 114 -106 219 -163 123 -67 203 -123 321 -225 170 -148 226 -185
277 -185 62 0 164 -28 247 -68 92 -45 246 -136 280 -167 14 -13 41 -31 61 -41
54 -29 117 -105 133 -160 8 -27 20 -85 26 -129 6 -44 20 -109 30 -145 50 -174
53 -203 46 -368 -4 -86 -9 -175 -11 -197 -2 -22 -8 -81 -13 -130 -5 -50 -14
-99 -20 -111 -26 -49 -53 -245 -62 -449 -5 -115 -7 -226 -4 -245 7 -40 -26
-267 -60 -420 -89 -398 -92 -410 -148 -600 -64 -220 -152 -410 -190 -410 -15
0 -8 23 12 45 56 59 181 437 241 725 12 58 26 116 31 129 12 34 55 257 71 376
8 55 15 190 16 300 2 255 27 465 66 559 9 21 15 61 15 89 -1 29 7 115 18 192
28 204 18 333 -39 509 -10 33 -19 74 -19 91 0 17 -9 74 -20 125 -17 82 -25 99
-55 128 -19 19 -35 38 -35 43 0 5 -22 20 -48 33 -27 13 -54 32 -62 40 -13 16
-144 96 -245 149 -76 41 -162 67 -249 77 -95 11 -115 24 -305 190 -120 105
-186 152 -304 215 -109 59 -185 115 -243 181 l-61 69 -49 203 c-43 179 -50
199 -61 180 -6 -13 -17 -45 -23 -73 -7 -27 -30 -105 -52 -172 l-41 -121 21
-44 c12 -24 24 -67 28 -97 l7 -54 -39 7 c-21 3 -67 9 -101 12 l-61 7 -24 -39
c-63 -101 -220 -447 -298 -656 -37 -98 -46 -123 -112 -288 -27 -69 -55 -150
-62 -180 -7 -30 -18 -71 -24 -90 -37 -113 -72 -242 -72 -264 0 -14 -8 -49 -19
-78 -44 -127 -51 -217 -54 -677 l-2 -285 -115 3 c-63 1 -118 5 -122 9 -4 4 -3
28 2 54 5 26 14 116 20 200 6 84 15 185 20 223 12 91 16 311 6 400 -9 90 -43
246 -56 259 -5 5 -10 16 -10 24 0 12 -31 85 -68 160 -10 19 -48 71 -85 115
-83 100 -188 225 -203 240 -42 47 -211 259 -231 290 -13 21 -46 65 -72 98 -26
33 -76 105 -110 162 -34 56 -67 109 -73 118 -20 29 8 75 60 99 25 12 61 32 79
44 28 19 31 25 20 39 -11 15 -22 10 -112 -52 -55 -38 -127 -83 -161 -100 -56
-28 -228 -81 -266 -81 -9 0 -90 -33 -180 -74 -90 -40 -200 -83 -246 -94 -106
-27 -307 -127 -392 -195 -139 -112 -227 -221 -285 -355 -18 -41 -38 -77 -44
-81 -13 -9 -137 -234 -201 -366 -27 -56 -62 -152 -80 -220 -44 -169 -63 -228
-103 -325 -51 -127 -80 -210 -131 -372 -39 -121 -85 -300 -86 -330 0 -4 25 5
57 19 75 34 198 50 275 34 62 -13 218 -100 278 -155 19 -18 55 -48 80 -66 25
-18 83 -71 130 -116 109 -106 311 -244 357 -244 28 0 34 4 39 28 16 78 54 108
99 78 l25 -16 0 187 c1 104 5 217 10 253 4 36 16 126 25 200 9 74 25 209 36
300 11 91 25 206 30 255 20 176 42 246 69 219 9 -9 8 -18 -5 -37 -9 -15 -20
-64 -26 -119 -5 -51 -18 -156 -29 -233 -11 -77 -24 -189 -30 -250 -6 -60 -19
-171 -30 -245 -16 -114 -27 -428 -21 -592 1 -10 17 -35 37 -55 20 -21 42 -47
49 -58 21 -32 47 -161 43 -210 l-3 -46 45 -13 c25 -7 70 -19 100 -26 30 -6
105 -25 165 -40 114 -30 372 -60 521 -60 44 -1 113 -5 154 -10 45 -5 134 -5
220 0 80 5 240 14 356 20 200 9 424 33 445 46 6 3 49 14 97 23 86 18 87 18
110 62 90 169 193 382 246 508 28 67 38 80 96 123 36 27 78 56 93 66 18 11 41
44 63 92 58 122 73 150 142 260 80 127 123 211 115 223 -3 6 -50 7 -112 4
-356 -20 -418 -26 -471 -46 -44 -15 -81 -20 -178 -20 -150 0 -148 -3 -155 152
l-5 108 31 15 c50 27 258 75 307 73 25 -2 96 -2 157 -2 97 2 121 5 170 27 116
51 188 57 266 22 30 -14 69 -24 89 -23 l36 2 21 95 c11 52 23 110 26 128 6 30
18 41 29 24 2 -4 -4 -50 -15 -102 -11 -52 -26 -124 -33 -160 -8 -36 -32 -103
-54 -150 -22 -47 -58 -123 -79 -170 -22 -47 -71 -134 -109 -195 -78 -126 -134
-232 -134 -257 0 -10 1 -18 3 -18 1 0 34 9 72 20 38 11 84 20 100 20 38 0 75
-25 75 -51 0 -17 7 -19 84 -19 76 0 87 -3 115 -26 39 -32 41 -71 6 -112 -22
-26 -24 -34 -14 -59 16 -40 13 -82 -8 -106 -18 -20 -211 -116 -286 -142 -45
-15 -153 -88 -138 -93 5 -2 29 8 53 21 28 16 67 28 110 32 60 7 67 5 77 -13
30 -55 14 -71 -169 -176 -74 -43 -170 -100 -213 -128 -70 -44 -81 -48 -95 -35
-10 8 -32 17 -49 20 -46 9 -240 -11 -272 -27 -62 -32 -243 -55 -481 -61 -129
-4 -329 -12 -445 -18 -127 -8 -259 -9 -335 -5 -287 18 -536 41 -575 53 -41 12
-44 11 -75 -18 -34 -32 -127 -215 -181 -357 -36 -95 -46 -111 -54 -88 -13 33
153 405 200 450 14 13 25 26 25 29 0 4 -20 12 -44 19 -66 18 -102 2 -188 -86
-62 -63 -81 -91 -125 -187 -29 -61 -53 -117 -53 -123 0 -10 -38 -104 -46 -113
-1 -1 -7 0 -13 3 -11 7 48 182 74 223 23 35 18 39 -12 11 -16 -14 -42 -33 -60
-43 -30 -18 -60 -66 -98 -159 -19 -47 -40 -38 -26 11 10 36 12 35 -131 48 -60
6 -68 4 -77 -14 -6 -11 -11 -28 -11 -38 0 -28 -17 -50 -29 -38 -11 11 1 60 38
153 16 39 19 58 11 72 -18 34 -10 75 26 136 78 130 169 181 427 238 24 6 27
11 27 50 0 24 -7 75 -16 114 -14 60 -22 77 -60 114 -25 24 -48 58 -54 79 -12
42 -43 74 -64 66 -8 -3 -20 -25 -27 -49 -6 -24 -13 -49 -15 -57 -3 -10 -17
-12 -54 -9 -70 7 -243 121 -375 248 -55 53 -120 110 -145 127 -25 17 -54 41
-65 53 -23 25 -173 119 -225 141 -23 9 -68 14 -130 13 -82 -1 -104 -5 -158
-29 -65 -29 -122 -82 -122 -114 0 -33 20 -39 100 -29 41 4 95 6 120 2 73 -10
160 -56 219 -117 57 -59 63 -87 17 -87 -23 0 -130 30 -236 66 -74 25 -137 37
-165 30 -34 -9 -139 -119 -166 -174 -19 -38 -20 -47 -8 -92 12 -48 14 -49 33
-35 62 44 146 85 177 85 41 0 199 -59 206 -77 3 -7 0 -20 -7 -28 -11 -13 -39
-15 -184 -10 -94 4 -176 3 -181 -2 -42 -34 -105 -156 -105 -203 0 -11 12 -33
28 -50 l27 -31 54 51 c47 44 58 50 97 50 43 0 181 -33 216 -52 24 -12 23 -55
-2 -68 -14 -8 -26 -7 -42 1 -12 7 -67 12 -127 13 -88 0 -112 -3 -138 -19 -18
-11 -33 -23 -33 -27 0 -4 -9 -8 -19 -8 -36 0 -61 -47 -61 -112 0 -69 8 -75 69
-53 55 19 148 19 230 0 131 -31 446 -252 400 -281 -6 -4 -22 7 -35 24 -13 17
-46 44 -72 61 -26 17 -56 37 -67 44 -110 76 -172 109 -227 122 -81 19 -186 19
-231 0 -30 -12 -37 -21 -42 -52 -4 -21 -13 -65 -21 -99 -8 -33 -14 -70 -14
-82 0 -23 -15 -38 -25 -23 -5 10 0 47 25 179 11 55 10 65 -4 81 -20 22 -21
109 -2 154 7 18 23 41 34 51 l22 19 -36 40 c-33 36 -36 43 -30 81 3 22 22 73
41 111 35 71 37 93 10 158 -14 35 16 104 78 177 42 50 62 83 67 111 4 22 4 42
-1 44 -18 12 -20 64 -3 96 9 18 27 84 39 145 34 165 143 499 240 731 14 34 30
86 35 115 20 106 80 277 134 384 52 101 83 159 225 420 86 158 156 242 291
352 82 66 300 176 401 201 42 10 114 35 160 55 202 90 270 115 364 136 115 27
204 69 334 161 l90 64 -6 44 c-4 32 -2 47 8 55 21 16 104 182 165 330 30 71
63 139 74 151 l20 22 -44 104 c-39 91 -46 119 -55 220 -6 63 -11 145 -11 181
0 60 -2 66 -23 72 -54 13 -140 144 -155 239 -6 34 -11 143 -11 242 1 155 3
185 19 215 29 54 34 200 10 270 -11 30 -20 69 -20 85 0 39 -33 161 -53 200 -9
17 -28 99 -43 182 l-28 151 25 62 c19 49 37 73 83 114 57 49 192 145 285 202
44 28 323 130 441 163 36 10 75 23 87 29 12 7 31 12 43 12 12 0 83 20 158 45
184 60 200 63 327 64 100 1 119 -2 220 -35z"/>
<path d="M3859 7679 c-46 -4 -133 -25 -225 -54 -82 -26 -187 -58 -234 -72 -98
-29 -374 -122 -440 -149 -53 -21 -267 -163 -340 -225 -52 -45 -100 -129 -100
-175 0 -48 52 -286 70 -322 10 -20 26 -75 35 -122 9 -47 22 -106 30 -131 10
-29 15 -89 15 -159 0 -87 3 -115 14 -124 10 -7 19 -45 25 -103 15 -135 25
-143 40 -31 7 51 19 122 26 158 8 36 21 119 29 185 21 161 73 329 121 395 64
88 154 126 320 136 117 7 299 -9 322 -28 9 -7 21 -13 27 -13 24 0 46 -23 75
-79 17 -32 31 -66 31 -77 0 -10 14 -34 31 -54 85 -96 270 -141 370 -90 23 12
32 11 79 -11 29 -14 81 -44 114 -68 70 -50 117 -66 198 -66 l56 0 16 -47 c9
-27 22 -106 30 -178 28 -250 49 -386 57 -373 5 7 9 21 9 30 0 27 91 175 113
185 12 5 21 21 23 37 1 15 18 62 37 104 48 107 94 236 119 334 19 77 20 93 10
208 l-11 125 -40 35 c-22 19 -57 59 -80 89 -22 29 -55 67 -75 82 -29 24 -37
41 -51 100 -24 108 -53 155 -152 245 -208 191 -253 221 -399 267 -121 39 -183
46 -295 36z"/>
<path d="M3180 6854 c-107 -14 -194 -63 -239 -133 -42 -65 -89 -224 -107 -356
-8 -60 -18 -131 -24 -157 -5 -25 -19 -111 -30 -191 -20 -135 -20 -148 -6 -204
9 -33 18 -101 21 -150 3 -50 11 -124 19 -164 8 -44 12 -101 9 -141 -3 -37 0
-118 7 -180 20 -188 102 -350 257 -511 80 -84 150 -130 268 -178 68 -28 93
-33 165 -33 89 -1 306 26 375 46 74 21 199 90 280 153 161 126 268 264 299
388 30 122 65 294 76 372 7 45 23 103 38 134 24 50 26 63 23 170 -1 64 -11
178 -21 254 -11 75 -20 157 -20 181 0 43 -21 162 -35 199 -6 13 -19 17 -54 17
-68 0 -141 25 -195 66 -26 19 -72 49 -102 65 -54 28 -56 28 -87 12 -39 -20
-143 -22 -210 -4 -105 28 -196 104 -217 181 -18 69 -48 108 -102 135 -44 22
-64 25 -201 29 -84 2 -168 2 -187 0z"/>
<path d="M2636 6103 c-2 -10 -5 -103 -4 -207 0 -207 10 -272 55 -341 54 -85
113 -126 99 -71 -3 14 -11 79 -16 146 -12 141 -23 197 -55 265 -13 28 -26 78
-29 112 -9 93 -35 145 -50 96z"/>
<path d="M4767 5968 c-31 -40 -87 -148 -87 -166 0 -7 -9 -30 -20 -52 -13 -26
-20 -59 -20 -98 0 -45 -7 -76 -29 -123 -19 -42 -32 -89 -36 -138 l-7 -73 50
27 c60 32 197 155 216 194 30 60 48 174 43 281 -6 146 -14 174 -54 178 -25 3
-36 -3 -56 -30z"/>
<path d="M4425 4869 c-16 -28 -64 -84 -105 -124 -167 -164 -340 -265 -490
-285 -47 -7 -124 -18 -173 -26 -159 -25 -218 -17 -367 53 -106 51 -167 94
-233 169 l-52 58 -6 -60 c-4 -32 -7 -113 -8 -180 l-1 -121 38 -59 c134 -205
415 -471 563 -532 30 -13 61 -26 69 -31 11 -6 31 4 70 35 30 24 88 66 127 94
126 88 199 164 240 249 43 89 100 182 110 179 5 -1 33 10 64 24 56 25 87 61
104 118 4 14 16 37 26 51 47 66 59 124 62 285 1 85 0 154 -3 154 -3 0 -18 -23
-35 -51z"/>
<path d="M4491 4793 l1 -48 14 34 c15 34 13 61 -6 61 -5 0 -10 -21 -9 -47z"/>
<path d="M2848 4708 c-18 -46 -63 -145 -100 -221 -38 -76 -68 -142 -68 -146 0
-5 12 -12 28 -15 83 -21 102 -28 102 -41 0 -14 -117 -125 -132 -125 -18 0 -5
-39 37 -105 24 -38 58 -95 76 -125 17 -30 56 -89 87 -130 31 -41 57 -77 59
-79 2 -2 6 -2 9 2 4 3 -3 57 -15 119 -11 62 -25 163 -31 223 -12 121 -22 182
-44 265 -9 34 -11 61 -5 71 4 9 6 18 4 21 -3 2 0 51 5 109 5 57 12 126 14 153
3 27 8 61 11 77 12 52 -3 31 -37 -53z"/>
<path d="M2940 4674 c1 -107 2 -117 15 -100 21 27 20 173 0 200 -13 18 -15 8
-15 -100z"/>
<path d="M2903 4740 c-12 -49 -37 -289 -30 -296 2 -3 14 18 26 46 19 44 21 65
19 173 -3 115 -4 119 -15 77z"/>
<path d="M2916 4461 c-38 -73 -39 -75 -27 -130 6 -31 18 -110 26 -176 25 -199
46 -329 59 -354 9 -16 10 -39 5 -74 -8 -46 -6 -52 16 -72 13 -13 46 -70 73
-128 27 -57 66 -122 85 -143 20 -22 53 -58 74 -82 l38 -42 38 86 c44 99 44
123 -3 198 -17 25 -30 54 -30 62 0 33 65 137 111 178 l48 43 -42 34 c-134 107
-320 312 -395 436 -28 47 -32 61 -34 145 l-3 93 -39 -74z m368 -1034 c12 -33
1 -55 -37 -77 -35 -20 -61 -4 -65 38 -7 66 81 100 102 39z"/>
<path d="M3217 3417 c-6 -17 29 -41 38 -27 4 6 1 9 -6 8 -6 -2 -14 3 -16 10
-3 8 2 10 14 6 15 -5 15 -4 3 5 -20 14 -27 14 -33 -2z"/>
<path d="M4367 4350 c-10 -17 -39 -41 -65 -54 l-47 -24 40 -6 c22 -3 59 -11
83 -16 62 -15 65 -14 57 17 -6 27 -43 113 -48 113 -2 0 -11 -14 -20 -30z"/>
<path d="M2675 4270 c14 -27 29 -50 33 -50 5 0 21 13 36 29 l28 30 -43 11
c-24 7 -52 16 -62 21 -15 8 -14 2 8 -41z"/>
<path d="M4198 4233 c-20 -23 -90 -163 -113 -228 -10 -27 -54 -124 -98 -215
-201 -420 -292 -676 -367 -1035 -11 -55 -29 -131 -40 -170 -16 -58 -21 -127
-30 -410 -6 -187 -14 -356 -18 -375 -6 -28 -13 -35 -32 -35 -31 0 -38 25 -37
135 1 70 1 74 4 20 5 -117 12 -150 32 -150 25 0 30 36 38 263 5 145 3 187 -6
187 -10 0 -11 -21 -6 -88 9 -113 3 -135 -36 -130 -16 3 -31 0 -33 -6 -2 -6 -5
43 -6 109 -2 104 -4 113 -10 65 -5 -30 -13 -122 -19 -205 -6 -82 -14 -174 -18
-202 l-6 -53 91 0 91 0 0 233 c1 480 8 578 52 692 10 28 19 64 19 81 0 18 7
51 15 75 15 42 38 122 75 259 18 70 76 230 115 320 13 30 35 91 50 134 42 121
216 519 279 635 31 58 56 106 56 108 0 10 -29 0 -42 -14z"/>
<path d="M2583 4107 c-24 -12 -45 -28 -48 -35 -6 -17 122 -235 180 -306 23
-29 50 -65 60 -81 30 -47 223 -286 294 -364 13 -14 40 -46 59 -71 20 -25 62
-75 94 -111 114 -131 196 -338 218 -552 5 -54 14 -107 20 -117 5 -10 10 -28
10 -39 0 -16 6 -21 26 -21 14 0 23 3 21 8 -3 4 -1 30 4 59 9 49 7 61 -46 210
-74 210 -119 302 -196 398 -88 110 -121 164 -169 279 -54 130 -128 276 -139
276 -15 0 -160 199 -226 311 -11 19 -27 45 -35 59 -9 14 -28 46 -44 73 -15 26
-31 47 -34 46 -4 0 -26 -10 -49 -22z m894 -1624 c-3 -10 -5 -4 -5 12 0 17 2
24 5 18 2 -7 2 -21 0 -30z"/>
<path d="M3980 3919 c-25 -22 -76 -60 -114 -86 l-70 -46 25 -20 c26 -21 29
-57 14 -172 -4 -33 -5 -57 -1 -53 12 10 197 401 194 409 -2 4 -23 -11 -48 -32z"/>
<path d="M3380 3741 c-59 -62 -89 -126 -72 -149 31 -42 56 -110 56 -149 -1
-47 -79 -223 -100 -223 -6 0 -19 10 -27 23 -9 12 -30 38 -47 57 -29 32 -31 33
-24 10 10 -35 62 -115 136 -209 35 -44 73 -99 85 -121 l21 -42 7 74 c8 90 32
284 45 358 10 65 33 131 60 177 11 18 16 33 11 33 -4 0 -20 11 -35 25 -34 32
-35 78 -2 101 23 14 28 14 60 -1 19 -9 37 -24 40 -32 6 -14 9 -14 26 2 27 24
25 34 -7 46 -16 6 -54 24 -86 40 -32 16 -67 29 -79 29 -13 0 -40 -20 -68 -49z"/>
<path d="M3685 3692 c-79 -66 -143 -151 -173 -232 -23 -65 -47 -223 -71 -480
l-8 -85 54 -155 c29 -85 53 -157 53 -160 2 -26 25 53 49 166 17 77 33 149 37
162 5 18 2 22 -16 22 -31 0 -90 62 -90 95 0 59 96 111 130 70 18 -22 25 -12
44 57 21 75 91 270 112 311 13 24 13 34 4 58 -12 28 -11 51 6 156 8 49 -6 73
-40 73 -11 0 -52 -26 -91 -58z"/>
<path d="M3507 3683 c-13 -12 -7 -46 11 -59 46 -35 81 6 37 43 -27 24 -37 27
-48 16z m28 -23 c3 -5 1 -10 -4 -10 -6 0 -11 5 -11 10 0 6 2 10 4 10 3 0 8 -4
11 -10z"/>
<path d="M3567 3062 c-9 -10 -17 -28 -17 -39 0 -50 82 -73 88 -24 2 15 0 21
-7 17 -6 -4 -11 -2 -11 3 0 6 5 11 11 11 6 0 9 10 7 23 -4 29 -48 35 -71 9z
m23 -52 c0 -5 -5 -10 -11 -10 -5 0 -7 5 -4 10 3 6 8 10 11 10 2 0 4 -4 4 -10z
m30 -20 c0 -5 -4 -10 -10 -10 -5 0 -10 5 -10 10 0 6 5 10 10 10 6 0 10 -4 10
-10z"/>
<path d="M3451 2404 c0 -11 3 -14 6 -6 3 7 2 16 -1 19 -3 4 -6 -2 -5 -13z"/>
<path d="M3452 2345 c0 -16 2 -22 5 -12 2 9 2 23 0 30 -3 6 -5 -1 -5 -18z"/>
<path d="M3511 2314 c0 -11 3 -14 6 -6 3 7 2 16 -1 19 -3 4 -6 -2 -5 -13z"/>
<path d="M4670 2286 c-25 -7 -56 -19 -70 -27 -23 -13 -19 -14 65 -22 62 -6
112 -5 159 3 l69 12 -49 24 c-54 26 -104 29 -174 10z"/>
<path d="M3488 2273 c7 -3 16 -2 19 1 4 3 -2 6 -13 5 -11 0 -14 -3 -6 -6z"/>
<path d="M4961 2248 c0 -10 -4 -18 -8 -18 -5 0 -50 -7 -101 -14 -70 -11 -121
-12 -210 -6 -122 10 -281 5 -344 -11 -20 -5 -90 -12 -155 -14 -65 -3 -134 -10
-154 -16 l-36 -11 4 -100 c2 -55 6 -104 9 -109 3 -5 59 -9 124 -9 95 0 129 4
169 20 54 21 325 45 512 45 l97 0 52 112 c28 61 50 119 47 130 -4 16 -5 16 -6
1z m-398 -65 c47 -53 24 -123 -41 -123 -46 0 -62 14 -62 56 0 65 66 107 103
67z"/>
<path d="M4493 2168 c-6 -7 -13 -25 -17 -40 -5 -21 -1 -30 16 -42 28 -20 43
-20 62 0 19 18 21 65 4 82 -16 16 -53 15 -65 0z m37 -17 c0 -6 -4 -13 -10 -16
-5 -3 -10 1 -10 9 0 9 5 16 10 16 6 0 10 -4 10 -9z m0 -46 c0 -8 -4 -15 -10
-15 -5 0 -10 7 -10 15 0 8 5 15 10 15 6 0 10 -7 10 -15z"/>
<path d="M4212 2230 c-18 -4 -36 -11 -40 -15 -4 -5 4 -5 18 -2 14 4 40 7 58 7
20 0 31 4 27 10 -7 11 -16 11 -63 0z"/>
<path d="M3463 2070 c0 -30 2 -43 4 -27 2 15 2 39 0 55 -2 15 -4 2 -4 -28z"/>
<path d="M4739 1470 c-14 -4 -43 -16 -65 -28 -21 -11 -63 -30 -91 -43 -29 -12
-61 -31 -70 -42 -10 -11 -42 -35 -71 -53 -29 -19 -58 -46 -64 -62 -37 -91
-143 -317 -205 -440 -40 -79 -73 -144 -73 -146 0 -2 65 -1 144 2 90 3 150 1
162 -6 22 -12 58 5 167 77 40 26 113 70 162 96 106 57 125 71 125 98 0 18 -5
19 -62 13 -35 -4 -76 -16 -93 -26 -16 -10 -59 -28 -95 -40 -36 -12 -91 -38
-122 -57 -51 -31 -78 -36 -78 -14 0 4 12 14 28 22 34 17 109 68 187 127 32 25
84 56 115 69 30 13 69 30 85 38 17 8 69 32 117 54 100 45 120 69 96 117 -11
24 -20 29 -46 27 -45 -2 -188 -57 -445 -170 -54 -24 -82 -32 -89 -25 -12 12
-9 14 132 77 111 50 182 78 320 126 108 39 150 66 150 99 0 14 -4 30 -8 36
-23 35 -182 15 -307 -39 -44 -19 -110 -46 -147 -62 -38 -15 -88 -41 -114 -57
-29 -20 -49 -27 -55 -21 -6 6 4 19 28 35 70 46 88 55 183 92 178 69 207 87
194 120 -7 17 -49 20 -95 6z"/>
<path d="M430 1391 c-52 -8 -70 -17 -70 -35 0 -10 12 -12 43 -9 38 4 92 -7
172 -35 26 -9 138 -43 200 -59 39 -11 -67 86 -124 113 -60 28 -141 38 -221 25z"/>
<path d="M370 1050 l-53 -27 108 -6 c60 -4 127 -7 149 -7 l41 1 -65 26 c-109
43 -120 43 -180 13z"/>
<path d="M300 740 c-33 -28 -33 -30 -10 -26 93 18 205 14 263 -9 11 -5 17 -2
17 8 0 10 -26 21 -85 36 -114 28 -142 27 -185 -9z"/>
<path d="M1805 671 c-35 -7 -28 -13 38 -31 26 -7 50 -17 53 -21 3 -5 19 -2 37
7 l32 17 -42 12 c-67 20 -86 23 -118 16z"/>
<path d="M1569 595 c-96 -49 -179 -156 -179 -228 0 -40 62 -77 139 -84 54 -5
68 -2 125 26 95 47 146 119 146 208 0 25 -9 39 -42 67 -23 20 -51 36 -62 36
-12 0 -30 2 -41 5 -11 2 -50 -11 -86 -30z"/>
<path d="M1788 600 c32 -32 33 -32 53 -14 19 17 19 18 2 25 -10 3 -34 10 -53
14 l-34 7 32 -32z"/>
<path d="M1932 594 c-12 -8 -25 -13 -30 -10 -4 2 -22 -8 -39 -22 -22 -19 -34
-39 -39 -67 l-6 -40 62 60 c53 51 88 95 78 95 -2 0 -14 -7 -26 -16z"/>
<path d="M1401 277 c-6 -6 -11 -19 -11 -28 0 -18 19 -23 132 -35 60 -6 67 -4
77 14 6 12 11 22 11 24 0 2 -30 3 -68 4 -40 1 -79 7 -98 17 -23 12 -34 13 -43
4z"/>
</g>
</svg>
