<svg width="129" height="129" viewBox="0 0 129 129" fill="none" xmlns="http://www.w3.org/2000/svg">
<path d="M116.27 3.06345H12.2698C9.91009 3.03944 7.63724 3.95249 5.94996 5.60228C4.26268 7.25206 3.29879 9.50382 3.26978 11.8635V116.283C3.30403 118.64 4.27024 120.886 5.95695 122.532C7.64365 124.177 9.91351 125.088 12.2698 125.063H116.27C118.63 125.082 120.901 124.166 122.587 122.515C124.274 120.864 125.238 118.613 125.27 116.253V11.8335C125.228 9.48074 124.259 7.23972 122.573 5.59751C120.888 3.9553 118.623 3.04463 116.27 3.06345V3.06345ZM39.4398 107.063H21.3298V48.7934H39.4398V107.063ZM30.4398 40.8535C28.3626 40.8554 26.3316 40.2413 24.6036 39.0887C22.8755 37.9362 21.5282 36.297 20.7319 34.3786C19.9357 32.4601 19.7263 30.3486 20.1303 28.3111C20.5343 26.2737 21.5336 24.4018 23.0016 22.9324C24.4697 21.4629 26.3406 20.4619 28.3776 20.0559C30.4147 19.65 32.5264 19.8573 34.4456 20.6518C36.3648 21.4462 38.0053 22.792 39.1595 24.5189C40.3137 26.2459 40.9298 28.2763 40.9298 30.3535C40.9272 31.734 40.6523 33.1005 40.121 34.3747C39.5896 35.649 38.8122 36.8059 37.8332 37.7793C36.8542 38.7527 35.6928 39.5235 34.4156 40.0476C33.1384 40.5717 31.7703 40.8387 30.3898 40.8335L30.4398 40.8535ZM107.27 107.063H89.1598V78.7135C89.1598 71.9635 89.0398 63.2734 79.7498 63.2734C70.4598 63.2734 68.8798 70.6335 68.8798 78.2735V107.063H50.7998V48.7934H68.1598V56.7934H68.3998C70.8198 52.2134 76.7198 47.3834 85.5298 47.3834C103.87 47.3434 107.27 59.4135 107.27 75.0635V107.063Z" fill="black"/>
</svg>
