<svg width="15" height="15" viewBox="0 0 15 15" fill="none" xmlns="http://www.w3.org/2000/svg">
<rect width="1.21134" height="5.10032" transform="matrix(0.706907 0.707307 -0.707368 0.706846 10.248 10.5381)" fill="white"/>
<rect width="1.21133" height="3.89262" transform="matrix(-0.706907 0.707307 -0.707368 -0.706846 7.49615 13.3016)" fill="white"/>
<rect width="1.21133" height="5.10034" transform="matrix(0.706939 -0.707275 0.707336 0.706878 10.536 4.73676)" fill="white"/>
<rect width="1.21133" height="3.89261" transform="matrix(0.706907 0.707307 -0.707368 0.706846 13.2904 7.48613)" fill="white"/>
<rect width="1.21133" height="5.10033" transform="matrix(-0.706907 0.707307 -0.707368 -0.706846 4.46411 10.2361)" fill="white"/>
<rect width="1.21133" height="3.89261" transform="matrix(-0.706907 -0.707307 0.707368 -0.706846 1.71436 7.4875)" fill="white"/>
<rect width="1.21133" height="5.10034" transform="matrix(-0.706907 -0.707307 0.707368 -0.706846 4.73901 4.46193)" fill="white"/>
<rect width="1.21133" height="3.89261" transform="matrix(0.706907 -0.707307 0.707368 0.706846 7.48907 1.71056)" fill="white"/>
<circle cx="7.5" cy="7.5" r="2" fill="black" stroke="white"/>
</svg>
