<svg width="73" height="15" viewBox="0 0 73 15" fill="none" xmlns="http://www.w3.org/2000/svg">
<path d="M19.456 12V11.616L20.716 11.436H21.052L22.696 11.616V12H19.456ZM20.62 12V3.444H21.064L21.196 8.88V12H20.62ZM25.108 3.516V3.12H28.348V3.516L27.088 3.672H26.776L25.108 3.516ZM26.296 12.048L20.932 4.248L20.896 4.212L20.5 3.6L19.492 3.516V3.12H22.156L26.944 10.092L26.716 10.176L26.668 6.612V3.12H27.172V12.048H26.296ZM33.2899 12.228C31.0819 12.228 29.1499 10.608 29.1499 7.56C29.1499 4.548 31.0819 2.892 33.2899 2.892C35.5099 2.892 37.4299 4.524 37.4299 7.56C37.4299 10.584 35.5219 12.228 33.2899 12.228ZM33.2899 11.784C34.8859 11.784 35.6419 9.96 35.6419 7.56C35.6419 5.172 34.8859 3.336 33.2899 3.336C31.7059 3.336 30.9379 5.172 30.9379 7.56C30.9379 9.96 31.7059 11.784 33.2899 11.784ZM38.372 12V11.616L40.208 11.436H40.556L42.392 11.616V12H38.372ZM39.488 12C39.524 10.656 39.524 9.252 39.524 7.848V7.284C39.524 5.88 39.524 4.5 39.488 3.12H41.24C41.204 4.488 41.204 5.856 41.204 7.464V7.776C41.204 9.228 41.204 10.62 41.24 12H39.488ZM45.44 12.168C44.444 12.168 43.928 11.868 43.796 11.04L43.364 9.252C43.16 8.256 42.86 7.824 41.888 7.824H40.4V7.392H42.08C43.424 7.392 44.036 6.504 44.036 5.4C44.036 4.224 43.376 3.552 42.08 3.552H40.376V3.12H42.476C44.516 3.12 45.644 3.936 45.644 5.376C45.644 6.504 44.78 7.524 42.512 7.656V7.524C44.408 7.62 44.9 8.22 45.152 9.48L45.704 11.868L44.864 11.496L46.736 11.616V12C46.316 12.108 45.98 12.168 45.44 12.168ZM38.372 3.516V3.12H40.376V3.672H40.208L38.372 3.516ZM48.4998 12C48.5358 10.656 48.5358 9.252 48.5358 7.848V7.284C48.5358 5.88 48.5358 4.5 48.4998 3.12H50.2038C50.1678 4.476 50.1678 5.88 50.1678 7.284V8.232C50.1678 9.312 50.1678 10.62 50.2038 12H48.4998ZM47.3838 12V11.616L49.2198 11.436H49.5438L51.2358 11.616V12H47.3838ZM47.3838 3.516V3.12H51.3318V3.516L49.5438 3.672H49.2198L47.3838 3.516ZM52.3998 12V11.616L54.1038 11.436H54.3798L56.0238 11.616V12H52.3998ZM52.5318 3.516V3.12H55.6158V3.516L54.2718 3.672L53.9478 3.696L52.5318 3.516ZM49.3158 9.72L49.2798 8.94H49.4958L49.7718 8.58L54.2238 3.12H54.8478L49.3158 9.72ZM53.5758 12L51.1038 7.332L52.1838 6.072L55.4358 12H53.5758ZM56.3279 12V11.616L57.5159 11.448H57.7439L59.0399 11.616V12H56.3279ZM57.1559 12L60.1439 3.072H61.1879L64.2359 12H62.4959L59.9639 4.128H60.2159L60.1799 4.296L57.7559 12H57.1559ZM58.4879 9.108L58.5719 8.712H62.3759L62.4599 9.108H58.4879ZM61.1039 12V11.604L62.7239 11.436H63.3359L65.0039 11.604V12H61.1039ZM66.2624 12V11.616L68.1464 11.436H68.6144L70.5464 11.616V12H66.2624ZM67.5104 12C67.5464 10.656 67.5464 9.252 67.5464 7.848V7.284C67.5464 5.88 67.5464 4.5 67.5104 3.12H69.2864C69.2504 4.476 69.2504 5.88 69.2504 7.284V7.848C69.2504 9.228 69.2504 10.62 69.2864 12H67.5104ZM64.4984 5.604L64.5704 3.12H72.2384L72.2984 5.604H71.6744L71.0264 3.12L71.8304 3.576H64.9544L65.7704 3.12L65.1464 5.604H64.4984Z" fill="white"/>
<rect width="1.21134" height="5.10032" transform="matrix(0.706907 0.707307 -0.707368 0.706846 10.248 10.5381)" fill="white"/>
<rect width="1.21133" height="3.89262" transform="matrix(-0.706907 0.707307 -0.707368 -0.706846 7.49615 13.3016)" fill="white"/>
<rect width="1.21133" height="5.10034" transform="matrix(0.706939 -0.707275 0.707336 0.706878 10.536 4.73676)" fill="white"/>
<rect width="1.21133" height="3.89261" transform="matrix(0.706907 0.707307 -0.707368 0.706846 13.2904 7.48613)" fill="white"/>
<rect width="1.21133" height="5.10033" transform="matrix(-0.706907 0.707307 -0.707368 -0.706846 4.46411 10.2361)" fill="white"/>
<rect width="1.21133" height="3.89261" transform="matrix(-0.706907 -0.707307 0.707368 -0.706846 1.71436 7.4875)" fill="white"/>
<rect width="1.21133" height="5.10034" transform="matrix(-0.706907 -0.707307 0.707368 -0.706846 4.73901 4.46193)" fill="white"/>
<rect width="1.21133" height="3.89261" transform="matrix(0.706907 -0.707307 0.707368 0.706846 7.48907 1.71056)" fill="white"/>
<circle cx="7.5" cy="7.5" r="2" fill="black" stroke="white"/>
</svg>
