<svg width="81" height="61" viewBox="0 0 81 61" fill="none" xmlns="http://www.w3.org/2000/svg">
<g clip-path="url(#clip0_14_54)">
<path d="M0.664764 0.635925H80.6648V60.6359H0.664764V0.635925Z" fill="#012169"/>
<path d="M10.0398 0.635925L40.5398 23.2609L70.9148 0.635925H80.6648V8.38593L50.6648 30.7609L80.6648 53.0109V60.6359H70.6648L40.6648 38.2609L10.7898 60.6359H0.664764V53.1359L30.5398 30.8859L0.664764 8.63593V0.635925H10.0398Z" fill="white"/>
<path d="M53.6648 35.7609L80.6648 55.6359V60.6359L46.7898 35.7609H53.6648ZM30.6648 38.2609L31.4148 42.6359L7.41476 60.6359H0.664764L30.6648 38.2609ZM80.6648 0.635925V1.01093L49.5398 24.5109L49.7898 19.0109L74.4148 0.635925H80.6648ZM0.664764 0.635925L30.5398 22.6359H23.0398L0.664764 5.88593V0.635925Z" fill="#C8102E"/>
<path d="M30.7898 0.635925V60.6359H50.7898V0.635925H30.7898ZM0.664764 20.6359V40.6359H80.6648V20.6359H0.664764Z" fill="white"/>
<path d="M0.664764 24.7609V36.7609H80.6648V24.7609H0.664764ZM34.7898 0.635925V60.6359H46.7898V0.635925H34.7898Z" fill="#C8102E"/>
</g>
<defs>
<clipPath id="clip0_14_54">
<rect width="80" height="60" fill="white" transform="translate(0.664764 0.635925)"/>
</clipPath>
</defs>
</svg>
