<svg width="24" height="23" viewBox="0 0 24 23" fill="none" xmlns="http://www.w3.org/2000/svg">
<path d="M19.8526 7.06535L14.7381 6.33132L15.7183 5.3463C14.3231 4.45558 12.6657 4.0677 11.0201 4.24681C9.37457 4.42592 7.83941 5.16129 6.6685 6.33132L7.03315 3.7646L3.64716 4.23816C5.45927 2.19126 7.97485 0.900642 10.6945 0.622541C13.4141 0.34444 16.1388 1.0992 18.3277 2.73696L19.1422 1.92243C19.5258 4.63122 19.4927 4.42759 19.8526 7.06535Z" fill="#DB5669"/>
<path d="M21.7042 18.4309C15.0743 19.378 23.7168 18.1515 16.5707 19.1649L17.3048 14.0315L18.1903 14.9218C18.8925 13.6193 19.1808 12.1336 19.0167 10.663C18.8525 9.19239 18.2437 7.80683 17.2716 6.69122L19.8715 7.06533C19.3127 3.14895 19.3316 3.58936 19.5021 3.75037C21.2888 5.53811 22.3982 7.89158 22.6401 10.4075C22.882 12.9234 22.2414 15.4452 20.8281 17.5406L21.7042 18.4309Z" fill="#EAC655"/>
<path d="M19.9568 18.6866C18.2048 20.6635 15.7942 21.9364 13.1737 22.2683C10.5532 22.6003 7.90137 21.9686 5.7119 20.4909L4.8358 21.367C4.50431 19.0608 4.42854 18.5256 4.10178 16.2336C5.82555 16.4751 9.02212 16.9344 9.23523 16.9676L8.34492 17.8532C9.72109 18.5967 11.3005 18.8762 12.8483 18.6501C14.396 18.424 15.8295 17.7044 16.9354 16.5982L16.5708 19.1649L19.9568 18.6866Z" fill="#88CD46"/>
<path d="M5.41357 8.00774C4.67002 9.3839 4.39051 10.9633 4.61662 12.5111C4.84272 14.0588 5.56236 15.4923 6.66851 16.5982L4.10179 16.2336L4.57535 19.6196C2.5992 17.867 1.32721 15.4561 0.996161 12.8356C0.665115 10.2151 1.29758 7.56364 2.77581 5.37471L1.89971 4.49861C3.75135 4.22868 3.36303 4.28077 7.03316 3.76459C6.59748 6.84276 6.76323 5.65885 6.29913 8.89804L5.41357 8.00774Z" fill="#2F88FF"/>
<path d="M19.8526 7.06533L14.7381 6.33131L15.7183 5.34629C14.3231 4.45556 12.6657 4.06769 11.0202 4.2468C9.37458 4.42591 7.83941 5.16128 6.66851 6.33131L7.03316 3.76458L5.45145 3.98716C6.39075 2.73613 7.58735 1.70102 8.96057 0.9516C10.5547 0.520729 12.226 0.457981 13.848 0.768103C15.47 1.07822 17.0002 1.75309 18.323 2.74168L19.1375 1.92715C19.5258 4.63121 19.4927 4.42757 19.8526 7.06533Z" fill="#E03F4F"/>
<path d="M5.41354 8.00773C4.66999 9.38389 4.39048 10.9633 4.61659 12.5111C4.8427 14.0588 5.56234 15.4923 6.66849 16.5982L4.98259 16.3614C3.79667 14.4953 3.2068 12.3123 3.29139 10.1028C3.37598 7.89335 4.13103 5.76193 5.45616 3.99189L7.03787 3.76932C6.60219 6.84749 6.76794 5.66358 6.30384 8.90277L5.41354 8.00773Z" fill="#2F88FF"/>
<path d="M19.9567 18.6866C19.1198 19.641 18.1231 20.4422 17.0112 21.0545C14.7678 21.6571 12.3905 21.5267 10.2265 20.6824C8.06252 19.8381 6.2251 18.3241 4.9826 16.3614C7.10418 16.6598 6.15231 16.5224 9.2447 16.9676L8.34492 17.8532C9.72108 18.5967 11.3005 18.8762 12.8482 18.6501C14.396 18.424 15.8295 17.7044 16.9354 16.5982L16.5708 19.1649L19.9567 18.6866Z" fill="#88CD46"/>
<path d="M21.4343 17.4932C22.8037 15.3141 23.3929 12.7347 23.1056 10.1771C22.8182 7.61948 21.6713 5.23512 19.8526 3.41414C19.6442 1.95083 19.6963 1.60512 19.3127 1.47726C18.9291 1.3494 18.8391 1.5625 18.2993 2.11658C16.0325 0.554407 13.2772 -0.135372 10.5417 0.174468C7.80626 0.484309 5.27509 1.77287 3.41511 3.80247C1.85708 4.02031 1.57294 3.97295 1.44981 4.36128C1.32668 4.7496 1.64397 4.92482 2.16963 5.45048C0.764212 7.70305 0.191762 10.3766 0.551614 13.0071C0.911466 15.6377 2.18091 18.0592 4.13966 19.8516C4.3575 21.4096 4.31015 21.6938 4.69847 21.8169C5.08679 21.94 5.24307 21.6417 5.78767 21.0971C7.96544 22.4629 10.5419 23.05 13.0964 22.7628C15.6509 22.4755 18.0325 21.3307 19.8526 19.5154C20.3545 19.0134 19.8526 19.1934 21.7847 18.9187C21.8722 18.9068 21.9547 18.8706 22.0227 18.8143C22.0907 18.758 22.1417 18.6837 22.1698 18.6C22.1978 18.5163 22.2019 18.4263 22.1816 18.3404C22.1613 18.2544 22.1173 18.1759 22.0546 18.1136L21.4343 17.4932ZM18.053 14.112L17.6363 13.6953C17.5738 13.634 17.4957 13.5912 17.4104 13.5717C17.3251 13.5521 17.2361 13.5566 17.1533 13.5845C17.0704 13.6125 16.9968 13.6629 16.9408 13.73C16.8848 13.7972 16.8485 13.8786 16.836 13.9652C16.4524 16.6314 16.5471 16.333 16.3624 16.494C15.4 17.356 14.2134 17.9281 12.9397 18.1443C11.666 18.3605 10.3571 18.2119 9.16419 17.7158C9.5904 17.2896 9.80351 17.1475 9.69459 16.8161C9.58567 16.4846 9.4578 16.5177 6.91002 16.1531C5.9959 15.1942 5.38063 13.9901 5.13929 12.6875C4.89795 11.3849 5.04096 10.0402 5.55089 8.81753L5.96762 9.23427C6.03006 9.29553 6.10824 9.33831 6.1935 9.35785C6.27876 9.37739 6.36777 9.37294 6.45065 9.34498C6.53353 9.31703 6.60706 9.26666 6.66306 9.19947C6.71907 9.13229 6.75538 9.0509 6.76795 8.96433C7.15154 6.28395 7.05683 6.59651 7.26519 6.42129C8.29821 5.50377 9.5843 4.9197 10.9549 4.74563C12.3256 4.57155 13.7168 4.81558 14.9464 5.44574C14.3924 6.00455 14.1698 6.13241 14.2882 6.47811C14.4066 6.82382 14.6055 6.79067 17.0206 7.13637C17.8135 8.09389 18.3288 9.25029 18.5108 10.48C18.6928 11.7098 18.5345 12.9659 18.053 14.112ZM5.00155 3.57516C6.79923 2.0302 9.06849 1.14188 11.4373 1.05583C13.8061 0.96979 16.1338 1.69113 18.0388 3.10159C18.13 3.17054 18.243 3.2042 18.357 3.19637C18.471 3.18854 18.5783 3.13974 18.6592 3.05897L18.8013 2.9169C18.8912 3.5278 19.2748 6.23186 19.3127 6.48759L15.742 5.97613L16.0546 5.66358C16.1047 5.61345 16.1428 5.55271 16.1663 5.48585C16.1898 5.41899 16.198 5.34771 16.1903 5.27727C16.1825 5.20683 16.1591 5.13902 16.1217 5.07884C16.0843 5.01866 16.0338 4.96764 15.9741 4.92955C14.6736 4.11088 13.1607 3.69359 11.6245 3.7298C10.0882 3.76602 8.59667 4.25415 7.33623 5.13319C7.28887 5.16634 7.29834 5.25632 7.50198 3.81194C7.51224 3.73927 7.50547 3.66521 7.48221 3.59561C7.45894 3.526 7.41982 3.46276 7.36793 3.41086C7.31603 3.35897 7.25279 3.31985 7.18318 3.29658C7.11358 3.27332 7.03952 3.26655 6.96685 3.27681L5.00155 3.57516ZM3.16885 5.6399C3.23089 5.54872 3.25917 5.43875 3.24879 5.32895C3.23842 5.21915 3.19005 5.11642 3.11202 5.03848L2.90366 4.83484L6.47434 4.32339C6.12864 6.76225 6.2565 5.86721 5.96762 7.89881L5.74978 7.67624C5.69768 7.62375 5.63401 7.58419 5.56387 7.56073C5.49374 7.53728 5.41908 7.53057 5.34588 7.54116C5.27269 7.55175 5.20299 7.57933 5.14237 7.6217C5.08176 7.66407 5.03191 7.72005 4.99681 7.78516C4.31826 9.06067 4.00641 10.4993 4.09585 11.9413C4.1853 13.3833 4.67255 14.7723 5.50353 15.9542L4.16808 15.7647C4.09541 15.7545 4.02135 15.7612 3.95174 15.7845C3.88214 15.8078 3.81889 15.8469 3.767 15.8988C3.7151 15.9507 3.67598 16.0139 3.65272 16.0835C3.62945 16.1531 3.62268 16.2272 3.63295 16.2999L3.91235 18.2699C2.41974 16.538 1.5383 14.3631 1.40393 12.0807C1.26957 9.79826 1.88975 7.53501 3.16885 5.6399ZM5.9771 20.0979C5.88592 20.0358 5.77594 20.0075 5.66614 20.0179C5.55635 20.0283 5.45361 20.0767 5.37567 20.1547L5.1673 20.3631C5.10573 19.9321 5.06785 19.6953 4.65585 16.7924L8.23127 17.2991C8.00396 17.5264 7.83821 17.6448 7.88083 17.9242C7.92345 18.2036 8.19338 18.322 8.59118 18.5019C9.82841 19.0577 11.189 19.2818 12.5391 19.1523C13.8892 19.0228 15.1824 18.544 16.2914 17.7632C15.9741 19.9842 15.7515 19.7616 18.6071 19.3544C16.8751 20.847 14.7003 21.7284 12.4179 21.8628C10.1354 21.9971 7.8722 21.377 5.9771 20.0979ZM17.1296 18.6109C17.4753 16.172 17.3474 17.067 17.6363 15.0354C17.8636 15.2628 17.982 15.4285 18.2614 15.3859C18.5408 15.3433 18.6781 15.0402 18.8581 14.6377C19.378 13.4687 19.602 12.1897 19.5103 10.9136C19.4186 9.63754 19.0141 8.40369 18.3324 7.32106C19.8857 7.54364 19.8715 7.56258 20.0325 7.50575C20.1321 7.46627 20.2153 7.3942 20.2687 7.30131C20.322 7.20842 20.3422 7.10019 20.3261 6.9943L20.0562 5.12845C21.3834 6.86174 22.1327 8.96817 22.1981 11.1503C22.2635 13.3324 21.6419 15.4799 20.4208 17.2896C20.3588 17.3808 20.3305 17.4908 20.3409 17.6006C20.3513 17.7104 20.3997 17.8131 20.4777 17.891L20.686 18.0994L17.1296 18.6109Z" fill="white"/>
</svg>
