<svg width="23" height="23" viewBox="0 0 23 23" fill="none" xmlns="http://www.w3.org/2000/svg">
<path d="M21.9189 22.7098H0.831294C0.616187 22.7098 0.409891 22.6243 0.257787 22.4722C0.105684 22.3201 0.0202332 22.1138 0.0202332 21.8987C0.0202332 21.6836 0.105684 21.4773 0.257787 21.3252C0.409891 21.1731 0.616187 21.0876 0.831294 21.0876H21.9189C22.134 21.0876 22.3403 21.1731 22.4924 21.3252C22.6445 21.4773 22.7299 21.6836 22.7299 21.8987C22.7299 22.1138 22.6445 22.3201 22.4924 22.4722C22.3403 22.6243 22.134 22.7098 21.9189 22.7098Z" fill="url(#paint0_linear_41_9)"/>
<path d="M2.64808 14.5992H4.88661C5.15334 14.5992 5.40915 14.7051 5.59775 14.8937C5.78636 15.0823 5.89232 15.3381 5.89232 15.6049V21.0876H1.64236V15.6049C1.64236 15.3381 1.74832 15.0823 1.93693 14.8937C2.12554 14.7051 2.38135 14.5992 2.64808 14.5992Z" fill="url(#paint1_linear_41_9)"/>
<path d="M7.72532 9.73279H9.95303C10.2198 9.73279 10.4756 9.83875 10.6642 10.0274C10.8528 10.216 10.9587 10.4718 10.9587 10.7385V21.0876H6.7196V10.7385C6.7196 10.4718 6.82556 10.216 7.01417 10.0274C7.20278 9.83875 7.45859 9.73279 7.72532 9.73279Z" fill="url(#paint2_linear_41_9)"/>
<path d="M12.8025 4.86642H15.0302C15.297 4.86642 15.5528 4.97238 15.7414 5.16099C15.93 5.3496 16.036 5.60541 16.036 5.87214V21.0876H11.7968V5.87214C11.7968 5.60541 11.9028 5.3496 12.0914 5.16099C12.28 4.97238 12.5358 4.86642 12.8025 4.86642Z" fill="url(#paint3_linear_41_9)"/>
<path d="M17.8636 5.81468e-05H20.0913C20.2243 -0.00137182 20.3562 0.0235861 20.4795 0.0734874C20.6028 0.123389 20.7149 0.197242 20.8094 0.290774C20.904 0.384306 20.979 0.495659 21.0302 0.618388C21.0815 0.741117 21.1078 0.872786 21.1078 1.00577V21.0876H16.8741V1.00577C16.8741 0.741828 16.9778 0.488448 17.1629 0.300299C17.348 0.112151 17.5997 0.00431533 17.8636 5.81468e-05Z" fill="url(#paint4_linear_41_9)"/>
<path d="M11.3156 0.540829C11.2748 0.441198 11.2146 0.350682 11.1385 0.274559C11.0624 0.198436 10.9718 0.13823 10.8722 0.0974493C10.7771 0.0445214 10.6723 0.0114128 10.564 0.00012207H7.31977C7.10467 0.00012207 6.89837 0.0855728 6.74627 0.237676C6.59416 0.389779 6.50871 0.596076 6.50871 0.811182C6.50871 1.02629 6.59416 1.23259 6.74627 1.38469C6.89837 1.53679 7.10467 1.62224 7.31977 1.62224H8.60666L0.258142 9.97076C0.178456 10.045 0.114542 10.1346 0.0702132 10.234C0.0258839 10.3335 0.00204766 10.4409 0.000126224 10.5498C-0.00179522 10.6587 0.0182376 10.7669 0.0590296 10.8679C0.0998216 10.9689 0.160537 11.0606 0.237554 11.1376C0.314571 11.2147 0.406311 11.2754 0.507303 11.3162C0.608294 11.357 0.716467 11.377 0.825368 11.3751C0.93427 11.3732 1.04167 11.3493 1.14116 11.305C1.24065 11.2607 1.33019 11.1967 1.40444 11.1171L9.75296 2.76854V4.05542C9.75296 4.27053 9.83841 4.47683 9.99051 4.62893C10.1426 4.78103 10.3489 4.86648 10.564 4.86648C10.7791 4.86648 10.9854 4.78103 11.1375 4.62893C11.2896 4.47683 11.3751 4.27053 11.3751 4.05542V0.811182C11.371 0.718308 11.3509 0.62684 11.3156 0.540829Z" fill="url(#paint5_linear_41_9)"/>
<defs>
<linearGradient id="paint0_linear_41_9" x1="11.3751" y1="23.5911" x2="11.3751" y2="7.08332" gradientUnits="userSpaceOnUse">
<stop stop-color="#273A9B"/>
<stop offset="0.56" stop-color="#202F65"/>
<stop offset="1" stop-color="#021E2F"/>
</linearGradient>
<linearGradient id="paint1_linear_41_9" x1="3.75653" y1="26.1324" x2="3.75653" y2="9.52732" gradientUnits="userSpaceOnUse">
<stop stop-color="#FF2424"/>
<stop offset="0.52" stop-color="#FF7C7C"/>
<stop offset="1" stop-color="#FFE3E3"/>
</linearGradient>
<linearGradient id="paint2_linear_41_9" x1="8.83377" y1="26.2243" x2="8.83377" y2="2.8604" gradientUnits="userSpaceOnUse">
<stop stop-color="#F3C57A"/>
<stop offset="0.49" stop-color="#F39369"/>
<stop offset="1" stop-color="#FC6E89"/>
</linearGradient>
<linearGradient id="paint3_linear_41_9" x1="13.9164" y1="36.4059" x2="13.9164" y2="1.64922" gradientUnits="userSpaceOnUse">
<stop stop-color="#59E927"/>
<stop offset="0.52" stop-color="#CBEC03"/>
<stop offset="1" stop-color="#25A859"/>
</linearGradient>
<linearGradient id="paint4_linear_41_9" x1="18.9937" y1="32.5128" x2="18.9937" y2="-182.04" gradientUnits="userSpaceOnUse">
<stop stop-color="#279B41"/>
<stop offset="0.56" stop-color="#202F65"/>
<stop offset="1" stop-color="#021E2F"/>
</linearGradient>
<linearGradient id="paint5_linear_41_9" x1="-14.9844" y1="26.3596" x2="13.0999" y2="-1.72473" gradientUnits="userSpaceOnUse">
<stop stop-color="#27E9DE"/>
<stop offset="0.52" stop-color="#03A4EC"/>
<stop offset="1" stop-color="#2547A8"/>
</linearGradient>
</defs>
</svg>
