<svg width="46" height="48" viewBox="0 0 46 48" fill="none" xmlns="http://www.w3.org/2000/svg">
<path d="M22.5606 46.7628C25.6256 46.7628 28.1103 44.2781 28.1103 41.2132C28.1103 38.1482 25.6256 35.6635 22.5606 35.6635C19.4956 35.6635 17.011 38.1482 17.011 41.2132C17.011 44.2781 19.4956 46.7628 22.5606 46.7628Z" fill="#093F68"/>
<path d="M22.5606 47.0268C21.4118 47.0268 20.2888 46.6862 19.3336 46.0479C18.3785 45.4097 17.634 44.5026 17.1944 43.4412C16.7547 42.3799 16.6397 41.212 16.8638 40.0853C17.088 38.9586 17.6411 37.9236 18.4535 37.1113C19.2658 36.299 20.3007 35.7458 21.4275 35.5217C22.5542 35.2975 23.722 35.4126 24.7834 35.8522C25.8447 36.2918 26.7519 37.0363 27.3901 37.9915C28.0284 38.9467 28.369 40.0696 28.369 41.2184C28.369 42.7589 27.7571 44.2363 26.6678 45.3256C25.5785 46.4149 24.1011 47.0268 22.5606 47.0268ZM22.5606 35.9381C21.5163 35.9381 20.4954 36.2478 19.627 36.828C18.7587 37.4082 18.0819 38.2329 17.6822 39.1977C17.2826 40.1626 17.178 41.2243 17.3817 42.2486C17.5855 43.2729 18.0884 44.2137 18.8268 44.9522C19.5653 45.6907 20.5062 46.1936 21.5305 46.3973C22.5548 46.6011 23.6165 46.4965 24.5813 46.0969C25.5462 45.6972 26.3709 45.0204 26.9511 44.152C27.5313 43.2837 27.841 42.2628 27.841 41.2184C27.8431 40.5237 27.708 39.8353 27.4436 39.1929C27.1792 38.5504 26.7905 37.9664 26.3 37.4744C25.8095 36.9824 25.2267 36.592 24.585 36.3257C23.9433 36.0593 23.2554 35.9222 22.5606 35.9222V35.9381Z" fill="#093F68"/>
<path d="M35.2097 18.1644C35.2075 16.1859 34.7349 14.2363 33.8309 12.4764C32.9269 10.7165 31.6175 9.19674 30.0106 8.04248C28.4037 6.88822 26.5454 6.13254 24.5889 5.83777C22.6325 5.54301 20.6341 5.7176 18.7584 6.34716C16.8828 6.97672 15.1836 8.0432 13.8013 9.45863C12.4189 10.8741 11.3928 12.5979 10.8077 14.4879C10.2226 16.3779 10.0952 18.3799 10.4361 20.3288C10.777 22.2777 11.5763 24.1176 12.7682 25.6968C15.186 28.8782 16.4962 32.7634 16.4988 36.7592H28.934C28.8955 32.8115 30.1738 28.9635 32.5669 25.8236C34.28 23.6381 35.2106 20.9413 35.2097 18.1644Z" fill="#EAC655"/>
<path d="M28.9472 37.0232H16.512C16.4419 37.0232 16.3748 36.9954 16.3253 36.9459C16.2758 36.8964 16.2479 36.8292 16.2479 36.7592C16.2367 32.8219 14.9459 28.995 12.5702 25.8553C11.1341 23.9588 10.2575 21.6983 10.0395 19.3295C9.82158 16.9607 10.271 14.5782 11.3368 12.4515C12.4027 10.3249 14.0425 8.53902 16.0707 7.29599C18.0989 6.05296 20.4345 5.4024 22.8133 5.41794C25.192 5.43347 27.519 6.11446 29.5307 7.38387C31.5425 8.65328 33.1589 10.4604 34.1969 12.6008C35.2349 14.7412 35.6531 17.1294 35.4043 19.4951C35.1554 21.8609 34.2493 24.1097 32.7886 25.9873C30.436 29.0826 29.1777 32.8714 29.2112 36.7592C29.2112 36.8292 29.1834 36.8964 29.1339 36.9459C29.0844 36.9954 29.0172 37.0232 28.9472 37.0232ZM16.776 36.4952H28.6832C28.7094 32.5817 30.0066 28.7827 32.3794 25.6704C34.056 23.5316 34.9629 20.89 34.9536 18.1723C34.951 16.4949 34.6043 14.8358 33.9349 13.2977C33.2655 11.7596 32.2877 10.3752 31.062 9.23007C28.8258 7.14281 25.8879 5.97044 22.8291 5.94471C19.7703 5.91898 16.8131 7.04176 14.5421 9.0911C12.2712 11.1404 10.8517 13.9672 10.5643 17.0126C10.2769 20.058 11.1425 23.1004 12.99 25.5384C15.3823 28.6966 16.7082 32.5338 16.776 36.4952Z" fill="#093F68"/>
<path d="M28.67 40.2257H16.4512C15.6522 40.2257 15.0044 40.8735 15.0044 41.6726V42.2323C15.0044 43.0313 15.6522 43.6791 16.4512 43.6791H28.67C29.469 43.6791 30.1168 43.0313 30.1168 42.2323V41.6726C30.1168 40.8735 29.469 40.2257 28.67 40.2257Z" fill="white"/>
<path d="M28.67 43.9431H16.4513C15.9977 43.9424 15.563 43.7619 15.2423 43.4412C14.9216 43.1205 14.7411 42.6858 14.7404 42.2323V41.6725C14.7404 41.2188 14.9207 40.7837 15.2415 40.4628C15.5624 40.142 15.9975 39.9617 16.4513 39.9617H28.67C29.1237 39.9617 29.5589 40.142 29.8797 40.4628C30.2006 40.7837 30.3808 41.2188 30.3808 41.6725V42.2323C30.3801 42.6858 30.1997 43.1205 29.879 43.4412C29.5583 43.7619 29.1235 43.9424 28.67 43.9431ZM16.4513 40.4898C16.1378 40.4904 15.8373 40.6153 15.6157 40.837C15.394 41.0586 15.2692 41.3591 15.2685 41.6725V42.2323C15.2692 42.5457 15.394 42.8462 15.6157 43.0679C15.8373 43.2895 16.1378 43.4144 16.4513 43.4151H28.67C28.8257 43.4154 28.9799 43.3851 29.1238 43.3258C29.2678 43.2666 29.3987 43.1796 29.509 43.0697C29.6193 42.9599 29.7069 42.8294 29.7668 42.6857C29.8267 42.542 29.8577 42.3879 29.8581 42.2323V41.6725C29.8574 41.3591 29.7325 41.0586 29.5109 40.837C29.2892 40.6153 28.9888 40.4904 28.6753 40.4898H16.4513Z" fill="#093F68"/>
<path d="M28.67 36.7724H16.4512C15.6522 36.7724 15.0044 37.4201 15.0044 38.2192V38.7789C15.0044 39.578 15.6522 40.2257 16.4512 40.2257H28.67C29.469 40.2257 30.1168 39.578 30.1168 38.7789V38.2192C30.1168 37.4201 29.469 36.7724 28.67 36.7724Z" fill="white"/>
<path d="M28.67 40.4898H16.4513C15.9977 40.4891 15.563 40.3086 15.2423 39.9879C14.9216 39.6672 14.7411 39.2324 14.7404 38.7789V38.2192C14.7411 37.7657 14.9216 37.3309 15.2423 37.0102C15.563 36.6895 15.9977 36.5091 16.4513 36.5084H28.67C28.895 36.508 29.1179 36.552 29.3259 36.6378C29.5339 36.7236 29.723 36.8495 29.8824 37.0084C30.0417 37.1672 30.1682 37.3559 30.2547 37.5637C30.3411 37.7714 30.3858 37.9942 30.3861 38.2192V38.7789C30.3858 39.0039 30.3411 39.2267 30.2547 39.4344C30.1682 39.6422 30.0417 39.8309 29.8824 39.9898C29.723 40.1486 29.5339 40.2745 29.3259 40.3603C29.1179 40.4461 28.895 40.4901 28.67 40.4898ZM16.4513 37.0364C16.1378 37.0371 15.8373 37.1619 15.6157 37.3836C15.394 37.6053 15.2692 37.9057 15.2685 38.2192V38.7789C15.2692 39.0924 15.394 39.3928 15.6157 39.6145C15.8373 39.8362 16.1378 39.961 16.4513 39.9617H28.67C28.9835 39.961 29.2839 39.8362 29.5056 39.6145C29.7272 39.3928 29.8521 39.0924 29.8528 38.7789V38.2192C29.8521 37.9057 29.7272 37.6053 29.5056 37.3836C29.2839 37.1619 28.9835 37.0371 28.67 37.0364H16.4513Z" fill="#093F68"/>
<path d="M28.67 33.319H16.4512C15.6522 33.319 15.0044 33.9668 15.0044 34.7658V35.3256C15.0044 36.1246 15.6522 36.7724 16.4512 36.7724H28.67C29.469 36.7724 30.1168 36.1246 30.1168 35.3256V34.7658C30.1168 33.9668 29.469 33.319 28.67 33.319Z" fill="white"/>
<path d="M28.67 37.0364H16.4513C15.998 37.0364 15.5632 36.8565 15.2424 36.5362C14.9217 36.216 14.7411 35.7815 14.7404 35.3282V34.7658C14.7411 34.3123 14.9216 33.8776 15.2423 33.5569C15.563 33.2362 15.9977 33.0557 16.4513 33.055H28.67C29.1235 33.0557 29.5583 33.2362 29.879 33.5569C30.1997 33.8776 30.3801 34.3123 30.3808 34.7658V35.3282C30.3801 35.7815 30.1996 36.216 29.8788 36.5362C29.558 36.8565 29.1233 37.0364 28.67 37.0364ZM16.4513 33.583C16.1378 33.5837 15.8373 33.7086 15.6157 33.9302C15.394 34.1519 15.2692 34.4524 15.2685 34.7658V35.3282C15.2692 35.6414 15.3941 35.9416 15.6158 36.1629C15.8376 36.3841 16.138 36.5084 16.4513 36.5084H28.67C28.9832 36.5084 29.2837 36.3841 29.5054 36.1629C29.7272 35.9416 29.8521 35.6414 29.8528 35.3282V34.7658C29.8521 34.4524 29.7272 34.1519 29.5056 33.9302C29.2839 33.7086 28.9835 33.5837 28.67 33.583H16.4513Z" fill="#093F68"/>
<path d="M19.4188 32.5059C19.3567 32.507 19.2961 32.4862 19.2478 32.4471C19.1995 32.4079 19.1666 32.353 19.1548 32.292L16.1555 16.4034C16.1453 16.3492 16.1523 16.2931 16.1756 16.2431C16.1989 16.1931 16.2373 16.1516 16.2854 16.1245C16.3334 16.0974 16.3888 16.0861 16.4436 16.0921C16.4985 16.0981 16.5501 16.1211 16.5912 16.1579L20.4617 19.5901L22.7481 15.717C22.772 15.6763 22.8065 15.6429 22.8478 15.6201C22.8891 15.5972 22.9358 15.5859 22.983 15.5873C23.0301 15.5886 23.0761 15.6026 23.116 15.6277C23.156 15.6529 23.1885 15.6882 23.2101 15.7302L25.2483 19.6904L28.6225 16.1975C28.6615 16.1564 28.7127 16.129 28.7685 16.1193C28.8243 16.1096 28.8818 16.1181 28.9324 16.1435C28.983 16.169 29.0241 16.2101 29.0496 16.2607C29.0751 16.3113 29.0836 16.3687 29.0739 16.4245L26.505 32.2656C26.4995 32.3003 26.4872 32.3335 26.4688 32.3634C26.4504 32.3933 26.4263 32.4193 26.3978 32.4399C26.3694 32.4605 26.3372 32.4753 26.303 32.4835C26.2689 32.4916 26.2334 32.4929 26.1988 32.4874C26.1641 32.4818 26.1309 32.4695 26.101 32.4511C26.071 32.4327 26.045 32.4086 26.0245 32.3802C26.0039 32.3517 25.9891 32.3195 25.9809 32.2854C25.9728 32.2512 25.9714 32.2158 25.977 32.1811L28.4218 17.177L25.3698 20.3452C25.3404 20.3754 25.3042 20.3981 25.2642 20.4114C25.2242 20.4247 25.1817 20.4283 25.1401 20.4218C25.0987 20.4156 25.0595 20.3997 25.0255 20.3753C24.9916 20.351 24.9639 20.319 24.9447 20.2818L22.9646 16.3849L20.76 20.1208C20.7401 20.1545 20.713 20.1833 20.6805 20.2053C20.6481 20.2272 20.6112 20.2416 20.5726 20.2475C20.534 20.2536 20.4946 20.2511 20.4572 20.2401C20.4198 20.2292 20.3852 20.2101 20.3561 20.1842L16.8235 17.0555L19.6775 32.1838C19.6907 32.2524 19.6762 32.3234 19.6371 32.3813C19.598 32.4392 19.5375 32.4792 19.469 32.4927L19.4188 32.5059Z" fill="white"/>
<path d="M7.54594 30.3515C3.52231 30.3515 0.861006 29.3904 0.1772 27.5502C-0.878871 24.7121 2.97315 20.3954 10.2284 16.2873C10.2585 16.2699 10.2918 16.2587 10.3263 16.2542C10.3608 16.2497 10.3959 16.2521 10.4294 16.2612C10.463 16.2703 10.4945 16.2859 10.5221 16.3071C10.5496 16.3283 10.5727 16.3548 10.5901 16.3849C10.6074 16.4151 10.6186 16.4484 10.6231 16.4829C10.6276 16.5174 10.6252 16.5524 10.6161 16.586C10.6071 16.6196 10.5915 16.6511 10.5702 16.6786C10.549 16.7062 10.5225 16.7293 10.4924 16.7466C3.58303 20.6594 -0.271631 24.8256 0.673552 27.3654C1.61874 29.9053 7.17631 30.5336 14.8566 29.0182C18.4088 28.3033 21.8973 27.3021 25.2879 26.0242C28.4394 24.8632 31.5007 23.4706 34.4467 21.858C41.7072 17.8529 45.7651 13.5705 44.7909 10.9488C43.8721 8.48025 38.6551 7.807 31.1755 9.18782C31.1055 9.20042 31.0333 9.18469 30.9749 9.14409C30.9165 9.10349 30.8766 9.04134 30.864 8.97132C30.8514 8.9013 30.8671 8.82914 30.9077 8.77072C30.9483 8.71229 31.0105 8.67239 31.0805 8.65978C38.9482 7.20768 44.2576 7.99182 45.2846 10.7561C46.375 13.6814 42.3197 18.1116 34.7028 22.3121C31.7308 23.9384 28.6421 25.3415 25.4622 26.51C22.0459 27.7982 18.5309 28.8074 14.9516 29.5277C12.5148 30.0364 10.035 30.3122 7.54594 30.3515Z" fill="#093F68"/>
<path d="M37.9132 30.3541C35.4108 30.3186 32.9176 30.0427 30.4679 29.5304C26.9005 28.8095 23.3971 27.8021 19.9917 26.5179C16.8127 25.3473 13.7241 23.9442 10.7511 22.3201C3.13947 18.1169 -0.9132 13.6893 0.174553 10.764C1.20422 7.99181 6.51098 7.21032 14.3972 8.67298C14.4319 8.67939 14.4649 8.69257 14.4945 8.71177C14.5241 8.73096 14.5496 8.75579 14.5696 8.78485C14.5896 8.8139 14.6036 8.8466 14.611 8.88109C14.6183 8.91557 14.6188 8.95117 14.6124 8.98584C14.6059 9.02051 14.5928 9.05358 14.5736 9.08316C14.5544 9.11273 14.5295 9.13824 14.5005 9.15822C14.4714 9.1782 14.4387 9.19227 14.4043 9.19961C14.3698 9.20695 14.3342 9.20743 14.2995 9.20101C6.92549 7.8334 1.57385 8.52249 0.668267 10.9594C-0.305959 13.5811 3.75199 17.8634 11.0072 21.8686C13.9554 23.4805 17.0184 24.873 20.1713 26.0348C23.5515 27.3071 27.0283 28.3065 30.5683 29.0235C38.2697 30.5416 43.851 29.8947 44.7856 27.376C45.7202 24.8573 41.8814 20.6699 34.9668 16.7625C34.9366 16.7451 34.9102 16.722 34.889 16.6945C34.8677 16.6669 34.8521 16.6354 34.843 16.6019C34.834 16.5683 34.8316 16.5332 34.8361 16.4987C34.8406 16.4642 34.8518 16.4309 34.8691 16.4008C34.8864 16.3706 34.9096 16.3442 34.9371 16.3229C34.9647 16.3017 34.9961 16.2861 35.0297 16.277C35.0633 16.268 35.0984 16.2656 35.1329 16.2701C35.1674 16.2745 35.2007 16.2858 35.2308 16.3031C42.4887 20.4059 46.3407 24.72 45.2846 27.5608C44.5982 29.3904 41.9369 30.3541 37.9132 30.3541Z" fill="#093F68"/>
<path d="M3.4642 31.4128C4.55196 31.4128 5.43377 30.531 5.43377 29.4433C5.43377 28.3555 4.55196 27.4737 3.4642 27.4737C2.37644 27.4737 1.49463 28.3555 1.49463 29.4433C1.49463 30.531 2.37644 31.4128 3.4642 31.4128Z" fill="#2F88FF"/>
<path d="M3.45628 31.6768C3.01452 31.6768 2.58267 31.5458 2.21536 31.3004C1.84805 31.055 1.56177 30.7061 1.39271 30.298C1.22366 29.8899 1.17942 29.4408 1.26561 29.0075C1.35179 28.5742 1.56452 28.1762 1.87689 27.8639C2.18926 27.5515 2.58725 27.3388 3.02053 27.2526C3.4538 27.1664 3.9029 27.2106 4.31104 27.3797C4.71917 27.5487 5.06801 27.835 5.31344 28.2023C5.55887 28.5696 5.68987 29.0015 5.68987 29.4432C5.68917 30.0354 5.45362 30.6031 5.03489 31.0219C4.61616 31.4406 4.04845 31.6761 3.45628 31.6768ZM3.45628 27.7377C3.11895 27.7377 2.7892 27.8377 2.50872 28.0251C2.22825 28.2125 2.00964 28.4789 1.88055 28.7906C1.75146 29.1022 1.71769 29.4451 1.78349 29.776C1.8493 30.1068 2.01174 30.4107 2.25027 30.6493C2.4888 30.8878 2.7927 31.0502 3.12354 31.116C3.45439 31.1818 3.79732 31.1481 4.10897 31.019C4.42061 30.8899 4.68699 30.6713 4.87439 30.3908C5.0618 30.1103 5.16183 29.7806 5.16183 29.4432C5.16114 28.9911 4.98122 28.5577 4.66151 28.238C4.34181 27.9183 3.9084 27.7384 3.45628 27.7377Z" fill="#093F68"/>
<path d="M39.9515 21.1267C41.0392 21.1267 41.921 20.2449 41.921 19.1571C41.921 18.0694 41.0392 17.1876 39.9515 17.1876C38.8637 17.1876 37.9819 18.0694 37.9819 19.1571C37.9819 20.2449 38.8637 21.1267 39.9515 21.1267Z" fill="#F56132"/>
<path d="M39.9515 21.4013C39.5097 21.4013 39.0779 21.2703 38.7105 21.0249C38.3432 20.7794 38.0569 20.4306 37.8879 20.0224C37.7188 19.6143 37.6746 19.1652 37.7608 18.7319C37.847 18.2987 38.0597 17.9007 38.3721 17.5883C38.6844 17.2759 39.0824 17.0632 39.5157 16.977C39.949 16.8908 40.3981 16.9351 40.8062 17.1041C41.2143 17.2732 41.5632 17.5595 41.8086 17.9268C42.054 18.2941 42.185 18.7259 42.185 19.1677C42.185 19.7601 41.9497 20.3282 41.5308 20.7471C41.112 21.166 40.5438 21.4013 39.9515 21.4013ZM39.9515 17.4621C39.6141 17.4621 39.2844 17.5622 39.0039 17.7496C38.7234 17.937 38.5048 18.2034 38.3757 18.515C38.2466 18.8267 38.2129 19.1696 38.2787 19.5004C38.3445 19.8313 38.5069 20.1352 38.7454 20.3737C38.984 20.6122 39.2879 20.7747 39.6187 20.8405C39.9496 20.9063 40.2925 20.8725 40.6041 20.7434C40.9158 20.6143 41.1822 20.3957 41.3696 20.1152C41.557 19.8348 41.657 19.505 41.657 19.1677C41.6595 18.942 41.6172 18.7181 41.5326 18.5089C41.448 18.2997 41.3228 18.1093 41.1642 17.9488C41.0056 17.7882 40.8168 17.6607 40.6086 17.5735C40.4005 17.4864 40.1771 17.4413 39.9515 17.441V17.4621Z" fill="#093F68"/>
<path d="M9.46271 9.62344C10.5505 9.62344 11.4323 8.74163 11.4323 7.65387C11.4323 6.5661 10.5505 5.6843 9.46271 5.6843C8.37494 5.6843 7.49313 6.5661 7.49313 7.65387C7.49313 8.74163 8.37494 9.62344 9.46271 9.62344Z" fill="#70CC40"/>
<path d="M9.46269 9.88747C9.02092 9.88747 8.58908 9.75647 8.22177 9.51104C7.85446 9.26561 7.56817 8.91677 7.39912 8.50864C7.23006 8.1005 7.18583 7.6514 7.27201 7.21813C7.3582 6.78485 7.57093 6.38687 7.8833 6.07449C8.19567 5.76212 8.59366 5.54939 9.02693 5.46321C9.46021 5.37702 9.90931 5.42126 10.3174 5.59031C10.7256 5.75937 11.0744 6.04565 11.3198 6.41296C11.5653 6.78027 11.6963 7.21212 11.6963 7.65388C11.6949 8.24584 11.4591 8.81315 11.0405 9.23173C10.622 9.6503 10.0546 9.88607 9.46269 9.88747ZM9.46269 5.94833C9.12536 5.94833 8.79561 6.04835 8.51513 6.23576C8.23465 6.42317 8.01605 6.68954 7.88696 7.00119C7.75787 7.31284 7.72409 7.65577 7.7899 7.98662C7.85571 8.31746 8.01815 8.62136 8.25667 8.85989C8.4952 9.09841 8.7991 9.26085 9.12995 9.32666C9.46079 9.39247 9.80372 9.3587 10.1154 9.22961C10.427 9.10052 10.6934 8.88191 10.8808 8.60143C11.0682 8.32096 11.1682 7.99121 11.1682 7.65388C11.1682 7.4299 11.1241 7.20812 11.0384 7.00119C10.9527 6.79426 10.8271 6.60625 10.6687 6.44787C10.5103 6.2895 10.3223 6.16387 10.1154 6.07815C9.90845 5.99244 9.68666 5.94833 9.46269 5.94833Z" fill="#093F68"/>
<path d="M5.43379 37.6225C5.36377 37.6225 5.29661 37.5947 5.2471 37.5452C5.19759 37.4957 5.16977 37.4285 5.16977 37.3585V35.6582C5.16977 35.5882 5.19759 35.5211 5.2471 35.4715C5.29661 35.422 5.36377 35.3942 5.43379 35.3942C5.50381 35.3942 5.57096 35.422 5.62048 35.4715C5.66999 35.5211 5.6978 35.5882 5.6978 35.6582V37.3506C5.69887 37.3859 5.69282 37.4211 5.68003 37.4541C5.66723 37.487 5.64795 37.5171 5.62333 37.5424C5.59871 37.5678 5.56924 37.5879 5.53669 37.6017C5.50413 37.6155 5.46913 37.6225 5.43379 37.6225Z" fill="#DFEAEF"/>
<path d="M5.43379 41.3346C5.36377 41.3346 5.29661 41.3068 5.2471 41.2573C5.19759 41.2078 5.16977 41.1406 5.16977 41.0706V39.3782C5.16977 39.3082 5.19759 39.2411 5.2471 39.1915C5.29661 39.142 5.36377 39.1142 5.43379 39.1142C5.50381 39.1142 5.57096 39.142 5.62048 39.1915C5.66999 39.2411 5.6978 39.3082 5.6978 39.3782V41.0706C5.6978 41.1406 5.66999 41.2078 5.62048 41.2573C5.57096 41.3068 5.50381 41.3346 5.43379 41.3346Z" fill="#DFEAEF"/>
<path d="M8.13731 38.6337H6.44496C6.37493 38.6337 6.30778 38.6059 6.25827 38.5564C6.20875 38.5069 6.18094 38.4397 6.18094 38.3697C6.18094 38.2997 6.20875 38.2325 6.25827 38.183C6.30778 38.1335 6.37493 38.1057 6.44496 38.1057H8.13731C8.20733 38.1057 8.27448 38.1335 8.324 38.183C8.37351 38.2325 8.40132 38.2997 8.40132 38.3697C8.40132 38.4397 8.37351 38.5069 8.324 38.5564C8.27448 38.6059 8.20733 38.6337 8.13731 38.6337Z" fill="#DFEAEF"/>
<path d="M4.42259 38.6337H2.73023C2.66021 38.6337 2.59306 38.6059 2.54355 38.5564C2.49403 38.5069 2.46622 38.4397 2.46622 38.3697C2.46622 38.2997 2.49403 38.2325 2.54355 38.183C2.59306 38.1335 2.66021 38.1057 2.73023 38.1057H4.42259C4.49261 38.1057 4.55976 38.1335 4.60928 38.183C4.65879 38.2325 4.68661 38.2997 4.68661 38.3697C4.68661 38.4397 4.65879 38.5069 4.60928 38.5564C4.55976 38.6059 4.49261 38.6337 4.42259 38.6337Z" fill="#DFEAEF"/>
<path d="M33.8315 2.22039C33.7615 2.22039 33.6943 2.19257 33.6448 2.14306C33.5953 2.09355 33.5675 2.02639 33.5675 1.95637V0.264018C33.5675 0.193996 33.5953 0.126843 33.6448 0.0773298C33.6943 0.0278169 33.7615 0 33.8315 0C33.9015 0 33.9687 0.0278169 34.0182 0.0773298C34.0677 0.126843 34.0955 0.193996 34.0955 0.264018V1.95637C34.0955 2.02639 34.0677 2.09355 34.0182 2.14306C33.9687 2.19257 33.9015 2.22039 33.8315 2.22039Z" fill="#DFEAEF"/>
<path d="M33.8315 5.93511C33.7615 5.93511 33.6943 5.90729 33.6448 5.85778C33.5953 5.80827 33.5675 5.74111 33.5675 5.67109V3.9761C33.5675 3.90608 33.5953 3.83892 33.6448 3.78941C33.6943 3.7399 33.7615 3.71208 33.8315 3.71208C33.9015 3.71208 33.9687 3.7399 34.0182 3.78941C34.0677 3.83892 34.0955 3.90608 34.0955 3.9761V5.67109C34.0955 5.74111 34.0677 5.80827 34.0182 5.85778C33.9687 5.90729 33.9015 5.93511 33.8315 5.93511Z" fill="#DFEAEF"/>
<path d="M36.5351 3.23157H34.8427C34.7727 3.23157 34.7055 3.20376 34.656 3.15424C34.6065 3.10473 34.5787 3.03758 34.5787 2.96755C34.5787 2.89753 34.6065 2.83038 34.656 2.78087C34.7055 2.73135 34.7727 2.70354 34.8427 2.70354H36.5351C36.6051 2.70354 36.6722 2.73135 36.7218 2.78087C36.7713 2.83038 36.7991 2.89753 36.7991 2.96755C36.7991 3.03758 36.7713 3.10473 36.7218 3.15424C36.6722 3.20376 36.6051 3.23157 36.5351 3.23157Z" fill="#DFEAEF"/>
<path d="M32.8203 3.23157H31.128C31.0579 3.23157 30.9908 3.20376 30.9413 3.15424C30.8918 3.10473 30.864 3.03758 30.864 2.96755C30.864 2.89753 30.8918 2.83038 30.9413 2.78087C30.9908 2.73135 31.0579 2.70354 31.128 2.70354H32.8203C32.8903 2.70354 32.9575 2.73135 33.007 2.78087C33.0565 2.83038 33.0843 2.89753 33.0843 2.96755C33.0843 3.03758 33.0565 3.10473 33.007 3.15424C32.9575 3.20376 32.8903 3.23157 32.8203 3.23157Z" fill="#DFEAEF"/>
<path d="M38.3805 35.3625C38.3105 35.3625 38.2434 35.3347 38.1938 35.2852C38.1443 35.2357 38.1165 35.1685 38.1165 35.0985V33.6966C38.1165 33.6266 38.1443 33.5594 38.1938 33.5099C38.2434 33.4604 38.3105 33.4326 38.3805 33.4326C38.4506 33.4326 38.5177 33.4604 38.5672 33.5099C38.6167 33.5594 38.6446 33.6266 38.6446 33.6966V35.0985C38.6446 35.1685 38.6167 35.2357 38.5672 35.2852C38.5177 35.3347 38.4506 35.3625 38.3805 35.3625Z" fill="#DFEAEF"/>
<path d="M38.3805 38.4383C38.3105 38.4383 38.2434 38.4105 38.1938 38.361C38.1443 38.3115 38.1165 38.2443 38.1165 38.1743V36.7724C38.1165 36.7024 38.1443 36.6352 38.1938 36.5857C38.2434 36.5362 38.3105 36.5084 38.3805 36.5084C38.4506 36.5084 38.5177 36.5362 38.5672 36.5857C38.6167 36.6352 38.6446 36.7024 38.6446 36.7724V38.1743C38.6446 38.2443 38.6167 38.3115 38.5672 38.361C38.5177 38.4105 38.4506 38.4383 38.3805 38.4383Z" fill="#DFEAEF"/>
<path d="M40.6194 36.1995H39.2175C39.1475 36.1995 39.0803 36.1717 39.0308 36.1221C38.9813 36.0726 38.9535 36.0055 38.9535 35.9355C38.9535 35.8654 38.9813 35.7983 39.0308 35.7488C39.0803 35.6992 39.1475 35.6714 39.2175 35.6714H40.6194C40.6894 35.6714 40.7566 35.6992 40.8061 35.7488C40.8556 35.7983 40.8834 35.8654 40.8834 35.9355C40.8834 36.0055 40.8556 36.0726 40.8061 36.1221C40.7566 36.1717 40.6894 36.1995 40.6194 36.1995Z" fill="#DFEAEF"/>
<path d="M37.5436 36.1995H36.1417C36.0717 36.1995 36.0045 36.1717 35.955 36.1221C35.9055 36.0726 35.8777 36.0055 35.8777 35.9355C35.8777 35.8654 35.9055 35.7983 35.955 35.7488C36.0045 35.6992 36.0717 35.6714 36.1417 35.6714H37.5436C37.6136 35.6714 37.6808 35.6992 37.7303 35.7488C37.7798 35.7983 37.8076 35.8654 37.8076 35.9355C37.8076 36.0055 37.7798 36.0726 37.7303 36.1221C37.6808 36.1717 37.6136 36.1995 37.5436 36.1995Z" fill="#DFEAEF"/>
</svg>
